<svg id="圖層_1" data-name="圖層 1" xmlns="http://www.w3.org/2000/svg" viewBox="0 0 163.57 23.01"><defs><style>.cls-1{fill:#fff;}</style></defs><path class="cls-1" d="M143.73,2.74a17.1,17.1,0,0,1,17.1,17.1c0,.15,0,.29,0,.44H2.76c0-.15,0-.29,0-.44A17.09,17.09,0,0,1,32.23,8.07,17.07,17.07,0,0,1,57,8.07a17.05,17.05,0,0,1,24.77,0,17.07,17.07,0,0,1,24.78,0,17.07,17.07,0,0,1,24.78,0,17,17,0,0,1,12.39-5.33m0-2.74a19.58,19.58,0,0,0-12.39,4.36,19.78,19.78,0,0,0-24.78,0,19.78,19.78,0,0,0-24.78,0A19.77,19.77,0,0,0,57,4.36a19.78,19.78,0,0,0-24.78,0A19.6,19.6,0,0,0,19.84,0,19.86,19.86,0,0,0,0,19.84c0,.15,0,.29,0,.43v.08A2.77,2.77,0,0,0,2.76,23H160.81a2.73,2.73,0,0,0,2.73-2.67v-.07c0-.14,0-.28,0-.43A19.86,19.86,0,0,0,143.73,0Z"/></svg>