<svg id="圖層_1" data-name="圖層 1" xmlns="http://www.w3.org/2000/svg" viewBox="0 0 504.4 504"><defs><style>.cls-1{fill:#fff;}.cls-2{fill:#0a0000;}</style></defs><rect class="cls-1" x="55.22" y="55.85" width="373.35" height="395.31"/><path class="cls-2" d="M195.2,184H140v44h51.6c9.2,0,17.2-2.4,17.2-23.6S195.2,184,195.2,184Z"/><path class="cls-2" d="M195.2,260H140v56h52c8,0,23.2-3.2,23.2-27.2C215.6,260.4,195.2,260,195.2,260Z"/><path class="cls-2" d="M377.6,0H126.4C56.8,0,0,56.8,0,126.4V378c0,69.2,56.8,126,126.4,126H378c69.6,0,126.4-56.8,126.4-126.4V126.4C504,56.8,447.2,0,377.6,0ZM296,160h84v20H296ZM256.8,291.6c0,62.4-61.6,64.4-61.6,64.4H96V148h98.8c30.8,0,55.2,17.6,55.2,54.4s-29.6,38.8-29.6,38.8C259.6,240.8,256.8,291.6,256.8,291.6ZM407.6,288H306.4c0,40,34.4,36.8,34.4,36.8,32.4,0,31.2-20.8,31.2-20.8h34.4c0,56-66.8,53.6-66.8,53.6-80,0-74.8-78.8-74.8-78.8s0-79.2,74.8-79.2C418.4,199.2,407.6,288,407.6,288Z"/><path class="cls-2" d="M340.4,228.4c-30,0-34.4,31.6-34.4,31.6h64S370.4,228.4,340.4,228.4Z"/></svg>