<svg id="圖層_1" data-name="圖層 1" xmlns="http://www.w3.org/2000/svg" viewBox="0 0 504 504"><defs><style>.cls-1{fill:#fff;}.cls-2{fill:#0a0000;}</style></defs><rect class="cls-1" x="55.22" y="55.85" width="373.35" height="395.31"/><path class="cls-2" d="M377.6,0H126C56.8,0,0,56.8,0,126.4V378c0,69.2,56.8,126,126,126H377.6C447.2,504,504,447.2,504,377.6V126.4C504,56.8,447.2,0,377.6,0Zm-58,252H272V408H212V252H180V188h28V160.8c0-25.6,12.8-66,66.8-66H324V148H289.2c-5.6,0-13.2,3.6-13.2,16v24h49.2Z"/></svg>