<svg id="圖層_1" data-name="圖層 1" xmlns="http://www.w3.org/2000/svg" viewBox="0 0 416.15 475.55"><defs><style>.cls-1{fill:#fff;}</style></defs><polygon class="cls-1" points="212.3 23.93 163.59 0 83.34 11.54 66.45 54.34 26.44 47.02 0 153.45 37.17 190.62 0 239.04 0 364.06 41.67 396.72 13.52 438.39 67.57 475.55 113.75 451.9 149.79 475.55 248.9 475.55 308.03 445.15 357.86 475.55 399.25 462.6 416.14 412.77 388.27 370.53 416.14 327.45 416.14 185.55 376.44 136.56 416.14 103.61 416.14 36.88 378.13 12.39 341.81 34.35 324.36 10.42 246.65 5.35 212.3 23.93"/></svg>