<svg id="圖層_1" data-name="圖層 1" xmlns="http://www.w3.org/2000/svg" xmlns:xlink="http://www.w3.org/1999/xlink" viewBox="0 0 592.96 476.72"><defs><style>.cls-1,.cls-10,.cls-11,.cls-15,.cls-2,.cls-3,.cls-4,.cls-5,.cls-6,.cls-7,.cls-8,.cls-9{fill:none;}.cls-10,.cls-11,.cls-13,.cls-14,.cls-15,.cls-2,.cls-3,.cls-4,.cls-5,.cls-6,.cls-7,.cls-8,.cls-9{stroke:#211815;}.cls-10,.cls-11,.cls-15,.cls-2,.cls-3,.cls-4,.cls-5,.cls-6,.cls-7,.cls-8,.cls-9{stroke-linecap:round;}.cls-2{stroke-width:3.5px;}.cls-10,.cls-11,.cls-2,.cls-3,.cls-4,.cls-5,.cls-6,.cls-7,.cls-8,.cls-9{stroke-dasharray:0 6.5;}.cls-3{stroke-width:3.25px;}.cls-13,.cls-14,.cls-4{stroke-width:3px;}.cls-5{stroke-width:2.75px;}.cls-6{stroke-width:2.5px;}.cls-7{stroke-width:2.25px;}.cls-8{stroke-width:2px;}.cls-9{stroke-width:1.75px;}.cls-10{stroke-width:1.5px;}.cls-11{stroke-width:1.25px;}.cls-12{fill:#fff;}.cls-13,.cls-14{stroke-miterlimit:10;}.cls-13{fill:url(#起伏的細點);}.cls-14{fill:url(#起伏的細點-3);}.cls-15{stroke-linejoin:round;stroke-width:17px;}</style><pattern id="起伏的細點" data-name="起伏的細點" width="83" height="65" patternTransform="translate(147.49 176.31)" patternUnits="userSpaceOnUse" viewBox="0 0 83 65"><rect class="cls-1" width="83" height="65"/><line class="cls-2" x1="83" y1="65" x2="83" y2="130.5"/><line class="cls-2" y1="65" y2="130.5"/><line class="cls-3" x1="4.61" y1="61.75" x2="4.61" y2="130.5"/><line class="cls-4" x1="9.22" y1="65" x2="9.22" y2="130.5"/><line class="cls-5" x1="13.83" y1="61.75" x2="13.83" y2="130.5"/><line class="cls-6" x1="18.45" y1="65" x2="18.45" y2="130.5"/><line class="cls-7" x1="23.06" y1="61.75" x2="23.06" y2="130.5"/><line class="cls-8" x1="27.67" y1="65" x2="27.67" y2="130.5"/><line class="cls-9" x1="32.28" y1="61.75" x2="32.28" y2="130.5"/><line class="cls-10" x1="36.89" y1="65" x2="36.89" y2="130.5"/><line class="cls-11" x1="41.5" y1="61.75" x2="41.5" y2="130.5"/><line class="cls-2" x1="83" y1="65" x2="83" y2="130.5"/><line class="cls-3" x1="78.39" y1="61.75" x2="78.39" y2="130.5"/><line class="cls-4" x1="73.78" y1="65" x2="73.78" y2="130.5"/><line class="cls-5" x1="69.17" y1="61.75" x2="69.17" y2="130.5"/><line class="cls-6" x1="64.55" y1="65" x2="64.55" y2="130.5"/><line class="cls-7" x1="59.94" y1="61.75" x2="59.94" y2="130.5"/><line class="cls-8" x1="55.33" y1="65" x2="55.33" y2="130.5"/><line class="cls-9" x1="50.72" y1="61.75" x2="50.72" y2="130.5"/><line class="cls-10" x1="46.11" y1="65" x2="46.11" y2="130.5"/><line class="cls-2" y1="65" y2="130.5"/><line class="cls-2" x1="83" x2="83" y2="65.5"/><line class="cls-2" y2="65.5"/><line class="cls-3" x1="4.61" y1="-3.25" x2="4.61" y2="65.5"/><line class="cls-4" x1="9.22" x2="9.22" y2="65.5"/><line class="cls-5" x1="13.83" y1="-3.25" x2="13.83" y2="65.5"/><line class="cls-6" x1="18.45" x2="18.45" y2="65.5"/><line class="cls-7" x1="23.06" y1="-3.25" x2="23.06" y2="65.5"/><line class="cls-8" x1="27.67" x2="27.67" y2="65.5"/><line class="cls-9" x1="32.28" y1="-3.25" x2="32.28" y2="65.5"/><line class="cls-10" x1="36.89" x2="36.89" y2="65.5"/><line class="cls-11" x1="41.5" y1="-3.25" x2="41.5" y2="65.5"/><line class="cls-2" x1="83" x2="83" y2="65.5"/><line class="cls-3" x1="78.39" y1="-3.25" x2="78.39" y2="65.5"/><line class="cls-4" x1="73.78" x2="73.78" y2="65.5"/><line class="cls-5" x1="69.17" y1="-3.25" x2="69.17" y2="65.5"/><line class="cls-6" x1="64.55" x2="64.55" y2="65.5"/><line class="cls-7" x1="59.94" y1="-3.25" x2="59.94" y2="65.5"/><line class="cls-8" x1="55.33" x2="55.33" y2="65.5"/><line class="cls-9" x1="50.72" y1="-3.25" x2="50.72" y2="65.5"/><line class="cls-10" x1="46.11" x2="46.11" y2="65.5"/><line class="cls-2" y2="65.5"/><line class="cls-2" x1="83" y1="-65" x2="83" y2="0.5"/><line class="cls-2" y1="-65" y2="0.5"/><line class="cls-3" x1="4.61" y1="-68.25" x2="4.61" y2="0.5"/><line class="cls-4" x1="9.22" y1="-65" x2="9.22" y2="0.5"/><line class="cls-5" x1="13.83" y1="-68.25" x2="13.83" y2="0.5"/><line class="cls-6" x1="18.45" y1="-65" x2="18.45" y2="0.5"/><line class="cls-7" x1="23.06" y1="-68.25" x2="23.06" y2="0.5"/><line class="cls-8" x1="27.67" y1="-65" x2="27.67" y2="0.5"/><line class="cls-9" x1="32.28" y1="-68.25" x2="32.28" y2="0.5"/><line class="cls-10" x1="36.89" y1="-65" x2="36.89" y2="0.5"/><line class="cls-11" x1="41.5" y1="-68.25" x2="41.5" y2="0.5"/><line class="cls-2" x1="83" y1="-65" x2="83" y2="0.5"/><line class="cls-3" x1="78.39" y1="-68.25" x2="78.39" y2="0.5"/><line class="cls-4" x1="73.78" y1="-65" x2="73.78" y2="0.5"/><line class="cls-5" x1="69.17" y1="-68.25" x2="69.17" y2="0.5"/><line class="cls-6" x1="64.55" y1="-65" x2="64.55" y2="0.5"/><line class="cls-7" x1="59.94" y1="-68.25" x2="59.94" y2="0.5"/><line class="cls-8" x1="55.33" y1="-65" x2="55.33" y2="0.5"/><line class="cls-9" x1="50.72" y1="-68.25" x2="50.72" y2="0.5"/><line class="cls-10" x1="46.11" y1="-65" x2="46.11" y2="0.5"/><line class="cls-2" y1="-65" y2="0.5"/></pattern><pattern id="起伏的細點-3" data-name="起伏的細點" width="83" height="65" patternTransform="translate(174.54 65.67)" patternUnits="userSpaceOnUse" viewBox="0 0 83 65"><rect class="cls-1" width="83" height="65"/><line class="cls-2" x1="83" y1="65" x2="83" y2="130.5"/><line class="cls-2" y1="65" y2="130.5"/><line class="cls-3" x1="4.61" y1="61.75" x2="4.61" y2="130.5"/><line class="cls-4" x1="9.22" y1="65" x2="9.22" y2="130.5"/><line class="cls-5" x1="13.83" y1="61.75" x2="13.83" y2="130.5"/><line class="cls-6" x1="18.45" y1="65" x2="18.45" y2="130.5"/><line class="cls-7" x1="23.06" y1="61.75" x2="23.06" y2="130.5"/><line class="cls-8" x1="27.67" y1="65" x2="27.67" y2="130.5"/><line class="cls-9" x1="32.28" y1="61.75" x2="32.28" y2="130.5"/><line class="cls-10" x1="36.89" y1="65" x2="36.89" y2="130.5"/><line class="cls-11" x1="41.5" y1="61.75" x2="41.5" y2="130.5"/><line class="cls-2" x1="83" y1="65" x2="83" y2="130.5"/><line class="cls-3" x1="78.39" y1="61.75" x2="78.39" y2="130.5"/><line class="cls-4" x1="73.78" y1="65" x2="73.78" y2="130.5"/><line class="cls-5" x1="69.17" y1="61.75" x2="69.17" y2="130.5"/><line class="cls-6" x1="64.55" y1="65" x2="64.55" y2="130.5"/><line class="cls-7" x1="59.94" y1="61.75" x2="59.94" y2="130.5"/><line class="cls-8" x1="55.33" y1="65" x2="55.33" y2="130.5"/><line class="cls-9" x1="50.72" y1="61.75" x2="50.72" y2="130.5"/><line class="cls-10" x1="46.11" y1="65" x2="46.11" y2="130.5"/><line class="cls-2" y1="65" y2="130.5"/><line class="cls-2" x1="83" x2="83" y2="65.5"/><line class="cls-2" y2="65.5"/><line class="cls-3" x1="4.61" y1="-3.25" x2="4.61" y2="65.5"/><line class="cls-4" x1="9.22" x2="9.22" y2="65.5"/><line class="cls-5" x1="13.83" y1="-3.25" x2="13.83" y2="65.5"/><line class="cls-6" x1="18.45" x2="18.45" y2="65.5"/><line class="cls-7" x1="23.06" y1="-3.25" x2="23.06" y2="65.5"/><line class="cls-8" x1="27.67" x2="27.67" y2="65.5"/><line class="cls-9" x1="32.28" y1="-3.25" x2="32.28" y2="65.5"/><line class="cls-10" x1="36.89" x2="36.89" y2="65.5"/><line class="cls-11" x1="41.5" y1="-3.25" x2="41.5" y2="65.5"/><line class="cls-2" x1="83" x2="83" y2="65.5"/><line class="cls-3" x1="78.39" y1="-3.25" x2="78.39" y2="65.5"/><line class="cls-4" x1="73.78" x2="73.78" y2="65.5"/><line class="cls-5" x1="69.17" y1="-3.25" x2="69.17" y2="65.5"/><line class="cls-6" x1="64.55" x2="64.55" y2="65.5"/><line class="cls-7" x1="59.94" y1="-3.25" x2="59.94" y2="65.5"/><line class="cls-8" x1="55.33" x2="55.33" y2="65.5"/><line class="cls-9" x1="50.72" y1="-3.25" x2="50.72" y2="65.5"/><line class="cls-10" x1="46.11" x2="46.11" y2="65.5"/><line class="cls-2" y2="65.5"/><line class="cls-2" x1="83" y1="-65" x2="83" y2="0.5"/><line class="cls-2" y1="-65" y2="0.5"/><line class="cls-3" x1="4.61" y1="-68.25" x2="4.61" y2="0.5"/><line class="cls-4" x1="9.22" y1="-65" x2="9.22" y2="0.5"/><line class="cls-5" x1="13.83" y1="-68.25" x2="13.83" y2="0.5"/><line class="cls-6" x1="18.45" y1="-65" x2="18.45" y2="0.5"/><line class="cls-7" x1="23.06" y1="-68.25" x2="23.06" y2="0.5"/><line class="cls-8" x1="27.67" y1="-65" x2="27.67" y2="0.5"/><line class="cls-9" x1="32.28" y1="-68.25" x2="32.28" y2="0.5"/><line class="cls-10" x1="36.89" y1="-65" x2="36.89" y2="0.5"/><line class="cls-11" x1="41.5" y1="-68.25" x2="41.5" y2="0.5"/><line class="cls-2" x1="83" y1="-65" x2="83" y2="0.5"/><line class="cls-3" x1="78.39" y1="-68.25" x2="78.39" y2="0.5"/><line class="cls-4" x1="73.78" y1="-65" x2="73.78" y2="0.5"/><line class="cls-5" x1="69.17" y1="-68.25" x2="69.17" y2="0.5"/><line class="cls-6" x1="64.55" y1="-65" x2="64.55" y2="0.5"/><line class="cls-7" x1="59.94" y1="-68.25" x2="59.94" y2="0.5"/><line class="cls-8" x1="55.33" y1="-65" x2="55.33" y2="0.5"/><line class="cls-9" x1="50.72" y1="-68.25" x2="50.72" y2="0.5"/><line class="cls-10" x1="46.11" y1="-65" x2="46.11" y2="0.5"/><line class="cls-2" y1="-65" y2="0.5"/></pattern></defs><polygon class="cls-12" points="61.51 30.13 32.1 30.13 0 107.84 43.92 153.45 0 188.93 0 352.79 30.75 396.72 13.52 440.64 61.51 475.55 137.4 459.79 179.63 476.71 254.53 476.71 299.32 456.26 376.03 476.71 446.79 472.05 479.78 449.93 517.66 467.37 564.25 464.29 592.97 425.44 562.56 381.51 592.97 339.28 592.97 163.59 565.93 126.42 592.97 70.67 559.18 8.16 439.23 8.16 395.31 21.68 319.29 0 116.57 0 61.51 30.13"/><path class="cls-13" d="M538.42,369.92c-8.32,2.46-12.31,6.45-14.77,14.76a3.51,3.51,0,0,1-6.72,0c-2.46-8.31-6.44-12.3-14.76-14.76a3.51,3.51,0,0,1,0-6.72c8.32-2.46,12.3-6.45,14.76-14.76a3.51,3.51,0,0,1,6.72,0c2.46,8.31,6.45,12.3,14.77,14.76A3.52,3.52,0,0,1,538.42,369.92Z"/><circle class="cls-14" cx="72.51" cy="87.57" r="7.52"/><path class="cls-15" d="M432.12,412.85s7.05-41,48.81-39.8"/><path class="cls-15" d="M80,58.2s19.3-.81,23.73,20.61"/><path d="M102.76,152.69c3.21-3.05,5.36-5.48,5.36-7.42,0-1.23-.66-1.89-1.67-1.89a3,3,0,0,0-2.17,1.3L102.61,143a5.26,5.26,0,0,1,4.25-2.07,4,4,0,0,1,4.2,4.21c0,2.3-1.89,4.84-3.85,6.91a17.2,17.2,0,0,1,2.08-.18h2.36v2.7h-8.89Z"/><path d="M114.61,147.75c0-4.6,1.82-6.87,4.52-6.87s4.55,2.3,4.55,6.87-1.84,7-4.55,7S114.61,152.36,114.61,147.75Zm6.18,0c0-3.65-.74-4.41-1.66-4.41s-1.63.76-1.63,4.41.72,4.54,1.63,4.54S120.79,151.43,120.79,147.75Z"/><path d="M126.48,152.69c3.21-3.05,5.36-5.48,5.36-7.42,0-1.23-.66-1.89-1.67-1.89a3,3,0,0,0-2.17,1.3L126.33,143a5.26,5.26,0,0,1,4.25-2.07,4,4,0,0,1,4.2,4.21c0,2.3-1.89,4.84-3.85,6.91a17.2,17.2,0,0,1,2.08-.18h2.36v2.7h-8.89Z"/><path d="M138.33,147.75c0-4.6,1.82-6.87,4.52-6.87s4.55,2.3,4.55,6.87-1.84,7-4.55,7S138.33,152.36,138.33,147.75Zm6.18,0c0-3.65-.74-4.41-1.66-4.41s-1.63.76-1.63,4.41.72,4.54,1.63,4.54S144.51,151.43,144.51,147.75Z"/><path d="M166.07,152.54h-5.71v3.69h-2.58v-3.69H150.1V150h2.67V146c-.21.25-.41.51-.62.72A17.36,17.36,0,0,0,150,145a13.52,13.52,0,0,0,3.47-5.92l2.57.68c-.14.42-.29.85-.47,1.26h9.49v2.52h-4.7v1.84h4.29v2.43h-4.29V150h5.71Zm-11.7-9a18.74,18.74,0,0,1-1.15,1.84h4.56v-1.84Zm3.41,6.5v-2.23h-2.5V150Z"/><path d="M177.85,151.9v.61h5v2.09h-5v1.54h-2.51V154.6h-4.81v-2.09h4.81v-.61h-6.56v-2.09h2.56v-.54h-1.93v-2.06h1.93v-1h2.29v1h1.71v-1h2.51v1h1.77v-1h2.32v1h1.35v2.06h-1.35v.54h2.66v2.09Zm5.42-5.89H170.1v-6.12h13.17Zm-10.76-3.86h2.83v-.57h-2.83Zm0,2.16h2.83v-.57h-2.83Zm2.83,5.5v-.54h-1.71v.54Zm5.38-8.23h-2.89v.57h2.89Zm0,2.16h-2.89v.57h2.89Zm-2.87,5.53v.54h1.77v-.54Z"/><path d="M193.84,153.46a12.17,12.17,0,0,1-4.87,2.45,11.66,11.66,0,0,0-1.46-1.87,13.25,13.25,0,0,0,4.57-1.41Zm9.23-3.37v2.13h-6.58v4H194v-4h-6.45v-2.13H194v-.48h-4.87v-1.86H194v-.5H188.3v-2h2.87a11.62,11.62,0,0,0-.5-1.06l1.19-.28h-4.27v-2h2.1a19.2,19.2,0,0,0-.93-2l2.15-.75a13.9,13.9,0,0,1,1.23,2.48l-.78.29h1.24v-2.81h2.32v2.81h.83v-2.81h2.36v2.81h1.13l-.51-.16a14.72,14.72,0,0,0,1-2.54l2.64.63c-.45.77-.88,1.49-1.26,2.07H203v2h-4.59l1.89.49c-.31.33-.62.61-.89.85h2.91v2h-5.84v.5h5.06v1.86h-5.06v.48ZM193.2,144a8.37,8.37,0,0,1,.57,1.1l-1,.24h4.61l-.65-.2a10.37,10.37,0,0,0,.77-1.14Zm5.53,8.56c1.27.56,3.22,1.46,4.28,2.05l-1.82,1.35c-.93-.58-2.84-1.57-4.18-2.21Z"/><path d="M219.09,139.72q-.21.74-.45,1.41a11.06,11.06,0,0,0,3.69,4.18,9.31,9.31,0,0,0-1.74,2.05,12.46,12.46,0,0,1-3.06-3.78,13,13,0,0,1-3.36,3.92,9,9,0,0,0-1-1.42c0,.23,0,.61,0,.81-.05,5.31-.12,7.4-.55,8.05a1.79,1.79,0,0,1-1.22.88,7.72,7.72,0,0,1-1.85.11,6.59,6.59,0,0,0-.61-2.34c.46,0,.84,0,1.1,0a.53.53,0,0,0,.5-.29c.17-.32.24-1.6.27-5.07h-1.2c-.23,3.25-.8,6-2.26,7.95a7.47,7.47,0,0,0-1.77-2c1.6-2.27,1.7-5.64,1.74-10h-1.16v-2.39h2.81a12.81,12.81,0,0,0-.93-1.95l2.22-.88a10.38,10.38,0,0,1,1.24,2.4l-1,.43h3.08v2.39h-3.79q0,.87,0,1.68H213c-.17-.18-.34-.36-.51-.51a10.89,10.89,0,0,0,4.32-6.37Zm-3.35,11a35.55,35.55,0,0,1,5.07,3.31l-1.74,2.23a31.47,31.47,0,0,0-4.94-3.6Zm2.54-.26a21.44,21.44,0,0,0-2.94-2.7l1.6-1.67A20.47,20.47,0,0,1,220,148.6Z"/><path d="M234.33,146.51a11.14,11.14,0,0,0,6.28,7.17,11,11,0,0,0-1.86,2.48,12.66,12.66,0,0,1-6.25-7,12.21,12.21,0,0,1-6.19,7,8.24,8.24,0,0,0-1.9-2.23,10.3,10.3,0,0,0,6-7.42h-5.69v-2.72h6.11c.12-1.58.1-3.17.12-4.66h2.75c0,1.49,0,3.08-.17,4.66h6.61v2.72Z"/><path d="M258.51,153.34c0,1.27-.22,2-1,2.41a6.42,6.42,0,0,1-3.17.5,9.1,9.1,0,0,0-.83-2.59c.81.05,1.81.05,2.1.05s.4-.12.4-.41V142.41H246v13.82H243.6V139.94h14.91Zm-3.24-7.82h-8.53v-2.18h8.53Zm-5.47,7.33V154h-2.29V146.6h7.09v6.25Zm0-4.12v2h2.5v-2Z"/><path d="M271.51,146.51a11.17,11.17,0,0,0,6.28,7.17,11.33,11.33,0,0,0-1.86,2.48,12.66,12.66,0,0,1-6.25-7,12.21,12.21,0,0,1-6.19,7,8.24,8.24,0,0,0-1.9-2.23,10.28,10.28,0,0,0,6-7.42h-5.69v-2.72h6.11c.12-1.58.1-3.17.12-4.66h2.75c0,1.49,0,3.08-.17,4.66h6.61v2.72Z"/><path d="M296.05,153.07h-6.4v.82c0,1.12-.22,1.68-1,2a8.8,8.8,0,0,1-3.05.32,8.91,8.91,0,0,0-.77-2.19c.7,0,1.77,0,2,0s.36,0,.36-.27v-.73h-6.87V151h6.87v-.34a14.51,14.51,0,0,0,1.46-.88h-4.89V148h7.18l.52-.13,1.39,1.35a28.91,28.91,0,0,1-2.74,1.8h5.94Zm-13.11-3.5h-2.36v-3.94h1.24l-.29-5.38a26.44,26.44,0,0,0,3.58-1.07l1,1.48a16.82,16.82,0,0,1-2.2.67l0,.34H286v1.56h-2l0,.42H286v.72a8.68,8.68,0,0,0,.95-.51c-.28-.17-.57-.36-.83-.5l1.14-1,.93.54a4.24,4.24,0,0,0,.6-.69l1.59.51a7.06,7.06,0,0,1-.87,1,8.11,8.11,0,0,1,.93.76l-1.2,1.08a8.8,8.8,0,0,0-.9-.79,11.56,11.56,0,0,1-1.18.79h5.13l.05-.41h-1.78v-1.57h1.92v-.42h-1.84v-1.56h1.95v-.42h-2.08v-1.58H295c-.09,1.94-.23,4.23-.38,6h1.25v3.94h-2.47v-2.09h-10.5Zm1.2-3.94h2.62c-.21-.23-.52-.58-.78-.83v.42h-1.87Zm5-3.31a7.87,7.87,0,0,0-.76-.65,10.1,10.1,0,0,1-1.26.79,9.37,9.37,0,0,0-1.27-1.13,9,9,0,0,0,1.19-.62l-.8-.46,1.11-1c.29.15.6.33.91.51a5.7,5.7,0,0,0,.53-.6l1.57.49a8.65,8.65,0,0,1-.79.95l.74.61Z"/><path d="M303.68,155.08a18.11,18.11,0,0,0-1.33-1.78A12.25,12.25,0,0,1,300,156a8.15,8.15,0,0,0-1.55-1.61,10.41,10.41,0,0,0,2.39-2.9c-.72-.82-1.44-1.63-2.06-2.35.26-1.1.51-2.49.74-4l-.74.05-.23-2.34,1.26,0c.14-1.23.24-2.45.29-3.59l2.12.09c-.07,1.08-.17,2.24-.33,3.39l.61,0v-1h2v.93l.6,0v2.23l-.62,0a18.77,18.77,0,0,1-1.12,6.23,19.18,19.18,0,0,1,1.69,2Zm-1.86-5.74a17.27,17.27,0,0,0,.69-4.34l-.9.05c-.17,1.23-.38,2.4-.56,3.46Zm6.76,2.72a11.3,11.3,0,0,1-2.37,3.87,10.33,10.33,0,0,0-1.6-1.77,7.87,7.87,0,0,0,2.22-2.75Zm2.53-.85v5h-2.42v-5h-3.81V149h3.81v-.83h-2.46v-5.11h-1v-2.18h1v-1.78h2.25v1.78H311v-1.78h2.37v1.78h1.22v2.18h-1.22v5.11h-2.24V149h3.55v2.18Zm-2.63-8.12v.58H311v-.58Zm0,3H311v-.59h-2.5Zm4.6,5.3c.67,1.08,1.56,2.54,2,3.45l-1.91.89a32.76,32.76,0,0,0-1.86-3.57Z"/><path d="M323.84,147.83v6.28c0,.88-.12,1.4-.66,1.73a4,4,0,0,1-2,.34,7.63,7.63,0,0,0-.57-1.91c.4,0,.86,0,1,0s.2,0,.2-.22v-1.2l-1.3.9-.42-1a8.24,8.24,0,0,1-1,3.51,9.75,9.75,0,0,0-1.74-1.23,9,9,0,0,0,.86-4.57v-2.66h-.84v-3H318v-5.22h5.91v5.22h.7v2h8.87v1.81h-8.92v-.82Zm-1.09-1.25H319.1v.49h3.65Zm-2.86-1.71h.42V142h1.56v-.49h-2Zm.3,5.66c0,.45,0,.91,0,1.42.48-.2,1.05-.45,1.65-.74v-.65l-.63.76c-.23-.24-.6-.59-1-.92Zm1.61-1.8h-1.61v.81l.51-.56c.36.25.78.54,1.1.81Zm.07-3.86v-1.51h-.36v1.51Zm11.72,9.28V156h-9.22v-1.85h1.79c-.12-.38-.26-.78-.38-1.1l1-.31h-1.63v-3.65h7.73v3.65H331l1.27.36c-.24.36-.48.72-.69,1.05Zm-.39-7.78h-8.45v-6h2v-1.24h1.91v1.24h.45v-1.24H331v1.24h2.19Zm-6.64-3.77h.63v-.55h-.63Zm0,2.11h.63v-.57h-.63Zm.7,6.52h3.27v-.61h-3.27Zm.5,1.51a11.21,11.21,0,0,1,.52,1.41h1.2a12.59,12.59,0,0,0,.5-1.41Zm1.45-10.14v-.55h-.56v.55Zm-.56,1.54v.57h.56v-.57Zm2.66-2.09h-.64v.55h.64Zm0,2.09h-.64v.57h.64Z"/><path d="M342.8,144.12H336v-2h2.64c-.26-.66-.64-1.46-1-2.09l1.93-1a16.77,16.77,0,0,1,1.24,2.47l-1,.57h3Zm-.7.56a3.07,3.07,0,0,0,1.72-3.08v-1.93H350v3.82c0,.52,0,.75.23.75h.49a2.93,2.93,0,0,0,.9-.14c0,.65.09,1.55.15,2.14a2.17,2.17,0,0,1-1,.16H350c-1.9,0-2.26-.9-2.26-3v-1.37h-1.6a5.18,5.18,0,0,1-2.73,4.7,11.2,11.2,0,0,0-1.26-1.56v1.38h-5.41v-1.94h5.41Zm0,4.41h-5.46v-2h5.46Zm9.43-1.64a12,12,0,0,1-2.56,5.26,12.92,12.92,0,0,0,3.27,1,10.65,10.65,0,0,0-1.53,2.4,12.25,12.25,0,0,1-3.84-1.62,14,14,0,0,1-3.89,1.67,11.69,11.69,0,0,0-.91-1.91v1h-3.29V156h-2.1v-6.32h5.39v4.11a12.08,12.08,0,0,0,2.77-1,13.74,13.74,0,0,1-2.05-3l1.38-.51h-1.74v-2.43h7.12l.43-.09ZM340,151.73h-1.15v1.48H340Zm5.13-2.43a7.58,7.58,0,0,0,1.77,2.07,8,8,0,0,0,1.54-2.07Z"/><path d="M362.26,144.12h-7.37v-2h2.79c-.26-.66-.64-1.46-1-2.09l1.93-1a16.77,16.77,0,0,1,1.24,2.47l-1,.57h3.41Zm-6.63,2.48v-1.94h5.9v1.94Zm5.87,2.49h-5.87v-2h5.87Zm.07,6.19h-3.81V156h-2.1v-6.32h5.91Zm-3.81-3.55v1.48h1.67v-1.48Zm12.86-4.16h-3v8.66H365v-8.66h-2.82V145H365v-5.55h2.62V145h3Z"/><path d="M389,153.07h-6.4v.82c0,1.12-.22,1.68-1,2a8.8,8.8,0,0,1-3.05.32,8.91,8.91,0,0,0-.77-2.19c.7,0,1.77,0,2,0s.36,0,.36-.27v-.73h-6.87V151h6.87v-.34a13.47,13.47,0,0,0,1.46-.88h-4.88V148h7.17l.52-.13,1.39,1.35a30,30,0,0,1-2.73,1.8H389Zm-13.11-3.5h-2.36v-3.94h1.24l-.29-5.38a26.44,26.44,0,0,0,3.58-1.07l1,1.48a17.46,17.46,0,0,1-2.21.67l0,.34h2.05v1.56h-2l0,.42h1.95v.72a9.56,9.56,0,0,0,.94-.51c-.27-.17-.57-.36-.82-.5l1.13-1,.93.54a4.24,4.24,0,0,0,.6-.69l1.59.51a7,7,0,0,1-.86,1,9.09,9.09,0,0,1,.93.76l-1.21,1.08a9.75,9.75,0,0,0-.89-.79,12.89,12.89,0,0,1-1.19.79h5.13l0-.41H383.5v-1.57h1.91v-.42h-1.84v-1.56h1.95l0-.42h-2.09v-1.58H388c-.09,1.94-.22,4.23-.38,6h1.26v3.94h-2.48v-2.09h-10.5Zm1.2-3.94h2.62c-.21-.23-.52-.58-.77-.83v.42h-1.88Zm5-3.31a7.87,7.87,0,0,0-.76-.65,10.1,10.1,0,0,1-1.26.79,9.37,9.37,0,0,0-1.27-1.13,9,9,0,0,0,1.19-.62l-.79-.46,1.1-1c.29.15.6.33.91.51a4.75,4.75,0,0,0,.53-.6l1.57.49a7.65,7.65,0,0,1-.79.95l.74.61Z"/><path d="M401.07,150.42v3.13c0,1.23-.22,1.89-1.1,2.29a7.8,7.8,0,0,1-3.15.41,9.84,9.84,0,0,0-.91-2.55c.81.05,1.93.05,2.24.05s.37-.07.37-.27v-2.84c-1.6.16-2.63.26-3.35.35l2.29.87a19.14,19.14,0,0,1-3.77,3.71,17.68,17.68,0,0,0-2.19-1.75,11,11,0,0,0,3.29-2.77,7.93,7.93,0,0,0-1.22.3,24,24,0,0,0-.73-2.35,7.46,7.46,0,0,0,2.41-.92,20.19,20.19,0,0,0,2.14-1.17,11.76,11.76,0,0,0-3.17.45c-.12-.49-.46-1.71-.72-2.38a4.69,4.69,0,0,0,1.5-.63,18.72,18.72,0,0,0,2.08-1.3c-1.4.22-2.81.4-4.15.54a8.78,8.78,0,0,0-.71-2.21A45.58,45.58,0,0,0,403.33,139l1.86,2.07a32.62,32.62,0,0,1-4.91,1.42l.79.54a24,24,0,0,1-2.53,1.75l2.24-.09c.62-.49,1.22-1,1.77-1.49l1.84,1.74a31.84,31.84,0,0,1-5.07,3.4l3.49-.25c-.29-.34-.57-.7-.83-1l2.07-1.09a40.41,40.41,0,0,1,3.3,4.12l-2.13,1.37c-.22-.38-.52-.83-.86-1.3Zm2.63.2a22.09,22.09,0,0,1,3.83,3.18l-2.24,1.55a22.49,22.49,0,0,0-3.65-3.35Z"/><path d="M414.1,144.69a3,3,0,1,1-2.87,3A2.94,2.94,0,0,1,414.1,144.69Zm0,4.5a1.49,1.49,0,1,0-1.43-1.49A1.46,1.46,0,0,0,414.1,149.19Z"/><path d="M117.45,169.81v6.53H103.93v-6.53h2.83a13.1,13.1,0,0,0-1.1-1.61l2.22-.86a13.61,13.61,0,0,1,1.46,2l-1.24.51h3.72a17.35,17.35,0,0,0,1.5-2.45l2.56.65c-.46.64-1,1.26-1.41,1.8Zm-12.31,7.29h11.24v7.47h-2.72v-.65h-5.92v.72h-2.6Zm1.26-2.7h1.2a9.65,9.65,0,0,0-1.12-1.91l1.26-.76H106.4Zm1.7-2.67a7.2,7.2,0,0,1,1.1,1.71l-1.5,1h1.73v-2.67Zm-.36,7.22v.63h5.92V179Zm5.92,3.05v-.71h-5.92V182Zm1.17-10.27h-1.5l1.48.74c-.5.74-1,1.44-1.39,1.93l-1.48-.78a15.69,15.69,0,0,0,1.12-1.89h-1.31v2.67h3.08Z"/><path d="M128.13,168.44A28.13,28.13,0,0,1,126.5,172v12.57H124v-8.73a17,17,0,0,1-1.14,1.31,19.18,19.18,0,0,0-1.44-2.81,18.4,18.4,0,0,0,4.2-6.75ZM134,177.6v3.93h3.87V184H127.69v-2.5h3.73V177.6h-4.2v-2.52h4.2v-3.49h-3.37v-2.47h9.53v2.47H134v3.49h4.27v2.52Z"/><path d="M146.24,170.44v14.17h-1.82v-3.06l-3,.59L141,180l.75-.11v-9.43h-.58v-2.33h5.5v2.33Zm-1.82,0h-.86V172h.86Zm0,3.67h-.86v1.53h.86Zm0,5.35v-1.71h-.86v1.85Zm13-3.24a16.77,16.77,0,0,1-2.25,4.61c.12.55.27.88.41.88s.31-.69.38-1.91a6.42,6.42,0,0,0,1.48,1.44c-.47,2.76-1.34,3.31-2,3.31-.79,0-1.38-.68-1.84-1.89a11.9,11.9,0,0,1-2.38,1.89,7.3,7.3,0,0,0-1.36-1.44,10.67,10.67,0,0,0,1-.64h-.8v-.4H149v1.33H147.1v-8h4.8v6.25a13.5,13.5,0,0,0,1.19-1.3,45.21,45.21,0,0,1-.57-5.38H146.6v-2.18h.57c-.07-.47-.16-1-.26-1.42l1.45-.25H147v-2h1.39c-.1-.43-.2-.9-.31-1.28l2-.34c.16.49.33,1.1.47,1.62H152v2h-1.58l1.36.19c-.16.53-.3,1.05-.42,1.48h1c-.07-1.62-.1-3.39-.12-5.26h2.1v1.59l1.51-.53a24,24,0,0,1,1.1,3.35l-1.84.71a24.82,24.82,0,0,0-.75-2.83c0,1,0,2,.06,3h2.83v2.18h-2.74c.05.93.12,1.8.19,2.59a14.66,14.66,0,0,0,.84-2.34Zm-8.88-5.13a14.18,14.18,0,0,1,.35,1.67h.77c.1-.54.21-1.19.26-1.67Zm.38,6v.79h1.14v-.79Zm1.14,3.3v-.81H149v.81Z"/><path d="M173.76,168.1c-.14.48-.29,1-.45,1.4a11.06,11.06,0,0,0,3.69,4.18,9.55,9.55,0,0,0-1.74,2,12.64,12.64,0,0,1-3.07-3.78,12.88,12.88,0,0,1-3.35,3.92,9,9,0,0,0-1-1.42c0,.24,0,.61,0,.81,0,5.31-.12,7.4-.55,8.05a1.75,1.75,0,0,1-1.22.88,7.72,7.72,0,0,1-1.85.11,6.4,6.4,0,0,0-.62-2.34c.47,0,.85.06,1.11.06a.54.54,0,0,0,.5-.29c.17-.33.24-1.61.27-5.08h-1.2c-.23,3.26-.8,6-2.26,8a7.36,7.36,0,0,0-1.77-2c1.6-2.27,1.7-5.64,1.74-10h-1.16v-2.4h2.81a12.28,12.28,0,0,0-.93-1.94l2.22-.89a10.38,10.38,0,0,1,1.24,2.4l-1.05.43h3.08v2.4h-3.79c0,.57,0,1.13,0,1.67h3.32a4.85,4.85,0,0,0-.52-.5,10.86,10.86,0,0,0,4.32-6.38Zm-3.36,11a35.12,35.12,0,0,1,5.08,3.31l-1.74,2.24A30.85,30.85,0,0,0,168.8,181Zm2.55-.25a20.24,20.24,0,0,0-2.94-2.7l1.6-1.68a21.1,21.1,0,0,1,3.06,2.52Z"/><path d="M187.62,182.9l-2.36-4.72h-1.48v4.72H180.7V169.5h4.7c2.73,0,5,1,5,4.21a4,4,0,0,1-2.2,3.88l2.86,5.31Zm-3.84-7.26h1.37c1.47,0,2.24-.66,2.24-1.93s-.77-1.67-2.24-1.67h-1.37Z"/><path d="M194,177.78c0-3.33,2.27-5.38,4.64-5.38,2.83,0,4.2,2.14,4.2,4.95a6.75,6.75,0,0,1-.13,1.37h-5.75a2.26,2.26,0,0,0,2.44,2,3.89,3.89,0,0,0,2.07-.65l1,1.93a6.18,6.18,0,0,1-3.51,1.17C196.13,183.15,194,181.17,194,177.78Zm6.24-1.15c0-1-.43-1.78-1.55-1.78-.84,0-1.58.56-1.79,1.78Z"/><path d="M206.68,176.56h4.87v2.25h-4.87Z"/><path d="M215.74,179.57V168.51h3v11.18c0,.67.31.87.55.87a1.28,1.28,0,0,0,.35,0l.36,2.36a4,4,0,0,1-1.52.27C216.42,183.15,215.74,181.71,215.74,179.57Z"/><path d="M223.1,180c0-2.16,1.62-3.33,5.44-3.76a1.28,1.28,0,0,0-1.48-1.31,5.17,5.17,0,0,0-2.57.9l-1.06-2.11a7.87,7.87,0,0,1,4.21-1.35c2.53,0,4,1.48,4,4.68v5.82h-2.49l-.23-1h-.07a4.06,4.06,0,0,1-2.8,1.28A2.9,2.9,0,0,1,223.1,180Zm5.44-.18v-1.63c-1.91.27-2.53.84-2.53,1.56s.41.88,1.05.88A1.89,1.89,0,0,0,228.54,179.85Z"/><path d="M238.74,181.8h-.07l-.24,1.1H236V168.51h3.05V172L239,173.5a3.73,3.73,0,0,1,2.53-1.1c2.34,0,3.84,2,3.84,5.19,0,3.54-2,5.56-4.12,5.56A3.43,3.43,0,0,1,238.74,181.8Zm3.5-4.14c0-1.8-.5-2.65-1.59-2.65a2.07,2.07,0,0,0-1.56.86v4.06a2.08,2.08,0,0,0,1.46.59C241.48,180.52,242.24,179.71,242.24,177.66Z"/><path d="M264.28,169a14.81,14.81,0,0,1-1.61,2.94,17.48,17.48,0,0,0,2.2.18,7.8,7.8,0,0,0-1.34,2.08,8.08,8.08,0,0,1-4.43-1.67c-.69.7-2,1.31-4.64,1.6h8.36v7.38h-2.06c1.41.6,2.87,1.28,3.78,1.77l-2.23,1.37a32.37,32.37,0,0,0-4.29-2.24l1.1-.9h-4.56l1.57.74a20.51,20.51,0,0,1-5.46,2.47,19.69,19.69,0,0,0-1.86-1.91,18.71,18.71,0,0,0,4.37-1.3h-2.11v-7.38h3a6.18,6.18,0,0,0-.61-1.08h-4.64v-2h5.35v1c2.88-.25,3.31-.84,3.31-1.38v-.33h-.62a8.71,8.71,0,0,1-1.16,1.39,13.21,13.21,0,0,0-1.84-1.31,6.61,6.61,0,0,0,2-3.1l2.17.52c-.07.22-.15.43-.24.65h4.37l.36-.11Zm-10.49,1.21h-4.58v-1.88h4.58Zm6.5,5.43h-6.82v.51h6.82ZM253.47,178h6.82v-.51h-6.82Zm0,1.94h6.82v-.52h-6.82Zm6.29-9.6v.38a5.3,5.3,0,0,0,2.63,1.1l-1.69-.67c.14-.23.31-.5.47-.81Z"/><path d="M274.46,172.49h-6.39v-2h2.55c-.24-.67-.59-1.46-.88-2.09l1.76-1a20.67,20.67,0,0,1,1.11,2.47l-.94.58h2.79Zm-5.7,2.49V173h5.11V175Zm0,.54h5.16v1.94h-5.16Zm5.16,8.13H270.7v.72h-1.91v-6.32h5.13Zm-3.22-3.54v1.47H272v-1.47Zm11.95-11.74c-.21,5.16-.16,13.27.27,13.46a10.25,10.25,0,0,0,.21-2.25,12.58,12.58,0,0,0,1.26,2.18c-.31,2.7-1.38,3.26-2.58,2.7-1.64-.77-1.67-7.18-1.66-13.61h-1.67v4.47h1.33v2.41h-1.33v6.88h-2.32v-6.88h-1.7v-2.41h1.7v-4.47h-1.45v-2.48Z"/><path d="M294.21,172.49h-6.85v-2H290a22,22,0,0,0-1-2.09l1.93-1a17.27,17.27,0,0,1,1.24,2.47l-1,.58h3Zm-.7.56a3.07,3.07,0,0,0,1.72-3.08V168h6.16v3.82c0,.52,0,.76.23.76h.49a2.93,2.93,0,0,0,.9-.15c0,.65.09,1.55.15,2.14a2.17,2.17,0,0,1-1,.17h-.77c-1.9,0-2.26-.9-2.26-3v-1.36h-1.6a5.16,5.16,0,0,1-2.74,4.69,10.91,10.91,0,0,0-1.25-1.56V175H288.1V173h5.41Zm.05,4.41H288.1v-1.94h5.46Zm9.43-1.64a11.9,11.9,0,0,1-2.56,5.26,12.92,12.92,0,0,0,3.27,1,10.65,10.65,0,0,0-1.53,2.4,12.25,12.25,0,0,1-3.84-1.62,13.41,13.41,0,0,1-3.89,1.67,11.24,11.24,0,0,0-.91-1.9v1h-3.29v.72h-2.1v-6.32h5.39v4.11a12.08,12.08,0,0,0,2.77-1,13.74,13.74,0,0,1-2.05-3l1.38-.5h-1.74v-2.44H301l.43-.09Zm-11.6,4.29h-1.15v1.47h1.15Zm5.13-2.43a7.89,7.89,0,0,0,1.77,2.07,8.15,8.15,0,0,0,1.54-2.07Z"/><path d="M314.37,172.49H307v-2h2.79c-.26-.67-.64-1.46-1-2.09l1.92-1a17.27,17.27,0,0,1,1.24,2.47l-1,.58h3.41ZM307.74,175V173h5.91V175Zm5.87,2.48h-5.87v-1.94h5.87Zm.07,6.19h-3.8v.72h-2.1v-6.32h5.9Zm-3.8-3.54v1.47h1.67v-1.47ZM322.73,176h-3v8.66H317.1V176h-2.82v-2.58h2.82v-5.54h2.62v5.54h3Z"/><path d="M334.56,182.68a9.49,9.49,0,0,0,1.86-1.82l1.91,1.24a11.07,11.07,0,0,1-2.93,2.54c-.22-.25-.57-.59-.89-.91H330.7v.72h-1.77V180l-.19.21c-.07-.14-.17-.36-.31-.59a20.47,20.47,0,0,1-1,4.71,7.68,7.68,0,0,0-1.86-1c1-2.74,1.1-6.72,1.1-9.44v-5.15h0a32.59,32.59,0,0,0,6.08-1l1.79,1.71a33.23,33.23,0,0,1-5.86,1v.35h5.62v4.47h-1.54c.16.36.33.78.45,1.15h1.19V178H333v.43h1.23v1.37H333v.43h1.23v1.41H333v.43h1.53Zm-5.87-7.4c0,.61,0,1.28-.07,1.95a9.05,9.05,0,0,0,.79-1.95Zm0-2.56v.65h3.41v-.65Zm3.65,2.56h-2.13l.93.27v0Zm-.91,2.72h-.74v.43h.74Zm0,1.8h-.74v.43h.74Zm-.74,2.27h.74v-.43h-.74Zm.69-5.64c-.09-.27-.17-.52-.28-.77-.08.27-.17.52-.25.77Zm5.66-5.24c0-.28.07-.57.09-.86h-2.43v-2.18h7.21v2.18H339.6l-.26.86h2.27v9.65H335v-9.65Zm2.46,1.93H337v.74h2.47Zm0,2.52H337v.76h2.47Zm0,2.54H337v.76h2.47Zm.73,2.72a15.89,15.89,0,0,1,2,2.3l-1.88,1.3a14.79,14.79,0,0,0-1.91-2.45Z"/><path d="M348.41,175.12v9.49h-2.48V168.15h6.85v7Zm0-5v.65h2v-.65Zm2,3v-.67h-2v.67Zm10.31,8.42c0,1.39-.26,2.11-1.05,2.54a7.91,7.91,0,0,1-3.56.49,9.94,9.94,0,0,0-.79-2.56h-3.22v1h-2.31v-6.89h6.84V182h1.11c.33,0,.45-.13.45-.45v-6.41h-4.49v-7h7Zm-6.43-3.31h-2.19v1.66h2.19Zm1.79-8.17v.66h2.11v-.66Zm2.11,3.09v-.7h-2.11v.7Z"/><path d="M371.65,168.8a30,30,0,0,1-5.22,8,20,20,0,0,0-2.24-2.27,19.16,19.16,0,0,0,4.63-6.74Zm4.83,8.12a56.39,56.39,0,0,1,3.81,6.32l-2.6,1.46c-.23-.52-.52-1.15-.88-1.82-8,.74-9.31.83-10.29,1.22a28.86,28.86,0,0,0-1-2.81,3.86,3.86,0,0,0,1.77-1.36,29.06,29.06,0,0,0,4.19-6.68l3,1.26a35.38,35.38,0,0,1-4.4,6.28l5.4-.4c-.48-.79-1-1.6-1.41-2.3Zm.3-9a11,11,0,0,0,4.37,6.13,14,14,0,0,0-1.9,2.7,16.07,16.07,0,0,1-4.4-6.12h-2.51v-2.71Z"/><path d="M399,181.47c0,1.41-.23,2.18-1,2.63a7,7,0,0,1-3.47.51,10.34,10.34,0,0,0-.8-2.83,21.71,21.71,0,0,0,2.29.05c.31,0,.43-.09.43-.41V171H384.54v-2.48H399Zm-4.19-7.23H384.73V172h10.08ZM388,181.55v1.29H385.5v-7.61h8.57v6.32Zm0-4.09v1.85h3.66v-1.85Z"/><path d="M406.88,176.67a1.78,1.78,0,0,1-1.84-1.8,1.8,1.8,0,0,1,1.91-1.8c1.36,0,2.08,1,2.08,2.7a4.67,4.67,0,0,1-3.65,4.52l-.64-1.73c1.33-.38,2.12-1.12,2.26-1.89Z"/><path d="M429.63,169.84v2.51h-9.16a20.93,20.93,0,0,1-2,3.51v8.73H416v-5.87a11.49,11.49,0,0,1-1.27,1,18.13,18.13,0,0,0-1.19-2.56,12.86,12.86,0,0,0,4.12-4.82h-3.5v-2.51h4.6a21.73,21.73,0,0,0,.7-2.36l2.62.65c-.17.58-.36,1.14-.55,1.71Zm-3.91,11.89h3.82v2.41H419.23v-2.41h4v-3.57h-3.3v-2.41h3.3V173h2.53v2.72h3.17v2.41h-3.17Z"/><path d="M448.61,168v16.64h-2.37v-.85H436v.85h-2.26V168Zm-2.37,13.85v-11.9H436v11.9ZM445,178.13H446v1.35h-2.08v.82c0,.8-.15,1.07-.69,1.21a8,8,0,0,1-2.15.16,6.06,6.06,0,0,0-.46-1.26c.36,0,.89,0,1.05,0s.22-.05.22-.22v-.73h-2.44a7.13,7.13,0,0,1,.87,1.29l-1.65.83a7.67,7.67,0,0,0-1-1.6l1.08-.52h-2.54v-1.35h5.66v-.35l-5.3.15-.07-1.33h3.58v-.41h-3.27v-3.71h3.27v-.43h-3.63v-1.35h3.63v-.54h2v.54h3.67v1.35h-3.67v.43h3.31v3.71h-.59a8.89,8.89,0,0,1,1.19,1.21Zm-6.38-4.27h1.41v-.4h-1.41Zm1.41,1.35v-.42h-1.41v.42Zm2-1.75v.4h1.35v-.4Zm0,1.33v.42h1.35v-.42Zm0,1.41v.41H443l0,0,.55-.38Zm1.81,1.93h.64c-.12-.15-.24-.29-.38-.44l-.26,0Z"/><path d="M458.65,169.14c-.42,1.59-.95,3.62-1.4,5a5.73,5.73,0,0,1,1.12,3.53c0,1.26-.24,2-.82,2.44a2.41,2.41,0,0,1-1,.42c-.29,0-.68.05-1.1.05a6.76,6.76,0,0,0-.27-1.62v5.66H453V168.28h3.7l.34-.09Zm-3.51,9.26h.36a.65.65,0,0,0,.45-.15c.17-.14.24-.43.24-.92a4.8,4.8,0,0,0-1-2.91c.26-1.07.57-2.6.79-3.82h-.84Zm13.44-3.82c-.59.38-1.24.77-1.88,1.11a15.88,15.88,0,0,0,2.38,4.69,9,9,0,0,0-1.59,1.67,20.21,20.21,0,0,1-2.27-4.61c.5,2.52.14,5-.69,5.91a2.5,2.5,0,0,1-2.23,1.08c-.4,0-.92,0-1.41,0a5.56,5.56,0,0,0-.61-2.3,14.18,14.18,0,0,0,1.59.09.82.82,0,0,0,.87-.56,3.4,3.4,0,0,0,.4-1.57,18.43,18.43,0,0,1-4,2.25,8.7,8.7,0,0,0-1.47-1.82,13.48,13.48,0,0,0,5.31-2.84c-.06-.23-.11-.47-.16-.7a20.64,20.64,0,0,1-3.08,2,8.47,8.47,0,0,0-1.31-1.82,12.36,12.36,0,0,0,3.68-2,4.78,4.78,0,0,0-.44-.72,19,19,0,0,1-2.53,1.47,14,14,0,0,0-1.41-1.83,14.63,14.63,0,0,0,3.13-1.59h-2.45v-2.23h2.38a11.2,11.2,0,0,0-1.43-1.57l1.83-1.17a9.43,9.43,0,0,1,2,2.15l-.83.59h1.33a14.52,14.52,0,0,0,1.42-2.7l2.4.7c-.43.72-.88,1.42-1.29,2h2.16v2.23H464a8.47,8.47,0,0,1-.67.67,8.16,8.16,0,0,1,1,1.58,19.83,19.83,0,0,0,2.74-1.89Z"/><path d="M487,170.58v9.36h-2.64v-.84H481v5.51h-2.65V179.1h-3.3V180h-2.52v-9.45h5.82V167.5H481v3.08Zm-8.61,5.94v-3.36h-3.3v3.36Zm6,0v-3.36H481v3.36Z"/><path d="M502.79,181.35c1.52.65,3.19,1.42,4.2,2l-2.87,1.3a29.71,29.71,0,0,0-4.11-2.2l1.6-1.06h-5.05l1.79.86a21.82,21.82,0,0,1-5.4,2.49,19.82,19.82,0,0,0-2-2,20.24,20.24,0,0,0,4.37-1.33h-2.12v-7.74a5.17,5.17,0,0,1-.53.39,8.74,8.74,0,0,0-1.82-1.87,12.2,12.2,0,0,0,4.49-4.63l2.7.56c-.1.18-.22.38-.34.56h2.7l.39-.11,1.74,1.17a19.28,19.28,0,0,1-1.34,2h3.94v9.69Zm-6.45-10.77a12,12,0,0,1-.93,1.08h2.81c.29-.34.55-.72.8-1.08Zm6.2,3.08h-6.82v.65h6.82Zm0,3.17v-.67h-6.82v.67Zm-6.82,1.85v.67h6.82v-.67Z"/><path d="M522.28,181.83c1.48.56,3,1.19,4,1.64l-3.06,1.14a27.26,27.26,0,0,0-4.19-2l1.47-.82h-4.2l1.29.62a21.59,21.59,0,0,1-5.44,2.23,14.5,14.5,0,0,0-1.81-1.87,22.28,22.28,0,0,0,4-1h-1.77v-7.14h11.79v7.14Zm3.87-7.59H510.49v-1.77h6.57V172h-4.78v-1.51h4.78v-.45h-5.57v-1.7h5.57v-.88h2.58v.88h5.87v1.7h-5.87v.45h5.05V172h-5.05v.43h6.51ZM515,176.63h6.82v-.5H515Zm0,1.87h6.82V178H515Zm0,1.89h6.82v-.52H515Z"/><path d="M113.44,208.75c1.86.61,4,1.42,5.28,2L117.55,213a64.75,64.75,0,0,0-6.85-2.81l.81-1.46H111c-.84,2.05-2.7,3.44-7.31,4.21a7.7,7.7,0,0,0-1.26-2.36c3-.39,4.63-1,5.47-1.85h-4.66v-2.2h5.64c0-.21.06-.43.09-.66h-6.13v-2.27h6.49V203h-5v-2.18h5v-.6h-6v-2.28h3.08a8.07,8.07,0,0,0-.75-1.32l2.23-.9a7.51,7.51,0,0,1,1.19,2l-.45.2H112a14.3,14.3,0,0,0,1.1-2.22l2.72.67c-.34.56-.69,1.1-1,1.55h3.11v2.28h-6v.6h5.17V203H111.9v.63h6.75v2.27h-7c0,.23,0,.45-.08.66H118v2.2Z"/><path d="M138.05,203.94h-1.23v6.14c0,1.17-.13,1.86-.82,2.27a5.06,5.06,0,0,1-2.65.45,9.4,9.4,0,0,0-.66-2.52c.57,0,1.26,0,1.48,0s.28-.06.28-.25v-6.11h-1.22v-1.51h-2.38v10.46h-2.17V202.43h-2.13v-1.06c-.23.5-.48,1-.76,1.53v5.83c.86-1.06.9-2.66.9-5.45h1.72c0,3.38-.18,5.61-1.5,7a5.17,5.17,0,0,0-1.12-1.49V213H123.5v-6.63a10.25,10.25,0,0,1-.69.76,16.38,16.38,0,0,0-1.32-2.45,13.74,13.74,0,0,0,3.16-4.88l1.9.65V200h2.13v-4.15h2.17V200h2.44v1.59h4.76Zm-11.3-7.22a18.07,18.07,0,0,1-3.66,4.56,14.14,14.14,0,0,0-1.28-2,11.1,11.1,0,0,0,2.69-3.43Zm5.36,3a16.44,16.44,0,0,0-1.19-2.3l1.5-.81a17.05,17.05,0,0,1,1.24,2.12v-1.58h4.11v2.29h-4.11v-.62Zm1,10.07c-1.59,0-1.88-.63-1.88-2.43v-4.12H133v4.16c0,.48,0,.62.09.62h.24a1.67,1.67,0,0,0,.57-.1c0,.47.1,1.33.15,1.74a1.6,1.6,0,0,1-.74.13Z"/><path d="M147.77,205.65l-2.22,2a38,38,0,0,0-3.65-3.94l2.18-2A31.37,31.37,0,0,1,147.77,205.65Z"/><path d="M157.3,207.8c-.24-.42-.61-.92-1-1.43V213h-2.44v-6.25a11.68,11.68,0,0,1-1.74,1.35,12.32,12.32,0,0,0-.9-2.73,11.56,11.56,0,0,0,4.14-4.14h-3.6v-2.34h2.65a19.52,19.52,0,0,0-1.07-1.7l1.91-1.22a10.2,10.2,0,0,1,1.5,2.29l-.91.63h.88l.43-.09,1.3,1a16.85,16.85,0,0,1-1.89,3.74c.71.61,1.91,1.8,2.24,2.13Zm8.43,2.84c.22,0,.28-.22.33-1.95a5.53,5.53,0,0,0,2,1c-.21,2.56-.79,3.24-2.08,3.24h-1c-1.72,0-2.06-.74-2.06-2.81V206.9h-.69c-.21,2.93-.86,4.95-4.32,6.08a6,6,0,0,0-1.22-1.89c2.8-.79,3.17-2.11,3.32-4.19h-.88V196.56h7.76V206.9h-1.66v3.16c0,.53,0,.58.18.58Zm-4.29-11.24h3.1v-.79h-3.1Zm0,2.72h3.1v-.81h-3.1Zm0,2.72h3.1V204h-3.1Z"/><path d="M184.38,210.84c.5,0,.61-.18.69-1.19a6.33,6.33,0,0,0,2,.76c-.24,1.85-.84,2.35-2.46,2.35h-2.32c-2.29,0-2.86-.57-2.86-2.41v-.48h-1.55c-.48,1.76-1.72,2.68-6.13,3.11a6.21,6.21,0,0,0-1.05-2c3.29-.15,4.29-.45,4.69-1.15h-1.64v-6.25H184v6.25h-2v.46c0,.47.12.51.75.51Zm-10.94-6.38h-2.17v-2.79h2l-.29-4.26,0,0a21.9,21.9,0,0,0,3.19-1.51l1.31,1a21,21,0,0,1-2.27,1v.28h1.53v1.32h-1.44l0,.39h1.41v1.32H175.4l0,.41h2.14a8.15,8.15,0,0,0-.76-.72,9.57,9.57,0,0,0,1.22-.68c-.26-.18-.51-.36-.77-.51l.89-.82a7.29,7.29,0,0,1,.86.52,4.24,4.24,0,0,0,.59-.72l.08,0c-.17-.17-.37-.33-.61-.53a7.17,7.17,0,0,1-1.31.83,7.49,7.49,0,0,0-1-1,10,10,0,0,0,1.17-.61c-.22-.14-.43-.27-.63-.38l.87-.83a8.93,8.93,0,0,1,.78.44,3.62,3.62,0,0,0,.58-.67l1.28.38a6.75,6.75,0,0,1-.81,1,6,6,0,0,1,.67.56l-.86.86,1.07.31a6.77,6.77,0,0,1-.83,1.08,7.19,7.19,0,0,1,.83.7l-.79.77h2.44l.05-.41h-1.44v-1.32h1.53l0-.39h-1.56v-1.32h1.61l0-.39h-1.86v-1.48h4.13c0,1.73-.15,3.78-.27,5.31h1.82v2.79h-2.29v-1.2H173.44Zm2.7.87h5.33v-.43h-5.33Zm0,1.62h5.33v-.43h-5.33Zm0,1.65h5.33v-.45h-5.33Zm3.68-6.93a9,9,0,0,0-.69-.59,8,8,0,0,1-.84.59Z"/><path d="M197,200.86h-6.85v-2h2.63a19.74,19.74,0,0,0-1-2.09l1.93-1a18.31,18.31,0,0,1,1.24,2.46l-1,.58h3Zm-.7.56a3.07,3.07,0,0,0,1.72-3.08v-1.92h6.16v3.81c0,.52,0,.76.22.76h.5a3,3,0,0,0,.9-.14c0,.64.08,1.54.15,2.14a2.33,2.33,0,0,1-1,.16h-.78c-1.89,0-2.25-.9-2.25-3v-1.37h-1.6a5.19,5.19,0,0,1-2.74,4.7,10.42,10.42,0,0,0-1.25-1.57v1.39h-5.41V201.4h5.41Zm.05,4.41h-5.46v-1.94h5.46Zm9.43-1.64a11.84,11.84,0,0,1-2.56,5.26,13.34,13.34,0,0,0,3.27,1,11,11,0,0,0-1.54,2.39,12.29,12.29,0,0,1-3.83-1.62,13.7,13.7,0,0,1-3.89,1.68,11.4,11.4,0,0,0-.92-1.91v1H193v.72h-2.1v-6.32h5.38v4.1a11.32,11.32,0,0,0,2.77-1,13.24,13.24,0,0,1-2-3l1.37-.5h-1.74v-2.43h7.13l.43-.09Zm-11.6,4.29H193V210h1.15Zm5.13-2.43a7.89,7.89,0,0,0,1.77,2.07,7.89,7.89,0,0,0,1.53-2.07Z"/><path d="M217,200.86h-7.36v-2h2.79a22,22,0,0,0-1-2.09l1.93-1a18.31,18.31,0,0,1,1.24,2.46l-1,.58H217Zm-6.62,2.49V201.4h5.9v1.95Zm5.87,2.48h-5.87v-1.94h5.87Zm.07,6.2h-3.81v.72h-2.1v-6.32h5.91Zm-3.81-3.55V210h1.67v-1.48Zm12.86-4.16h-3V213h-2.62v-8.66H217v-2.57h2.82V196.2h2.62v5.55h3Z"/><path d="M232.34,201.44a3,3,0,1,1-2.87,3A2.94,2.94,0,0,1,232.34,201.44Zm0,4.5a1.5,1.5,0,0,0,0-3,1.5,1.5,0,0,0,0,3Z"/><path d="M255.14,207.2h-6.62V213H245.9V207.2h-6.58v-2.65h6.58v-5h-5.65v-2.59h13.88v2.59h-5.61v5h6.62Zm-11.65-7.26a15.54,15.54,0,0,1,1.26,3.46l-2.45.79a16.43,16.43,0,0,0-1.1-3.54Zm6.13,3.52a20.81,20.81,0,0,0,1.29-3.55l2.68.7a36.49,36.49,0,0,1-1.77,3.51Z"/><path d="M264.47,209.52h-3.38v1.68h-2.3V196.94h5.68Zm-3.38-10.26V202h1.05v-2.72Zm1.05,7.94v-2.95h-1.05v2.95Zm8.75-7.26v1.36h3.23v2.25H273v1.08h1.47v2.27H273v3.42c0,1.18-.2,1.83-1,2.21a6.71,6.71,0,0,1-3,.43,9.67,9.67,0,0,0-.77-2.45c.72,0,1.65,0,1.91,0s.34-.05.34-.29V206.9h-5.78v-2.27h5.78v-1.08h-5.35V201.3h3.22v-1.36h-3.65v-2.28h3.65v-1.8h2.46v1.8h3.66v2.28Zm-3.55,7c.62.85,1.53,2.06,2,2.81l-2.2,1.33c-.38-.75-1.24-2-1.86-3Z"/><path d="M293.62,206V208h-16V206h3.78a5.86,5.86,0,0,0-.34-.79l.79-.2h-1.72v-3.73h11.22V205h-.86c-.2.36-.43.7-.63,1Zm-9.31-7.38h-6v-1.82h6v-1h2.55v1H293v1.82h-6.16v.45h5.21v1.76H279.44V199.1h4.87Zm-4.51,9.78h11.93V213h-2.59v-.43h-6.88V213H279.8Zm2.46,1.69v.72h6.88v-.72Zm.28-6.63h6.31v-.61h-6.31ZM283.6,205a7.52,7.52,0,0,1,.42,1h3.27c.12-.32.25-.67.36-1Z"/><path d="M310,202.63c0,.66,0,1.42-.08,2.23.53,2.56,1.56,4.86,3.28,6a8.64,8.64,0,0,0-1.56,2.2,9.14,9.14,0,0,1-2.58-4.05,11.57,11.57,0,0,1-2.48,4.1,8.16,8.16,0,0,0-1.35-1.46v.61h-5.3V213h-1.87v-5.29c-.18.23-.33.43-.5.63a13.07,13.07,0,0,0-1-1.82,12,12,0,0,0,2-3.33h-1.37v-3.6H301v3.6h-1.26l.64.23c-.11.27-.23.56-.35.83h1.24a5.2,5.2,0,0,0-.31-.72l1-.36h-.38v-3.6h3.71v2.79a22.52,22.52,0,0,0,1.39-6.5l2.29.38c-.09.72-.17,1.42-.29,2.12h2.63l.33-.09,1.53.45A47.67,47.67,0,0,1,312,204l-1.79-.61c.17-.72.34-1.69.49-2.7h-2.51c0,.24-.12.47-.17.69h2Zm-11.39-4.14H296.7v-1.82h1.91v-.81h2.1v3.4h-2.1Zm0,3.42h.91v-1.1h-.91Zm2.6,4.46v-.45h-1.31v.45Zm-1.31,2.11h1.31V208h-1.31Zm0,2.12h1.31v-.54h-1.31Zm4.1-11.34h-2.14v-3.4H304v.79h1.7v1.82H304Zm1.2,11.7c2.36-2.66,2.6-6.14,2.6-8.39v-.47a13.14,13.14,0,0,1-1.15,2.81,14.1,14.1,0,0,0-1.88-1.63l.07-.13h-2.13a8.25,8.25,0,0,1,.45,1.08h2.22v1.69h-2.17v.45H305V208h-1.79v.52h1.94v1.58h-1.94v.54h2ZM303,201.87h.86v-1H303Z"/><path d="M323.58,196.11h2.29V204c0,3.62-.43,6.95-3.77,8.95a9.7,9.7,0,0,0-1.78-1.84,5.75,5.75,0,0,0,2.93-3.74c-.52.45-1.05.88-1.53,1.29l-1.26-2.19c.76-.45,1.9-1.23,3-2l.11.23v-2.39l-1,.61a22.78,22.78,0,0,0-1.36-3v1.72H320v1.75l1.17-.45.47,2.29c-.54.21-1.09.45-1.64.68v4.47c0,1.13-.17,1.8-.76,2.19a4.2,4.2,0,0,1-2.51.51,9.55,9.55,0,0,0-.62-2.43c.55,0,1.12,0,1.33,0s.27-.06.27-.29v-3.57l-1.32.52-.59-2.48c.55-.16,1.21-.38,1.91-.63v-2.58H316v-2.39h1.69v-3.28H320v3.28h1.08l1.73-1c.25.43.53.92.79,1.4Zm6.35,14.4c.29,0,.36-.5.41-2.21a6.37,6.37,0,0,0,2.08,1c-.22,2.52-.8,3.53-2.27,3.53h-1.34c-1.74,0-2.22-.76-2.22-3.37V196.11H329v4.52a17.76,17.76,0,0,0,.94-2.7l2.22,1.19c-.74,1.33-1.44,2.82-2,3.78l-1.12-.65v1.89l.58-.61a20.08,20.08,0,0,1,3,3.15l-1.59,1.8A19,19,0,0,0,329,206v3.46c0,.9,0,1,.32,1Z"/><path d="M351.25,203.94a18.89,18.89,0,0,1-2.36,4.92c.19.61.4.95.62,1s.38-.76.45-2.29a7.83,7.83,0,0,0,1.79,1.5c-.48,3.31-1.5,4-2.26,3.94-1,0-1.73-.74-2.32-2a11.25,11.25,0,0,1-2.24,1.82,9.11,9.11,0,0,0-1.8-1.82c.22-.11.44-.23.65-.36H341V213h-2.39v-2.36h-3.56v-2.28h3.56v-.69h-2.89v-6.8h8.31v6.8h-3v.69h3.43v1.83a11.22,11.22,0,0,0,1.89-1.76,43,43,0,0,1-.67-5.06l-1.19.16-.27-2.45,1.31-.16c-.09-1.51-.14-3.17-.18-4.92h2.36c0,1.62,0,3.17.12,4.63l3.5-.43.25,2.41-2.16.29Zm-11.62-3.62h-4.06v-4h4.06Zm-1.8-2.43h-.54v.83h.54Zm0,5.48h1v-.63h-1Zm0,2.39h1v-.63h-1Zm6.42-5.44h-4.06v-4h4.06Zm-2.27,2.42h-1.05v.63h1.05Zm0,2.39h-1.05v.63h1.05Zm.46-7.24h-.53v.83h.53Zm7,2.4A14.94,14.94,0,0,0,348,197.1l1.9-1a14.54,14.54,0,0,1,1.53,3.06ZM348,203.06c.07.92.16,1.76.26,2.52a15.73,15.73,0,0,0,1.09-2.7Z"/><path d="M365.2,201.82a52.48,52.48,0,0,1,5.65,5l-2.15,2a41,41,0,0,0-4.77-4.7v8.82h-2.75v-8.13a19.91,19.91,0,0,1-5.06,4,17.06,17.06,0,0,0-1.72-2.39,17.28,17.28,0,0,0,7.09-6.68H355v-2.68h15.11v2.68h-5.3c-.28.5-.57,1-.88,1.49v1.71Z"/><path d="M389.23,210.08c0,1.28-.22,2-1,2.41a6.23,6.23,0,0,1-3.16.51,9,9,0,0,0-.83-2.59c.81.05,1.81.05,2.1.05s.4-.13.4-.41v-10.9h-10V213h-2.43V196.69h14.91ZM386,202.27h-8.53v-2.18H386Zm-5.47,7.33v1.13h-2.29v-7.38h7.09v6.25Zm0-4.13v2H383v-2Z"/><path d="M407.35,196.47c-.14,7.31-.17,13.65.48,13.65a7.28,7.28,0,0,0,.26-2.42,12.86,12.86,0,0,0,1.34,2.15c-.22,2.07-.69,3.15-1.86,3.15-2.7,0-2.73-6.48-2.7-14.12h-8V203c0,3-.29,7.42-2.16,10a10,10,0,0,0-2.05-1.4c1.7-2.36,1.84-5.93,1.84-8.63v-6.55Zm-3.08,11.36a17.27,17.27,0,0,1,1.27,3.85l-2,.69a8.43,8.43,0,0,0-.22-1.12c-2.31.24-4.7.43-6.53.6l-.15-2.33c.88,0,1.94-.1,3.11-.18v-1.51h-2.49v-5.44h2.49v-.9h-2.46v-2.05h7.15v2.05h-2.53v.9h2.65v5.44Zm-4.55-1.94v-1.53h-.62v1.53Zm2.16-1.53v1.53h.65v-1.53Zm.77,4.79c-.12-.31-.24-.62-.36-.91l1.32-.41h-1.73v1.37Z"/><path d="M428,198.22a12.19,12.19,0,0,1-2.84,4.28,13.47,13.47,0,0,0,3.4,1,11.09,11.09,0,0,0-.79,2.51,16.17,16.17,0,0,1-4.61-1.89,15.93,15.93,0,0,1-3.75,1.78h7.78v6.93h-2.5v-.92h-3.78v1h-2.36v-6.73l-.16,0a10,10,0,0,0-.62-1.35l-.67.87c-.17-.4-.41-.9-.69-1.42V213h-2.37V206.9a14.62,14.62,0,0,1-1.17,2.91,16.78,16.78,0,0,0-1.1-2.68,17.27,17.27,0,0,0,2-5.55h-1.62v-2.41h1.9v-3.29h2.37v3.29h1.38v2.41h-1.07c.48.51,1.28,1.43,1.69,1.93a15.34,15.34,0,0,0,2.65-1,13.29,13.29,0,0,1-1.14-1.24c-.25.29-.51.56-.77.81a16.76,16.76,0,0,0-1.36-2.12,10.07,10.07,0,0,0,2.82-4.29l2.15.65c-.12.36-.27.7-.43,1.06H426l.41-.09Zm-7.09,9.92v1.47h3.78v-1.47Zm.55-8.52a7.1,7.1,0,0,0,1.55,1.6,8.57,8.57,0,0,0,1.53-1.6Z"/><path d="M438.1,205.65l-2.22,2a36.94,36.94,0,0,0-3.65-3.94l2.18-2A31.37,31.37,0,0,1,438.1,205.65Z"/><path d="M457.87,209.81h-6.4v.83c0,1.12-.23,1.67-1,2a9,9,0,0,1-3,.32,9.16,9.16,0,0,0-.78-2.2c.71,0,1.78,0,2,0s.37,0,.37-.27v-.74h-6.87v-2.05H449v-.34a14.67,14.67,0,0,0,1.46-.89h-4.89v-1.8h7.18l.51-.12,1.4,1.35c-.81.59-1.76,1.22-2.74,1.8h5.94Zm-13.12-3.49H442.4v-3.94h1.24l-.3-5.39a26,26,0,0,0,3.58-1.06l1,1.48a17.32,17.32,0,0,1-2.2.66l0,.34h2V200h-2l0,.42h1.94v.71a8.6,8.6,0,0,0,.95-.5c-.28-.18-.57-.36-.83-.5l1.14-1,.93.54a4.18,4.18,0,0,0,.6-.68l1.58.5a6.94,6.94,0,0,1-.86,1,9.09,9.09,0,0,1,.93.76l-1.2,1.08a9.81,9.81,0,0,0-.9-.8,10.77,10.77,0,0,1-1.19.8h5.13l.06-.42h-1.78V200.4h1.91l0-.42h-1.84v-1.57h1.94l0-.41h-2.08v-1.58h4.52c-.08,1.94-.22,4.23-.37,6h1.25v3.94h-2.48v-2.09h-10.5Zm1.21-3.94h2.62c-.21-.24-.52-.58-.78-.83V202h-1.88Zm5-3.32a9.26,9.26,0,0,0-.75-.65,10.52,10.52,0,0,1-1.26.8,10.81,10.81,0,0,0-1.27-1.14,10.12,10.12,0,0,0,1.18-.61L448,197l1.1-1c.3.14.61.32.92.5a7,7,0,0,0,.53-.59l1.57.48a7.83,7.83,0,0,1-.8,1c.28.21.54.43.74.61Z"/><path d="M476.14,202.27c0,1-.15,1.55-.77,1.89a5.8,5.8,0,0,1-2.46.32,8.11,8.11,0,0,0-.45-1.92c-.81.5-1.6,1-2.34,1.44l.52.07c-.21.43-.43.86-.66,1.26h5.37V213h-2.61v-.62h-6.82V213h-2.48v-7.69h4.05c.12-.34.22-.69.31-1a8.08,8.08,0,0,1-2.1.18,8,8,0,0,0-.4-1.76c-.89.57-1.81,1.13-2.62,1.62l-.87-2c.7-.32,1.63-.79,2.65-1.33-.57-.36-1.57-.9-2.27-1.25l.8-1.15h-1.17v-2.1h7.11v5.78a2.5,2.5,0,0,1-.32,1.51l1.2.16-.79-1.84c.65-.28,1.55-.73,2.48-1.24-.57-.34-1.45-.81-2.1-1.13l.81-1.16h-.93v-2.1h6.86Zm-10.44.21h.7c.18,0,.24,0,.24-.23v-3.64h-2.58c.62.27,1.26.6,1.65.81l-.94,1.43,1.32-.71.54,1.73Zm7,4.79h-6.82v.63h6.82Zm0,3.19v-.63h-6.82v.63Zm-1.47-11.87c.62.27,1.26.6,1.66.81l-.76,1.12,1.19-.63.5,1.62v-2.92Zm2.59,3-1.24.81c.39,0,.84,0,1,0s.25-.06.25-.24Z"/><path d="M485.19,210.24V213h-2v-2.72h-2.72V208h2.72v-.8h-2.34v-6.69h2.35v-.74h-2.6v-2.29h2.6v-1.58h2v1.58h2.72v2.29h-2.72v.74h2.48v6.69h-2.5v.8H488v2.28Zm-2.7-7.27h.85v-.7h-.85Zm0,2.39h.85v-.72h-.85Zm3.43-3.09H485v.7h.91Zm0,2.37H485v.72h.91Zm11,6.07a9.49,9.49,0,0,0-1.67,2.23,7.89,7.89,0,0,1-3-3.9,9.69,9.69,0,0,1-3.15,3.85,8.87,8.87,0,0,0-1.91-1.91,8.56,8.56,0,0,0,3.64-7.54v-.85h2.47v.92c0,.38,0,.79,0,1.24C493.78,207.36,494.87,209.63,496.92,210.71Zm-5.84-9.29a13,13,0,0,1-1.32,3.15,19,19,0,0,0-2-1.51c1.1-1.64,1.69-4.39,1.95-7.2l2.41.34c-.12,1-.26,2-.45,2.9h2.87l.36-.07,1.69.39c-.29,1.88-.72,4-1.07,5.37l-2-.49c.16-.75.31-1.8.47-2.88Z"/><path d="M506.14,204.57v6.29c0,.88-.12,1.4-.66,1.72a3.9,3.9,0,0,1-2,.35,7.23,7.23,0,0,0-.57-1.91c.4,0,.86,0,1,0s.21-.06.21-.22v-1.21c-.45.31-.88.62-1.31.9l-.41-1a8.34,8.34,0,0,1-1,3.51,8.91,8.91,0,0,0-1.74-1.22,9,9,0,0,0,.86-4.57v-2.67h-.84v-2.95h.64V196.4h5.9v5.22h.7v2h8.87v1.82h-8.92v-.83Zm-1.09-1.24H501.4v.49h3.65Zm-2.85-1.71h.41V198.7h1.57v-.48h-2Zm.29,5.65c0,.45,0,.92,0,1.42.49-.19,1.05-.45,1.66-.73v-.65l-.64.75c-.22-.23-.6-.59-1-.91Zm1.62-1.8h-1.62v.81l.51-.56c.37.26.78.54,1.11.81Zm.07-3.85v-1.51h-.37v1.51Zm11.72,9.27v1.86h-9.23v-1.86h1.79c-.12-.38-.26-.77-.38-1.1l1-.3h-1.64v-3.66h7.73v3.66H513.3l1.27.36-.69,1Zm-.4-7.78h-8.45v-6h2v-1.25h1.91v1.25h.45v-1.25h1.92v1.25h2.19Zm-6.64-3.76h.63v-.56h-.63Zm0,2.11h.63v-.58h-.63Zm.7,6.52h3.27v-.62h-3.27Zm.5,1.51a11.7,11.7,0,0,1,.52,1.4h1.2a12.45,12.45,0,0,0,.5-1.4Zm1.45-10.14v-.56H511v.56Zm-.55,1.53v.58h.55v-.58Zm2.65-2.09H513v.56h.64Zm0,2.09H513v.58h.64Z"/><path d="M522.64,205a1.78,1.78,0,0,1-1.84-1.8,1.8,1.8,0,0,1,1.91-1.8c1.36,0,2.08,1,2.08,2.7a4.66,4.66,0,0,1-3.65,4.52l-.64-1.73c1.33-.38,2.12-1.12,2.26-1.89Z"/><path d="M107.74,234.84l.46,2.3c-1.67.76-3.51,1.53-5,2.16l-.78-2.59c.5-.15,1.1-.34,1.76-.58v-5.24h-1.43V228.5h1.43v-4h2.29v4h1.41v2.39h-1.41v4.41Zm10.41-8v6.43h-9.79v-6.43h1.84a11.54,11.54,0,0,0-1-1.76l2.12-.9a11.73,11.73,0,0,1,1.24,2.1l-1.15.56h2.42a17.18,17.18,0,0,0,1.16-2.65l2.63.81c-.45.65-.89,1.28-1.29,1.84Zm-9,7h8.35v7.54h-2.36v-.86h-3.73v.86h-2.26Zm3.14-5.33h-2v.57l1.15-.41a9.76,9.76,0,0,1,.8,1.85Zm-2,3.09h.76a9.08,9.08,0,0,0-.76-2.3Zm.84,0h1.11v-.43Zm.23,4.09v.67h3.73v-.67Zm3.73,3v-.54h-3.73v.54Zm.95-10.15h-2v2.43a14.27,14.27,0,0,0,.75-2.23l1.26.43Zm0,3.09v-2c-.36.72-.69,1.44-1,2l-1-.42v.43Z"/><path d="M126.29,232.6a22.52,22.52,0,0,1-1.32,4.7c.24.16.53.38.89.6,1.16.75,2.83.84,4.82.84a52.57,52.57,0,0,0,7-.52,11.2,11.2,0,0,0-.73,2.67c-1.49.1-4.42.23-6.42.23-2.3,0-3.73-.2-5-.92-.72-.43-1.33-1-1.67-1s-1,1.28-1.43,2.25l-1.65-2.52a7.8,7.8,0,0,1,1.86-1.6,20.07,20.07,0,0,0,.88-2.77h-2.16c.38-1.07.8-2.45,1.16-3.84H121.2v-2.32h4.34l-.26,1a13.61,13.61,0,0,0,3-5.09l2.25.7c-.24.7-.53,1.4-.84,2.09h2.06a14,14,0,0,0-.65-1.79l2.36-.7a15.24,15.24,0,0,1,1,2.49H137v2.18h-3.34v.61h2.57v2.09h-2.57v.72h2.48v2.09h-2.48v.73h3.48v2.18h-7.73v.6H127v-6.92a8.81,8.81,0,0,1-.65.7,21.52,21.52,0,0,0-1.17-2.26c-.23.86-.49,1.72-.71,2.53h.43l.36-.08Zm-3.21-4.48c-.21-.85-.69-2.2-1-3.21l2.2-.72c.34,1,.79,2.24,1,3.07Zm8.21,1.12h-1.88v.61h1.88Zm0,2.7h-1.88v.72h1.88Zm0,2.81h-1.88v.73h1.88Z"/><path d="M154.37,226.52v14.8H151.7v-.85H144v.85h-2.53v-14.8H146c.16-.76.29-1.61.36-2.29l3.07.32c-.24.69-.52,1.37-.76,2ZM144,229v1.39h7.66V229Zm0,3.8v1.4h7.66v-1.4Zm7.66,5.24v-1.42H144v1.42Z"/><path d="M169.86,238.44c1.67,0,1.9-.4,2.14-3a8.59,8.59,0,0,0,2.53,1c-.42,3.58-1.28,4.56-4.58,4.56h-5.06c-3.51,0-4.63-.76-4.63-3.68V231h9.58v-3h-9.79v-2.7h12.46v9.29h-2.67v-1h-7v3.76c0,1,.27,1.1,2.1,1.1Z"/><path d="M192.81,227s0,.83,0,1.14c-.21,8-.38,10.93-1.1,11.92a2.45,2.45,0,0,1-1.83,1.15,14.33,14.33,0,0,1-2.78.07,6.27,6.27,0,0,0-.83-2.54c1.1.11,2.13.11,2.6.11a.88.88,0,0,0,.76-.32c.49-.56.7-3.21.84-9.15h-3.27a19.82,19.82,0,0,1-1.46,2.68A14.5,14.5,0,0,0,184.3,231v8.57h-4.51v1.28h-2.25V227.18h2a25.29,25.29,0,0,0,.38-2.93l2.74.4c-.3.88-.59,1.78-.86,2.53h2.54v2.4a20.1,20.1,0,0,0,2-5.28l2.41.6c-.19.7-.41,1.4-.65,2.1Zm-10.76,2.45h-2.26v2.43h2.26Zm0,7.78v-3.1h-2.26v3.1Zm5.68-.54a42.76,42.76,0,0,0-2.26-4.2l2-1.15c.77,1.23,1.89,2.94,2.41,4Z"/><path d="M203.31,239.07c0,1-.19,1.53-.81,1.87a5.42,5.42,0,0,1-2.45.36,7.44,7.44,0,0,0-.74-2c.5,0,1.16,0,1.35,0s.29-.07.29-.29v-1.24c-.71.55-1.39,1.11-2.07,1.62l-.41-1.37a8.65,8.65,0,0,1-1.24,3.38,9.6,9.6,0,0,0-1.75-1.74,10,10,0,0,0,1-5.08v-3.84h6.87Zm-.88-13.47c.64,1.33,1.51,3.15,1.93,4.25l-2.19.9c-.1-.31-.22-.69-.38-1.08-4.2.45-5,.59-5.52.84a23.46,23.46,0,0,0-.78-2.32,2.2,2.2,0,0,0,1-.75,14.1,14.1,0,0,0,1.95-3.17L201,225a22.35,22.35,0,0,1-2,2.8l2-.18c-.21-.45-.4-.89-.57-1.28ZM200,236.15c-.28-.38-.83-1-1.31-1.48,0,.71,0,1.52-.12,2.34.67-.32,1.48-.77,2.34-1.24v-.48Zm-1.31-3.21v1l.91-.81c.4.38.9.87,1.31,1.28v-1.48Zm8.66-.61c-2.38,0-3-.9-3-3.2v-4.81h2.48v1.93h4v2.21h-4v.72c0,.67.09.92.6.92h2.17a8.28,8.28,0,0,0,1.71-.16c0,.66.12,1.62.2,2.21a6.56,6.56,0,0,1-1.86.18ZM209,239c.5,0,.62-.29.7-1.8a6.31,6.31,0,0,0,2.17.93c-.25,2.41-.89,3.14-2.63,3.14h-2.12c-2.23,0-2.77-.74-2.77-3v-5.46h2.48v1.61H211v2.28h-4.1v1.55c0,.68.1.76.69.76Z"/><path d="M229.47,227.9s0,.87-.05,1.21c-.33,7.08-.66,9.83-1.43,10.82a2.58,2.58,0,0,1-1.93,1.14,15.73,15.73,0,0,1-2.77.09,6.17,6.17,0,0,0-.88-2.72c1.05.09,2,.09,2.5.09a1,1,0,0,0,.79-.31c.5-.52.83-2.79,1.07-7.63h-4.29c-.27,3.74-1.51,8.17-6.26,10.87a10.58,10.58,0,0,0-2-2.14,10.41,10.41,0,0,0,5.56-8.73h-5V227.9h5.09v-3.62h2.67v3.62Z"/><path d="M236.53,229.81a3,3,0,1,1-2.87,3A2.93,2.93,0,0,1,236.53,229.81Zm0,4.5a1.5,1.5,0,0,0,0-3,1.5,1.5,0,0,0,0,3Z"/><path d="M118.43,283.71v2.5h-9.16a20.93,20.93,0,0,1-2,3.51v8.73h-2.53v-5.87a11.25,11.25,0,0,1-1.27,1A17.5,17.5,0,0,0,102.3,291a12.85,12.85,0,0,0,4.11-4.83h-3.49v-2.5h4.59a20.35,20.35,0,0,0,.71-2.36l2.62.65c-.18.57-.36,1.13-.55,1.71Zm-3.91,11.88h3.82V298H108v-2.41h4V292h-3.3v-2.42H112v-2.72h2.53v2.72h3.17V292h-3.17Z"/><path d="M137.43,281.83v16.64h-2.37v-.84H124.81v.84h-2.25V281.83Zm-2.37,13.85v-11.9H124.81v11.9ZM133.85,292h.93v1.35H132.7v.83c0,.79-.16,1.06-.69,1.2a7.58,7.58,0,0,1-2.15.17,5.87,5.87,0,0,0-.47-1.26h1.05c.16,0,.23-.05.23-.21v-.74h-2.45a6.78,6.78,0,0,1,.88,1.3l-1.65.83a7.72,7.72,0,0,0-1-1.61l1.08-.52H125V292h5.67v-.34l-5.3.14-.07-1.33,3.58,0v-.42h-3.27v-3.71h3.27v-.43h-3.64v-1.35h3.64V284h2v.54h3.67v1.35h-3.67v.43h3.3v3.71h-.58a9.51,9.51,0,0,1,1.19,1.21Zm-6.38-4.27h1.41v-.39h-1.41Zm1.41,1.35v-.41h-1.41v.41Zm2-1.74v.39h1.34v-.39Zm0,1.33v.41h1.34v-.41Zm0,1.4v.42l1,0,0,0,.55-.38ZM132.7,292h.63c-.12-.14-.24-.29-.37-.43l-.26,0Z"/><path d="M147.48,283c-.41,1.58-.94,3.61-1.39,5a5.73,5.73,0,0,1,1.12,3.53c0,1.26-.24,2-.83,2.45a2.43,2.43,0,0,1-1,.41,8.66,8.66,0,0,1-1.1.06,6.81,6.81,0,0,0-.28-1.62v5.65H141.8V282.14h3.7l.35-.09ZM144,292.26h.36a.67.67,0,0,0,.45-.14c.17-.15.24-.44.24-.92a4.74,4.74,0,0,0-1-2.92c.26-1.06.57-2.59.8-3.82H144Zm13.44-3.82c-.58.38-1.23.78-1.87,1.12a15.57,15.57,0,0,0,2.37,4.68,8.94,8.94,0,0,0-1.58,1.67,19.92,19.92,0,0,1-2.27-4.6c.5,2.52.14,5-.69,5.9a2.52,2.52,0,0,1-2.24,1.08c-.39,0-.91,0-1.41,0a5.59,5.59,0,0,0-.6-2.31,14,14,0,0,0,1.58.09.82.82,0,0,0,.88-.56,3.51,3.51,0,0,0,.4-1.56,19.12,19.12,0,0,1-4,2.25,8.4,8.4,0,0,0-1.46-1.82,13.52,13.52,0,0,0,5.3-2.85l-.15-.7a20.36,20.36,0,0,1-3.08,2,9.22,9.22,0,0,0-1.31-1.82,12,12,0,0,0,3.68-2,7.82,7.82,0,0,0-.45-.72,17.87,17.87,0,0,1-2.53,1.48,13.25,13.25,0,0,0-1.41-1.84,14.59,14.59,0,0,0,3.13-1.58h-2.44V284.1h2.38a11.12,11.12,0,0,0-1.43-1.56l1.82-1.17a9.18,9.18,0,0,1,2,2.14l-.82.59h1.32a13.43,13.43,0,0,0,1.43-2.7l2.39.7c-.43.72-.88,1.43-1.29,2h2.17v2.24H152.8a7,7,0,0,1-.67.66,8.6,8.6,0,0,1,1,1.59,20,20,0,0,0,2.73-1.89Z"/><path d="M170.89,282.47l-.57.8a17.94,17.94,0,0,0,6.63,3.89,8,8,0,0,0-1.7,2.42,26.32,26.32,0,0,1-2.33-1.23v1.19h-8.6v-.85a22.88,22.88,0,0,1-2.12,1.21,11.37,11.37,0,0,0-1.84-2.43c3.13-1.28,6.44-3.38,8.3-6.21Zm-7.83,8.28h11.43v7.61h-2.68v-.57h-6.18v.65h-2.57Zm2.57,2.28v2.34h6.18V293Zm5.5-5.88a23.23,23.23,0,0,1-2.35-2.06,24.51,24.51,0,0,1-2.28,2.06Z"/><path d="M185.71,282.25a29.6,29.6,0,0,1-1.58,3.65v12.55H181.6V290c-.24.3-.48.57-.72.84a18.53,18.53,0,0,0-1.35-2.82,18.5,18.5,0,0,0,3.76-6.54Zm5.75,4.5v1.49h4.2v2.38h-4.2v1.62h4.43v2.43h-4.43v3.8h-2.58V286.75h-.33a19.82,19.82,0,0,1-2.18,3.35,15.81,15.81,0,0,0-1.9-1.84,17.53,17.53,0,0,0,3.6-6.75l2.41.67c-.22.7-.48,1.4-.77,2.09h6.42v2.48Z"/><path d="M214.46,284.45v9.36h-2.63V293H208.5v5.51h-2.65V293h-3.3v.94H200v-9.45h5.81v-3.08h2.65v3.08Zm-8.61,5.94V287h-3.3v3.37Zm6,0V287H208.5v3.37Z"/><path d="M222.24,290.53a1.78,1.78,0,0,1-1.84-1.8,1.8,1.8,0,0,1,1.91-1.8c1.36,0,2.08,1.05,2.08,2.7a4.66,4.66,0,0,1-3.65,4.52l-.64-1.73c1.33-.38,2.12-1.11,2.26-1.89Z"/><path d="M241,295.21c1.52.65,3.19,1.43,4.2,2l-2.87,1.29a30.41,30.41,0,0,0-4.12-2.2l1.6-1.06h-5l1.79.87a22.13,22.13,0,0,1-5.4,2.48,19.75,19.75,0,0,0-2-2,20.24,20.24,0,0,0,4.37-1.34h-2.12v-7.74c-.17.14-.34.27-.53.4a8.39,8.39,0,0,0-1.83-1.88,12.21,12.21,0,0,0,4.5-4.62l2.7.55c-.11.18-.23.38-.35.56h2.71l.39-.11,1.74,1.18a22.43,22.43,0,0,1-1.34,2h3.94v9.68Zm-6.45-10.76q-.45.56-.93,1.08h2.8c.3-.35.55-.72.81-1.08Zm6.19,3.07h-6.81v.65h6.81Zm0,3.17V290h-6.81v.66Zm-6.81,1.86v.66h6.81v-.66Z"/><path d="M260.5,295.7c1.48.56,3,1.19,4,1.64l-3.07,1.13a27.08,27.08,0,0,0-4.18-2l1.46-.81h-4.2l1.29.61a20.66,20.66,0,0,1-5.43,2.23,16,16,0,0,0-1.81-1.87,22.18,22.18,0,0,0,4-1h-1.77v-7.15h11.79v7.15Zm3.88-7.6H248.71v-1.76h6.58v-.44H250.5v-1.51h4.79v-.45h-5.58v-1.69h5.58v-.88h2.58v.88h5.87v1.69h-5.87v.45h5v1.51h-5v.44h6.51Zm-11.19,2.4H260V290h-6.81Zm0,1.87H260v-.51h-6.81Zm0,1.89H260v-.52h-6.81Z"/><path d="M274.05,282.3a29.82,29.82,0,0,1-1.64,3.57v12.57h-2.47V289.7A17.23,17.23,0,0,1,268.8,291a19.24,19.24,0,0,0-1.45-2.81,18.48,18.48,0,0,0,4.2-6.75Zm5.84,9.17v3.92h3.87v2.51H273.6v-2.51h3.74v-3.92h-4.2V289h4.2v-3.5H274V283h9.54v2.46h-3.61V289h4.26v2.52Z"/><path d="M303,284.12s0,.83,0,1.14c-.21,8-.38,10.93-1.1,11.92a2.48,2.48,0,0,1-1.83,1.15,15.17,15.17,0,0,1-2.78.07,6.27,6.27,0,0,0-.83-2.54c1.1.11,2.13.11,2.6.11a.88.88,0,0,0,.76-.32c.49-.56.7-3.21.84-9.15h-3.27a19.34,19.34,0,0,1-1.46,2.68,14.43,14.43,0,0,0-1.42-1.12v8.58H290v1.27H287.7V284.3h2a25.57,25.57,0,0,0,.38-2.93l2.74.39c-.29.89-.59,1.79-.86,2.54h2.54v2.4a19.56,19.56,0,0,0,2.05-5.28l2.41.6c-.19.7-.41,1.4-.65,2.1Zm-10.76,2.45H290V289h2.26Zm0,7.78v-3.1H290v3.1Zm5.68-.54a44.73,44.73,0,0,0-2.25-4.2l2-1.15c.77,1.23,1.89,2.94,2.41,4Z"/><path d="M311.57,282.09a37.34,37.34,0,0,1-1.37,3.71v12.65h-2.29V290c-.24.34-.48.66-.72,1a20.6,20.6,0,0,0-1.18-2.88,19.75,19.75,0,0,0,3.26-6.75Zm10.28,4.7a24.32,24.32,0,0,1-1.43,7,7,7,0,0,0,2.24,2.56,10.44,10.44,0,0,0-1.45,2.05,8.17,8.17,0,0,1-2-2.34,9.33,9.33,0,0,1-2.31,2.34,10.22,10.22,0,0,0-1.48-1.74l.22-.15h-2.58v1.34h-2.13v-8.27h1.6v-2.7h-1.76V284.5h1.76v-2.9h2.36v2.9h1.55v2.34H314.9v2.7h1c-.16-.25-.31-.47-.43-.63,1.2-1.78,1.86-4.61,2.18-7.53l2.23.4c-.14,1-.31,1.89-.52,2.83h3.27v2.18Zm-7.59,4.95h-1.19v2.54h1.19Zm2.17,4.14a8.11,8.11,0,0,0,1.7-2.2,23.53,23.53,0,0,1-.84-3.2c-.16.25-.31.48-.48.72-.09-.2-.23-.47-.38-.78Zm2.41-9.09c-.07.21-.14.41-.19.61a24.66,24.66,0,0,0,.58,3.19,26,26,0,0,0,.52-3.8Z"/><path d="M332.37,287.16a18.16,18.16,0,0,1-1.07,5.91,26.13,26.13,0,0,1,2.08,2.2l-1.65,2.18c-.41-.56-1-1.23-1.65-1.95a11.56,11.56,0,0,1-2.77,3,9.37,9.37,0,0,0-1.76-1.86,10.14,10.14,0,0,0,2.76-3c-.86-.87-1.73-1.73-2.47-2.49.25-1,.5-2.25.71-3.6l-.76.05-.22-2.46,1.31-.06c.15-1.26.26-2.52.31-3.69l2.48.13c-.09,1.1-.21,2.27-.35,3.44l.74,0v-1h2.33v.9l.87-.06v2.34Zm-3,4.09a15.76,15.76,0,0,0,.66-3.92l-1,.07c-.17,1-.35,2.05-.54,3Zm12.6-.11h-3.25v4.59c0,1.28-.24,1.93-1.05,2.33a7.81,7.81,0,0,1-3.22.43,9.8,9.8,0,0,0-.83-2.5c.78,0,1.83,0,2.1,0s.4-.07.4-.34v-4.54h-3.46v-2.48h3.46v-1.5A12.27,12.27,0,0,0,338,284.7h-4.7v-2.36h6.3l.58-.13,1.67,1.26a23.3,23.3,0,0,1-3.13,4.07v1.12H342Z"/><path d="M358.62,292.35c0,.52-.05,1-.09,1.44h1.86v2.27h-2.1a3.76,3.76,0,0,1-.43,1.37,2.09,2.09,0,0,1-1.55,1,11.76,11.76,0,0,1-2.37.07,5.17,5.17,0,0,0-.59-2,12.4,12.4,0,0,0,1.69.07.62.62,0,0,0,.62-.31,1,1,0,0,0,.1-.21h-9c.2-1,.41-2.34.61-3.71H345V290h2.67c.1-.81.19-1.61.26-2.38-.28.34-.56.67-.83,1a18.66,18.66,0,0,0-2.24-1.51,15.5,15.5,0,0,0,4-5.83l2.5.76c-.12.28-.26.59-.4.88h9.59v2.32H349.65c-.24.4-.5.77-.74,1.15h9.9s0,.79,0,1.1c0,.94-.05,1.78-.07,2.56h2.5v2.32Zm-8.71-.09c-.07.52-.14,1-.21,1.53h2.84a10.8,10.8,0,0,0-1.43-.88l.64-.65Zm.43-3.62-.17,1.48h2.37a9.39,9.39,0,0,0-1.32-.81l.65-.67Zm5.75,5.15c0-.45.05-1,.08-1.53H353.8a8.83,8.83,0,0,1,1.29.95l-.55.58Zm.2-5.15h-2.42a10.81,10.81,0,0,1,1.32,1l-.48.51h1.55Z"/><path d="M380.46,288.32v2.86h-16v-2.86Z"/><path d="M388.91,282.14a33,33,0,0,1-1.31,3.4v12.95h-2.37v-8.7c-.28.4-.55.76-.84,1.1a18.46,18.46,0,0,0-1.16-2.88,18.81,18.81,0,0,0,3.39-6.61Zm10.54.05v16.1h-2.38v-.88h-5.85v1H389V282.19Zm-2.38,13V284.45h-5.85v10.71Zm-2-6.88v1.33h1.48v4.88H391.8v-4.88h1.33v-1.33h-1.62v-1.85h1.62V284.7H395v1.73h1.76v1.85Zm-.38,3.1h-1.1v1.37h1.1Z"/><path d="M411.41,285.87c-.33.77-.64,1.56-1,2.23h1.83v2.36h-9.21V288.1h2a12.57,12.57,0,0,0-.76-2.18l1.29-.32h-2.1v-2.33h3.1c-.15-.48-.31-1-.48-1.42l2.29-.66a19.11,19.11,0,0,1,.79,2.08h2.76v2.33h-1.74Zm-7.66,5.69h7.95v6.86h-2.48v-.7h-3.11v.77h-2.36Zm2.36,2.32v1.59h3.11v-1.59Zm.43-8.28a13.56,13.56,0,0,1,.82,2.25l-.89.25h1.62a18.68,18.68,0,0,0,.81-2.5Zm12.77-2.41c-.55,1.78-1.24,3.87-1.84,5.36a6.21,6.21,0,0,1,1.48,4.18c0,1.42-.29,2.32-1,2.83a2.65,2.65,0,0,1-1.2.46,6.18,6.18,0,0,1-1.26.06,6,6,0,0,0-.57-2.42,5.72,5.72,0,0,0,.78,0,1.06,1.06,0,0,0,.58-.16c.26-.16.37-.54.37-1.14a5.33,5.33,0,0,0-1.5-3.54c.39-1.21.88-3,1.22-4.36h-1.46v13.85h-2.19V282.16h4.48l.34-.09Z"/><path d="M433.77,281.64a10.48,10.48,0,0,0,5,6.34,13.91,13.91,0,0,0-1.78,2.44,11.31,11.31,0,0,1-1.05-.77c-.15,4.9-.34,6.93-.91,7.67a2.39,2.39,0,0,1-1.72,1,15,15,0,0,1-2.55.09,6.43,6.43,0,0,0-.82-2.65c.86.07,1.67.09,2.1.09a.83.83,0,0,0,.69-.27c.31-.36.46-1.85.58-5.18H430.5c-.41,3.4-1.55,6.4-6.09,8.21a8.6,8.6,0,0,0-1.64-2.43c3.77-1.3,4.66-3.41,5-5.78h-2.58v-1.14a15,15,0,0,1-1.17,1.21,19.69,19.69,0,0,0-2.1-2,12.81,12.81,0,0,0,4.18-6.52l2.65.66a20.44,20.44,0,0,1-2.51,5.21h8a16.07,16.07,0,0,1-2.29-3.82h-2.55v-2.41Z"/><path d="M445.39,290.53a1.78,1.78,0,0,1-1.84-1.8,1.8,1.8,0,0,1,1.91-1.8c1.36,0,2.08,1.05,2.08,2.7a4.67,4.67,0,0,1-3.65,4.52l-.64-1.73c1.33-.38,2.12-1.11,2.26-1.89Z"/><path d="M458,295l3.13-.31,0,2.27c-3,.34-6.17.67-8.49.9l-.31-2.39,3.32-.27v-.9h-2.51v-2.09h2.51v-.81h-2.73v-2.11h1.6a9.26,9.26,0,0,0-1-1.49l.8-.45h-1.91V285.2h2.16v-.83l-.93.69a8.38,8.38,0,0,0-1.3-2l1.46-1a7.71,7.71,0,0,1,.77.9v-1.54h1.93v3.82H457v-3.82h2V283a8.83,8.83,0,0,0,.6-.91l1.93,1.14c-.76.72-1.47,1.42-2,1.89l-.51-.34v.41h2.06v2.13h-1.94l1,.36c-.29.55-.55,1.09-.81,1.58h1.29v2.11H458v.81h2.48v2.09H458Zm-2.27-7.65a5.58,5.58,0,0,1,.81,1.33l-1,.61h1.62a19.66,19.66,0,0,0,.79-1.94Zm12.55.88h-1.12v7.4c0,1.24-.21,1.91-.92,2.32a5.79,5.79,0,0,1-3,.51,9.92,9.92,0,0,0-.85-2.49c.81,0,1.66,0,1.95,0s.38-.09.38-.38v-7.4h-3.53v-2.43h3.53v-4.41h2.41v4.41h1.12Zm-5,.77a13.5,13.5,0,0,1,1.24,4l-2.2.81a14.82,14.82,0,0,0-1.09-4.05Z"/><path d="M486.23,283.64v14.8h-2.67v-.85h-7.65v.85h-2.53v-14.8h4.44c.15-.76.29-1.61.36-2.29l3.06.32c-.24.69-.52,1.37-.76,2Zm-10.32,2.5v1.38h7.65v-1.38Zm0,3.8v1.4h7.65v-1.4Zm7.65,5.24v-1.43h-7.65v1.43Z"/><path d="M502.45,295.56c1.67,0,1.89-.4,2.13-3a8.81,8.81,0,0,0,2.53,1c-.41,3.58-1.27,4.56-4.58,4.56h-5.06c-3.51,0-4.63-.76-4.63-3.68v-6.37h9.59v-3h-9.79v-2.71H505.1v9.3h-2.67v-1h-7v3.77c0,1,.28,1.1,2.1,1.1Z"/><path d="M525.74,287.79a15.19,15.19,0,0,1-3.15,6.59,12.8,12.8,0,0,0,4,1.7,11.39,11.39,0,0,0-1.74,2.5,12.58,12.58,0,0,1-4.28-2.27,16.94,16.94,0,0,1-4.94,2.47,10.25,10.25,0,0,0-1.48-2.45,13.08,13.08,0,0,0,4.47-2,18.19,18.19,0,0,1-2.46-4.71h0a13.76,13.76,0,0,1-4.22,8.68A10.61,10.61,0,0,0,510,296c3.27-2.75,3.67-7.35,3.67-10.12v-1.22h-2.59v-2.56h11.14c-.28,1.68-.59,3.55-.9,5.06h2l.48-.11Zm-9.42-3.18v1.26c0,.39,0,.81,0,1.24h2.24c.19-.77.4-1.64.57-2.5Zm2.27,5a11.6,11.6,0,0,0,1.9,3,10.74,10.74,0,0,0,1.82-3Z"/><path d="M118.12,310.21v16.64h-2.38V326H105.5v.85h-2.25V310.21Zm-2.38,13.84v-11.9H105.5v11.9Zm-1.2-3.69h.93v1.35h-2.09v.83c0,.79-.15,1.06-.68,1.21a8.12,8.12,0,0,1-2.16.16,5.54,5.54,0,0,0-.46-1.26c.36,0,.89,0,1,0s.22-.06.22-.22v-.74h-2.44a7.65,7.65,0,0,1,.88,1.3l-1.65.83a8.21,8.21,0,0,0-1-1.6l1.09-.53h-2.55v-1.35h5.66V320l-5.3.14-.07-1.33,3.58,0v-.41h-3.27v-3.71h3.27v-.43h-3.63v-1.36h3.63v-.54h2v.54h3.66v1.36h-3.66v.43h3.3v3.71h-.58a8.2,8.2,0,0,1,1.18,1.2Zm-6.39-4.26h1.41v-.4h-1.41Zm1.41,1.35V317h-1.41v.42Zm2-1.75v.4h1.34v-.4Zm0,1.33v.42h1.34V317Zm0,1.41v.41l.94,0,0,0,.55-.37Zm1.8,1.92H114c-.12-.14-.24-.29-.38-.43l-.26,0Z"/><path d="M127.45,311.38c-.41,1.58-1,3.62-1.4,5a5.75,5.75,0,0,1,1.12,3.53c0,1.26-.24,2-.82,2.45a2.54,2.54,0,0,1-1,.42c-.29,0-.68.05-1.1.05a6.3,6.3,0,0,0-.27-1.62v5.65h-2.17V310.51h3.7l.34-.09Zm-3.51,9.25h.36a.64.64,0,0,0,.45-.14c.17-.14.24-.43.24-.92a4.8,4.8,0,0,0-1-2.92c.26-1.06.57-2.59.79-3.81h-.84Zm13.44-3.81c-.59.37-1.24.77-1.88,1.11a15.82,15.82,0,0,0,2.38,4.68,9,9,0,0,0-1.58,1.68,19.8,19.8,0,0,1-2.28-4.61c.5,2.52.14,5-.69,5.9a2.46,2.46,0,0,1-2.23,1.08c-.4,0-.92,0-1.41,0a5.61,5.61,0,0,0-.61-2.31,12.14,12.14,0,0,0,1.59.09.82.82,0,0,0,.87-.55,3.4,3.4,0,0,0,.4-1.57,18.43,18.43,0,0,1-4,2.25,8.45,8.45,0,0,0-1.47-1.82,13.48,13.48,0,0,0,5.31-2.84c-.06-.24-.11-.47-.16-.71a19.17,19.17,0,0,1-3.08,2,8.73,8.73,0,0,0-1.31-1.82,12.09,12.09,0,0,0,3.69-2,7.82,7.82,0,0,0-.45-.72,19.07,19.07,0,0,1-2.53,1.48,14.77,14.77,0,0,0-1.41-1.84,14.15,14.15,0,0,0,3.13-1.58h-2.45v-2.23h2.38a11.2,11.2,0,0,0-1.43-1.57l1.83-1.17a9.6,9.6,0,0,1,2,2.14l-.83.6h1.33a14.52,14.52,0,0,0,1.42-2.7l2.4.7c-.43.72-.88,1.42-1.29,2h2.16v2.23h-4.45c-.21.23-.43.45-.67.67a8.16,8.16,0,0,1,1,1.58,20.74,20.74,0,0,0,2.74-1.89Z"/><path d="M151.6,323.59c1.51.64,3.18,1.42,4.2,2l-2.88,1.3a27.62,27.62,0,0,0-4.11-2.2l1.6-1.06h-5l1.79.86a22.06,22.06,0,0,1-5.41,2.49,18.83,18.83,0,0,0-2-2,20.07,20.07,0,0,0,4.37-1.33H142v-7.75a5.39,5.39,0,0,1-.54.4,8.29,8.29,0,0,0-1.82-1.87,12.19,12.19,0,0,0,4.49-4.63l2.7.56c-.1.18-.22.38-.34.56h2.7l.4-.11,1.74,1.17a22.7,22.7,0,0,1-1.35,2h4v9.69Zm-6.46-10.77a12,12,0,0,1-.93,1.08H147c.29-.34.55-.72.81-1.08Zm6.2,3.08h-6.82v.65h6.82Zm0,3.17v-.67h-6.82v.67Zm-6.82,1.85v.67h6.82v-.67Z"/><path d="M170.38,324.07c1.48.56,3,1.19,4,1.64l-3.06,1.14a26.25,26.25,0,0,0-4.19-2l1.47-.81h-4.2l1.29.61a21.24,21.24,0,0,1-5.44,2.24,15.25,15.25,0,0,0-1.81-1.88,21.47,21.47,0,0,0,4-1h-1.77v-7.15h11.79v7.15Zm3.87-7.6H158.59v-1.76h6.57v-.43h-4.78v-1.52h4.78v-.45h-5.57v-1.69h5.57v-.88h2.58v.88h5.87v1.69h-5.87v.45h5v1.52h-5v.43h6.51Zm-11.19,2.4h6.82v-.51h-6.82Zm0,1.87h6.82v-.5h-6.82Zm0,1.89h6.82v-.52h-6.82Z"/><path d="M180.72,318.9a1.77,1.77,0,0,1-1.84-1.8,1.8,1.8,0,0,1,1.91-1.8c1.36,0,2.09,1.05,2.09,2.7a4.66,4.66,0,0,1-3.65,4.52l-.64-1.72c1.32-.38,2.12-1.12,2.25-1.9Z"/><path d="M196.47,324.14l1,0c1.12,0,4.28,0,5.71-.05a8.62,8.62,0,0,0-.83,2.48h-5c-3,0-5.08-.41-6.54-2.32a8.54,8.54,0,0,1-2.29,2.61,13,13,0,0,0-1.87-1.84,7.19,7.19,0,0,0,3.11-5.2l2.5.38a15.67,15.67,0,0,1-.4,1.57,3.61,3.61,0,0,0,2.08,1.9v-4.1h-6.55V317.3h15.26v2.29h-6.18v1h5.1v2.25h-5.1Zm4.67-7.4H188.87v-6.46h12.27Zm-2.55-4.66h-7.3v.59h7.3Zm0,2.27h-7.3v.59h7.3Z"/><path d="M221.05,319.44a11.52,11.52,0,0,1-1.91,4.15,10,10,0,0,0,2.72,1.08,8.66,8.66,0,0,0-1.46,2,9.51,9.51,0,0,1-2.89-1.42,11.25,11.25,0,0,1-2.76,1.6,8.86,8.86,0,0,0-1.18-1.85v1.82h-2.33V325.4l-5.4.56-.17-2.23,1.43-.11v-5.11h-1.28v-2.05h15.51v2.05h-7.76v6.28a7.78,7.78,0,0,0,2.2-1.19,10.66,10.66,0,0,1-1.46-2.46l.87-.25H214v-2h5.06l.41-.07Zm-10.82-3.34h-2.39v-5.78H219.3v5.78h-2.51v-4h-6.56Zm-.93,2.41v.43h1.94v-.43Zm0,2.64h1.94v-.45H209.3Zm1.94,2.13v-.36H209.3v.52ZM216.3,314h-5.66v-1.48h5.66Zm-5.66.47h5.66v1.48h-5.66Zm5.84,6.45a6,6,0,0,0,.84,1.2,8.58,8.58,0,0,0,.74-1.2Z"/><path d="M240.11,324.32v2H224.29v-2h6.54v-.59h-5.27v-1.94h5.27v-.55h-4.7v-5.83h4.7V315h-6.44v-2h6.44v-.52c-1.58.07-3.17.13-4.65.13a7.71,7.71,0,0,0-.49-2,92.39,92.39,0,0,0,11.65-.85l1.1,2c-1.52.23-3.27.43-5.1.56v.66H240v2h-6.63v.45h5v5.83h-5v.55H239v1.94h-5.63v.59Zm-11.53-6.75h2.25v-.48h-2.25Zm2.25,2v-.49h-2.25v.49Zm2.51-2.48v.48h2.43v-.48Zm2.43,2h-2.43v.49h2.43Z"/><path d="M255.36,322.09a7.67,7.67,0,0,1-1.24,1.6c1.71.44,3.24.89,4.44,1.26l-2.22,1.82c-1.17-.45-2.74-.95-4.54-1.46a23.32,23.32,0,0,1-8.06,1.59,7,7,0,0,0-.91-2.25,31.31,31.31,0,0,0,4.77-.42c-.95-.21-1.93-.41-2.91-.61.36-.45.76-1,1.15-1.53h-3V320h4.35c.26-.47.5-.92.71-1.37h-4v-5.31h3.69v-.72h-4.44V310.3H258.3v2.25h-4.56v.72h4.12v5.31h-9l1.63.38c-.14.32-.31.66-.48,1h3.68c.12-.31.24-.63.35-1l2.44.61-.12.38h2.38v2.14Zm-9.16-5.53h1.35V315.3H246.2Zm2.31,5.82c.91.18,1.82.38,2.7.59a4.73,4.73,0,0,0,1.09-.88h-3.6Zm1.39-9.11h1.48v-.72H249.9Zm1.48,3.29V315.3H249.9v1.26Zm2.36-1.26v1.26h1.62V315.3Z"/><path d="M277.15,312.49s0,.83,0,1.14c-.21,8-.38,10.93-1.11,11.92a2.42,2.42,0,0,1-1.82,1.15,14.46,14.46,0,0,1-2.79.07,6.12,6.12,0,0,0-.83-2.54c1.11.11,2.14.11,2.6.11A.86.86,0,0,0,274,324c.5-.56.71-3.21.84-9.15h-3.27a17.35,17.35,0,0,1-1.46,2.68,15.9,15.9,0,0,0-1.41-1.11V325h-4.51v1.28h-2.25V312.67h2a27.67,27.67,0,0,0,.38-2.93l2.73.4c-.29.88-.58,1.78-.86,2.53h2.55v2.4a20.1,20.1,0,0,0,2.05-5.28l2.41.6c-.19.7-.42,1.4-.66,2.1Zm-10.76,2.45h-2.25v2.43h2.25Zm0,7.78v-3.1h-2.25v3.1Zm5.68-.54a41.35,41.35,0,0,0-2.25-4.19l2-1.16c.78,1.23,1.9,2.94,2.41,4Z"/><path d="M279.86,325.24a11,11,0,0,0,1.3-3.31l2.16.88a15.58,15.58,0,0,1-1.28,3.6Zm6.86-10.85a6.33,6.33,0,0,0-.41-.83c-4.51.48-5.21.61-5.71.83-.12-.45-.45-1.46-.67-2a2.35,2.35,0,0,0,.92-.52,10.14,10.14,0,0,0,2-2.11l2.19.67a18.17,18.17,0,0,1-1.62,1.67l1.91-.18c-.17-.25-.34-.49-.5-.7l1.67-.87a19.91,19.91,0,0,1,2,3.1c0-.14,0-.31,0-.49v-3.07h2.29v.93h4v1.89h-4V313c0,.52.06.74.56.74h2.22a8.82,8.82,0,0,0,1.69-.16c0,.63.1,1.49.19,2.05a7,7,0,0,1-1.79.16h-2.41c-2,0-2.65-.67-2.74-2.32l-1.7.94h.74V320c0,.89-.17,1.3-.72,1.59a5,5,0,0,1-2.14.27,8,8,0,0,0-.6-1.66,6.84,6.84,0,0,0,1.08,0c.18,0,.25-.05.25-.22v-.54c-.8.44-1.57.87-2.31,1.25l-.38-1a5,5,0,0,1-1.08,2.27,10.42,10.42,0,0,0-1.78-1.3,5,5,0,0,0,1-3.6v-2.66Zm-2.29,3.88c-.39-.25-1-.55-1.46-.81,0,.42,0,.87-.08,1.32C283.35,318.63,283.87,318.47,284.43,318.27ZM283,316.15v.68l.54-.68Zm2.45,0h-1.86c.58.25,1.37.63,1.86.9Zm4.13,8.34c.74,0,.87-.26,1-1.82a6.9,6.9,0,0,0,2.1.84c-.26,2.42-.89,3-2.86,3h-2.91c-2.54,0-3.2-.63-3.2-2.59v-1.64h2.43v1.6c0,.52.17.58,1.05.58Zm-4.13-6.56v-.65l-.61.87Zm3,3.08c.49.61,1.19,1.48,1.55,2l-1.82,1.26a24.54,24.54,0,0,0-1.47-2.16Zm2.83.85c-2.22,0-2.72-.63-2.72-2.63v-3.44h2.29v1h4.11v1.89h-4.11v.56c0,.54.12.6.74.6h1.7c.45,0,.57-.13.64-.74a6.33,6.33,0,0,0,2,.79c-.26,1.57-.87,2-2.39,2Zm3.44.07c.41,1,1,2.39,1.22,3.24l-2.29.76c-.21-.87-.69-2.29-1.08-3.37Z"/><path d="M302.18,315.92c0,3.13-.22,7.86-1.65,10.87a9.89,9.89,0,0,0-2.31-1.12c1.38-2.79,1.48-6.95,1.48-9.74v-4.77h6.41c-.11-.36-.21-.7-.31-1l2.54-.57a10.53,10.53,0,0,1,.55,1.58h5.55v2.41H302.18Zm11.45,5a8.48,8.48,0,0,1-2.72,3.19,30.32,30.32,0,0,0,3.84.47,9.84,9.84,0,0,0-1.45,2.27,20.14,20.14,0,0,1-5.42-1.21,24.48,24.48,0,0,1-5.16,1.1,9.61,9.61,0,0,0-1-2.18,26.56,26.56,0,0,0,3.41-.45,9.84,9.84,0,0,1-1.69-1.6l.74-.29h-1.6v-2h9.07l.43-.09Zm-9.06-1.19V317h-2.08v-2h2.08v-1h2.36v1h2.57v-1H312v1h2.32v2H312v2.73Zm1.6,2.49a7.7,7.7,0,0,0,1.79,1,7.91,7.91,0,0,0,1.76-1Zm.76-5.22v.79h2.57V317Z"/><path d="M320.88,315.3a3,3,0,1,1-2.88,3A2.93,2.93,0,0,1,320.88,315.3Zm0,4.51a1.5,1.5,0,1,0-1.43-1.5A1.47,1.47,0,0,0,320.88,319.81Z"/></svg>