<svg id="圖層_1" data-name="圖層 1" xmlns="http://www.w3.org/2000/svg" xmlns:xlink="http://www.w3.org/1999/xlink" viewBox="0 0 592.96 476.72"><defs><style>.cls-1,.cls-10,.cls-11,.cls-15,.cls-2,.cls-3,.cls-4,.cls-5,.cls-6,.cls-7,.cls-8,.cls-9{fill:none;}.cls-10,.cls-11,.cls-13,.cls-14,.cls-15,.cls-2,.cls-3,.cls-4,.cls-5,.cls-6,.cls-7,.cls-8,.cls-9{stroke:#211815;}.cls-10,.cls-11,.cls-15,.cls-2,.cls-3,.cls-4,.cls-5,.cls-6,.cls-7,.cls-8,.cls-9{stroke-linecap:round;}.cls-2{stroke-width:3.5px;}.cls-10,.cls-11,.cls-2,.cls-3,.cls-4,.cls-5,.cls-6,.cls-7,.cls-8,.cls-9{stroke-dasharray:0 6.5;}.cls-3{stroke-width:3.25px;}.cls-13,.cls-14,.cls-4{stroke-width:3px;}.cls-5{stroke-width:2.75px;}.cls-6{stroke-width:2.5px;}.cls-7{stroke-width:2.25px;}.cls-8{stroke-width:2px;}.cls-9{stroke-width:1.75px;}.cls-10{stroke-width:1.5px;}.cls-11{stroke-width:1.25px;}.cls-12{fill:#fff;}.cls-13,.cls-14{stroke-miterlimit:10;}.cls-13{fill:url(#起伏的細點);}.cls-14{fill:url(#起伏的細點-3);}.cls-15{stroke-linejoin:round;stroke-width:17px;}</style><pattern id="起伏的細點" data-name="起伏的細點" width="83" height="65" patternTransform="translate(147.49 176.31)" patternUnits="userSpaceOnUse" viewBox="0 0 83 65"><rect class="cls-1" width="83" height="65"/><line class="cls-2" x1="83" y1="65" x2="83" y2="130.5"/><line class="cls-2" y1="65" y2="130.5"/><line class="cls-3" x1="4.61" y1="61.75" x2="4.61" y2="130.5"/><line class="cls-4" x1="9.22" y1="65" x2="9.22" y2="130.5"/><line class="cls-5" x1="13.83" y1="61.75" x2="13.83" y2="130.5"/><line class="cls-6" x1="18.45" y1="65" x2="18.45" y2="130.5"/><line class="cls-7" x1="23.06" y1="61.75" x2="23.06" y2="130.5"/><line class="cls-8" x1="27.67" y1="65" x2="27.67" y2="130.5"/><line class="cls-9" x1="32.28" y1="61.75" x2="32.28" y2="130.5"/><line class="cls-10" x1="36.89" y1="65" x2="36.89" y2="130.5"/><line class="cls-11" x1="41.5" y1="61.75" x2="41.5" y2="130.5"/><line class="cls-2" x1="83" y1="65" x2="83" y2="130.5"/><line class="cls-3" x1="78.39" y1="61.75" x2="78.39" y2="130.5"/><line class="cls-4" x1="73.78" y1="65" x2="73.78" y2="130.5"/><line class="cls-5" x1="69.17" y1="61.75" x2="69.17" y2="130.5"/><line class="cls-6" x1="64.55" y1="65" x2="64.55" y2="130.5"/><line class="cls-7" x1="59.94" y1="61.75" x2="59.94" y2="130.5"/><line class="cls-8" x1="55.33" y1="65" x2="55.33" y2="130.5"/><line class="cls-9" x1="50.72" y1="61.75" x2="50.72" y2="130.5"/><line class="cls-10" x1="46.11" y1="65" x2="46.11" y2="130.5"/><line class="cls-2" y1="65" y2="130.5"/><line class="cls-2" x1="83" x2="83" y2="65.5"/><line class="cls-2" y2="65.5"/><line class="cls-3" x1="4.61" y1="-3.25" x2="4.61" y2="65.5"/><line class="cls-4" x1="9.22" x2="9.22" y2="65.5"/><line class="cls-5" x1="13.83" y1="-3.25" x2="13.83" y2="65.5"/><line class="cls-6" x1="18.45" x2="18.45" y2="65.5"/><line class="cls-7" x1="23.06" y1="-3.25" x2="23.06" y2="65.5"/><line class="cls-8" x1="27.67" x2="27.67" y2="65.5"/><line class="cls-9" x1="32.28" y1="-3.25" x2="32.28" y2="65.5"/><line class="cls-10" x1="36.89" x2="36.89" y2="65.5"/><line class="cls-11" x1="41.5" y1="-3.25" x2="41.5" y2="65.5"/><line class="cls-2" x1="83" x2="83" y2="65.5"/><line class="cls-3" x1="78.39" y1="-3.25" x2="78.39" y2="65.5"/><line class="cls-4" x1="73.78" x2="73.78" y2="65.5"/><line class="cls-5" x1="69.17" y1="-3.25" x2="69.17" y2="65.5"/><line class="cls-6" x1="64.55" x2="64.55" y2="65.5"/><line class="cls-7" x1="59.94" y1="-3.25" x2="59.94" y2="65.5"/><line class="cls-8" x1="55.33" x2="55.33" y2="65.5"/><line class="cls-9" x1="50.72" y1="-3.25" x2="50.72" y2="65.5"/><line class="cls-10" x1="46.11" x2="46.11" y2="65.5"/><line class="cls-2" y2="65.5"/><line class="cls-2" x1="83" y1="-65" x2="83" y2="0.5"/><line class="cls-2" y1="-65" y2="0.5"/><line class="cls-3" x1="4.61" y1="-68.25" x2="4.61" y2="0.5"/><line class="cls-4" x1="9.22" y1="-65" x2="9.22" y2="0.5"/><line class="cls-5" x1="13.83" y1="-68.25" x2="13.83" y2="0.5"/><line class="cls-6" x1="18.45" y1="-65" x2="18.45" y2="0.5"/><line class="cls-7" x1="23.06" y1="-68.25" x2="23.06" y2="0.5"/><line class="cls-8" x1="27.67" y1="-65" x2="27.67" y2="0.5"/><line class="cls-9" x1="32.28" y1="-68.25" x2="32.28" y2="0.5"/><line class="cls-10" x1="36.89" y1="-65" x2="36.89" y2="0.5"/><line class="cls-11" x1="41.5" y1="-68.25" x2="41.5" y2="0.5"/><line class="cls-2" x1="83" y1="-65" x2="83" y2="0.5"/><line class="cls-3" x1="78.39" y1="-68.25" x2="78.39" y2="0.5"/><line class="cls-4" x1="73.78" y1="-65" x2="73.78" y2="0.5"/><line class="cls-5" x1="69.17" y1="-68.25" x2="69.17" y2="0.5"/><line class="cls-6" x1="64.55" y1="-65" x2="64.55" y2="0.5"/><line class="cls-7" x1="59.94" y1="-68.25" x2="59.94" y2="0.5"/><line class="cls-8" x1="55.33" y1="-65" x2="55.33" y2="0.5"/><line class="cls-9" x1="50.72" y1="-68.25" x2="50.72" y2="0.5"/><line class="cls-10" x1="46.11" y1="-65" x2="46.11" y2="0.5"/><line class="cls-2" y1="-65" y2="0.5"/></pattern><pattern id="起伏的細點-3" data-name="起伏的細點" width="83" height="65" patternTransform="translate(174.54 65.67)" patternUnits="userSpaceOnUse" viewBox="0 0 83 65"><rect class="cls-1" width="83" height="65"/><line class="cls-2" x1="83" y1="65" x2="83" y2="130.5"/><line class="cls-2" y1="65" y2="130.5"/><line class="cls-3" x1="4.61" y1="61.75" x2="4.61" y2="130.5"/><line class="cls-4" x1="9.22" y1="65" x2="9.22" y2="130.5"/><line class="cls-5" x1="13.83" y1="61.75" x2="13.83" y2="130.5"/><line class="cls-6" x1="18.45" y1="65" x2="18.45" y2="130.5"/><line class="cls-7" x1="23.06" y1="61.75" x2="23.06" y2="130.5"/><line class="cls-8" x1="27.67" y1="65" x2="27.67" y2="130.5"/><line class="cls-9" x1="32.28" y1="61.75" x2="32.28" y2="130.5"/><line class="cls-10" x1="36.89" y1="65" x2="36.89" y2="130.5"/><line class="cls-11" x1="41.5" y1="61.75" x2="41.5" y2="130.5"/><line class="cls-2" x1="83" y1="65" x2="83" y2="130.5"/><line class="cls-3" x1="78.39" y1="61.75" x2="78.39" y2="130.5"/><line class="cls-4" x1="73.78" y1="65" x2="73.78" y2="130.5"/><line class="cls-5" x1="69.17" y1="61.75" x2="69.17" y2="130.5"/><line class="cls-6" x1="64.55" y1="65" x2="64.55" y2="130.5"/><line class="cls-7" x1="59.94" y1="61.75" x2="59.94" y2="130.5"/><line class="cls-8" x1="55.33" y1="65" x2="55.33" y2="130.5"/><line class="cls-9" x1="50.72" y1="61.75" x2="50.72" y2="130.5"/><line class="cls-10" x1="46.11" y1="65" x2="46.11" y2="130.5"/><line class="cls-2" y1="65" y2="130.5"/><line class="cls-2" x1="83" x2="83" y2="65.5"/><line class="cls-2" y2="65.5"/><line class="cls-3" x1="4.61" y1="-3.25" x2="4.61" y2="65.5"/><line class="cls-4" x1="9.22" x2="9.22" y2="65.5"/><line class="cls-5" x1="13.83" y1="-3.25" x2="13.83" y2="65.5"/><line class="cls-6" x1="18.45" x2="18.45" y2="65.5"/><line class="cls-7" x1="23.06" y1="-3.25" x2="23.06" y2="65.5"/><line class="cls-8" x1="27.67" x2="27.67" y2="65.5"/><line class="cls-9" x1="32.28" y1="-3.25" x2="32.28" y2="65.5"/><line class="cls-10" x1="36.89" x2="36.89" y2="65.5"/><line class="cls-11" x1="41.5" y1="-3.25" x2="41.5" y2="65.5"/><line class="cls-2" x1="83" x2="83" y2="65.5"/><line class="cls-3" x1="78.39" y1="-3.25" x2="78.39" y2="65.5"/><line class="cls-4" x1="73.78" x2="73.78" y2="65.5"/><line class="cls-5" x1="69.17" y1="-3.25" x2="69.17" y2="65.5"/><line class="cls-6" x1="64.55" x2="64.55" y2="65.5"/><line class="cls-7" x1="59.94" y1="-3.25" x2="59.94" y2="65.5"/><line class="cls-8" x1="55.33" x2="55.33" y2="65.5"/><line class="cls-9" x1="50.72" y1="-3.25" x2="50.72" y2="65.5"/><line class="cls-10" x1="46.11" x2="46.11" y2="65.5"/><line class="cls-2" y2="65.5"/><line class="cls-2" x1="83" y1="-65" x2="83" y2="0.5"/><line class="cls-2" y1="-65" y2="0.5"/><line class="cls-3" x1="4.61" y1="-68.25" x2="4.61" y2="0.5"/><line class="cls-4" x1="9.22" y1="-65" x2="9.22" y2="0.5"/><line class="cls-5" x1="13.83" y1="-68.25" x2="13.83" y2="0.5"/><line class="cls-6" x1="18.45" y1="-65" x2="18.45" y2="0.5"/><line class="cls-7" x1="23.06" y1="-68.25" x2="23.06" y2="0.5"/><line class="cls-8" x1="27.67" y1="-65" x2="27.67" y2="0.5"/><line class="cls-9" x1="32.28" y1="-68.25" x2="32.28" y2="0.5"/><line class="cls-10" x1="36.89" y1="-65" x2="36.89" y2="0.5"/><line class="cls-11" x1="41.5" y1="-68.25" x2="41.5" y2="0.5"/><line class="cls-2" x1="83" y1="-65" x2="83" y2="0.5"/><line class="cls-3" x1="78.39" y1="-68.25" x2="78.39" y2="0.5"/><line class="cls-4" x1="73.78" y1="-65" x2="73.78" y2="0.5"/><line class="cls-5" x1="69.17" y1="-68.25" x2="69.17" y2="0.5"/><line class="cls-6" x1="64.55" y1="-65" x2="64.55" y2="0.5"/><line class="cls-7" x1="59.94" y1="-68.25" x2="59.94" y2="0.5"/><line class="cls-8" x1="55.33" y1="-65" x2="55.33" y2="0.5"/><line class="cls-9" x1="50.72" y1="-68.25" x2="50.72" y2="0.5"/><line class="cls-10" x1="46.11" y1="-65" x2="46.11" y2="0.5"/><line class="cls-2" y1="-65" y2="0.5"/></pattern></defs><polygon class="cls-12" points="61.51 30.13 32.1 30.13 0 107.84 43.92 153.45 0 188.93 0 352.79 30.75 396.72 13.52 440.64 61.51 475.55 137.4 459.79 179.63 476.71 254.53 476.71 299.32 456.26 376.03 476.71 446.79 472.05 479.78 449.93 517.66 467.37 564.25 464.29 592.97 425.44 562.56 381.51 592.97 339.28 592.97 163.59 565.93 126.42 592.97 70.67 559.18 8.16 439.23 8.16 395.31 21.68 319.29 0 116.57 0 61.51 30.13"/><path class="cls-13" d="M538.42,369.92c-8.32,2.46-12.31,6.45-14.77,14.76a3.51,3.51,0,0,1-6.72,0c-2.46-8.31-6.44-12.3-14.76-14.76a3.51,3.51,0,0,1,0-6.72c8.32-2.46,12.3-6.45,14.76-14.76a3.51,3.51,0,0,1,6.72,0c2.46,8.31,6.45,12.3,14.77,14.76A3.52,3.52,0,0,1,538.42,369.92Z"/><circle class="cls-14" cx="72.51" cy="87.57" r="7.52"/><path class="cls-15" d="M432.12,412.85s7.05-41,48.81-39.8"/><path class="cls-15" d="M80,58.2s19.3-.81,23.73,20.61"/><path d="M75.08,147.2c3.92-3.72,6.55-6.69,6.55-9.07,0-1.49-.8-2.31-2-2.31a3.74,3.74,0,0,0-2.66,1.59l-2-2.12a6.46,6.46,0,0,1,5.2-2.53,4.87,4.87,0,0,1,5.13,5.15c0,2.82-2.31,5.92-4.71,8.45a21.26,21.26,0,0,1,2.55-.22h2.88v3.3H75.08Z"/><path d="M89.74,141.17c0-5.63,2.23-8.41,5.53-8.41s5.56,2.82,5.56,8.41-2.26,8.58-5.56,8.58S89.74,146.8,89.74,141.17Zm7.55,0c0-4.47-.9-5.39-2-5.39s-2,.92-2,5.39.89,5.54,2,5.54S97.29,145.66,97.29,141.17Z"/><path d="M104.44,147.2c3.91-3.72,6.54-6.69,6.54-9.07,0-1.49-.8-2.31-2-2.31a3.7,3.7,0,0,0-2.65,1.59l-2-2.12a6.43,6.43,0,0,1,5.19-2.53,4.87,4.87,0,0,1,5.14,5.15c0,2.82-2.32,5.92-4.72,8.45a21.44,21.44,0,0,1,2.55-.22h2.88v3.3H104.44Z"/><path d="M119.09,141.17c0-5.63,2.23-8.41,5.53-8.41s5.56,2.82,5.56,8.41-2.25,8.58-5.56,8.58S119.09,146.8,119.09,141.17Zm7.55,0c0-4.47-.9-5.39-2-5.39s-2,.92-2,5.39.88,5.54,2,5.54S126.64,145.66,126.64,141.17Z"/><path d="M153.19,147h-7v4.51h-3.15V147h-9.39v-3.08h3.26V139c-.25.31-.5.62-.75.88a21.75,21.75,0,0,0-2.63-2.09,16.7,16.7,0,0,0,4.25-7.24l3.13.84c-.17.5-.36,1-.57,1.54H152V136H146.2v2.24h5.24v3H146.2v2.73h7Zm-14.31-11a22.65,22.65,0,0,1-1.41,2.24h5.58V136Zm4.17,7.94v-2.73H140v2.73Z"/><path d="M167.76,146.23V147h6.12v2.55h-6.12v1.89h-3.07v-1.89h-5.87V147h5.87v-.75h-8v-2.55h3.13V143h-2.35v-2.51h2.35v-1.17h2.8v1.17h2.09v-1.17h3.07v1.17h2.17v-1.17h2.84v1.17h1.64V143h-1.64v.66H176v2.55Zm6.63-7.2h-16.1v-7.48h16.1Zm-13.15-4.7h3.45v-.71h-3.45Zm0,2.64h3.45v-.71h-3.45Zm3.45,6.71V143H162.6v.66Zm6.58-10.06h-3.53v.71h3.53Zm0,2.64h-3.53V137h3.53ZM167.76,143v.66h2.17V143Z"/><path d="M187.48,148.14a15,15,0,0,1-5.95,3,13.77,13.77,0,0,0-1.79-2.29,16.23,16.23,0,0,0,5.6-1.72ZM198.76,144v2.6h-8v4.9h-3v-4.9H179.8V144h7.89v-.6h-5.95v-2.26h5.95v-.62h-7v-2.4h3.51c-.17-.41-.42-.92-.61-1.29l1.45-.33h-5.21V134h2.56a21.74,21.74,0,0,0-1.13-2.46l2.63-.93a17.31,17.31,0,0,1,1.49,3l-1,.35H186v-3.43h2.84V134h1v-3.43h2.88V134h1.39l-.63-.2a18.47,18.47,0,0,0,1.18-3.1l3.22.77c-.55,1-1.08,1.83-1.54,2.53h2.38v2.49h-5.62l2.32.59a12.54,12.54,0,0,1-1.1,1h3.56v2.4h-7.14v.62h6.19v2.26h-6.19v.6Zm-12-7.5a10.78,10.78,0,0,1,.69,1.34l-1.2.28h5.64l-.8-.24a15.41,15.41,0,0,0,1-1.38ZM193.46,147c1.56.68,3.93,1.78,5.24,2.51l-2.23,1.65c-1.14-.71-3.47-1.92-5.11-2.71Z"/><path d="M218.53,131.35c-.17.6-.36,1.17-.55,1.72a13.52,13.52,0,0,0,4.51,5.11,11.65,11.65,0,0,0-2.13,2.5,15.39,15.39,0,0,1-3.75-4.62,15.8,15.8,0,0,1-4.1,4.8,10.49,10.49,0,0,0-1.26-1.74c0,.29,0,.75,0,1-.07,6.49-.15,9-.68,9.84a2.19,2.19,0,0,1-1.49,1.08,9.87,9.87,0,0,1-2.25.13,7.94,7.94,0,0,0-.76-2.86c.57,0,1,.06,1.35.06A.63.63,0,0,0,208,148c.21-.39.29-2,.33-6.2h-1.47c-.27,4-1,7.3-2.75,9.72a9.2,9.2,0,0,0-2.17-2.44c2-2.77,2.08-6.89,2.12-12.21h-1.41V134h3.43a13.84,13.84,0,0,0-1.13-2.37l2.71-1.08a13,13,0,0,1,1.52,2.92l-1.29.53h3.77v2.93H207c0,.7,0,1.38,0,2h4.06a7.14,7.14,0,0,0-.63-.61,13.29,13.29,0,0,0,5.28-7.79Zm-4.1,13.43a42.87,42.87,0,0,1,6.2,4.05l-2.12,2.72a38.75,38.75,0,0,0-6-4.4Zm3.11-.31a26.37,26.37,0,0,0-3.6-3.3l2-2a26,26,0,0,1,3.74,3.08Z"/><path d="M237.33,139.65c1.37,4,3.81,7.19,7.68,8.76a13.49,13.49,0,0,0-2.27,3c-3.71-1.78-6-4.7-7.64-8.6a15,15,0,0,1-7.58,8.6,10,10,0,0,0-2.31-2.73,12.56,12.56,0,0,0,7.38-9.06h-7v-3.32h7.47c.15-1.94.13-3.87.15-5.7h3.36c0,1.83,0,3.76-.21,5.7h8.08v3.32Z"/><path d="M267.07,148c0,1.56-.27,2.44-1.18,2.95a7.76,7.76,0,0,1-3.87.61,11.15,11.15,0,0,0-1-3.17c1,.07,2.21.07,2.57.07s.48-.15.48-.5V134.63H251.81v16.9h-3V131.62h18.22Zm-4-9.55H252.68v-2.66h10.43Zm-6.69,9v1.38h-2.8v-9h8.67v7.64Zm0-5v2.42h3.05v-2.42Z"/><path d="M283.13,139.65c1.37,4,3.81,7.19,7.68,8.76a14.12,14.12,0,0,0-2.27,3c-3.7-1.78-6-4.7-7.64-8.6a15,15,0,0,1-7.57,8.6,10,10,0,0,0-2.32-2.73,12.58,12.58,0,0,0,7.39-9.06h-7v-3.32h7.47c.15-1.94.13-3.87.15-5.7h3.37c0,1.83,0,3.76-.21,5.7h8.08v3.32Z"/><path d="M313.32,147.66h-7.83v1c0,1.37-.27,2.05-1.26,2.47a11,11,0,0,1-3.73.39,11.11,11.11,0,0,0-.95-2.68c.87,0,2.17,0,2.49,0s.44-.06.44-.33v-.9h-8.4v-2.51h8.4v-.42a15.77,15.77,0,0,0,1.79-1.08h-6v-2.2h8.78l.63-.15,1.7,1.65a37.92,37.92,0,0,1-3.34,2.2h7.26Zm-16-4.27H294.4v-4.82h1.51l-.35-6.58a31.1,31.1,0,0,0,4.37-1.3l1.22,1.81a20.33,20.33,0,0,1-2.69.81l0,.42H301v1.92h-2.4l0,.5H301V137a9.71,9.71,0,0,0,1.15-.61c-.33-.22-.69-.44-1-.62l1.39-1.19,1.14.66a5.65,5.65,0,0,0,.74-.83l1.93.61a8.29,8.29,0,0,1-1.05,1.28,14.53,14.53,0,0,1,1.14.92L305,138.57a13.22,13.22,0,0,0-1.09-1,13.09,13.09,0,0,1-1.45,1h6.27l.06-.5h-2.17v-1.92h2.34l0-.5h-2.25v-1.92h2.38l0-.51h-2.55v-1.93h5.53c-.1,2.38-.27,5.17-.46,7.28h1.54v4.82h-3v-2.55H297.28Zm1.48-4.82H302c-.25-.28-.63-.7-.94-1v.51h-2.3Zm6.08-4a10.72,10.72,0,0,0-.93-.79,10.35,10.35,0,0,1-1.54,1,12.41,12.41,0,0,0-1.55-1.39,12.35,12.35,0,0,0,1.45-.74c-.34-.2-.65-.4-1-.58l1.35-1.16c.36.17.73.39,1.11.61a6.16,6.16,0,0,0,.66-.72l1.91.59a9.4,9.4,0,0,1-1,1.17c.34.26.65.52.91.74Z"/><path d="M330.05,146.36c2.28.75,4.95,1.74,6.46,2.42l-1.43,2.8a83.55,83.55,0,0,0-8.37-3.44l1-1.78h-.63c-1,2.51-3.31,4.2-8.95,5.15a9.09,9.09,0,0,0-1.53-2.88c3.72-.49,5.66-1.21,6.69-2.27h-5.7v-2.68h6.9c0-.27.06-.53.1-.82h-7.49v-2.77H325v-.77h-6.08v-2.66H325v-.73H317.7v-2.79h3.77a9.39,9.39,0,0,0-.93-1.61l2.74-1.1a8.94,8.94,0,0,1,1.45,2.46l-.55.25h4.11a17,17,0,0,0,1.34-2.71l3.33.82c-.42.68-.84,1.34-1.24,1.89h3.8v2.79h-7.34v.73h6.31v2.66h-6.31v.77h8.25v2.77h-8.61c0,.29-.06.55-.1.82h7.95v2.68Z"/><path d="M347.63,141.26v7.68c0,1.07-.14,1.71-.8,2.11a4.88,4.88,0,0,1-2.48.42,9.24,9.24,0,0,0-.69-2.34c.48,0,1,0,1.24,0s.25-.07.25-.27v-1.47c-.55.37-1.07.75-1.6,1.1l-.5-1.21a10.16,10.16,0,0,1-1.25,4.29,11.42,11.42,0,0,0-2.12-1.5c1-1.6,1.05-3.85,1.05-5.59v-3.25h-1v-3.61h.78v-6.38h7.22v6.38h.86v2.4H359.4v2.22H348.5v-1Zm-1.32-1.52h-4.46v.59h4.46Zm-3.5-2.09h.51v-3.57h1.91v-.59h-2.42Zm.36,6.91c0,.55,0,1.12,0,1.74.59-.25,1.28-.55,2-.91v-.79l-.78.92c-.27-.28-.74-.72-1.2-1.12Zm2-2.2h-2v1l.63-.69c.44.31.95.66,1.35,1Zm.08-4.71V135.8h-.44v1.85ZM359.56,149v2.27H348.28V149h2.19c-.14-.46-.31-.95-.46-1.34l1.18-.38h-2V142.8h9.45v4.46h-2.25l1.55.44c-.29.44-.59.88-.84,1.28Zm-.48-9.51H348.75v-7.3h2.42v-1.52h2.33v1.52h.55v-1.52h2.36v1.52h2.67ZM351,134.88h.78v-.69H351Zm0,2.57h.78v-.7H351Zm.86,8h4v-.75h-4Zm.61,1.84a16,16,0,0,1,.63,1.72h1.47a12.69,12.69,0,0,0,.61-1.72Zm1.77-12.38v-.69h-.68v.69Zm-.68,1.87v.7h.68v-.7Zm3.24-2.56H356v.69h.77Zm0,2.56H356v.7h.77Z"/><path d="M371,136.72h-8.38v-2.48h3.22a26.91,26.91,0,0,0-1.18-2.56l2.36-1.16a21.82,21.82,0,0,1,1.52,3l-1.27.71H371Zm-.86.69a3.75,3.75,0,0,0,2.1-3.77v-2.35h7.53V136c0,.64,0,.93.28.93h.61a3.56,3.56,0,0,0,1.09-.18c0,.79.11,1.89.19,2.62a2.74,2.74,0,0,1-1.26.2h-.95c-2.31,0-2.76-1.1-2.76-3.61v-1.67h-2a6.35,6.35,0,0,1-3.35,5.74,12.88,12.88,0,0,0-1.53-1.91v1.69h-6.61v-2.38h6.61Zm.06,5.39h-6.67v-2.38h6.67Zm11.53-2a14.47,14.47,0,0,1-3.14,6.43,16.16,16.16,0,0,0,4,1.25,13.66,13.66,0,0,0-1.87,2.93,15,15,0,0,1-4.69-2,16.83,16.83,0,0,1-4.76,2.05,14,14,0,0,0-1.11-2.34v1.24h-4v.88h-2.57v-7.73h6.59v5a14.2,14.2,0,0,0,3.38-1.21,17.28,17.28,0,0,1-2.5-3.65l1.68-.62H370.6v-3h8.71l.53-.11ZM367.55,146h-1.41v1.81h1.41Zm6.27-3a9,9,0,0,0,2.17,2.53,9.72,9.72,0,0,0,1.87-2.53Z"/><path d="M395,136.72h-9v-2.48h3.41c-.32-.82-.78-1.78-1.18-2.56l2.35-1.16a21.82,21.82,0,0,1,1.52,3l-1.26.71H395Zm-8.1,3v-2.38h7.22v2.38Zm7.18,3h-7.18v-2.38H394Zm.08,7.57h-4.65v.88h-2.57v-7.73h7.22ZM389.46,146v1.81h2V146ZM405.18,141H401.5v10.58h-3.2V141h-3.45V137.8h3.45V131h3.2v6.78h3.68Z"/><path d="M427.83,147.66H420v1c0,1.37-.27,2.05-1.26,2.47a11,11,0,0,1-3.73.39,10.68,10.68,0,0,0-.94-2.68c.86,0,2.16,0,2.48,0s.44-.06.44-.33v-.9H408.6v-2.51H417v-.42a15.77,15.77,0,0,0,1.79-1.08h-6v-2.2h8.78l.63-.15,1.7,1.65a36.49,36.49,0,0,1-3.34,2.2h7.26Zm-16-4.27h-2.88v-4.82h1.52l-.36-6.58a31.64,31.64,0,0,0,4.38-1.3l1.22,1.81a20.49,20.49,0,0,1-2.7.81l0,.42h2.51v1.92h-2.4l0,.5h2.38V137a10.7,10.7,0,0,0,1.16-.61c-.34-.22-.7-.44-1-.62l1.39-1.19,1.13.66a5.13,5.13,0,0,0,.74-.83l1.93.61a8.29,8.29,0,0,1-1.05,1.28,14.53,14.53,0,0,1,1.14.92l-1.48,1.32a13.22,13.22,0,0,0-1.09-1,12.21,12.21,0,0,1-1.45,1h6.27l.06-.5H421.1v-1.92h2.33l0-.5H421.2v-1.92h2.38l0-.51h-2.55v-1.93h5.54c-.11,2.38-.28,5.17-.47,7.28h1.54v4.82h-3v-2.55H411.79Zm1.48-4.82h3.2c-.26-.28-.64-.7-1-1v.51h-2.29Zm6.08-4a10.72,10.72,0,0,0-.93-.79,10.81,10.81,0,0,1-1.53,1,13.28,13.28,0,0,0-1.56-1.39,12.35,12.35,0,0,0,1.45-.74c-.33-.2-.65-.4-1-.58l1.35-1.16c.36.17.74.39,1.12.61a7,7,0,0,0,.65-.72l1.91.59a9.4,9.4,0,0,1-1,1.17c.34.26.66.52.91.74Z"/><path d="M442.76,144.42v3.83c0,1.5-.28,2.31-1.35,2.8a9.6,9.6,0,0,1-3.85.5,11.9,11.9,0,0,0-1.12-3.12c1,.07,2.36.07,2.74.07s.46-.09.46-.33v-3.48c-1.95.2-3.22.33-4.1.44l2.8,1.05a23.25,23.25,0,0,1-4.61,4.54,22.15,22.15,0,0,0-2.67-2.14,13.16,13.16,0,0,0,4-3.39,9.25,9.25,0,0,0-1.5.38,27,27,0,0,0-.88-2.88,9.38,9.38,0,0,0,2.94-1.13,22.79,22.79,0,0,0,2.61-1.43,14.38,14.38,0,0,0-3.87.55c-.15-.59-.57-2.09-.88-2.9a5.58,5.58,0,0,0,1.83-.77,22.42,22.42,0,0,0,2.54-1.58c-1.7.26-3.42.48-5.07.66a10.21,10.21,0,0,0-.86-2.71c4.95-.55,10.23-1.58,13.57-3l2.28,2.53a41.61,41.61,0,0,1-6,1.74l1,.66a29.66,29.66,0,0,1-3.1,2.13l2.74-.11c.76-.59,1.49-1.19,2.17-1.82l2.25,2.13a40.3,40.3,0,0,1-6.21,4.16l4.27-.31c-.36-.42-.69-.86-1-1.23L446.4,139a51.71,51.71,0,0,1,4,5l-2.61,1.68c-.28-.47-.63-1-1.05-1.59Zm3.22.25a27.07,27.07,0,0,1,4.67,3.89l-2.74,1.89a27,27,0,0,0-4.46-4.09Z"/><path d="M458.82,141.83a2.17,2.17,0,0,1-2.25-2.2,2.19,2.19,0,0,1,2.33-2.2c1.67,0,2.55,1.27,2.55,3.3a5.69,5.69,0,0,1-4.46,5.52l-.78-2.11c1.62-.46,2.59-1.37,2.76-2.31Z"/><path d="M486,133.49v3.06H474.76a25.52,25.52,0,0,1-2.42,4.29v10.67h-3.09v-7.17a15.63,15.63,0,0,1-1.56,1.23,23.49,23.49,0,0,0-1.45-3.13,15.75,15.75,0,0,0,5-5.89H467v-3.06h5.62a28.42,28.42,0,0,0,.87-2.88l3.19.79c-.21.7-.44,1.39-.67,2.09ZM481.18,148h4.67v3H473.24v-3h4.84v-4.36h-4v-2.94h4v-3.33h3.1v3.33h3.87v2.94h-3.87Z"/><path d="M508.48,131.2v20.33h-2.91v-1H493.05v1H490.3V131.2Zm-2.91,16.92V133.58H493.05v14.54Zm-1.47-4.51h1.14v1.65h-2.55v1c0,1-.19,1.3-.84,1.48a9.59,9.59,0,0,1-2.63.2,7,7,0,0,0-.57-1.54c.44,0,1.1,0,1.28,0s.28-.07.28-.27v-.9h-3a9.38,9.38,0,0,1,1.07,1.58l-2,1a9.25,9.25,0,0,0-1.2-2l1.33-.64h-3.11v-1.65h6.92v-.42l-6.48.18-.09-1.63,4.38,0v-.5h-4v-4.54h4v-.52h-4.44v-1.65H498v-.67h2.46v.67H505v1.65h-4.48v.52h4v4.54h-.71a10.42,10.42,0,0,1,1.45,1.47Zm-7.81-5.21H498v-.49h-1.73Zm1.73,1.65v-.51h-1.73v.51Zm2.46-2.14v.49h1.64v-.49Zm0,1.63v.51h1.64v-.51Zm0,1.72v.5l1.16,0,0,0,.67-.46Zm2.21,2.35h.78l-.46-.53-.32,0Z"/><path d="M520.06,132.63c-.51,1.94-1.16,4.42-1.7,6.12a7.06,7.06,0,0,1,1.36,4.31c0,1.54-.29,2.46-1,3a2.89,2.89,0,0,1-1.26.51,12.69,12.69,0,0,1-1.35.07,8,8,0,0,0-.33-2v6.91h-2.65v-20h4.52l.42-.12Zm-4.29,11.31h.44a.76.76,0,0,0,.55-.18c.21-.17.29-.52.29-1.12a5.8,5.8,0,0,0-1.22-3.56c.32-1.3.69-3.17,1-4.67h-1Zm16.43-4.66c-.71.46-1.51.94-2.29,1.36a19.19,19.19,0,0,0,2.9,5.72,11.11,11.11,0,0,0-1.94,2,24.1,24.1,0,0,1-2.77-5.64c.61,3.08.17,6.1-.84,7.22a3.07,3.07,0,0,1-2.74,1.32c-.48,0-1.12,0-1.73,0a6.79,6.79,0,0,0-.73-2.82,16.11,16.11,0,0,0,1.93.11,1,1,0,0,0,1.08-.68,4.17,4.17,0,0,0,.48-1.92,22,22,0,0,1-4.88,2.75,10.7,10.7,0,0,0-1.79-2.22,16.42,16.42,0,0,0,6.48-3.47c-.06-.29-.12-.58-.19-.86a24.22,24.22,0,0,1-3.76,2.44,10.68,10.68,0,0,0-1.6-2.22,15.16,15.16,0,0,0,4.5-2.42,7.21,7.21,0,0,0-.55-.88,22.45,22.45,0,0,1-3.09,1.8,16.82,16.82,0,0,0-1.73-2.24,17.67,17.67,0,0,0,3.83-1.94h-3V134h2.9a13.18,13.18,0,0,0-1.75-1.91l2.23-1.43a11.45,11.45,0,0,1,2.49,2.62l-1,.72h1.62a16.79,16.79,0,0,0,1.74-3.3l2.93.86c-.53.88-1.08,1.74-1.58,2.44H532v2.73h-5.45a9.06,9.06,0,0,1-.82.82,10.07,10.07,0,0,1,1.24,1.93,23.56,23.56,0,0,0,3.35-2.31Z"/><path d="M93.58,170.76v11.45H90.36v-1H86.3v6.73H83.06v-6.73H79v1.15H76V170.76h7.11V167H86.3v3.76ZM83.06,178v-4.12H79V178Zm7.3,0v-4.12H86.3V178Z"/><path d="M111.73,183.92c1.85.79,3.89,1.74,5.13,2.4l-3.51,1.58a36.5,36.5,0,0,0-5-2.68l2-1.3h-6.17L106.3,185a26.89,26.89,0,0,1-6.61,3,22.43,22.43,0,0,0-2.42-2.46,24.41,24.41,0,0,0,5.35-1.63H100v-9.46a7.89,7.89,0,0,1-.65.49,10.33,10.33,0,0,0-2.23-2.29,14.9,14.9,0,0,0,5.49-5.66l3.3.68c-.12.22-.27.47-.42.69h3.31l.48-.14,2.13,1.43a24.36,24.36,0,0,1-1.65,2.42h4.82v11.84Zm-7.89-13.16a14.6,14.6,0,0,1-1.14,1.32h3.43a15.66,15.66,0,0,0,1-1.32Zm7.57,3.77h-8.33v.79h8.33Zm0,3.87v-.81h-8.33v.81Zm-8.33,2.27v.81h8.33v-.81Z"/><path d="M134.36,184.52c1.81.68,3.71,1.45,4.89,2l-3.75,1.38a33.54,33.54,0,0,0-5.11-2.39l1.79-1H127l1.58.74A25.54,25.54,0,0,1,122,188a18.35,18.35,0,0,0-2.21-2.29,27.66,27.66,0,0,0,4.86-1.18h-2.17v-8.74h14.42v8.74Zm4.74-9.29H120v-2.16h8v-.52h-5.85V170.7H128v-.55h-6.82v-2.07H128V167h3.15v1.08h7.18v2.07h-7.18v.55h6.17v1.85h-6.17v.52h8Zm-13.68,2.93h8.33v-.62h-8.33Zm0,2.29h8.33v-.62h-8.33Zm0,2.31h8.33v-.64h-8.33Z"/><path d="M161.46,170.37s0,1,0,1.38c-.26,9.8-.47,13.36-1.35,14.57a3,3,0,0,1-2.23,1.41,19.17,19.17,0,0,1-3.41.09,7.52,7.52,0,0,0-1-3.11,30.92,30.92,0,0,0,3.18.14,1,1,0,0,0,.92-.4c.61-.68.87-3.92,1-11.18h-4a22.38,22.38,0,0,1-1.79,3.28,17.83,17.83,0,0,0-1.73-1.36v10.47h-5.51v1.56h-2.76V170.59h2.4a32.72,32.72,0,0,0,.47-3.59l3.34.49c-.36,1.07-.71,2.17-1.05,3.1h3.11v2.92a24.21,24.21,0,0,0,2.51-6.44l2.94.72c-.23.86-.5,1.72-.8,2.58Zm-13.15,3h-2.76v3h2.76Zm0,9.51v-3.79h-2.76v3.79Zm6.94-.66a51.39,51.39,0,0,0-2.76-5.13l2.4-1.41c1,1.5,2.32,3.59,3,4.89Z"/><path d="M172.71,181.26c-2.53,1-5.24,2.05-7.41,2.84L164,181c.78-.22,1.72-.48,2.76-.81v-8h-2.13v-2.95H172v2.95h-2.08v7l2.31-.75Zm8.08,2.16a31.21,31.21,0,0,1,3.93,2.64l-2.42,1.87a32.34,32.34,0,0,0-4-3l2.08-1.56h-4.71l2,1.56a20.27,20.27,0,0,1-5.52,2.9,18,18,0,0,0-1.85-2.18,17.44,17.44,0,0,0,4.57-2.28h-1.83v-11.8h3.24c.06-.39.12-.79.17-1.16h-4.17v-2.67h12v2.67H180c-.15.39-.3.79-.42,1.16h4.06v11.8Zm-4.86-8.52h4.67v-1h-4.67Zm0,3.1h4.67v-1h-4.67Zm0,3.13h4.67v-1h-4.67Z"/><path d="M204.37,168.1v19.5h-3.26v-1.3h-9.05v1.3H189V168.1Zm-12.31,3.13v1.91h9.05v-1.91Zm0,4.93v2h9.05v-2Zm9.05,7v-2h-9.05v2Z"/><path d="M228.64,178.93s0,.77-.08,1.14c-.32,4.16-.67,6.05-1.3,6.78a2.53,2.53,0,0,1-1.71.92,16.17,16.17,0,0,1-2.48.09,7.41,7.41,0,0,0-.7-2.62l-.44.18a14.48,14.48,0,0,0-1.09-3l2.1-.72a13.09,13.09,0,0,1,1.22,2.9l-1.37.51c.53,0,1,0,1.29,0a.82.82,0,0,0,.69-.26c.3-.29.53-1.21.72-3.21H212.86q-.37.26-.75.48l2.1.73a10,10,0,0,1-2.48,5l-2.4-1.6a8,8,0,0,0,2.19-3.79l-1,.51a18.79,18.79,0,0,0-1.6-2.8,18.56,18.56,0,0,0,7.62-6.69h-6.34v-2.77h3.2a19.53,19.53,0,0,0-1.16-2.57l2.66-1.08a15.87,15.87,0,0,1,1.55,3.21l-1,.44h2.67A24.51,24.51,0,0,0,219.6,167l3.09.9c-.34,1-.72,1.92-1.14,2.86h4c-.25,1.34-.54,2.86-.84,4.1h2.4c-.23,1.34-.55,2.86-.84,4.09ZM217,182.8a16.82,16.82,0,0,1,.52,4.07l-2.61.35a17.73,17.73,0,0,0-.37-4.11Zm.38-5.24c-.4.47-.82.93-1.24,1.37h7.4c.11-.42.21-.88.32-1.37Zm2.69,4.8a18.92,18.92,0,0,1,1,3.61l-2.44.64a21.72,21.72,0,0,0-.87-3.7Zm.08-8.85c-.25.45-.5.88-.77,1.33H222c.08-.42.18-.86.29-1.33Z"/><path d="M244.94,182.73c2.28.75,4.95,1.74,6.46,2.42L250,188a81.35,81.35,0,0,0-8.37-3.43l1-1.79H242c-1,2.51-3.31,4.21-9,5.15a9.09,9.09,0,0,0-1.53-2.88c3.72-.48,5.66-1.21,6.69-2.27h-5.7v-2.68h6.9c0-.26.06-.53.1-.81H232v-2.78h7.94v-.77h-6.09V173h6.09v-.73h-7.33v-2.79h3.77a9.79,9.79,0,0,0-.93-1.61l2.74-1.1a8.85,8.85,0,0,1,1.45,2.47l-.55.24h4.11a16.62,16.62,0,0,0,1.34-2.71l3.33.82c-.42.68-.84,1.34-1.24,1.89h3.81v2.79h-7.35V173h6.31v2.66h-6.31v.77h8.25v2.78h-8.61c0,.28-.06.55-.1.81h7.95v2.68Z"/><path d="M273.93,176.86h-1.49v7.5c0,1.43-.17,2.27-1,2.77a6.1,6.1,0,0,1-3.24.55,11,11,0,0,0-.8-3.08c.69,0,1.53,0,1.81,0s.34-.07.34-.31v-7.46H268V175h-2.9V187.8h-2.65V175h-2.61v-1.3c-.28.62-.59,1.26-.93,1.87v7.13c1.05-1.3,1.1-3.25,1.1-6.66h2.1c0,4.13-.21,6.86-1.83,8.53a6,6,0,0,0-1.37-1.82v5.14h-2.8v-8.09c-.27.33-.57.64-.84.92a19.15,19.15,0,0,0-1.62-3,16.91,16.91,0,0,0,3.87-6l2.32.79v-.49h2.61V167h2.65v5.08h3V174h5.8ZM260.13,168a22.14,22.14,0,0,1-4.48,5.56,19,19,0,0,0-1.56-2.4,13.54,13.54,0,0,0,3.28-4.2Zm6.54,3.71a19,19,0,0,0-1.45-2.81l1.83-1a19.3,19.3,0,0,1,1.52,2.59v-1.93h5v2.79h-5v-.75Zm1.2,12.3c-1.93,0-2.29-.77-2.29-3v-5h2.12v5.08c0,.59,0,.77.11.77h.29a2.16,2.16,0,0,0,.7-.13c0,.57.12,1.62.19,2.13a2.08,2.08,0,0,1-.91.15Z"/><path d="M284.89,173.1h-8.38v-2.49h3.22a26.74,26.74,0,0,0-1.18-2.55l2.36-1.17a21.9,21.9,0,0,1,1.52,3l-1.27.7h3.73Zm-.86.68a3.74,3.74,0,0,0,2.1-3.76v-2.36h7.53v4.67c0,.63,0,.92.28.92h.61a3.56,3.56,0,0,0,1.09-.18c0,.8.11,1.9.19,2.62a2.74,2.74,0,0,1-1.26.2h-.95c-2.31,0-2.76-1.1-2.76-3.61v-1.67h-1.95a6.35,6.35,0,0,1-3.35,5.74,12.88,12.88,0,0,0-1.53-1.91v1.69h-6.61v-2.37H284Zm.06,5.39h-6.67v-2.38h6.67Zm11.53-2a14.43,14.43,0,0,1-3.14,6.42,16.6,16.6,0,0,0,4,1.26,13.35,13.35,0,0,0-1.87,2.92,15,15,0,0,1-4.69-2,16.83,16.83,0,0,1-4.76,2.05,13.56,13.56,0,0,0-1.11-2.33v1.23h-4v.88h-2.57V179.9h6.59v5a13.78,13.78,0,0,0,3.38-1.21,16.79,16.79,0,0,1-2.5-3.65l1.68-.62h-2.12v-3h8.71l.53-.11Zm-14.18,5.23H280v1.81h1.41Zm6.27-3a9.16,9.16,0,0,0,2.17,2.53,9.72,9.72,0,0,0,1.87-2.53Z"/><path d="M308.34,173.1h-9v-2.49h3.41c-.32-.81-.78-1.78-1.18-2.55l2.35-1.17a21.9,21.9,0,0,1,1.52,3l-1.26.7h4.16Zm-8.1,3v-2.37h7.22v2.37Zm7.18,3h-7.18v-2.38h7.18Zm.08,7.57h-4.65v.88h-2.57V179.9h7.22Zm-4.65-4.34v1.81h2V182.4Zm15.72-5.08h-3.68V187.9h-3.2V177.32h-3.45v-3.15h3.45V167.4h3.2v6.77h3.68Z"/><path d="M326,173.8a3.68,3.68,0,1,1-3.52,3.68A3.59,3.59,0,0,1,326,173.8Zm0,5.5a1.83,1.83,0,1,0-1.75-1.82A1.78,1.78,0,0,0,326,179.3Z"/><path d="M352.77,179.41v2.38H333.24v-2.38h4.63a7.25,7.25,0,0,0-.42-1l1-.24h-2.1v-4.55H350v4.55H349a12.08,12.08,0,0,1-.78,1.21Zm-11.38-9H334v-2.22h7.37V167h3.11v1.21H352v2.22H344.5v.55h6.38v2.16H335.43v-2.16h6Zm-5.52,12h14.59v5.56H347.3v-.52h-8.42v.52h-3Zm3,2.07v.88h8.42v-.88Zm.34-8.1h7.72v-.75h-7.72Zm1.3,1.89a8.07,8.07,0,0,1,.51,1.21h4c.14-.39.31-.81.44-1.21Z"/><path d="M371.7,175.25c0,.82,0,1.74-.1,2.73.65,3.13,1.91,5.94,4,7.39a10.79,10.79,0,0,0-1.91,2.69,11.24,11.24,0,0,1-3.16-4.95,13.88,13.88,0,0,1-3,5,9.52,9.52,0,0,0-1.64-1.79v.75h-6.48v.81H357.1v-6.46c-.21.28-.4.52-.61.77a16.35,16.35,0,0,0-1.2-2.23,14.45,14.45,0,0,0,2.5-4.07h-1.68v-4.4h4.61v4.4h-1.54l.78.29c-.13.33-.27.68-.42,1h1.51a8,8,0,0,0-.37-.88l1.19-.44h-.46v-4.4h4.53v3.41a27.64,27.64,0,0,0,1.7-7.94l2.8.46c-.11.88-.21,1.74-.36,2.6h3.22l.4-.11,1.87.55a57.12,57.12,0,0,1-1.41,6.49L372,176.2c.22-.88.43-2.07.62-3.3h-3.08c-.06.28-.14.57-.21.83h2.4Zm-13.93-5.06h-2.33V168h2.33v-1h2.57v4.16h-2.57Zm0,4.18h1.12V173h-1.12Zm3.18,5.46v-.55h-1.6v.55Zm-1.6,2.57H361v-.63h-1.6Zm0,2.6H361v-.66h-1.6Zm5-13.86h-2.61V167h2.61v1h2.08v2.22H364.4Zm1.47,14.3c2.89-3.26,3.18-7.5,3.18-10.25v-.57a17.11,17.11,0,0,1-1.41,3.43,17,17,0,0,0-2.29-2l.08-.16h-2.61a9.24,9.24,0,0,1,.55,1.32h2.71v2.07h-2.65v.55h2.19v1.94h-2.19v.63h2.38v1.94h-2.38V185h2.44Zm-2.78-11.11h1.06v-1.28h-1.06Z"/><path d="M387.2,167.29H390v9.59c0,4.42-.53,8.49-4.61,10.94a11.57,11.57,0,0,0-2.17-2.25A7,7,0,0,0,386.8,181c-.63.55-1.28,1.07-1.87,1.58l-1.54-2.68c.93-.55,2.32-1.5,3.69-2.47l.12.29v-2.93l-1.18.75a30.1,30.1,0,0,0-1.66-3.7V174H382.8v2.13l1.44-.55.56,2.79-2,.84v5.46c0,1.38-.21,2.2-.92,2.68a5.2,5.2,0,0,1-3.07.62,11.71,11.71,0,0,0-.76-3,15.37,15.37,0,0,0,1.62,0c.25,0,.34-.07.34-.35v-4.36l-1.62.64-.72-3c.67-.2,1.47-.46,2.34-.77V174h-2.07V171H380v-4h2.79v4h1.33l2.1-1.21c.32.53.66,1.12,1,1.71Zm7.77,17.6c.35,0,.44-.62.5-2.71a7.46,7.46,0,0,0,2.55,1.24c-.28,3.08-1,4.31-2.78,4.31H393.6c-2.13,0-2.72-.93-2.72-4.12V167.29h2.89v5.52a23.24,23.24,0,0,0,1.15-3.3l2.72,1.45c-.91,1.63-1.77,3.46-2.51,4.62l-1.36-.79v2.31l.71-.75a25.1,25.1,0,0,1,3.6,3.85l-1.94,2.2a23.88,23.88,0,0,0-2.37-3v4.23c0,1.1,0,1.25.4,1.25Z"/><path d="M419.94,176.86a23.77,23.77,0,0,1-2.89,6c.23.74.49,1.16.76,1.18s.46-.92.55-2.79a9.28,9.28,0,0,0,2.19,1.83c-.59,4-1.83,4.84-2.76,4.81-1.2-.06-2.13-.9-2.84-2.44a13.55,13.55,0,0,1-2.74,2.22,10.8,10.8,0,0,0-2.21-2.22,6.83,6.83,0,0,0,.8-.44h-3.34v2.88h-2.93V185h-4.35v-2.79h4.35v-.84H401v-8.32h10.16v8.32h-3.7v.84h4.19v2.24a13.4,13.4,0,0,0,2.31-2.15,50.15,50.15,0,0,1-.82-6.19l-1.45.2-.34-3,1.6-.2c-.11-1.85-.17-3.87-.21-6h2.88c0,2,.07,3.88.15,5.66l4.27-.53.32,3-2.65.35Zm-14.21-4.42h-5v-4.91h5Zm-2.21-3h-.65v1h.65Zm0,6.69h1.24v-.78h-1.24Zm0,2.92h1.24v-.77h-1.24Zm7.85-6.64h-5v-4.91h5Zm-2.78,2.94h-1.28v.78h1.28Zm0,2.93h-1.28v.77h1.28Zm.57-8.84h-.65v1h.65Zm8.59,2.92A18.36,18.36,0,0,0,416,168.5l2.31-1.23a17.23,17.23,0,0,1,1.88,3.74ZM416,175.78c.08,1.12.19,2.16.32,3.08a19.93,19.93,0,0,0,1.32-3.3Z"/><path d="M440.63,170.32a16.68,16.68,0,0,1-4.63,5,31.17,31.17,0,0,0,7,1.83,13.86,13.86,0,0,0-2,3c-.55-.11-1.09-.22-1.62-.35v8h-3.28v-.62h-6.78v.7H426.2v-8.11c-.72.19-1.43.37-2.15.52a12.17,12.17,0,0,0-1.49-2.86,32.21,32.21,0,0,0,7.28-2.15,16.53,16.53,0,0,1-1.94-1.79,21.58,21.58,0,0,1-2.75,2.12,20.27,20.27,0,0,0-2.25-2.4,16.56,16.56,0,0,0,6.75-6.49l2.9,1c-.23.42-.48.82-.73,1.21h6.1l.5-.15ZM438,179.43a25,25,0,0,1-5.17-2.15,33.46,33.46,0,0,1-5.39,2.15Zm-1.89,5v-2.09h-6.78v2.09Zm-6-12.68a15.41,15.41,0,0,0,2.74,2.05,15.57,15.57,0,0,0,2.67-2.05Z"/><path d="M465.08,185.11v2.49h-12.9v-2.49h5.13v-.59h-3.95v-2.4h3.95v-.66h-3.87v-1.94l-1.51,2.2c-.21-.48-.53-1.14-.89-1.8v8h-3v-6.79a17.48,17.48,0,0,1-1.86,3.47,17.08,17.08,0,0,0-1.39-3.08,20.31,20.31,0,0,0,2.85-5.34h-2.4v-3h2.8v-2.09c-.78.14-1.54.27-2.28.36A10,10,0,0,0,445,169a27.75,27.75,0,0,0,6.48-1.82l2,2.46a23.65,23.65,0,0,1-2.42.79v2.75h1.81v-2.35h4.46v-.62c-1.26.07-2.5.09-3.68.09A9,9,0,0,0,453,168a72,72,0,0,0,9.89-.82l1.72,2.36c-1.32.24-2.82.42-4.35.55v.79h4.37v2.44h-4.37v.57h4.08v7.62h-4.08v.66h4v2.4h-4v.59Zm-14-8.69c.51.42,1.81,1.87,2.4,2.53v-5.11h3.87v-.57h-4.25v2.89h-2Zm6.27-.42h-1.24v.75h1.24Zm0,3.3v-.75h-1.24v.75Zm2.93-3.3v.75h1.32V176Zm1.32,2.55h-1.32v.75h1.32Z"/><path d="M480.7,174.26a65.3,65.3,0,0,1,6.91,6.1L485,182.82a50.62,50.62,0,0,0-5.83-5.74v10.78h-3.37v-9.94a24.18,24.18,0,0,1-6.19,4.88,20.29,20.29,0,0,0-2.1-2.93,21.12,21.12,0,0,0,8.67-8.16h-7.93v-3.28H486.7v3.28h-6.48c-.34.62-.69,1.23-1.07,1.83v2.09Z"/><path d="M509,184.36c0,1.56-.28,2.44-1.18,2.95a7.79,7.79,0,0,1-3.87.62,11.05,11.05,0,0,0-1-3.17c1,.06,2.21.06,2.56.06s.49-.15.49-.5V171H493.72V187.9h-3V168H509Zm-4-9.55H494.58v-2.66H505Zm-6.69,9v1.38h-2.8v-9h8.67v7.64Zm0-5v2.42h3.05v-2.42Z"/><path d="M530,167.73c-.17,8.93-.21,16.68.59,16.68a8.46,8.46,0,0,0,.32-2.95,15.79,15.79,0,0,0,1.64,2.62c-.27,2.53-.84,3.85-2.27,3.85-3.31,0-3.35-7.92-3.31-17.25h-9.76v5.06c0,3.72-.36,9.06-2.65,12.25a11.83,11.83,0,0,0-2.51-1.71c2.09-2.89,2.26-7.24,2.26-10.54v-8Zm-3.76,13.88a21.52,21.52,0,0,1,1.55,4.71l-2.48.84a11.32,11.32,0,0,0-.27-1.37c-2.82.29-5.75.53-8,.73l-.19-2.84c1.08,0,2.38-.13,3.81-.22v-1.85h-3.05V175h3.05v-1.1h-3v-2.51h8.73v2.51h-3.09V175h3.24v6.64Zm-5.56-2.37v-1.87H520v1.87Zm2.63-1.87v1.87h.8v-1.87Zm.95,5.85-.44-1.1,1.62-.51h-2.13v1.67Z"/><path d="M94.27,206.23a14.87,14.87,0,0,1-3.47,5.24A16.77,16.77,0,0,0,95,212.66a13.29,13.29,0,0,0-1,3.06,19.42,19.42,0,0,1-5.64-2.31,19.54,19.54,0,0,1-4.59,2.18h9.51v8.47h-3v-1.13H85.6v1.21H82.72v-8.22l-.19,0a11.93,11.93,0,0,0-.76-1.65L81,215.37c-.21-.49-.5-1.1-.84-1.74v10.65h-2.9v-7.44a17.75,17.75,0,0,1-1.43,3.56,19.76,19.76,0,0,0-1.35-3.27,20.83,20.83,0,0,0,2.44-6.78h-2V207.4h2.32v-4h2.9v4h1.68v2.95h-1.3c.59.61,1.56,1.74,2.06,2.35a18.76,18.76,0,0,0,3.24-1.25,16.45,16.45,0,0,1-1.39-1.52c-.31.35-.63.68-.94,1a19.93,19.93,0,0,0-1.67-2.6,12.32,12.32,0,0,0,3.46-5.23l2.63.79c-.15.44-.34.86-.53,1.3h4.5l.51-.11ZM85.6,218.36v1.8h4.63v-1.8ZM86.28,208a8.34,8.34,0,0,0,1.89,2A9.63,9.63,0,0,0,90,208Z"/><path d="M101.78,214.57a2.17,2.17,0,0,1-2.25-2.2,2.2,2.2,0,0,1,2.34-2.2c1.66,0,2.54,1.28,2.54,3.3A5.7,5.7,0,0,1,100,219l-.78-2.12c1.62-.46,2.59-1.36,2.76-2.31Z"/><path d="M118,218.09c-2.74,1.28-5.79,2.6-8.21,3.63l-1-3.43c.8-.26,1.75-.59,2.78-1L111,204.8l3.24-.13.42,11.36,2.58-1.08Zm8.46,6.19a36.82,36.82,0,0,0-3.54-5,15.53,15.53,0,0,1-5.95,5,18.48,18.48,0,0,0-2.44-2.86c6.37-2.58,8.52-7.92,9.21-16.72l3.41.3a36.81,36.81,0,0,1-2.48,11.12,44.38,44.38,0,0,1,4.4,5.45Zm-7.81-11.36a23.39,23.39,0,0,0-3.13-5.56l2.84-1.43a22.8,22.8,0,0,1,3.3,5.3Z"/><path d="M150.17,211.23a18.46,18.46,0,0,1-3.85,8.05,15.78,15.78,0,0,0,4.86,2.07,13.79,13.79,0,0,0-2.12,3.06,15.39,15.39,0,0,1-5.24-2.77,21.08,21.08,0,0,1-6,3,12.89,12.89,0,0,0-1.81-3,16.31,16.31,0,0,0,5.47-2.49,21.9,21.9,0,0,1-3-5.76h-.06c-.51,3.63-1.83,7.68-5.16,10.6A12.84,12.84,0,0,0,131,221.2c4-3.37,4.48-9,4.48-12.37v-1.5h-3.15v-3.12h13.61c-.34,2-.71,4.34-1.09,6.18h2.5l.59-.13Zm-11.51-3.9v1.55c0,.48,0,1,0,1.51h2.74c.23-.94.48-2,.69-3.06Zm2.78,6.08a14,14,0,0,0,2.31,3.65,12.73,12.73,0,0,0,2.23-3.65Z"/><path d="M173,220.4h-7.83v1c0,1.36-.27,2-1.26,2.46a11,11,0,0,1-3.73.4,11,11,0,0,0-.94-2.69c.86,0,2.16,0,2.48,0s.44-.07.44-.33v-.91h-8.39v-2.5h8.39v-.42a17.38,17.38,0,0,0,1.79-1.08h-6v-2.2h8.78l.63-.15,1.7,1.65c-1,.72-2.14,1.49-3.34,2.2H173Zm-16-4.26h-2.88v-4.82h1.52l-.36-6.58a31.1,31.1,0,0,0,4.37-1.3l1.23,1.8a20.47,20.47,0,0,1-2.7.82l0,.42h2.51v1.91h-2.4l0,.51h2.38v.88a12.91,12.91,0,0,0,1.16-.62c-.34-.22-.7-.44-1-.61l1.38-1.19q.54.28,1.14.66a5.71,5.71,0,0,0,.74-.84l1.93.62a7.78,7.78,0,0,1-1,1.27,12.5,12.5,0,0,1,1.14.93l-1.48,1.32a10.34,10.34,0,0,0-1.09-1,15.26,15.26,0,0,1-1.45,1h6.27l.06-.51h-2.17V208.9h2.34l0-.51h-2.25v-1.91h2.38l0-.51H166.2V204h5.54c-.11,2.38-.28,5.18-.47,7.29h1.54v4.82h-3v-2.56H156.94Zm1.48-4.82h3.19c-.25-.29-.63-.71-.94-1v.51h-2.3Zm6.08-4a9.2,9.2,0,0,0-.93-.79,11.68,11.68,0,0,1-1.53,1,13.22,13.22,0,0,0-1.56-1.38,11,11,0,0,0,1.45-.75c-.34-.2-.65-.4-1-.57l1.35-1.17c.36.18.74.4,1.11.62a6.22,6.22,0,0,0,.66-.73l1.91.6a9.32,9.32,0,0,1-1,1.16c.34.27.66.53.91.75Z"/><path d="M194.12,211.18c0,1.24-.19,1.9-1,2.32a7,7,0,0,1-3,.39,10.83,10.83,0,0,0-.55-2.35c-1,.61-2,1.23-2.86,1.76l.63.08c-.26.53-.53,1.06-.8,1.55h6.56v9.39H190v-.75h-8.33v.75h-3v-9.39h4.95c.14-.42.27-.84.38-1.24a9.72,9.72,0,0,1-2.57.22,9.27,9.27,0,0,0-.49-2.15c-1.09.7-2.21,1.38-3.19,2l-1.08-2.47c.87-.39,2-1,3.24-1.63-.69-.43-1.91-1.09-2.77-1.51l1-1.41h-1.44v-2.58h8.69v7.07a3,3,0,0,1-.4,1.85l1.48.19-1-2.24c.8-.35,1.89-.9,3-1.52-.69-.42-1.77-1-2.57-1.39l1-1.4h-1.13v-2.58h8.39Zm-12.77.27h.86c.21,0,.3-.07.3-.29v-4.44h-3.16c.76.33,1.54.72,2,1l-1.16,1.74,1.62-.86.66,2.11Zm8.6,5.85h-8.33v.77H190Zm0,3.9v-.77h-8.33v.77Zm-1.78-14.5c.75.33,1.53.72,2,1l-.93,1.36,1.45-.77.61,2V206.7Zm3.15,3.72-1.51,1c.48,0,1,0,1.22,0s.29-.07.29-.29Z"/><path d="M204,220.93v3.32h-2.51v-3.32h-3.32v-2.79h3.32v-1h-2.86V209h2.88v-.9h-3.17v-2.79h3.17v-1.94H204v1.94h3.32v2.79H204v.9h3v8.19h-3v1h3.38v2.79ZM200.68,212h1v-.86h-1Zm0,2.93h1v-.88h-1Zm4.19-3.79h-1.11V212h1.11Zm0,2.91h-1.11V215h1.11Zm13.45,7.41a11.8,11.8,0,0,0-2,2.73,9.62,9.62,0,0,1-3.69-4.77,12.09,12.09,0,0,1-3.85,4.71,11,11,0,0,0-2.33-2.34,10.46,10.46,0,0,0,4.44-9.21v-1h3v1.12c0,.47,0,1,0,1.52C214.49,217.41,215.81,220.18,218.32,221.5Zm-7.14-11.35a15.43,15.43,0,0,1-1.62,3.85,22.88,22.88,0,0,0-2.46-1.85c1.35-2,2.06-5.37,2.38-8.8l2.94.42c-.14,1.21-.31,2.4-.54,3.54h3.51l.44-.09,2.07.49c-.36,2.29-.89,4.86-1.31,6.56l-2.46-.6c.19-.92.38-2.2.57-3.52Z"/><path d="M228.39,214v7.68c0,1.08-.15,1.72-.8,2.11a4.77,4.77,0,0,1-2.48.42,9.32,9.32,0,0,0-.7-2.33c.49,0,1.06,0,1.25,0s.25-.07.25-.26v-1.48c-.55.38-1.07.75-1.6,1.1l-.51-1.21a10,10,0,0,1-1.24,4.29,10.92,10.92,0,0,0-2.12-1.49c1-1.61,1.05-3.85,1.05-5.59V214h-1v-3.61h.78V204h7.21v6.38h.87v2.4h10.83V215h-10.9v-1Zm-1.32-1.52h-4.46v.6h4.46Zm-3.5-2.09h.51v-3.56H226v-.6h-2.42Zm.36,6.91c0,.55,0,1.12,0,1.74.59-.24,1.28-.55,2-.9v-.79l-.78.92a15.75,15.75,0,0,0-1.2-1.12Zm2-2.2h-2v1l.63-.68c.44.31.95.66,1.35,1Zm.08-4.71v-1.84h-.44v1.84Zm14.33,11.33V224H229v-2.27h2.19c-.15-.46-.31-.94-.46-1.34L232,220h-2v-4.47h9.45V220h-2.26l1.56.44c-.29.44-.59.88-.84,1.27Zm-.48-9.5H229.51v-7.31h2.42V203.4h2.33v1.51h.55V203.4h2.36v1.51h2.67Zm-8.12-4.6h.77v-.68h-.77Zm0,2.57h.77v-.7h-.77Zm.86,8h4v-.75h-4Zm.61,1.85a15.88,15.88,0,0,1,.63,1.71h1.47a14.09,14.09,0,0,0,.61-1.71ZM235,207.62v-.68h-.68v.68Zm-.68,1.87v.7H235v-.7Zm3.24-2.55h-.77v.68h.77Zm0,2.55h-.77v.7h.77Z"/><path d="M247.37,214.57a2.17,2.17,0,0,1-2.25-2.2,2.19,2.19,0,0,1,2.33-2.2c1.66,0,2.55,1.28,2.55,3.3a5.7,5.7,0,0,1-4.46,5.53l-.78-2.12c1.62-.46,2.59-1.36,2.76-2.31Z"/><path d="M271.82,216.62c-.55-.57-1.48-1.41-2.42-2.22a9.16,9.16,0,0,1-1.16,1.49,16.54,16.54,0,0,0-1.68-1.14,18.4,18.4,0,0,0,7.93,5.81,13.4,13.4,0,0,0-2.27,2.95,20,20,0,0,1-6.3-5v5.77h-3.24v-5.57a19.16,19.16,0,0,1-6.25,4.86,16,16,0,0,0-2.16-2.77,18,18,0,0,0,8.41-6.8v-4.93h-3.74l2.52.51a20.1,20.1,0,0,1-.69,2.24c.69.6,1.41,1.24,1.83,1.68l-2,2.26a12.69,12.69,0,0,0-1.12-1.21,12.37,12.37,0,0,1-2.27,2.77,17.6,17.6,0,0,0-2.35-2.09,10.46,10.46,0,0,0,3.64-6.16h-3.22V206h7.42v-2.58h3.24V206h7.73v3.12h-4.8l2.5.49a16.56,16.56,0,0,1-.67,2.24c1.14.88,2.48,1.91,3.24,2.62Zm-5.9-7.55v4.78l.05.06a9.94,9.94,0,0,0,2.4-4.84Z"/><path d="M283.13,216.31l.57,2.82c-2,.92-4.29,1.87-6.14,2.64l-.95-3.17c.61-.18,1.35-.42,2.15-.7v-6.41H277v-2.92h1.75V203.7h2.8v4.87h1.72v2.92h-1.72v5.39Zm12.73-9.77v7.86h-12v-7.86h2.25a14.36,14.36,0,0,0-1.15-2.15l2.58-1.1a14,14,0,0,1,1.52,2.57l-1.41.68h3a22.42,22.42,0,0,0,1.41-3.23l3.21,1c-.54.79-1.09,1.56-1.57,2.24Zm-11,8.54H295v9.22h-2.88v-1.06h-4.57v1.06h-2.75Zm3.83-6.51h-2.38v.7l1.41-.51a11.32,11.32,0,0,1,1,2.27Zm-2.38,3.78h.93a11,11,0,0,0-.93-2.81Zm1,0h1.35v-.53Zm.27,5v.81h4.57v-.81Zm4.57,3.63v-.66h-4.57V221Zm1.16-12.41h-2.46v3a18.27,18.27,0,0,0,.92-2.73l1.54.53Zm0,3.78V210c-.44.88-.84,1.76-1.2,2.38l-1.26-.51v.53Z"/><path d="M305.39,213.58a27.87,27.87,0,0,1-1.62,5.75c.3.19.65.46,1.1.72,1.41.93,3.45,1,5.89,1a64.25,64.25,0,0,0,8.58-.64,13.88,13.88,0,0,0-.88,3.26c-1.83.13-5.41.28-7.85.28-2.82,0-4.57-.24-6.08-1.12-.88-.53-1.62-1.23-2-1.23s-1.26,1.56-1.75,2.75l-2-3.08a9.64,9.64,0,0,1,2.27-2,22.14,22.14,0,0,0,1.08-3.39h-2.63c.46-1.3,1-3,1.41-4.69h-1.69v-2.84h5.31l-.32,1.19a16.54,16.54,0,0,0,3.64-6.22l2.76.85c-.3.86-.65,1.72-1,2.56H312a16.57,16.57,0,0,0-.8-2.18l2.88-.86a17.24,17.24,0,0,1,1.22,3h3.14v2.66H314.4v.75h3.13v2.55H314.4v.88h3v2.55h-3v.9h4.25v2.67H309.2v.72h-2.94V212a11.12,11.12,0,0,1-.8.86,24.87,24.87,0,0,0-1.44-2.77c-.27,1.05-.58,2.11-.86,3.1h.53l.44-.11Zm-3.93-5.48c-.26-1-.84-2.68-1.2-3.91l2.69-.88c.42,1.21,1,2.73,1.29,3.74Zm10,1.37H309.2v.75h2.29Zm0,3.3H309.2v.88h2.29Zm0,3.43H309.2v.9h2.29Z"/><path d="M339.29,206.15v18.08H336v-1h-9.37v1h-3.09V206.15H329a28.27,28.27,0,0,0,.44-2.8l3.74.4c-.29.83-.63,1.67-.92,2.4Zm-12.63,3.06v1.69H336v-1.69Zm0,4.64v1.71H336v-1.71Zm9.37,6.4v-1.74h-9.37v1.74Z"/><path d="M357.8,220.71c2,0,2.31-.48,2.61-3.61a11.06,11.06,0,0,0,3.09,1.24c-.5,4.37-1.55,5.56-5.59,5.56h-6.19c-4.29,0-5.66-.92-5.66-4.49v-7.78h11.72v-3.72h-12v-3.3H361V216h-3.26v-1.19h-8.54v4.6c0,1.19.33,1.34,2.56,1.34Z"/><path d="M385.42,206.74s0,1,0,1.39c-.25,9.79-.46,13.35-1.34,14.56a3,3,0,0,1-2.23,1.41,19.17,19.17,0,0,1-3.41.09,7.48,7.48,0,0,0-1-3.1c1.35.13,2.61.13,3.18.13a1,1,0,0,0,.92-.4c.61-.68.86-3.91,1-11.18h-4a21.49,21.49,0,0,1-1.78,3.28,19.15,19.15,0,0,0-1.73-1.36V222h-5.51v1.56h-2.76V207h2.4a30.41,30.41,0,0,0,.46-3.59l3.35.49c-.36,1.08-.72,2.18-1.05,3.1H375v2.93a24.41,24.41,0,0,0,2.5-6.45l3,.73c-.23.85-.5,1.71-.8,2.57Zm-13.15,3h-2.75v3h2.75Zm0,9.51v-3.79h-2.75v3.79Zm7-.66a52.52,52.52,0,0,0-2.76-5.13l2.4-1.41c.95,1.5,2.31,3.59,2.95,4.89Z"/><path d="M397.84,221.48c0,1.23-.24,1.87-1,2.29a6.51,6.51,0,0,1-3,.44,9.47,9.47,0,0,0-.91-2.44c.61,0,1.41,0,1.65,0s.35-.09.35-.35v-1.52c-.86.68-1.7,1.37-2.52,2l-.51-1.67a10.67,10.67,0,0,1-1.51,4.14,11.77,11.77,0,0,0-2.15-2.14c1.1-1.76,1.18-4.24,1.18-6.2v-4.69h8.4ZM396.76,205c.78,1.63,1.85,3.86,2.36,5.2l-2.67,1.1c-.13-.38-.28-.84-.47-1.32-5.13.55-6.08.72-6.75,1a28.64,28.64,0,0,0-1-2.84,2.72,2.72,0,0,0,1.2-.92,17.6,17.6,0,0,0,2.38-3.87l3.09.9a26.25,26.25,0,0,1-2.4,3.41l2.4-.22c-.25-.55-.48-1.08-.69-1.56Zm-2.92,12.9a23.74,23.74,0,0,0-1.6-1.81,26.78,26.78,0,0,1-.15,2.86c.82-.39,1.81-.94,2.86-1.51v-.6Zm-1.6-3.92v1.23l1.11-1c.49.47,1.1,1.06,1.6,1.57V214Zm10.58-.75c-2.9,0-3.66-1.1-3.66-3.91v-5.88h3v2.36h4.9v2.7h-4.9v.88c0,.82.11,1.12.74,1.12h2.65a10.3,10.3,0,0,0,2.08-.19c0,.81.15,2,.26,2.7a8.25,8.25,0,0,1-2.28.22Zm2,8.12c.61,0,.76-.35.87-2.2a7.63,7.63,0,0,0,2.65,1.15c-.32,2.94-1.1,3.82-3.22,3.82h-2.59c-2.74,0-3.39-.9-3.39-3.67V213.8h3v2h5v2.8h-5v1.89c0,.83.13.92.84.92Z"/><path d="M429.4,207.84s0,1.06-.07,1.47c-.4,8.65-.8,12-1.74,13.23a3.16,3.16,0,0,1-2.36,1.38,17.68,17.68,0,0,1-3.39.12,7.79,7.79,0,0,0-1.07-3.33c1.28.11,2.46.11,3.05.11a1.24,1.24,0,0,0,1-.37c.61-.64,1-3.41,1.3-9.33h-5.24c-.33,4.58-1.85,10-7.66,13.29a12.53,12.53,0,0,0-2.42-2.62c5-2.64,6.42-7,6.8-10.67h-6.1v-3.28h6.23v-4.42H421v4.42Z"/><path d="M437.6,210.17a3.68,3.68,0,1,1-3.51,3.68A3.59,3.59,0,0,1,437.6,210.17Zm0,5.5a1.83,1.83,0,0,0,0-3.65,1.83,1.83,0,0,0,0,3.65Z"/><path d="M94.23,279V282H83a26.57,26.57,0,0,1-2.42,4.29V297h-3.1v-7.17A14.18,14.18,0,0,1,76,291.06a21.71,21.71,0,0,0-1.46-3.12,15.6,15.6,0,0,0,5-5.9H75.27V279h5.62a26,26,0,0,0,.86-2.88l3.2.79c-.21.7-.44,1.39-.67,2.09ZM89.45,293.5h4.68v2.95H81.52V293.5h4.84v-4.35h-4V286.2h4v-3.32h3.09v3.32h3.88v2.95H89.45Z"/><path d="M116.78,276.69V297h-2.9v-1H101.36v1H98.6V276.69Zm-2.9,16.92V279.07H101.36v14.54Zm-1.48-4.51h1.14v1.65H111v1c0,1-.19,1.3-.84,1.48a9.59,9.59,0,0,1-2.63.2,6.71,6.71,0,0,0-.57-1.54c.45,0,1.1,0,1.29,0s.27-.07.27-.27v-.9h-3a9.75,9.75,0,0,1,1.08,1.59l-2,1a10.15,10.15,0,0,0-1.2-2l1.32-.64h-3.11V289.1h6.92v-.42c-2.38.07-4.65.14-6.48.18l-.08-1.63,4.37,0v-.5h-4v-4.54h4v-.52h-4.44V280h4.44v-.66h2.46V280h4.49v1.65h-4.49v.52h4v4.54h-.71a10.42,10.42,0,0,1,1.45,1.47Zm-7.8-5.21h1.72v-.49H104.6Zm1.72,1.65V285H104.6v.51Zm2.46-2.14v.49h1.64v-.49Zm0,1.63v.51h1.64V285Zm0,1.72v.5l1.16,0,0,0,.67-.46ZM111,289.1h.78c-.15-.17-.29-.35-.46-.53l-.32,0Z"/><path d="M128.39,278.12c-.51,1.94-1.16,4.43-1.71,6.12a7,7,0,0,1,1.37,4.31c0,1.54-.29,2.47-1,3a3,3,0,0,1-1.26.51,12.69,12.69,0,0,1-1.35.07,7.55,7.55,0,0,0-.34-2v6.91h-2.65v-20H126l.42-.11Zm-4.3,11.31h.45a.76.76,0,0,0,.54-.17c.21-.18.3-.53.3-1.13a5.8,5.8,0,0,0-1.22-3.56c.31-1.3.69-3.17,1-4.67h-1Zm16.44-4.66c-.72.46-1.52.94-2.29,1.36a18.84,18.84,0,0,0,2.9,5.72,10.79,10.79,0,0,0-1.94,2,24.21,24.21,0,0,1-2.77-5.63c.61,3.08.16,6.09-.85,7.21a3,3,0,0,1-2.73,1.32c-.49,0-1.12,0-1.73,0a6.79,6.79,0,0,0-.73-2.82,16.11,16.11,0,0,0,1.93.11,1,1,0,0,0,1.08-.68,4.16,4.16,0,0,0,.48-1.91,23.29,23.29,0,0,1-4.88,2.75,10.5,10.5,0,0,0-1.79-2.23,16.42,16.42,0,0,0,6.48-3.47c-.06-.29-.13-.57-.19-.86a24.29,24.29,0,0,1-3.77,2.44,10.33,10.33,0,0,0-1.6-2.22,15,15,0,0,0,4.51-2.42,8.07,8.07,0,0,0-.55-.88,22.45,22.45,0,0,1-3.09,1.8,16.82,16.82,0,0,0-1.73-2.24,17.45,17.45,0,0,0,3.83-1.94h-3v-2.73H131a13.77,13.77,0,0,0-1.75-1.91l2.23-1.43a11.18,11.18,0,0,1,2.48,2.62l-1,.72h1.62a16.32,16.32,0,0,0,1.75-3.3l2.93.86c-.53.88-1.08,1.74-1.58,2.44h2.65v2.73h-5.45a10.57,10.57,0,0,1-.82.82,10.57,10.57,0,0,1,1.24,1.93,24.15,24.15,0,0,0,3.35-2.31Z"/><path d="M156.32,277.46l-.69,1a22,22,0,0,0,8.1,4.76,9.7,9.7,0,0,0-2.08,2.94c-1-.44-1.87-.92-2.84-1.49v1.45H148.29v-1c-.87.55-1.73,1-2.59,1.47a14.19,14.19,0,0,0-2.25-3c3.83-1.56,7.87-4.14,10.14-7.59Zm-9.57,10.12h14v9.31h-3.28v-.7h-7.55V297h-3.14Zm3.14,2.8v2.86h7.55v-2.86Zm6.73-7.2a25.15,25.15,0,0,1-2.88-2.51,29.71,29.71,0,0,1-2.78,2.51Z"/><path d="M173.76,277.2a38.26,38.26,0,0,1-1.94,4.47V297h-3.09V286.62c-.29.37-.59.7-.88,1a23.39,23.39,0,0,0-1.64-3.45,22.57,22.57,0,0,0,4.58-8Zm7,5.5v1.83h5.13v2.9h-5.13v2h5.41v3h-5.41V297h-3.16V282.7h-.4a23.54,23.54,0,0,1-2.67,4.09,18.89,18.89,0,0,0-2.31-2.24,21.5,21.5,0,0,0,4.39-8.25l3,.81a26.05,26.05,0,0,1-1,2.55h7.85v3Z"/><path d="M208.22,279.88v11.44H205v-1h-4.06V297H197.7v-6.73h-4v1.14h-3.07V279.88h7.11v-3.76h3.24v3.76Zm-10.52,7.26V283h-4v4.11Zm7.3,0V283h-4.06v4.11Z"/><path d="M217.05,287.32a2.17,2.17,0,0,1-2.25-2.2,2.19,2.19,0,0,1,2.33-2.2c1.67,0,2.55,1.28,2.55,3.3a5.69,5.69,0,0,1-4.46,5.52l-.78-2.11c1.62-.46,2.59-1.36,2.76-2.31Z"/><path d="M239.31,293c1.85.79,3.89,1.74,5.13,2.4L240.93,297a36.59,36.59,0,0,0-5-2.68l1.95-1.3h-6.16l2.19,1.06a26.89,26.89,0,0,1-6.61,3,23.37,23.37,0,0,0-2.42-2.46A24.75,24.75,0,0,0,230.2,293h-2.59v-9.46a6.57,6.57,0,0,1-.66.48,10.32,10.32,0,0,0-2.23-2.29,14.77,14.77,0,0,0,5.5-5.65l3.3.68c-.13.22-.27.46-.42.68h3.3l.49-.13,2.12,1.43a24.15,24.15,0,0,1-1.64,2.42h4.82V293Zm-7.89-13.16q-.54.69-1.14,1.32h3.43c.36-.42.67-.88,1-1.32Zm7.57,3.76h-8.33v.8H239Zm0,3.88v-.82h-8.33v.82Zm-8.33,2.26v.82H239v-.82Z"/><path d="M262.47,293.63c1.81.69,3.7,1.46,4.88,2L263.6,297a32.61,32.61,0,0,0-5.11-2.39l1.79-1h-5.14l1.58.75a25.75,25.75,0,0,1-6.65,2.73,17.66,17.66,0,0,0-2.21-2.29,26.39,26.39,0,0,0,4.86-1.19h-2.16V284.9H265v8.73Zm4.73-9.28H248.05v-2.16h8v-.52h-5.85v-1.85h5.85v-.55h-6.82V277.2h6.82v-1.08h3.16v1.08h7.17v2.07h-7.17v.55h6.16v1.85h-6.16v.52h7.95Zm-13.68,2.93h8.34v-.62h-8.34Zm0,2.28h8.34V289h-8.34Zm0,2.31h8.34v-.63h-8.34Z"/><path d="M278.35,277.26a36.72,36.72,0,0,1-2,4.36V297h-3V286.31c-.47.59-.93,1.12-1.39,1.6a24.88,24.88,0,0,0-1.77-3.43,22.51,22.51,0,0,0,5.13-8.25Zm7.13,11.2v4.8h4.73v3.06H277.8v-3.06h4.56v-4.8h-5.13v-3.08h5.13v-4.27h-4.12v-3H289.9v3h-4.42v4.27h5.22v3.08Z"/><path d="M313,279.49s0,1,0,1.38c-.25,9.79-.46,13.36-1.34,14.57a3,3,0,0,1-2.23,1.41,18.37,18.37,0,0,1-3.41.08,7.53,7.53,0,0,0-1-3.1c1.34.13,2.61.13,3.18.13a1,1,0,0,0,.92-.39c.61-.68.86-3.92,1-11.18h-4a22,22,0,0,1-1.78,3.28,21,21,0,0,0-1.73-1.37v10.48h-5.51v1.56h-2.76V279.71h2.4a30.68,30.68,0,0,0,.46-3.59l3.35.48c-.36,1.08-.72,2.18-1.05,3.11h3.11v2.92a24.34,24.34,0,0,0,2.5-6.44l2.95.72c-.23.86-.5,1.72-.8,2.58Zm-13.15,3h-2.75v3h2.75Zm0,9.5V288.2h-2.75V292Zm6.95-.66a52.44,52.44,0,0,0-2.76-5.12l2.4-1.41c.95,1.5,2.31,3.59,2.95,4.88Z"/><path d="M322.86,277a48.23,48.23,0,0,1-1.69,4.53V297h-2.8V286.7c-.29.42-.59.82-.88,1.19a25.78,25.78,0,0,0-1.43-3.52,24.21,24.21,0,0,0,4-8.25Zm12.56,5.74a30.17,30.17,0,0,1-1.75,8.52,8.63,8.63,0,0,0,2.74,3.12,12.65,12.65,0,0,0-1.77,2.51A10.05,10.05,0,0,1,332.2,294a11.6,11.6,0,0,1-2.82,2.86,12.57,12.57,0,0,0-1.81-2.13l.27-.18h-3.15v1.63h-2.61v-10.1H324v-3.3h-2.14V280H324v-3.54h2.89V280h1.89v2.86h-1.89v3.3h1.26c-.19-.31-.38-.57-.53-.77,1.48-2.18,2.28-5.63,2.68-9.2l2.71.49q-.26,1.74-.63,3.45h4v2.66Zm-9.28,6.05h-1.45v3.11h1.45Zm2.65,5.06a9.67,9.67,0,0,0,2.08-2.68,28.27,28.27,0,0,1-1-3.92c-.19.31-.38.6-.59.88-.1-.24-.27-.57-.46-.94Zm2.95-11.11c-.09.27-.17.51-.24.75a28.65,28.65,0,0,0,.72,3.9,33.76,33.76,0,0,0,.63-4.65Z"/><path d="M347.59,283.21a22.22,22.22,0,0,1-1.3,7.21,34.54,34.54,0,0,1,2.55,2.69l-2,2.66c-.51-.68-1.23-1.5-2-2.38a14.33,14.33,0,0,1-3.39,3.7,11.53,11.53,0,0,0-2.15-2.27,12.13,12.13,0,0,0,3.37-3.69c-1.05-1.06-2.11-2.12-3-3,.29-1.23.61-2.75.86-4.4l-.92.06-.28-3,1.6-.07c.19-1.54.32-3.08.38-4.51l3,.16c-.11,1.34-.25,2.77-.42,4.2l.9,0v-1.26h2.84v1.1l1.08-.06,0,2.86Zm-3.66,5a18.44,18.44,0,0,0,.8-4.8l-1.28.09c-.21,1.28-.42,2.51-.65,3.65Zm15.4-.13h-4v5.61c0,1.56-.3,2.35-1.29,2.84a9.56,9.56,0,0,1-3.93.53,12.35,12.35,0,0,0-1-3.06c.95,0,2.23,0,2.57,0s.48-.09.48-.42v-5.54H348v-3h4.23v-1.82a15.17,15.17,0,0,0,2.29-3h-5.74v-2.88h7.7l.72-.16,2,1.54a29.46,29.46,0,0,1-3.83,5V285h4Z"/><path d="M379,289.54c0,.64-.06,1.23-.1,1.76h2.27v2.77H378.6a4.65,4.65,0,0,1-.52,1.68,2.55,2.55,0,0,1-1.9,1.21,15.4,15.4,0,0,1-2.9.09,6.17,6.17,0,0,0-.72-2.42,16.73,16.73,0,0,0,2.06.08.76.76,0,0,0,.76-.37,1.71,1.71,0,0,0,.13-.27h-11c.26-1.27.51-2.86.76-4.53h-2.9V286.7h3.26c.13-1,.23-1.95.32-2.9-.34.42-.68.81-1,1.16a24.25,24.25,0,0,0-2.74-1.84,19.06,19.06,0,0,0,4.84-7.13l3.05.92c-.15.35-.31.73-.48,1.08h11.72v2.84H368c-.3.48-.61.94-.91,1.41h12.1s0,1,0,1.34c0,1.14-.06,2.18-.08,3.12h3.05v2.84Zm-10.65-.11c-.08.64-.16,1.28-.25,1.87h3.47a13.89,13.89,0,0,0-1.74-1.08l.78-.79Zm.53-4.42-.21,1.8h2.9a13.28,13.28,0,0,0-1.62-1l.8-.81Zm7,6.29c0-.55.06-1.16.1-1.87h-2.9a10.63,10.63,0,0,1,1.58,1.17l-.68.7Zm.25-6.29h-3a10.65,10.65,0,0,1,1.62,1.19l-.58.61h1.89Z"/><path d="M405,284.61v3.5H385.41v-3.5Z"/><path d="M414.67,277.07a41.6,41.6,0,0,1-1.6,4.15v15.83h-2.9V286.42c-.34.48-.67.92-1,1.34a22.47,22.47,0,0,0-1.41-3.52,23.32,23.32,0,0,0,4.15-8.08Zm12.88.06V296.8h-2.9v-1.08h-7.16V297h-2.77V277.13ZM424.65,293V279.88h-7.16V293Zm-2.49-8.4v1.63H424v6h-5.76v-6h1.62v-1.63h-2V282.3h2v-2.11h2.33v2.11h2.15v2.27Zm-.46,3.78h-1.34V290h1.34Z"/><path d="M441.5,281.62c-.4.95-.78,1.92-1.16,2.73h2.23v2.88H431.31v-2.88h2.4a16.52,16.52,0,0,0-.93-2.66l1.58-.4H431.8v-2.84h3.78c-.19-.59-.38-1.21-.59-1.74l2.8-.81a21.7,21.7,0,0,1,1,2.55h3.37v2.84H440Zm-9.37,6.95h9.72V297h-3v-.86H435v.95h-2.88Zm2.88,2.84v1.94h3.81v-1.94Zm.53-10.12a16.71,16.71,0,0,1,1,2.75l-1.09.31h2a22.27,22.27,0,0,0,1-3.06Zm15.61-3c-.67,2.18-1.51,4.73-2.25,6.56a7.56,7.56,0,0,1,1.81,5.1c0,1.74-.36,2.84-1.18,3.46a3.24,3.24,0,0,1-1.47.57,8.17,8.17,0,0,1-1.54.07,7.59,7.59,0,0,0-.69-3,8.38,8.38,0,0,0,.95,0,1.27,1.27,0,0,0,.71-.2c.32-.19.44-.66.44-1.38a6.5,6.5,0,0,0-1.83-4.34c.49-1.47,1.08-3.65,1.5-5.32h-1.79v16.92h-2.67V277.09h5.47L449,277Z"/><path d="M468.15,276.45a12.8,12.8,0,0,0,6.12,7.75,17.63,17.63,0,0,0-2.17,3,15.15,15.15,0,0,1-1.28-.95c-.19,6-.42,8.47-1.12,9.37a2.91,2.91,0,0,1-2.1,1.24,19.23,19.23,0,0,1-3.11.11,8.09,8.09,0,0,0-1-3.24c1,.09,2,.11,2.56.11a1,1,0,0,0,.85-.33c.37-.44.56-2.26.71-6.33h-3.45c-.51,4.15-1.89,7.83-7.45,10a10.49,10.49,0,0,0-2-3c4.61-1.59,5.7-4.16,6.1-7.06h-3.15v-1.39a18.19,18.19,0,0,1-1.43,1.47,23.58,23.58,0,0,0-2.57-2.39,15.61,15.61,0,0,0,5.11-8l3.24.81a24.66,24.66,0,0,1-3.07,6.36h9.74a19.52,19.52,0,0,1-2.79-4.66h-3.12v-2.95Z"/><path d="M481.67,287.32a2.17,2.17,0,0,1-2.25-2.2,2.2,2.2,0,0,1,2.34-2.2c1.66,0,2.54,1.28,2.54,3.3a5.69,5.69,0,0,1-4.46,5.52l-.78-2.11c1.62-.46,2.59-1.36,2.76-2.31Z"/><path d="M496.37,292.75l3.83-.37,0,2.77c-3.61.42-7.53.82-10.37,1.1l-.38-2.92,4.06-.33v-1.1h-3.07v-2.56h3.07v-1h-3.34v-2.57h2A12,12,0,0,0,491,284l1-.55h-2.33v-2.59h2.65v-1l-1.14.83a9.89,9.89,0,0,0-1.6-2.44l1.79-1.28a13,13,0,0,1,.95,1.1v-1.87h2.36v4.67h.59v-4.67h2.39v2a8.49,8.49,0,0,0,.74-1.1l2.36,1.39c-.93.88-1.79,1.74-2.46,2.31l-.64-.42v.51h2.53v2.59h-2.38l1.24.44c-.35.69-.67,1.35-1,1.94h1.58v2.57h-3.22v1h3v2.56h-3Zm-2.78-9.35a6.23,6.23,0,0,1,1,1.63l-1.26.75h2c.34-.7.69-1.61,1-2.38Zm15.34,1.08h-1.36v9c0,1.52-.26,2.34-1.12,2.84a7.16,7.16,0,0,1-3.64.62,11.87,11.87,0,0,0-1-3c1,.05,2,.05,2.38.05s.46-.11.46-.47v-9h-4.31v-3h4.31v-5.39h2.95v5.39h1.36Zm-6.08.95a16.48,16.48,0,0,1,1.52,4.84l-2.7,1a17.77,17.77,0,0,0-1.32-4.95Z"/><path d="M530.24,278.89V297H527v-1h-9.36v1h-3.1V278.89H520c.19-.92.36-2,.45-2.79l3.74.39c-.29.84-.63,1.68-.92,2.4ZM517.62,282v1.69H527V282Zm0,4.64v1.72H527v-1.72ZM527,293v-1.74h-9.36V293Z"/><path d="M88.93,329.83c2,0,2.31-.48,2.61-3.61a11.06,11.06,0,0,0,3.09,1.24c-.5,4.37-1.56,5.56-5.6,5.56H82.85c-4.3,0-5.66-.92-5.66-4.49v-7.79H88.91V317h-12v-3.3H92.17v11.35H88.91v-1.19H80.36v4.6c0,1.19.34,1.34,2.57,1.34Z"/><path d="M106.18,327.21c-2.74,1.28-5.79,2.6-8.21,3.63l-1-3.43c.8-.26,1.75-.59,2.78-1l-.49-12.5,3.24-.13.42,11.35,2.59-1.07Zm8.46,6.19a36.82,36.82,0,0,0-3.54-5,15.61,15.61,0,0,1-5.95,5,18.48,18.48,0,0,0-2.44-2.86c6.37-2.58,8.52-7.92,9.21-16.72l3.41.3a37,37,0,0,1-2.48,11.11,45.16,45.16,0,0,1,4.4,5.46ZM106.83,322a23.74,23.74,0,0,0-3.13-5.56l2.84-1.43a22.8,22.8,0,0,1,3.3,5.3Z"/><path d="M138.39,320.35a18.51,18.51,0,0,1-3.85,8,15.78,15.78,0,0,0,4.86,2.07,13.83,13.83,0,0,0-2.13,3.06,15.43,15.43,0,0,1-5.23-2.77,21.08,21.08,0,0,1-6,3,12.89,12.89,0,0,0-1.81-3,16.31,16.31,0,0,0,5.47-2.49,21.9,21.9,0,0,1-3-5.76h-.06c-.51,3.63-1.83,7.68-5.16,10.6a12.84,12.84,0,0,0-2.23-2.81c4-3.37,4.48-9,4.48-12.37v-1.5h-3.15v-3.12h13.61c-.34,2.05-.72,4.33-1.09,6.18h2.5l.59-.13Zm-11.51-3.9V318c0,.49,0,1,0,1.52h2.73c.24-.94.49-2,.7-3.06Zm2.78,6.08a14,14,0,0,0,2.31,3.65,13,13,0,0,0,2.23-3.65Z"/><path d="M160.75,313.07V333.4h-2.9v-1H145.33v1h-2.76V313.07ZM157.85,330V315.44H145.33V330Zm-1.47-4.52h1.13v1.66H155v1c0,1-.19,1.3-.84,1.47a9.67,9.67,0,0,1-2.63.2,7.21,7.21,0,0,0-.57-1.54c.44,0,1.09,0,1.28,0s.28-.06.28-.26v-.9h-3a8.64,8.64,0,0,1,1.07,1.58l-2,1a10,10,0,0,0-1.2-2l1.33-.63h-3.12v-1.66h6.93v-.41l-6.49.17-.08-1.63c1.22,0,2.74,0,4.38,0v-.51h-4v-4.53h4v-.53h-4.44v-1.65h4.44v-.66h2.46v.66h4.48v1.65h-4.48v.53h4v4.53h-.72a10.41,10.41,0,0,1,1.45,1.47Zm-7.81-5.21h1.73v-.48h-1.73Zm1.73,1.65v-.51h-1.73v.51Zm2.46-2.13v.48h1.64v-.48Zm0,1.62v.51h1.64v-.51Zm0,1.72v.51l1.16,0,0,0,.68-.46Zm2.21,2.35h.78c-.15-.17-.3-.35-.47-.52l-.31,0Z"/><path d="M171.73,314.5c-.5,1.93-1.15,4.42-1.7,6.11a7,7,0,0,1,1.37,4.31c0,1.54-.3,2.47-1,3a2.93,2.93,0,0,1-1.26.5,10.6,10.6,0,0,1-1.35.07,8,8,0,0,0-.34-2v6.91h-2.65v-20h4.52l.43-.11Zm-4.29,11.3h.44a.8.8,0,0,0,.55-.17c.21-.18.3-.53.3-1.12a5.81,5.81,0,0,0-1.22-3.57c.31-1.3.69-3.17,1-4.66h-1Zm16.44-4.66c-.72.46-1.52.95-2.3,1.36a19,19,0,0,0,2.91,5.73,10.73,10.73,0,0,0-1.94,2,24.61,24.61,0,0,1-2.78-5.63c.61,3.08.17,6.09-.84,7.22a3.09,3.09,0,0,1-2.73,1.32c-.49,0-1.12,0-1.73-.05a6.62,6.62,0,0,0-.74-2.81,18.69,18.69,0,0,0,1.94.11,1,1,0,0,0,1.07-.69,4.26,4.26,0,0,0,.49-1.91,23.1,23.1,0,0,1-4.89,2.75,10.4,10.4,0,0,0-1.78-2.22,16.63,16.63,0,0,0,6.48-3.48c-.07-.29-.13-.57-.19-.86a23.58,23.58,0,0,1-3.77,2.44,10.68,10.68,0,0,0-1.6-2.22,14.78,14.78,0,0,0,4.51-2.42,8.07,8.07,0,0,0-.55-.88,22.63,22.63,0,0,1-3.1,1.81,15.45,15.45,0,0,0-1.72-2.25,17.42,17.42,0,0,0,3.83-1.93h-3v-2.73h2.9a13.18,13.18,0,0,0-1.74-1.92l2.23-1.43a11.37,11.37,0,0,1,2.48,2.62l-1,.73h1.62a17.42,17.42,0,0,0,1.75-3.3l2.92.86c-.52.88-1.07,1.73-1.57,2.44h2.65v2.73h-5.45c-.26.28-.53.55-.82.81a10.32,10.32,0,0,1,1.24,1.94A25.19,25.19,0,0,0,182,319Z"/><path d="M200.83,329.41c1.85.8,3.89,1.74,5.14,2.4l-3.52,1.59a35.36,35.36,0,0,0-5-2.69l2-1.3h-6.17l2.19,1.06a26.85,26.85,0,0,1-6.6,3,24.48,24.48,0,0,0-2.42-2.47,24.48,24.48,0,0,0,5.34-1.63h-2.59V320a7.89,7.89,0,0,1-.65.49,10.11,10.11,0,0,0-2.23-2.29,14.9,14.9,0,0,0,5.49-5.66l3.31.68c-.13.23-.28.47-.43.69h3.31l.48-.13,2.13,1.43a26.68,26.68,0,0,1-1.64,2.42h4.81v11.83Zm-7.89-13.15q-.54.69-1.14,1.32h3.43c.36-.42.68-.88,1-1.32Zm7.58,3.76h-8.34v.79h8.34Zm0,3.87v-.81h-8.34v.81Zm-8.34,2.27V327h8.34v-.81Z"/><path d="M223.36,330c1.81.68,3.71,1.45,4.89,2l-3.75,1.39a33.44,33.44,0,0,0-5.11-2.4l1.79-1H216l1.58.75a25.87,25.87,0,0,1-6.65,2.72,18.27,18.27,0,0,0-2.21-2.28,28.57,28.57,0,0,0,4.86-1.19h-2.17v-8.74h14.42V330Zm4.74-9.29H209v-2.15h8V318h-5.85v-1.85H217v-.55h-6.82v-2.07H217v-1.08h3.15v1.08h7.18v2.07h-7.18v.55h6.17V318h-6.17v.53h8Zm-13.68,2.93h8.33V323h-8.33Zm0,2.29h8.33v-.62h-8.33Zm0,2.31h8.33v-.64h-8.33Z"/><path d="M235.59,323.69a2.17,2.17,0,0,1-2.25-2.2,2.19,2.19,0,0,1,2.33-2.2c1.66,0,2.55,1.28,2.55,3.3a5.71,5.71,0,0,1-4.46,5.53L233,326c1.62-.46,2.59-1.36,2.75-2.31Z"/><path d="M254.42,330.1l1.26,0c1.37,0,5.24,0,7-.07a10.27,10.27,0,0,0-1,3h-6.16c-3.66,0-6.21-.51-8-2.84a10.19,10.19,0,0,1-2.79,3.19,15.77,15.77,0,0,0-2.3-2.24,8.79,8.79,0,0,0,3.81-6.36l3,.46a18.38,18.38,0,0,1-.48,1.91,4.43,4.43,0,0,0,2.54,2.34v-5h-8v-2.8H262v2.8h-7.55v1.19h6.23v2.75h-6.23Zm5.7-9.05h-15v-7.9h15Zm-3.12-5.7h-8.92v.73H257Zm0,2.78h-8.92v.72H257Z"/><path d="M284,324.35a14.09,14.09,0,0,1-2.34,5.06,11.36,11.36,0,0,0,3.33,1.32,11,11,0,0,0-1.79,2.49,11.64,11.64,0,0,1-3.53-1.74,14.23,14.23,0,0,1-3.37,2,11.72,11.72,0,0,0-1.45-2.27v2.23h-2.84v-1.76l-6.61.68-.21-2.73,1.75-.13v-6.25h-1.56V320.7h19v2.51h-9.49v7.68a9.82,9.82,0,0,0,2.69-1.45,14,14,0,0,1-1.79-3l1.07-.31h-1.41v-2.4h6.19l.51-.08Zm-13.24-4.09h-2.92V313.2h14v7.06h-3.07v-4.91h-8Zm-1.13,2.95v.53h2.38v-.53Zm0,3.23h2.38v-.55h-2.38Zm2.38,2.6v-.44h-2.38v.64Zm6.18-11.38h-6.92v-1.8h6.92Zm-6.92.58h6.92V320h-6.92Zm7.13,7.87a7.85,7.85,0,0,0,1,1.48,8.9,8.9,0,0,0,.91-1.48Z"/><path d="M306.91,330.32v2.48H287.57v-2.48h8v-.73h-6.44v-2.38h6.44v-.66h-5.75v-7.13h5.75v-.55H287.7v-2.46h7.87v-.64c-1.94.09-3.87.16-5.68.16a9.88,9.88,0,0,0-.61-2.45,113.55,113.55,0,0,0,14.24-1l1.35,2.46c-1.85.29-4,.53-6.23.69v.81h8.1v2.46h-8.1v.55h6.1v7.13h-6.1v.66h6.88v2.38h-6.88v.73Zm-14.1-8.26h2.76v-.59h-2.76Zm2.76,2.45v-.6h-2.76v.6Zm3.07-3v.59h3v-.59Zm3,2.44h-3v.6h3Z"/><path d="M325.13,327.59a10,10,0,0,1-1.52,2c2.09.52,4,1.07,5.43,1.54l-2.71,2.22c-1.43-.55-3.35-1.17-5.56-1.78-2.46,1.14-5.66,1.65-9.85,1.93a8.73,8.73,0,0,0-1.11-2.75,39,39,0,0,0,5.83-.5c-1.16-.27-2.36-.51-3.56-.75.44-.55.93-1.19,1.41-1.87h-3.68V325h5.32c.32-.57.61-1.12.87-1.67h-4.93v-6.49h4.5v-.88h-5.42v-2.76h18.58v2.76h-5.58v.88h5v6.49h-11l2,.46c-.17.39-.38.81-.59,1.21h4.51c.14-.38.29-.77.42-1.21l3,.75-.14.46h2.9v2.62Zm-11.2-6.76h1.64v-1.54h-1.64Zm2.82,7.11c1.12.22,2.23.46,3.31.73a6.35,6.35,0,0,0,1.32-1.08H317Zm1.71-11.13h1.81v-.88h-1.81Zm1.81,4v-1.54h-1.81v1.54Zm2.88-1.54v1.54h2v-1.54Z"/><path d="M351.34,315.86s0,1,0,1.39c-.25,9.79-.46,13.35-1.35,14.56a3,3,0,0,1-2.23,1.41,19.06,19.06,0,0,1-3.4.09,7.78,7.78,0,0,0-1-3.1c1.34.13,2.6.13,3.17.13a1.06,1.06,0,0,0,.93-.4c.61-.68.86-3.91,1-11.18h-4a22.38,22.38,0,0,1-1.79,3.28,18.85,18.85,0,0,0-1.72-1.36v10.47h-5.52v1.56h-2.75V316.08h2.4a30.41,30.41,0,0,0,.46-3.59l3.35.49c-.36,1.07-.72,2.18-1.06,3.1H341V319a24.76,24.76,0,0,0,2.5-6.45l2.95.73c-.23.85-.51,1.71-.8,2.57Zm-13.15,3h-2.76v3h2.76Zm0,9.51v-3.79h-2.76v3.79Zm6.95-.66a51.39,51.39,0,0,0-2.76-5.13l2.4-1.41c.94,1.5,2.31,3.59,2.94,4.89Z"/><path d="M354.22,331.44a13.45,13.45,0,0,0,1.6-4.05l2.63,1.08a19,19,0,0,1-1.56,4.4Zm8.4-13.27a9.59,9.59,0,0,0-.51-1c-5.51.59-6.37.75-7,1-.15-.55-.55-1.78-.82-2.46a3.06,3.06,0,0,0,1.13-.64,12.44,12.44,0,0,0,2.42-2.58l2.67.82a22.21,22.21,0,0,1-2,2l2.33-.22-.61-.85,2-1.06a25,25,0,0,1,2.49,3.78,3.57,3.57,0,0,1,0-.59v-3.76h2.8v1.14h4.95v2.31h-4.95v.35c0,.64.09.91.7.91H371a10.07,10.07,0,0,0,2.06-.2c.05.77.13,1.82.24,2.51a9.08,9.08,0,0,1-2.19.19h-3c-2.46,0-3.24-.81-3.34-2.83l-2.09,1.14h.91V325c0,1.08-.21,1.59-.89,1.94a6,6,0,0,1-2.61.33,9.44,9.44,0,0,0-.73-2,9,9,0,0,0,1.32,0c.21,0,.3-.07.3-.27v-.66c-1,.53-1.92,1.06-2.82,1.52l-.46-1.23a6.07,6.07,0,0,1-1.33,2.77,11.71,11.71,0,0,0-2.17-1.58,6.16,6.16,0,0,0,1.27-4.4v-3.26Zm-2.8,4.75c-.48-.31-1.18-.68-1.79-1,0,.51,0,1.06-.11,1.61C358.49,323.36,359.12,323.16,359.82,322.92ZM358,320.33v.83l.65-.83Zm3,0h-2.27c.71.3,1.68.77,2.27,1.1Zm5.05,10.18c.9,0,1.07-.3,1.18-2.22a8.72,8.72,0,0,0,2.56,1c-.31,2.94-1.09,3.69-3.49,3.69h-3.56c-3.11,0-3.91-.77-3.91-3.17v-2h3v2c0,.64.21.7,1.28.7Zm-5.05-8v-.79l-.74,1.06Zm3.64,3.77c.59.74,1.45,1.8,1.89,2.46l-2.23,1.54c-.38-.68-1.2-1.82-1.79-2.64Zm3.45,1c-2.71,0-3.33-.77-3.33-3.21v-4.2h2.8v1.18h5v2.31h-5v.69c0,.66.15.72.91.72h2.08c.55,0,.7-.15.78-.9a7.47,7.47,0,0,0,2.44,1c-.31,1.91-1.07,2.44-2.92,2.44Zm4.21.09c.5,1.23,1.2,2.93,1.49,4l-2.8.92c-.25-1-.84-2.79-1.32-4.11Z"/><path d="M381.09,320c0,3.83-.27,9.62-2,13.29a12.06,12.06,0,0,0-2.82-1.36c1.68-3.41,1.81-8.5,1.81-11.91v-5.83h7.83c-.13-.44-.26-.86-.38-1.23l3.11-.7a15.18,15.18,0,0,1,.68,1.93h6.77v2.95h-15Zm14,6.09a10.28,10.28,0,0,1-3.32,3.9,35.62,35.62,0,0,0,4.69.57,12.41,12.41,0,0,0-1.77,2.77,24.54,24.54,0,0,1-6.63-1.47,29.29,29.29,0,0,1-6.31,1.34,11.69,11.69,0,0,0-1.24-2.66,34.24,34.24,0,0,0,4.17-.55,11.63,11.63,0,0,1-2.07-2l.91-.35h-2v-2.47h11.09l.53-.11ZM384,324.68v-3.34h-2.54v-2.49H384v-1.19h2.89v1.19H390v-1.19h3v1.19h2.84v2.49H393v3.34Zm2,3a9.37,9.37,0,0,0,2.19,1.25,9.87,9.87,0,0,0,2.14-1.25Zm.93-6.38v1H390v-1Z"/><path d="M403.52,319.29A3.68,3.68,0,1,1,400,323,3.59,3.59,0,0,1,403.52,319.29Zm0,5.5a1.83,1.83,0,1,0-1.75-1.82A1.78,1.78,0,0,0,403.52,324.79Z"/></svg>