<svg id="圖層_1" data-name="圖層 1" xmlns="http://www.w3.org/2000/svg" viewBox="0 0 592.96 476.72"><defs><style>.cls-1{fill:#fff;}</style></defs><polygon class="cls-1" points="61.51 30.13 32.1 30.13 0 107.84 43.92 153.45 0 188.93 0 352.79 30.75 396.72 13.52 440.64 61.51 475.55 137.4 459.79 179.63 476.71 254.53 476.71 299.32 456.26 376.03 476.71 446.79 472.05 479.78 449.93 517.66 467.37 564.25 464.29 592.97 425.44 562.56 381.51 592.97 339.28 592.97 163.59 565.93 126.42 592.97 70.67 559.18 8.16 439.23 8.16 395.31 21.68 319.29 0 116.57 0 61.51 30.13"/></svg>