<svg id="圖層_1" data-name="圖層 1" xmlns="http://www.w3.org/2000/svg" xmlns:xlink="http://www.w3.org/1999/xlink" viewBox="0 0 206.76 153.77"><defs><style>.cls-1,.cls-10,.cls-11,.cls-19,.cls-2,.cls-3,.cls-4,.cls-5,.cls-6,.cls-7,.cls-8,.cls-9{fill:none;}.cls-10,.cls-11,.cls-12,.cls-16,.cls-17,.cls-19,.cls-2,.cls-3,.cls-4,.cls-5,.cls-6,.cls-7,.cls-8,.cls-9{stroke:#211815;}.cls-10,.cls-11,.cls-12,.cls-16,.cls-17,.cls-18,.cls-19,.cls-2,.cls-3,.cls-4,.cls-5,.cls-6,.cls-7,.cls-8,.cls-9{stroke-linecap:round;}.cls-2{stroke-width:3.5px;}.cls-10,.cls-11,.cls-2,.cls-3,.cls-4,.cls-5,.cls-6,.cls-7,.cls-8,.cls-9{stroke-dasharray:0 6.5;}.cls-3{stroke-width:3.25px;}.cls-4{stroke-width:3px;}.cls-5{stroke-width:2.75px;}.cls-6{stroke-width:2.5px;}.cls-7{stroke-width:2.25px;}.cls-17,.cls-19,.cls-8{stroke-width:2px;}.cls-9{stroke-width:1.75px;}.cls-10{stroke-width:1.5px;}.cls-11{stroke-width:1.25px;}.cls-12,.cls-14,.cls-16,.cls-17{fill:#fff;}.cls-12,.cls-17,.cls-18,.cls-19{stroke-linejoin:bevel;}.cls-12{stroke-width:2.68px;}.cls-13{fill:url(#起伏的細點);}.cls-15,.cls-18{fill:#211815;}.cls-16{stroke-linejoin:round;stroke-width:2.74px;}.cls-18{stroke:#fff;stroke-width:2.74px;}</style><pattern id="起伏的細點" data-name="起伏的細點" width="83" height="65" patternTransform="translate(124.9 107.16)" patternUnits="userSpaceOnUse" viewBox="0 0 83 65"><rect class="cls-1" width="83" height="65"/><line class="cls-2" x1="83" y1="65" x2="83" y2="130.5"/><line class="cls-2" y1="65" y2="130.5"/><line class="cls-3" x1="4.61" y1="61.75" x2="4.61" y2="130.5"/><line class="cls-4" x1="9.22" y1="65" x2="9.22" y2="130.5"/><line class="cls-5" x1="13.83" y1="61.75" x2="13.83" y2="130.5"/><line class="cls-6" x1="18.45" y1="65" x2="18.45" y2="130.5"/><line class="cls-7" x1="23.06" y1="61.75" x2="23.06" y2="130.5"/><line class="cls-8" x1="27.67" y1="65" x2="27.67" y2="130.5"/><line class="cls-9" x1="32.28" y1="61.75" x2="32.28" y2="130.5"/><line class="cls-10" x1="36.89" y1="65" x2="36.89" y2="130.5"/><line class="cls-11" x1="41.5" y1="61.75" x2="41.5" y2="130.5"/><line class="cls-2" x1="83" y1="65" x2="83" y2="130.5"/><line class="cls-3" x1="78.39" y1="61.75" x2="78.39" y2="130.5"/><line class="cls-4" x1="73.78" y1="65" x2="73.78" y2="130.5"/><line class="cls-5" x1="69.17" y1="61.75" x2="69.17" y2="130.5"/><line class="cls-6" x1="64.55" y1="65" x2="64.55" y2="130.5"/><line class="cls-7" x1="59.94" y1="61.75" x2="59.94" y2="130.5"/><line class="cls-8" x1="55.33" y1="65" x2="55.33" y2="130.5"/><line class="cls-9" x1="50.72" y1="61.75" x2="50.72" y2="130.5"/><line class="cls-10" x1="46.11" y1="65" x2="46.11" y2="130.5"/><line class="cls-2" y1="65" y2="130.5"/><line class="cls-2" x1="83" x2="83" y2="65.5"/><line class="cls-2" y2="65.5"/><line class="cls-3" x1="4.61" y1="-3.25" x2="4.61" y2="65.5"/><line class="cls-4" x1="9.22" x2="9.22" y2="65.5"/><line class="cls-5" x1="13.83" y1="-3.25" x2="13.83" y2="65.5"/><line class="cls-6" x1="18.45" x2="18.45" y2="65.5"/><line class="cls-7" x1="23.06" y1="-3.25" x2="23.06" y2="65.5"/><line class="cls-8" x1="27.67" x2="27.67" y2="65.5"/><line class="cls-9" x1="32.28" y1="-3.25" x2="32.28" y2="65.5"/><line class="cls-10" x1="36.89" x2="36.89" y2="65.5"/><line class="cls-11" x1="41.5" y1="-3.25" x2="41.5" y2="65.5"/><line class="cls-2" x1="83" x2="83" y2="65.5"/><line class="cls-3" x1="78.39" y1="-3.25" x2="78.39" y2="65.5"/><line class="cls-4" x1="73.78" x2="73.78" y2="65.5"/><line class="cls-5" x1="69.17" y1="-3.25" x2="69.17" y2="65.5"/><line class="cls-6" x1="64.55" x2="64.55" y2="65.5"/><line class="cls-7" x1="59.94" y1="-3.25" x2="59.94" y2="65.5"/><line class="cls-8" x1="55.33" x2="55.33" y2="65.5"/><line class="cls-9" x1="50.72" y1="-3.25" x2="50.72" y2="65.5"/><line class="cls-10" x1="46.11" x2="46.11" y2="65.5"/><line class="cls-2" y2="65.5"/><line class="cls-2" x1="83" y1="-65" x2="83" y2="0.5"/><line class="cls-2" y1="-65" y2="0.5"/><line class="cls-3" x1="4.61" y1="-68.25" x2="4.61" y2="0.5"/><line class="cls-4" x1="9.22" y1="-65" x2="9.22" y2="0.5"/><line class="cls-5" x1="13.83" y1="-68.25" x2="13.83" y2="0.5"/><line class="cls-6" x1="18.45" y1="-65" x2="18.45" y2="0.5"/><line class="cls-7" x1="23.06" y1="-68.25" x2="23.06" y2="0.5"/><line class="cls-8" x1="27.67" y1="-65" x2="27.67" y2="0.5"/><line class="cls-9" x1="32.28" y1="-68.25" x2="32.28" y2="0.5"/><line class="cls-10" x1="36.89" y1="-65" x2="36.89" y2="0.5"/><line class="cls-11" x1="41.5" y1="-68.25" x2="41.5" y2="0.5"/><line class="cls-2" x1="83" y1="-65" x2="83" y2="0.5"/><line class="cls-3" x1="78.39" y1="-68.25" x2="78.39" y2="0.5"/><line class="cls-4" x1="73.78" y1="-65" x2="73.78" y2="0.5"/><line class="cls-5" x1="69.17" y1="-68.25" x2="69.17" y2="0.5"/><line class="cls-6" x1="64.55" y1="-65" x2="64.55" y2="0.5"/><line class="cls-7" x1="59.94" y1="-68.25" x2="59.94" y2="0.5"/><line class="cls-8" x1="55.33" y1="-65" x2="55.33" y2="0.5"/><line class="cls-9" x1="50.72" y1="-68.25" x2="50.72" y2="0.5"/><line class="cls-10" x1="46.11" y1="-65" x2="46.11" y2="0.5"/><line class="cls-2" y1="-65" y2="0.5"/></pattern></defs><rect class="cls-12" x="12.54" y="139.04" width="47.3" height="9.2"/><rect class="cls-12" x="6.54" y="129.14" width="47.3" height="9.2"/><rect class="cls-13" x="6.54" y="129.14" width="47.3" height="9.2"/><rect class="cls-12" x="6.54" y="109.96" width="47.3" height="9.2"/><rect class="cls-13" x="6.54" y="109.96" width="47.3" height="9.2"/><rect class="cls-12" x="12.54" y="119.23" width="47.3" height="9.2"/><rect class="cls-12" x="188.99" y="109.17" width="7.13" height="38.95"/><polygon class="cls-14" points="93.87 139.46 92.5 138.1 92.5 124.02 93.87 122.65 172.57 122.65 173.94 124.02 173.94 138.1 172.57 139.46 93.87 139.46"/><path class="cls-15" d="M172.57,124V138.1H93.87V124h78.7m0-2.74H93.87L91.13,124V138.1l2.74,2.73h78.7l2.74-2.73V124l-2.74-2.74Z"/><path class="cls-16" d="M159.06,115.76H189a0,0,0,0,1,0,0v19.82a0,0,0,0,1,0,0H174.09a15,15,0,0,1-15-15v-4.8A0,0,0,0,1,159.06,115.76Z" transform="translate(313.49 -37.49) rotate(94.69)"/><polygon class="cls-14" points="78.36 147.69 77 146.32 77 132.24 78.36 130.87 157.07 130.87 158.44 132.24 158.44 146.32 157.07 147.69 78.36 147.69"/><path class="cls-15" d="M157.07,132.24v14.08H78.37V132.24h78.7m0-2.74H78.37l-2.74,2.74v14.08l2.74,2.73h78.7l2.74-2.73V132.24l-2.74-2.74Z"/><path class="cls-16" d="M143.56,124h29.9a0,0,0,0,1,0,0v19.82a0,0,0,0,1,0,0H158.59a15,15,0,0,1-15-15V124A0,0,0,0,1,143.56,124Z" transform="translate(304.91 -13.15) rotate(94.69)"/><path class="cls-14" d="M93,144.6a40.83,40.83,0,0,1-40.79-40.78V48.37a40.79,40.79,0,1,1,81.57,0v55.45A40.82,40.82,0,0,1,93,144.6Z"/><path class="cls-15" d="M93,9a39.41,39.41,0,0,1,39.41,39.42v55.45a39.42,39.42,0,0,1-78.83,0V48.37A39.42,39.42,0,0,1,93,9m0-2.74A42.2,42.2,0,0,0,50.85,48.37v55.45a42.16,42.16,0,0,0,84.31,0V48.37A42.2,42.2,0,0,0,93,6.21Z"/><path class="cls-14" d="M117.12,101.88a8.34,8.34,0,0,1,0-16.67h13.07a8.34,8.34,0,1,1,0,16.67Z"/><path class="cls-15" d="M130.19,86.58a7,7,0,0,1,7,7h0a7,7,0,0,1-7,7H117.12a7,7,0,0,1-7-7h0a7,7,0,0,1,7-7h13.07m0-2.74H117.12a9.71,9.71,0,0,0,0,19.41h13.07a9.71,9.71,0,1,0,0-19.41Z"/><path class="cls-13" d="M121,106.09A42.55,42.55,0,0,1,78.42,63.54V11.75A39.42,39.42,0,0,0,53.59,48.37v55.45A39.41,39.41,0,0,0,93,143.23h0a39.4,39.4,0,0,0,39.34-37.14Z"/><rect class="cls-12" x="130.57" y="109.17" width="7.13" height="38.95"/><rect class="cls-12" x="93.87" y="98.55" width="82.5" height="8.44"/><path class="cls-14" d="M79.61,142.63a3.11,3.11,0,0,1-.67-.07c-1.92-.42-2.49-2-2.71-3.91a4.64,4.64,0,0,1-3.15,1.63,3,3,0,0,1-1.43-.37c-1.73-.91-1.84-2.62-1.54-4.49a5.61,5.61,0,0,1-2.62.82,3,3,0,0,1-2.11-.84c-1.37-1.3-1.08-2.91-.36-4.58a7.29,7.29,0,0,1-1.71.25,3.1,3.1,0,0,1-2.72-1.38c-1-1.52-.49-2.94.51-4.38h-.48a3.52,3.52,0,0,1-3.49-1.9c-.72-1.6,0-2.89,1.12-4.12-1.68-.17-3-.69-3.54-2.35s.28-2.82,1.52-3.89c-1.6-.34-2.85-1-3.18-2.66s.52-2.75,1.83-3.69c-1.52-.47-2.69-1.22-2.89-2.88s.78-2.72,2.14-3.56c-1.49-.56-2.61-1.37-2.68-3-.15-3.29,3.39-4.12,5.3-4.57.22,0,.75-.18,1.13-.29a2.73,2.73,0,0,1,2.26-1.15,2.8,2.8,0,0,1,2,.84,2.74,2.74,0,0,1,.75,2,3.24,3.24,0,0,1-1.69,2.85,3.36,3.36,0,0,1,1.93,2.73,3.23,3.23,0,0,1-1.69,3.07,3.33,3.33,0,0,1,2.38,2.63,3.24,3.24,0,0,1-1.41,3.18,3.31,3.31,0,0,1,2.55,2.39,3.24,3.24,0,0,1-1.06,3.24,3.28,3.28,0,0,1,2.7,2.08,3.23,3.23,0,0,1-.59,3.22,3.35,3.35,0,0,1,2.8,1.67,3.17,3.17,0,0,1,0,3.1h.32a3.15,3.15,0,0,1,2.55,1.13,3.09,3.09,0,0,1,.63,2.81,3.9,3.9,0,0,1,1-.14,3,3,0,0,1,1.82.59A3.09,3.09,0,0,1,76.36,131a3.43,3.43,0,0,1,1.7-.47,3.23,3.23,0,0,1,1.06.18,3.07,3.07,0,0,1,1.94,2.05,3.18,3.18,0,0,1,2.38-1.06h.28a2.73,2.73,0,0,1,1.08,5.12c-.28.45-.73,1.31-.92,1.67C82.71,140.71,81.7,142.63,79.61,142.63Z"/><path class="cls-15" d="M60.14,92.59h0A1.37,1.37,0,0,1,61.49,94c0,1.78-2,2.25-3.8,2.66l-.79.19.4.11c2.4.66,4.3,1.18,4.43,2.76.11,1.41-1.31,2.07-3.47,3.06l-.75.35.53.11c2.41.46,4.15.8,4.39,2.29s-1.25,2.25-3.3,3.4l-.6.34.56.07c2.4.25,4.14.44,4.5,1.88s-1.05,2.38-3,3.73l-.49.34h.55c2.39,0,4.12,0,4.63,1.39s-.78,2.5-2.56,4.06l-.37.33.48-.06a20.22,20.22,0,0,1,2.54-.24,2.22,2.22,0,0,1,2.2,1c.7,1.27-.4,2.58-1.91,4.41l-.23.27.35-.11a12.16,12.16,0,0,1,3.28-.77,1.83,1.83,0,0,1,1.5.63c.91,1.1.12,2.6-1,4.68l-.1.19.16-.1c1.46-.89,2.63-1.6,3.6-1.6a1.68,1.68,0,0,1,1,.33c1.14.82.76,2.46.25,4.73l0,.14,0,0c1.37-1.48,2.42-2.61,3.53-2.61a1.76,1.76,0,0,1,.59.11c1.32.47,1.4,2,1.53,4.44a2.09,2.09,0,0,0,0,.25l0-.1c1.07-2,1.85-3.53,3.2-3.53h.16a1.37,1.37,0,0,1,.3,2.67,16.79,16.79,0,0,0-1.24,2.13c-1,1.95-1.78,3.4-3,3.4a1.69,1.69,0,0,1-.38,0c-1.56-.34-1.66-2.24-1.79-4.64,0-.32,0-.73-.06-1.12l-.85.89c-1.34,1.44-2.38,2.56-3.45,2.56a1.68,1.68,0,0,1-.79-.2c-1.4-.74-1-2.5-.44-4.92.07-.32.16-.73.25-1.12-.37.21-.74.43-1,.61-1.46.88-2.63,1.6-3.59,1.6a1.65,1.65,0,0,1-1.17-.48c-1.13-1.07-.3-2.64.84-4.82.15-.28.34-.64.52-1l-1.06.34a12.41,12.41,0,0,1-3.31.78,1.74,1.74,0,0,1-1.59-.78c-.86-1.28.27-2.64,1.84-4.52.19-.23.43-.52.66-.82l-1,.13a20.53,20.53,0,0,1-2.55.24c-1.09,0-1.87-.25-2.25-1.09-.63-1.4.69-2.56,2.53-4.18l.73-.65h-1c-2.43,0-4.18,0-4.63-1.47s1-2.47,3-3.87l.75-.52c-.35,0-.7-.08-1-.11-2.39-.26-4.11-.45-4.41-1.92s1.25-2.38,3.4-3.59l.75-.42-1-.21c-2.32-.45-4-.77-4.17-2.24s1.55-2.36,3.76-3.38l.73-.34-1.26-.36c-2.23-.61-3.71-1-3.77-2.42C52.72,95,55.23,94.42,57.06,94a13.28,13.28,0,0,0,1.77-.5,1.36,1.36,0,0,1,1.31-.9m0-2.74a4.08,4.08,0,0,0-3,1.32l-.66.16c-2,.46-6.55,1.53-6.36,6a4.06,4.06,0,0,0,1.63,3.22A4.28,4.28,0,0,0,50.63,104a4.18,4.18,0,0,0,1.87,3.11,4.47,4.47,0,0,0,1.38,6.55,4.48,4.48,0,0,0,2.07,6.5,4.21,4.21,0,0,0-.06,3.83A4.38,4.38,0,0,0,59,126.5a4.23,4.23,0,0,0,.5,3.95,4.45,4.45,0,0,0,3.66,2,4.24,4.24,0,0,0,1.33,4,4.37,4.37,0,0,0,3,1.22,5,5,0,0,0,1.16-.14A4.25,4.25,0,0,0,71,141.12a4.4,4.4,0,0,0,2.07.53,4.58,4.58,0,0,0,2.3-.63,4.26,4.26,0,0,0,3.27,2.87,4.56,4.56,0,0,0,1,.11c2.92,0,4.28-2.59,5.48-4.87.14-.28.47-.89.71-1.32a4.09,4.09,0,0,0,.83-6,4,4,0,0,0-2.78-1.46,2.88,2.88,0,0,0-.41,0,4.39,4.39,0,0,0-1.93.43,4.2,4.2,0,0,0-1.93-1.33,4.43,4.43,0,0,0-2.25-.21,4.29,4.29,0,0,0-1.46-1.76,4.46,4.46,0,0,0-2.21-.83,4.28,4.28,0,0,0-1-2.2A4.35,4.35,0,0,0,70.51,123a4.29,4.29,0,0,0-.54-2.58,4.35,4.35,0,0,0-2-1.89,4.5,4.5,0,0,0-2-5.07,4.15,4.15,0,0,0,.25-2.92,4.23,4.23,0,0,0-1.66-2.5,4.18,4.18,0,0,0,.55-3,4.26,4.26,0,0,0-1.48-2.67,4.11,4.11,0,0,0,.8-2.93,4.33,4.33,0,0,0-1.16-2.69,4.48,4.48,0,0,0,.93-2.74,4.07,4.07,0,0,0-1.13-2.93,4.12,4.12,0,0,0-2.88-1.27Z"/><rect class="cls-17" x="72.55" y="111.64" width="5.82" height="11.83" rx="2.91"/><rect class="cls-17" x="98.24" y="111.64" width="5.82" height="11.83" rx="2.91"/><path class="cls-12" d="M44.23,91.3c1.86,3.64,3.05,7.61,7.43,8.45l.19,0A13.83,13.83,0,0,0,64.56,77l7.35-24.52a13.83,13.83,0,0,0,1.93-26l-.17-.08A7.77,7.77,0,0,0,68,26.2a12.21,12.21,0,0,0-5.14,2.86,47.61,47.61,0,0,0-7.7,11.55,121.94,121.94,0,0,0-7.43,19.27,135.2,135.2,0,0,0-3.35,13.58S41.11,85.2,44.23,91.3Z"/><path class="cls-14" d="M100.71,71.2a9,9,0,0,1-9-9V54.47a9,9,0,0,1,17.93,0v7.77A9,9,0,0,1,100.71,71.2Z"/><path class="cls-15" d="M100.71,46.69a7.78,7.78,0,0,1,7.79,7.78v7.77a7.79,7.79,0,0,1-15.57,0V54.47a7.78,7.78,0,0,1,7.78-7.78m0-2.36A10.15,10.15,0,0,0,90.57,54.47v7.77a10.15,10.15,0,1,0,20.29,0V54.47a10.16,10.16,0,0,0-10.15-10.14Z"/><path class="cls-14" d="M119,71.2a9,9,0,0,1-9-9V54.47a9,9,0,0,1,17.93,0v7.77A9,9,0,0,1,119,71.2Z"/><path class="cls-15" d="M119,46.69a7.78,7.78,0,0,1,7.78,7.78v7.77a7.79,7.79,0,0,1-15.57,0V54.47A7.78,7.78,0,0,1,119,46.69m0-2.36a10.16,10.16,0,0,0-10.15,10.14v7.77a10.15,10.15,0,1,0,20.29,0V54.47A10.15,10.15,0,0,0,119,44.33Z"/><path class="cls-15" d="M97.31,61v9.32a7.73,7.73,0,0,0,4.9,1A7.93,7.93,0,0,0,109,63.31V55.75a1.73,1.73,0,0,0-1.75-1.68h-3A6.88,6.88,0,0,0,97.31,61Z"/><path class="cls-15" d="M116.12,61v9.32a7.73,7.73,0,0,0,4.9,1,7.93,7.93,0,0,0,6.77-7.94V55.75A1.73,1.73,0,0,0,126,54.07h-3A6.88,6.88,0,0,0,116.12,61Z"/><circle class="cls-14" cx="104.29" cy="26.46" r="7.97"/><path class="cls-15" d="M104.29,19.86a6.6,6.6,0,1,1-6.59,6.6,6.59,6.59,0,0,1,6.59-6.6m0-2.74a9.34,9.34,0,1,0,9.34,9.34,9.35,9.35,0,0,0-9.34-9.34Z"/><circle class="cls-14" cx="122.19" cy="26.46" r="7.97"/><path class="cls-15" d="M122.19,19.86a6.6,6.6,0,1,1-6.6,6.6,6.6,6.6,0,0,1,6.6-6.6m0-2.74a9.34,9.34,0,1,0,9.33,9.34,9.34,9.34,0,0,0-9.33-9.34Z"/><path class="cls-18" d="M108.68,25.17s3.94-4.6,9.1,0"/><path class="cls-19" d="M125.45,23.57a3.68,3.68,0,0,1,.59,4.58"/><path class="cls-14" d="M49.11,78A11.79,11.79,0,1,1,60.89,66.16,11.8,11.8,0,0,1,49.11,78Z"/><path class="cls-15" d="M49.11,55.75A10.42,10.42,0,1,1,38.69,66.16,10.41,10.41,0,0,1,49.11,55.75m0-2.74A13.16,13.16,0,1,0,62.26,66.16,13.17,13.17,0,0,0,49.11,53Z"/><polygon class="cls-12" points="132.35 66.16 186.37 66.16 176.37 106.99 122.35 106.99 132.35 66.16"/><circle class="cls-12" cx="154.7" cy="88.22" r="3.94"/><polygon class="cls-12" points="188.46 51.65 142.56 51.65 148.56 30.17 194.46 30.17 188.46 51.65"/><polyline class="cls-12" points="160.02 49.31 160.02 59.94 170.72 49.31"/><line class="cls-12" x1="156.55" y1="37.4" x2="181.84" y2="37.4"/><line class="cls-12" x1="154.67" y1="43.36" x2="179.97" y2="43.36"/><path class="cls-12" d="M114.66,74.91a4.4,4.4,0,1,1-8.8,0"/><path class="cls-12" d="M81.74,120H97.3a28.16,28.16,0,0,1,28.16,28.16v0a0,0,0,0,1,0,0H53.59a0,0,0,0,1,0,0v0A28.16,28.16,0,0,1,81.74,120Z"/><circle class="cls-17" cx="73.93" cy="131.06" r="2.32"/><circle class="cls-17" cx="82.24" cy="131.06" r="2.32"/><circle class="cls-17" cx="90.54" cy="131.06" r="2.32"/><circle class="cls-17" cx="73.93" cy="138.87" r="2.32"/><circle class="cls-17" cx="82.24" cy="138.87" r="2.32"/><circle class="cls-17" cx="90.54" cy="138.87" r="2.32"/><rect class="cls-12" x="88.22" y="106.99" width="113.19" height="7.53"/></svg>