<svg id="圖層_1" data-name="圖層 1" xmlns="http://www.w3.org/2000/svg" viewBox="0 0 324.28 153.35"><defs><style>.cls-1{fill:#fff;stroke:#fff;stroke-linecap:round;stroke-linejoin:round;stroke-width:2.74px;}</style></defs><polygon class="cls-1" points="52.89 144.1 123.75 140.09 165.19 151.98 195.64 140.73 253.08 147.48 303.48 122.71 302.92 106.94 322.91 93.42 314.52 26.79 284.68 1.37 179.69 1.37 156.49 14.63 123.33 1.37 41.16 6.89 7.29 43.31 13.76 72.03 1.37 93.99 7.29 121.02 52.89 144.1"/><path d="M49.07,64.2c0-2,1.57-3.09,5.27-3.49-.07-.76-.47-1.21-1.44-1.21a5.22,5.22,0,0,0-2.48.83l-1-1.95a8,8,0,0,1,4.09-1.25c2.45,0,3.84,1.36,3.84,4.33v5.39H54.89l-.22-.95H54.6a4,4,0,0,1-2.71,1.18A2.74,2.74,0,0,1,49.07,64.2ZM54.34,64V62.51c-1.85.25-2.45.79-2.45,1.45s.4.82,1,.82A1.88,1.88,0,0,0,54.34,64Z"/><path d="M59.75,60.58c0-4.27,1.76-6.37,4.38-6.37s4.41,2.13,4.41,6.37-1.79,6.5-4.41,6.5S59.75,64.85,59.75,60.58Zm6,0c0-3.39-.71-4.09-1.6-4.09s-1.58.7-1.58,4.09.7,4.2,1.58,4.2S65.73,64,65.73,60.58Z"/><path d="M72.24,63.83a2.83,2.83,0,0,0,1.9.85c1.27,0,2.27-.9,2.39-3.62a3.26,3.26,0,0,1-2.37,1.25c-2.09,0-3.64-1.23-3.64-3.9a4,4,0,0,1,4.09-4.2c2.35,0,4.64,1.78,4.64,6.29s-2.37,6.58-4.91,6.58a5.06,5.06,0,0,1-3.65-1.48Zm4.24-4.77c-.25-2.05-1-2.63-1.8-2.63s-1.45.55-1.45,2,.66,1.82,1.5,1.82A2,2,0,0,0,76.48,59.06Z"/><path d="M81.12,65.35l1.37-1.87a3.76,3.76,0,0,0,2.58,1.2c1.15,0,1.9-.48,1.9-1.42s-.56-1.7-3.17-1.7V59.48c2.12,0,2.79-.65,2.79-1.64s-.5-1.31-1.42-1.31a3.31,3.31,0,0,0-2.22,1l-1.5-1.82a5.82,5.82,0,0,1,3.85-1.53c2.57,0,4.26,1.2,4.26,3.42a2.84,2.84,0,0,1-2,2.73v.09a3.05,3.05,0,0,1,2.4,3c0,2.32-2.12,3.62-4.59,3.62A5.32,5.32,0,0,1,81.12,65.35Z"/><path d="M92.85,64.45h2.63V57.39H93.2V55.56a8.49,8.49,0,0,0,3.07-1.12h2.18v10h2.24v2.4H92.85Z"/><path d="M104.73,63.83a2.79,2.79,0,0,0,1.9.85c1.26,0,2.26-.9,2.38-3.62a3.26,3.26,0,0,1-2.37,1.25c-2.08,0-3.63-1.23-3.63-3.9a4,4,0,0,1,4.08-4.2c2.36,0,4.64,1.78,4.64,6.29s-2.37,6.58-4.9,6.58a5.09,5.09,0,0,1-3.66-1.48ZM109,59.06c-.25-2.05-1-2.63-1.8-2.63s-1.45.55-1.45,2,.67,1.82,1.5,1.82A2,2,0,0,0,109,59.06Z"/><path d="M114,63.76a3.44,3.44,0,0,1,2-3.13v-.08a3.6,3.6,0,0,1-1.62-3c0-2.07,1.63-3.35,3.94-3.35s3.71,1.3,3.71,3.32a3.43,3.43,0,0,1-1.56,2.75v.08a3.58,3.58,0,0,1,2.08,3.35c0,1.92-1.73,3.37-4.33,3.37C115.82,67.08,114,65.73,114,63.76Zm5.84-.16c0-1.09-1-1.55-2.47-2.2a2.84,2.84,0,0,0-.83,2,1.62,1.62,0,0,0,1.78,1.6A1.35,1.35,0,0,0,119.84,63.6Zm-.17-5.87a1.32,1.32,0,0,0-1.4-1.47,1.19,1.19,0,0,0-1.25,1.3c0,1,.77,1.52,2,2A2.87,2.87,0,0,0,119.67,57.73Z"/><path d="M124.71,60.58c0-4.27,1.77-6.37,4.39-6.37s4.4,2.13,4.4,6.37-1.78,6.5-4.4,6.5S124.71,64.85,124.71,60.58Zm6,0c0-3.39-.72-4.09-1.6-4.09s-1.58.7-1.58,4.09.7,4.2,1.58,4.2S130.7,64,130.7,60.58Z"/><path d="M135.28,65.37l1.35-1.87a3.79,3.79,0,0,0,2.55,1.18,1.76,1.76,0,0,0,1.95-1.93,1.73,1.73,0,0,0-1.82-1.92,2.73,2.73,0,0,0-1.75.6l-1.3-.85.32-6.14h7v2.47h-4.42l-.19,2.1a3.22,3.22,0,0,1,1.29-.25,3.62,3.62,0,0,1,3.87,3.92,4.28,4.28,0,0,1-4.49,4.4A5.92,5.92,0,0,1,135.28,65.37Z"/><path d="M146.37,60.58c0-4.27,1.77-6.37,4.39-6.37s4.4,2.13,4.4,6.37-1.79,6.5-4.4,6.5S146.37,64.85,146.37,60.58Zm6,0c0-3.39-.72-4.09-1.6-4.09s-1.59.7-1.59,4.09.7,4.2,1.59,4.2S152.36,64,152.36,60.58Z"/><path d="M156.93,65.37l1.35-1.87a3.81,3.81,0,0,0,2.55,1.18,1.77,1.77,0,0,0,2-1.93A1.74,1.74,0,0,0,161,60.83a2.71,2.71,0,0,0-1.75.6l-1.31-.85.32-6.14h7v2.47h-4.42L160.6,59a3.21,3.21,0,0,1,1.28-.25,3.62,3.62,0,0,1,3.87,3.92,4.28,4.28,0,0,1-4.48,4.4A5.93,5.93,0,0,1,156.93,65.37Z"/><path d="M175.1,57.44a2.82,2.82,0,0,0-1.85-.86c-1.29,0-2.31.91-2.42,3.62A3.31,3.31,0,0,1,173.2,59c2.06,0,3.63,1.2,3.63,3.9a4,4,0,0,1-4.08,4.2c-2.34,0-4.64-1.81-4.64-6.33s2.37-6.54,4.94-6.54a4.94,4.94,0,0,1,3.61,1.48Zm-1,5.44c0-1.37-.66-1.82-1.48-1.82a2,2,0,0,0-1.75,1.12c.25,2.07,1,2.69,1.8,2.69S174.11,64.28,174.11,62.88Z"/><path d="M178.85,60.58c0-4.27,1.77-6.37,4.39-6.37s4.4,2.13,4.4,6.37-1.78,6.5-4.4,6.5S178.85,64.85,178.85,60.58Zm6,0c0-3.39-.72-4.09-1.6-4.09s-1.58.7-1.58,4.09.7,4.2,1.58,4.2S184.84,64,184.84,60.58Z"/><path d="M189.92,62.93a8.58,8.58,0,0,1,8.7-8.91,6.47,6.47,0,0,1,6.81,6.86c0,3.52-2.37,5.27-4.41,5.27a2.08,2.08,0,0,1-2.22-1.45h-.05a3,3,0,0,1-2.3,1.27c-1.51,0-2.53-1.16-2.53-2.91,0-2.36,1.7-4.7,3.88-4.7a1.5,1.5,0,0,1,1.44,1h0l.3-.8h1.8l-.88,4.25c-.27,1.07,0,1.57.83,1.57,1.15,0,2.25-1.33,2.25-3.37,0-2.68-1.41-5.15-5.2-5.15a6.74,6.74,0,0,0-6.47,7c0,3.76,2.64,5.52,5.57,5.52a6.76,6.76,0,0,0,2.87-.71l.63,1.6a7.59,7.59,0,0,1-3.73.9C193.4,70.17,189.92,67.87,189.92,62.93Zm8.37.37.46-2.52a1,1,0,0,0-.85-.53c-1.08,0-1.76,1.55-1.76,2.65,0,.8.36,1.23,1,1.23C197.49,64.13,197.84,63.9,198.29,63.3Z"/><path d="M207.65,68.45A2.12,2.12,0,0,1,209,66.58V66.5a1.83,1.83,0,0,1-.87-1.63,2.3,2.3,0,0,1,1.05-1.77V63a3.06,3.06,0,0,1-1.28-2.45c0-2.32,1.92-3.45,4-3.45a4.63,4.63,0,0,1,1.5.23h3.49v2.15h-1.47a2.5,2.5,0,0,1,.27,1.15c0,2.22-1.69,3.19-3.79,3.19a4.12,4.12,0,0,1-1.12-.17.79.79,0,0,0-.3.67c0,.43.39.63,1.4.63h1.5c2.34,0,3.66.72,3.66,2.44,0,2-2.07,3.42-5.37,3.42C209.45,70.84,207.65,70.15,207.65,68.45Zm6.52-.52c0-.56-.5-.68-1.38-.68h-.9a4.74,4.74,0,0,1-1.35-.12,1.13,1.13,0,0,0-.45.85c0,.67.8,1,2,1S214.17,68.53,214.17,67.93Zm-1.1-7.35c0-1-.5-1.47-1.2-1.47s-1.2.5-1.2,1.47.52,1.48,1.2,1.48S213.07,61.56,213.07,60.58Z"/><path d="M219.18,57.36h2.42l.2,1.2h.06a4,4,0,0,1,2.89-1.43,2.6,2.6,0,0,1,2.6,1.56,4.15,4.15,0,0,1,3-1.56c2.07,0,3,1.48,3,3.85v5.87h-3v-5.5c0-1.3-.33-1.69-1.08-1.69a2.3,2.3,0,0,0-1.52.85v6.34h-3v-5.5c0-1.3-.33-1.69-1.08-1.69a2.33,2.33,0,0,0-1.52.85v6.34h-2.95Z"/><path d="M235.86,64.2c0-2,1.57-3.09,5.27-3.49-.06-.76-.46-1.21-1.43-1.21a5.25,5.25,0,0,0-2.49.83l-1-1.95a7.89,7.89,0,0,1,4.09-1.25c2.45,0,3.83,1.36,3.83,4.33v5.39h-2.42l-.21-.95h-.07a4,4,0,0,1-2.72,1.18A2.74,2.74,0,0,1,235.86,64.2Zm5.27-.17V62.51c-1.85.25-2.45.79-2.45,1.45s.4.82,1,.82A1.85,1.85,0,0,0,241.13,64Z"/><path d="M246.84,54.52a1.71,1.71,0,1,1,1.7,1.52A1.55,1.55,0,0,1,246.84,54.52Zm.22,2.84H250v9.49h-2.95Z"/><path d="M253.08,63.76V53.52H256V63.88c0,.62.3.8.54.8a1.52,1.52,0,0,0,.33,0l.35,2.18a3.78,3.78,0,0,1-1.47.25C253.75,67.08,253.08,65.75,253.08,63.76Z"/><path d="M259.25,65.23A1.77,1.77,0,1,1,261,67.08,1.77,1.77,0,0,1,259.25,65.23Z"/><path d="M265.08,62.11a4.8,4.8,0,0,1,5-5,4.13,4.13,0,0,1,2.77,1l-1.38,1.91a1.81,1.81,0,0,0-1.22-.52c-1.3,0-2.12,1-2.12,2.58s.85,2.57,2,2.57a2.68,2.68,0,0,0,1.65-.67l1.14,2a4.77,4.77,0,0,1-3.12,1.11C267.13,67.08,265.08,65.25,265.08,62.11Z"/><path d="M274.15,62.11a4.66,4.66,0,1,1,4.66,5A4.68,4.68,0,0,1,274.15,62.11Zm6.26,0c0-1.58-.5-2.58-1.6-2.58s-1.62,1-1.62,2.58.5,2.57,1.62,2.57S280.41,63.68,280.41,62.11Z"/><path d="M286,57.36h2.42l.2,1.2h.07a3.91,3.91,0,0,1,2.88-1.43,2.6,2.6,0,0,1,2.6,1.56,4.17,4.17,0,0,1,3-1.56c2.07,0,3,1.48,3,3.85v5.87h-3v-5.5c0-1.3-.33-1.69-1.08-1.69a2.33,2.33,0,0,0-1.52.85v6.34h-3v-5.5c0-1.3-.34-1.69-1.09-1.69a2.33,2.33,0,0,0-1.52.85v6.34H286Z"/><path d="M121.63,96.79c0-4.27,1.76-6.37,4.38-6.37s4.41,2.14,4.41,6.37-1.79,6.51-4.41,6.51S121.63,101.06,121.63,96.79Zm6,0c0-3.38-.71-4.08-1.6-4.08s-1.58.7-1.58,4.08.7,4.2,1.58,4.2S127.61,100.19,127.61,96.79Z"/><path d="M134.12,100a2.83,2.83,0,0,0,1.9.85c1.27,0,2.27-.9,2.39-3.61A3.26,3.26,0,0,1,136,98.53c-2.08,0-3.64-1.24-3.64-3.91a4,4,0,0,1,4.09-4.2c2.35,0,4.64,1.79,4.64,6.29s-2.37,6.59-4.91,6.59a5,5,0,0,1-3.65-1.49Zm4.24-4.77c-.25-2-1-2.63-1.8-2.63s-1.45.55-1.45,2,.66,1.82,1.5,1.82A2,2,0,0,0,138.36,95.27Z"/><path d="M143.4,100a3.44,3.44,0,0,1,2-3.14v-.08a3.61,3.61,0,0,1-1.61-3c0-2.06,1.63-3.35,3.93-3.35s3.72,1.3,3.72,3.32a3.42,3.42,0,0,1-1.57,2.75v.09A3.56,3.56,0,0,1,152,99.93c0,1.92-1.74,3.37-4.34,3.37C145.22,103.3,143.4,102,143.4,100Zm5.84-.17c0-1.08-1-1.55-2.47-2.2a2.85,2.85,0,0,0-.84,2,1.64,1.64,0,0,0,1.79,1.6A1.36,1.36,0,0,0,149.24,99.81Zm-.17-5.87a1.33,1.33,0,0,0-1.4-1.47,1.19,1.19,0,0,0-1.25,1.3c0,1,.77,1.52,2,2A2.8,2.8,0,0,0,149.07,93.94Z"/><path d="M155.78,100a2.81,2.81,0,0,0,1.9.85c1.27,0,2.27-.9,2.38-3.61a3.26,3.26,0,0,1-2.36,1.25c-2.09,0-3.64-1.24-3.64-3.91a4,4,0,0,1,4.09-4.2c2.35,0,4.63,1.79,4.63,6.29s-2.36,6.59-4.9,6.59a5,5,0,0,1-3.65-1.49ZM160,95.27c-.25-2-1-2.63-1.8-2.63s-1.45.55-1.45,2,.67,1.82,1.5,1.82A2,2,0,0,0,160,95.27Z"/><path d="M170.44,93.12h-5.33V90.65h8.5v1.81c-2.87,3.41-3.17,5.75-3.38,10.6h-3C167.47,99,168.11,96.36,170.44,93.12Z"/><path d="M182.84,93.66a2.79,2.79,0,0,0-1.85-.87c-1.29,0-2.3.92-2.42,3.62a3.32,3.32,0,0,1,2.37-1.22c2.06,0,3.63,1.2,3.63,3.9a4,4,0,0,1-4.08,4.21c-2.34,0-4.64-1.82-4.64-6.34s2.37-6.54,4.94-6.54a4.94,4.94,0,0,1,3.62,1.49Zm-1,5.43c0-1.36-.66-1.81-1.48-1.81a2,2,0,0,0-1.75,1.11c.25,2.07,1,2.69,1.8,2.69S181.85,100.49,181.85,99.09Z"/><path d="M188.26,100a2.83,2.83,0,0,0,1.9.85c1.27,0,2.27-.9,2.39-3.61a3.26,3.26,0,0,1-2.37,1.25c-2.08,0-3.63-1.24-3.63-3.91a4,4,0,0,1,4.08-4.2c2.35,0,4.64,1.79,4.64,6.29s-2.37,6.59-4.91,6.59a5,5,0,0,1-3.65-1.49Zm4.24-4.77c-.25-2-1-2.63-1.8-2.63s-1.45.55-1.45,2,.66,1.82,1.5,1.82A2,2,0,0,0,192.5,95.27Z"/><path d="M197.16,101.58l1.35-1.87a3.74,3.74,0,0,0,2.55,1.18A1.76,1.76,0,0,0,203,99,1.73,1.73,0,0,0,201.19,97a2.79,2.79,0,0,0-1.75.6l-1.3-.85.32-6.14h7v2.47H201l-.18,2.1a3.17,3.17,0,0,1,1.28-.25A3.62,3.62,0,0,1,206,98.89a4.29,4.29,0,0,1-4.49,4.41A5.89,5.89,0,0,1,197.16,101.58Z"/><path d="M208.25,96.79c0-4.27,1.77-6.37,4.39-6.37s4.4,2.14,4.4,6.37-1.78,6.51-4.4,6.51S208.25,101.06,208.25,96.79Zm6,0c0-3.38-.72-4.08-1.6-4.08s-1.59.7-1.59,4.08.7,4.2,1.59,4.2S214.24,100.19,214.24,96.79Z"/><path d="M218.81,101.58l1.35-1.87a3.76,3.76,0,0,0,2.55,1.18,1.76,1.76,0,0,0,2-1.93A1.73,1.73,0,0,0,222.85,97a2.77,2.77,0,0,0-1.75.6l-1.3-.85.31-6.14h7v2.47h-4.42l-.18,2.1a3.22,3.22,0,0,1,1.29-.25,3.61,3.61,0,0,1,3.86,3.92,4.28,4.28,0,0,1-4.48,4.41A5.91,5.91,0,0,1,218.81,101.58Z"/><path d="M42.26,54H25.93a1.74,1.74,0,0,0-1.74,1.74V66.18a1.74,1.74,0,0,0,1.74,1.74H42.26A1.74,1.74,0,0,0,44,66.18V55.73A1.73,1.73,0,0,0,42.26,54ZM42,55.15,35.33,61.8a1.75,1.75,0,0,1-2.47,0l-6.69-6.65ZM25.35,65.94V56l5,5Zm.82.82,5-5,.85.85a2.88,2.88,0,0,0,2.05.85,2.92,2.92,0,0,0,2.06-.84l.85-.86,5,5Zm16.67-.82-5-5,5-5Z"/><path d="M116.94,104.06l-1.85-3a1.75,1.75,0,0,0-2.41-.54l-1.34.84a1.33,1.33,0,0,1-1.82-.41l-3.65-5.81a1.31,1.31,0,0,1,.41-1.82l1.34-.85a1.73,1.73,0,0,0,.54-2.4l-1.85-2.94a1.75,1.75,0,0,0-2.4-.55l-1.08.67a6.28,6.28,0,0,0-2,8.66l5.79,9.21a6.28,6.28,0,0,0,8.67,2l1.07-.68A1.74,1.74,0,0,0,116.94,104.06ZM104.52,87.62a.58.58,0,0,1,.8.18l1.86,2.94a.58.58,0,0,1-.18.8l-.49.31L104,87.92Zm3.13,16.93-5.8-9.2a5.11,5.11,0,0,1,1.21-6.79l2.47,3.91a2.48,2.48,0,0,0-.65,3.33l3.66,5.82h0a2.48,2.48,0,0,0,3.29.85l2.46,3.92A5.09,5.09,0,0,1,107.65,104.55Zm8.13.93-.49.31-2.48-3.93.49-.31a.58.58,0,0,1,.8.18l1.86,3A.58.58,0,0,1,115.78,105.48Z"/></svg>