<svg id="圖層_1" data-name="圖層 1" xmlns="http://www.w3.org/2000/svg" viewBox="0 0 1286.16 275.93"><defs><style>.cls-1{fill:none;stroke-width:3px;}.cls-1,.cls-3{stroke:#fff;}.cls-1,.cls-2,.cls-3,.cls-4{stroke-linecap:round;stroke-linejoin:round;}.cls-2,.cls-3,.cls-4{fill:#fff;stroke-width:2.74px;}.cls-2{stroke:#000;}.cls-4{stroke:#211815;}</style></defs><polygon points="1221.12 2.82 1178.05 2.82 1155.52 2.82 1107.09 15.2 1051.91 2.82 959.55 2.82 902.12 21.96 854.82 20.84 809.77 2.82 685.88 2.82 637.45 18.58 589.59 0 470.77 2.82 429.1 27.59 373.91 2.82 290.57 2.82 270.3 17.46 184.7 2.82 108.99 10.14 72.08 59.13 27.03 72.64 0 137.96 15.77 205.54 66.45 216.8 67.01 248.62 143.59 269.73 200.47 255.66 239.89 275.93 355.33 275.93 404.88 246.65 464.01 269.73 622.81 269.73 666.73 241.58 717.41 269.73 765.84 269.73 800.76 241.58 833.42 269.73 1103.71 269.73 1140.88 234.82 1174.67 269.73 1263.64 269.73 1286.16 231.44 1255.76 197.66 1286.16 171.75 1286.16 51.24 1243.37 43.36 1221.12 2.82"/><polyline class="cls-1" points="174 187.08 309.15 206.3 496.95 189.4 672.37 206.3 871.71 189.4 978.09 206.3 1186.96 191.87"/><circle class="cls-2" cx="352.41" cy="202.5" r="8.53"/><circle class="cls-2" cx="683.22" cy="207.3" r="8.53"/><circle class="cls-2" cx="1004.91" cy="203.5" r="8.53"/><polygon class="cls-3" points="343.75 140.75 262.63 145.07 244.83 99.83 275.66 66.94 350.13 55.97 441.36 69.98 466.14 103.46 450.37 142.63 358.78 139.98 351.64 172.91 343.75 140.75"/><path d="M314.14,82.83c1.49,4.16,4.16,7.51,8.39,9.15a14.36,14.36,0,0,0-2.48,3.17,16.4,16.4,0,0,1-8.35-9,15.88,15.88,0,0,1-8.28,9,10.52,10.52,0,0,0-2.53-2.85A13.31,13.31,0,0,0,309,82.83h-7.61V79.35h8.17c.16-2,.13-4,.16-5.95h3.68c0,1.91-.05,3.93-.23,5.95H322v3.48Z"/><path d="M346.45,91.54c0,1.63-.3,2.55-1.29,3.08a8.88,8.88,0,0,1-4.23.65,10.94,10.94,0,0,0-1.1-3.31c1.08.06,2.41.06,2.8.06s.53-.16.53-.52V77.58H329.78V95.24h-3.24V74.43h19.91Zm-4.32-10H330.72V78.78h11.41Zm-7.31,9.36v1.45h-3.06V82.94h9.47v8Zm0-5.27v2.53h3.33V85.65Z"/><path d="M363.82,82.83C365.31,87,368,90.34,372.21,92a14.36,14.36,0,0,0-2.48,3.17,16.4,16.4,0,0,1-8.35-9,15.88,15.88,0,0,1-8.28,9,10.52,10.52,0,0,0-2.53-2.85,13.31,13.31,0,0,0,8.07-9.47H351V79.35h8.17c.16-2,.13-4,.16-5.95H363c0,1.91-.05,3.93-.23,5.95h8.83v3.48Z"/><path d="M396.61,91.2h-8.55v1c0,1.43-.3,2.14-1.38,2.58a12.4,12.4,0,0,1-4.07.41,11.22,11.22,0,0,0-1-2.8c.94,0,2.36,0,2.71,0s.48-.06.48-.34V91.2H375.6V88.57h9.17v-.43a21.24,21.24,0,0,0,2-1.13H380.2v-2.3h9.58l.69-.16,1.87,1.73c-1.08.75-2.35,1.56-3.66,2.29h7.93Zm-17.52-4.46h-3.15v-5h1.66l-.39-6.88A35.49,35.49,0,0,0,382,73.47l1.33,1.88a23.85,23.85,0,0,1-2.94.85l0,.44h2.74v2h-2.62l0,.53h2.6v.92a12.58,12.58,0,0,0,1.27-.64c-.37-.23-.76-.46-1.11-.65l1.52-1.24c.39.21.81.44,1.24.69a6.49,6.49,0,0,0,.81-.87L389,78a8.37,8.37,0,0,1-1.15,1.33,12.57,12.57,0,0,1,1.24,1l-1.6,1.38a13.06,13.06,0,0,0-1.2-1,15.58,15.58,0,0,1-1.59,1h6.86l.06-.53h-2.36v-2h2.55l0-.53h-2.46v-2H392l0-.53h-2.78v-2h6.05c-.12,2.48-.3,5.4-.51,7.61h1.68v5h-3.31V84.07h-14Zm1.61-5h3.5c-.28-.3-.69-.74-1-1.06v.53h-2.5Zm6.65-4.23a11,11,0,0,0-1-.83,13.12,13.12,0,0,1-1.68,1A14.51,14.51,0,0,0,383,76.2a12.21,12.21,0,0,0,1.58-.78l-1.06-.6L385,73.6c.39.19.8.42,1.21.65a7.19,7.19,0,0,0,.72-.76l2.09.62a10.75,10.75,0,0,1-1.06,1.22c.37.28.71.55,1,.78Z"/><path d="M282.61,125.59a22.78,22.78,0,0,0-1.77-2.27,15.74,15.74,0,0,1-3.11,3.49,10.31,10.31,0,0,0-2.07-2,13.44,13.44,0,0,0,3.2-3.7c-1-1.06-1.93-2.09-2.76-3,.34-1.4.69-3.17,1-5.08l-1,.07-.3-3,1.68-.07c.18-1.57.32-3.13.39-4.58l2.83.12c-.09,1.38-.23,2.85-.44,4.32l.81,0v-1.33h2.71v1.2l.8,0v2.85l-.82.07a23.38,23.38,0,0,1-1.5,8,23.74,23.74,0,0,1,2.25,2.57Zm-2.49-7.33a21.15,21.15,0,0,0,.92-5.55l-1.19.07c-.23,1.57-.51,3.06-.76,4.42Zm9,3.47a14.35,14.35,0,0,1-3.17,4.94,13.81,13.81,0,0,0-2.14-2.25,10.18,10.18,0,0,0,3-3.52Zm3.38-1.08v6.41H289.3v-6.41h-5.08v-2.79h5.08v-1H286v-6.53h-1.38v-2.79H286v-2.27h3v2.27h3.34v-2.27h3.17v2.27h1.63v2.79h-1.63v6.53h-3v1h4.74v2.79ZM289,110.28V111h3.34v-.73Zm0,3.88h3.34v-.76H289Zm6.14,6.76a48.12,48.12,0,0,1,2.65,4.42l-2.56,1.13a37.32,37.32,0,0,0-2.48-4.56Z"/><path d="M309.54,116.32v8c0,1.13-.16,1.79-.88,2.21A5.51,5.51,0,0,1,306,127a9.26,9.26,0,0,0-.76-2.43c.53,0,1.15,0,1.36,0s.27-.07.27-.28v-1.54l-1.74,1.15-.55-1.26a10.39,10.39,0,0,1-1.36,4.48,12.39,12.39,0,0,0-2.32-1.56c1.08-1.68,1.15-4,1.15-5.84v-3.41h-1.13v-3.77h.85v-6.67h7.89v6.67h.94v2.51h11.84v2.32H310.48v-1.06Zm-1.45-1.58h-4.87v.62h4.87Zm-3.82-2.19h.55v-3.72h2.1v-.62h-2.65Zm.39,7.22c0,.58,0,1.18,0,1.82.64-.25,1.4-.57,2.2-.94v-.83l-.85,1c-.29-.3-.8-.76-1.31-1.18Zm2.16-2.3h-2.16v1l.69-.71c.49.32,1,.69,1.47,1Zm.1-4.92v-1.93h-.49v1.93Zm15.66,11.85v2.36H310.25V124.4h2.39c-.16-.49-.34-1-.5-1.41l1.28-.39h-2.18v-4.67h10.32v4.67H319.1l1.71.46c-.33.46-.65.92-.92,1.34Zm-.53-9.94H310.76v-7.63h2.64v-1.59H316v1.59h.6v-1.59h2.58v1.59h2.92Zm-8.88-4.8H314v-.72h-.85Zm0,2.69H314v-.74h-.85Zm.94,8.32h4.37v-.78h-4.37Zm.67,1.93a14.23,14.23,0,0,1,.69,1.8h1.61a16.65,16.65,0,0,0,.67-1.8Zm1.93-12.94v-.72H316v.72Zm-.73,2v.74h.73v-.74Zm3.54-2.67h-.85v.72h.85Zm0,2.67h-.85v.74h.85Z"/><path d="M334.88,111.59h-9.15V109h3.52a27.3,27.3,0,0,0-1.29-2.67l2.58-1.22a21.89,21.89,0,0,1,1.65,3.15l-1.38.74h4.07Zm-.94.71a3.87,3.87,0,0,0,2.3-3.93v-2.46h8.23v4.87c0,.67,0,1,.3,1h.67a3.85,3.85,0,0,0,1.19-.19c.05.83.12,2,.21,2.74a3.07,3.07,0,0,1-1.38.21h-1c-2.53,0-3-1.15-3-3.77V109h-2.14a6.59,6.59,0,0,1-3.66,6,13.7,13.7,0,0,0-1.68-2v1.77h-7.22v-2.48h7.22Zm.07,5.63h-7.29v-2.48H334Zm12.6-2.09a15,15,0,0,1-3.42,6.72,18.58,18.58,0,0,0,4.36,1.31,13.61,13.61,0,0,0-2,3.06,16.81,16.81,0,0,1-5.13-2.07,18.43,18.43,0,0,1-5.2,2.13,14.07,14.07,0,0,0-1.21-2.43v1.28h-4.4v.92h-2.8v-8.07H334v5.25a16.27,16.27,0,0,0,3.7-1.27,17.15,17.15,0,0,1-2.74-3.82l1.84-.64h-2.32v-3.1H344l.57-.12Zm-15.5,5.47h-1.54v1.89h1.54Zm6.86-3.1a9.67,9.67,0,0,0,2.36,2.64,9.86,9.86,0,0,0,2.05-2.64Z"/><path d="M360.87,111.59H351V109h3.73c-.35-.85-.85-1.86-1.29-2.67l2.58-1.22a21.89,21.89,0,0,1,1.65,3.15l-1.38.74h4.55ZM352,114.76v-2.48h7.89v2.48Zm7.84,3.17H352v-2.48h7.84Zm.09,7.91h-5.08v.92h-2.8v-8.07H360Zm-5.08-4.53v1.89h2.23v-1.89ZM372.05,116h-4v11.06h-3.5V116h-3.77v-3.29h3.77v-7.08H368v7.08h4Z"/><path d="M396.61,123h-8.55v1c0,1.43-.3,2.14-1.38,2.58a12.4,12.4,0,0,1-4.07.41,10.86,10.86,0,0,0-1-2.8c.95,0,2.37,0,2.72,0s.48-.06.48-.34V123H375.6v-2.63h9.17V120a21.24,21.24,0,0,0,2-1.13H380.2v-2.3h9.58l.69-.16,1.87,1.73c-1.08.75-2.35,1.56-3.66,2.29h7.93Zm-17.52-4.46h-3.15v-5h1.66l-.39-6.88a35.49,35.49,0,0,0,4.78-1.35l1.33,1.88a23.85,23.85,0,0,1-2.94.85l0,.44h2.74v2h-2.62l0,.53h2.6v.92a12.58,12.58,0,0,0,1.27-.64c-.37-.23-.76-.46-1.11-.65l1.52-1.24c.39.21.81.44,1.24.69a6.49,6.49,0,0,0,.81-.87l2.11.64a8.37,8.37,0,0,1-1.15,1.33,12.57,12.57,0,0,1,1.24,1l-1.61,1.38a11.59,11.59,0,0,0-1.19-1,15.58,15.58,0,0,1-1.59,1h6.85l.07-.53h-2.36v-2h2.55l0-.53h-2.46v-2H392l0-.53h-2.78v-2h6.05c-.12,2.48-.3,5.4-.51,7.61h1.68v5h-3.31v-2.67h-14Zm1.61-5h3.5c-.28-.3-.69-.74-1-1.06V113h-2.51Zm6.65-4.23a11,11,0,0,0-1-.83,13.12,13.12,0,0,1-1.68,1A13.85,13.85,0,0,0,383,108a11.73,11.73,0,0,0,1.59-.78l-1.06-.6,1.48-1.22c.39.19.8.42,1.21.65a7.19,7.19,0,0,0,.72-.76l2.09.62a10.75,10.75,0,0,1-1.06,1.22c.37.28.71.55,1,.78Z"/><path d="M412.74,119.64v4c0,1.56-.3,2.41-1.47,2.92a11,11,0,0,1-4.21.53,12.19,12.19,0,0,0-1.22-3.27c1.08.07,2.58.07,3,.07s.51-.09.51-.35v-3.63c-2.14.21-3.52.35-4.49.46l3.06,1.11a24.63,24.63,0,0,1-5,4.73A23.93,23.93,0,0,0,400,124a14.31,14.31,0,0,0,4.4-3.54,9.45,9.45,0,0,0-1.64.39,26.7,26.7,0,0,0-1-3,10.38,10.38,0,0,0,3.22-1.17,32,32,0,0,0,2.85-1.5c-2.9.23-3.66.35-4.23.58a30.44,30.44,0,0,0-1-3,6.22,6.22,0,0,0,2-.8,25.13,25.13,0,0,0,2.78-1.66c-1.86.28-3.74.51-5.54.69a10.59,10.59,0,0,0-.94-2.83c5.4-.57,11.17-1.65,14.83-3.1l2.48,2.64a43.75,43.75,0,0,1-6.55,1.82l1.06.69a34.68,34.68,0,0,1-3.38,2.23l3-.12c.83-.62,1.63-1.24,2.37-1.9l2.46,2.23a44.19,44.19,0,0,1-6.79,4.34l4.67-.32c-.39-.44-.76-.9-1.1-1.29l2.76-1.4a54.23,54.23,0,0,1,4.41,5.27l-2.85,1.74c-.3-.48-.69-1-1.15-1.65Zm3.52.25a28.74,28.74,0,0,1,5.1,4.07l-3,2a28.75,28.75,0,0,0-4.87-4.28Z"/><polygon class="cls-4" points="231.6 60.69 220.9 79.28 236.47 93.66 257.03 91.58 270.73 79.56 290.58 74.49 303.68 62.66 298.75 44.22 275.66 42.95 256.94 52.25 231.6 60.69"/><path d="M243,81.27c2.12-4.56,3.38-8,2.54-10a1.85,1.85,0,0,0-2.6-1.19,3.61,3.61,0,0,0-1.77,2.31l-2.53-1a6.25,6.25,0,0,1,3.66-4,4.54,4.54,0,0,1,6.32,2.42c1,2.37.06,5.82-1.15,8.82a21.17,21.17,0,0,1,2.15-1.12l2.53-1.06,1.16,2.76-9.52,4Z"/><path d="M252.41,71.34c-2-4.72-1-7.86,1.89-9.08s5.86.31,7.83,5,1.05,8-1.84,9.24S254.4,76.06,252.41,71.34ZM259,68.56c-1.57-3.74-2.69-4.19-3.67-3.78s-1.42,1.52.15,5.26,2.73,4.32,3.71,3.91S260.62,72.32,259,68.56Z"/><path d="M266.15,71.51c2.12-4.56,3.38-8,2.54-10a1.85,1.85,0,0,0-2.6-1.18,3.57,3.57,0,0,0-1.77,2.3l-2.53-1a6.23,6.23,0,0,1,3.66-4A4.53,4.53,0,0,1,271.77,60c1,2.36.06,5.81-1.15,8.82a21.32,21.32,0,0,1,2.15-1.13l2.53-1.06,1.16,2.77-9.51,4Z"/><path d="M275.61,61.59c-2-4.73-1-7.87,1.88-9.09s5.86.31,7.83,5,1.06,8-1.84,9.24S277.59,66.31,275.61,61.59Zm6.61-2.79c-1.57-3.74-2.69-4.18-3.67-3.77s-1.42,1.51.15,5.25,2.73,4.32,3.71,3.91S283.81,62.56,282.22,58.8Z"/><polygon class="cls-3" points="994.39 147.69 929.24 144.09 897.05 110 922.75 67.48 1004.91 63.16 1075.56 70.31 1110.19 102.32 1086.07 140.5 1016.82 147.97 1005.17 174.91 994.39 147.69"/><path d="M1006.87,93.12c0-2.87-2-4.37-4.7-4.37s-4.57,1.37-6.59,3.39l-6.4-5.87a19,19,0,0,1,14.43-6.85c8.09,0,14.42,3.85,14.42,12.92s-11.16,11.75-10.31,20.36H997.6C996,102.65,1006.87,98.47,1006.87,93.12ZM995.71,124a6.93,6.93,0,1,1,6.92,7.25A6.9,6.9,0,0,1,995.71,124Z"/><polygon class="cls-4" points="893.85 62.69 883.15 81.28 898.73 95.66 919.28 93.58 940.64 77.56 952.84 76.49 965.93 64.66 961 46.22 937.91 44.95 919.16 57 893.85 62.69"/><path d="M906.22,83.27c2.11-4.56,3.37-8,2.53-10a1.85,1.85,0,0,0-2.6-1.19,3.6,3.6,0,0,0-1.76,2.31l-2.54-1a6.25,6.25,0,0,1,3.66-4,4.54,4.54,0,0,1,6.32,2.42c1,2.37.06,5.82-1.15,8.82a21.17,21.17,0,0,1,2.15-1.12l2.53-1.06,1.16,2.76-9.51,4Z"/><path d="M915.67,73.34c-2-4.72-1-7.86,1.88-9.08s5.86.31,7.83,5,1.06,8-1.84,9.24S917.65,78.06,915.67,73.34Zm6.62-2.78c-1.58-3.74-2.7-4.19-3.67-3.78s-1.43,1.52.14,5.26,2.73,4.32,3.71,3.91S923.87,74.32,922.29,70.56Z"/><path d="M929.41,73.51c2.11-4.56,3.37-8,2.53-10a1.84,1.84,0,0,0-2.6-1.18,3.56,3.56,0,0,0-1.76,2.3l-2.54-1a6.22,6.22,0,0,1,3.67-4A4.52,4.52,0,0,1,935,62c1,2.36.06,5.81-1.15,8.82A21.32,21.32,0,0,1,936,69.68l2.53-1.06,1.16,2.77-9.51,4Z"/><path d="M941.34,67.58l2.91-1.23L941,58.55l-2.53,1.06-.85-2a9.81,9.81,0,0,0,2.87-2.66l2.42-1L947.53,65l2.48-1,1.11,2.65-8.66,3.65Z"/><polygon class="cls-3" points="671.5 151.86 570.57 152.96 548.6 99.74 589.15 76.53 679.53 66.39 774.13 78.22 801.63 113.97 784.36 149.67 696.52 151.17 683.47 183.33 671.5 151.86"/><path d="M647.55,102l-3.15-6h-2v6h-4.11V84.89h6.28c3.65,0,6.69,1.24,6.69,5.38a5.06,5.06,0,0,1-2.95,4.94l3.82,6.79Zm-5.13-9.27h1.84c2,0,3-.85,3-2.46s-1-2.14-3-2.14h-1.84Z"/><path d="M655.1,95.47c0-4.26,3-6.88,6.21-6.88,3.77,0,5.61,2.74,5.61,6.32a7,7,0,0,1-.19,1.75h-7.68a3,3,0,0,0,3.27,2.53,5.35,5.35,0,0,0,2.76-.83l1.36,2.46a8.45,8.45,0,0,1-4.7,1.5C658,102.32,655.1,99.79,655.1,95.47ZM663.45,94c0-1.31-.58-2.27-2.07-2.27A2.41,2.41,0,0,0,659,94Z"/><path d="M671.15,93.9h6.51v2.88h-6.51Z"/><path d="M682.31,97.74V83.62h4.07V97.9c0,.85.41,1.11.73,1.11a1.75,1.75,0,0,0,.46-.05l.49,3a5.26,5.26,0,0,1-2,.35C683.23,102.32,682.31,100.48,682.31,97.74Z"/><path d="M691.21,98.34c0-2.76,2.16-4.25,7.26-4.81-.09-1-.64-1.67-2-1.67A7.21,7.21,0,0,0,693.07,93l-1.43-2.69a11,11,0,0,1,5.64-1.72c3.38,0,5.29,1.89,5.29,6V102h-3.34l-.3-1.31h-.09a5.61,5.61,0,0,1-3.75,1.63A3.78,3.78,0,0,1,691.21,98.34Zm7.26-.23V96c-2.55.34-3.38,1.08-3.38,2,0,.76.56,1.12,1.41,1.12A2.57,2.57,0,0,0,698.47,98.11Z"/><path d="M711.17,100.59h-.09l-.32,1.41h-3.2V83.62h4.07V88L711.54,90a5.15,5.15,0,0,1,3.38-1.4c3.13,0,5.13,2.62,5.13,6.62,0,4.53-2.69,7.11-5.5,7.11A4.65,4.65,0,0,1,711.17,100.59Zm4.67-5.29c0-2.3-.67-3.38-2.12-3.38A2.79,2.79,0,0,0,711.63,93V98.2a2.82,2.82,0,0,0,2,.76C714.83,99,715.84,97.93,715.84,95.3Z"/><path d="M601.72,116a18.17,18.17,0,0,1-2.16,3.75,24.93,24.93,0,0,0,2.94.23,10.11,10.11,0,0,0-1.79,2.66,11.1,11.1,0,0,1-5.91-2.14c-.92.9-2.74,1.68-6.21,2h11.18V132H597c1.88.76,3.84,1.63,5.06,2.25l-3,1.75a42.88,42.88,0,0,0-5.73-2.85l1.47-1.15h-6.09l2.09.94a28.1,28.1,0,0,1-7.29,3.15,23.85,23.85,0,0,0-2.48-2.44,26.15,26.15,0,0,0,5.84-1.65h-2.83v-9.43h4a7.19,7.19,0,0,0-.81-1.38h-6.21v-2.51h7.15V120c3.84-.32,4.42-1.08,4.42-1.77v-.42h-.83a10.47,10.47,0,0,1-1.54,1.77,19.27,19.27,0,0,0-2.46-1.67,8.4,8.4,0,0,0,2.71-4l2.9.67c-.09.27-.21.55-.32.83h5.84l.48-.14Zm-14,1.54h-6.12v-2.39h6.12Zm8.69,6.94h-9.11v.65h9.11Zm-9.11,3.11h9.11V127h-9.11Zm0,2.48h9.11v-.67h-9.11Zm8.39-12.26v.49a7.31,7.31,0,0,0,3.52,1.4l-2.25-.85c.18-.3.41-.65.62-1Z"/><path d="M614.37,120.52h-8.53v-2.59h3.41c-.32-.85-.78-1.87-1.18-2.67l2.35-1.22a25.82,25.82,0,0,1,1.49,3.15l-1.26.74h3.72Zm-7.61,3.18v-2.49h6.83v2.49Zm0,.69h6.9v2.48h-6.9Zm6.9,10.39h-4.3v.92h-2.55v-8.07h6.85Zm-4.3-4.53v1.89h1.7v-1.89Zm16-15c-.28,6.6-.21,17,.37,17.2a13.3,13.3,0,0,0,.27-2.88,17,17,0,0,0,1.68,2.79c-.41,3.45-1.84,4.16-3.45,3.45-2.18-1-2.23-9.18-2.2-17.39h-2.23v5.7h1.77v3.09h-1.77V136h-3.11v-8.78h-2.28v-3.09h2.28v-5.7h-1.93v-3.17Z"/><path d="M639.84,120.52h-9.16v-2.59h3.52a26.24,26.24,0,0,0-1.29-2.67l2.58-1.22a23.08,23.08,0,0,1,1.66,3.15l-1.38.74h4.07Zm-1,.72a3.87,3.87,0,0,0,2.3-3.94v-2.46h8.23v4.88c0,.67.05,1,.3,1h.67a3.92,3.92,0,0,0,1.2-.19c0,.83.11,2,.2,2.74a3.22,3.22,0,0,1-1.38.2h-1c-2.53,0-3-1.15-3-3.77v-1.74h-2.14a6.61,6.61,0,0,1-3.66,6,12.72,12.72,0,0,0-1.68-2v1.77h-7.22v-2.49h7.22Zm.07,5.63h-7.29v-2.48H639Zm12.6-2.09a15,15,0,0,1-3.42,6.71,17.76,17.76,0,0,0,4.37,1.31,14.23,14.23,0,0,0-2,3.06,16.92,16.92,0,0,1-5.13-2.07,18.5,18.5,0,0,1-5.19,2.14,15,15,0,0,0-1.22-2.44v1.29h-4.4v.92h-2.8v-8.07h7.2v5.24a16.26,16.26,0,0,0,3.7-1.26,17.38,17.38,0,0,1-2.74-3.82l1.84-.64H639.4V124h9.52l.57-.11Zm-15.5,5.47h-1.54v1.89h1.54Zm6.86-3.1a9.86,9.86,0,0,0,2.37,2.64,10.19,10.19,0,0,0,2-2.64Z"/><path d="M665.83,120.52H656v-2.59h3.73a28.53,28.53,0,0,0-1.29-2.67L661,114a21.89,21.89,0,0,1,1.65,3.15l-1.38.74h4.56ZM657,123.7v-2.49h7.89v2.49Zm7.84,3.17H657v-2.48h7.84Zm.1,7.91h-5.09v.92H657v-8.07h7.89Zm-5.09-4.53v1.89h2.23v-1.89ZM677,124.94h-4V136h-3.5V124.94h-3.77v-3.29h3.77v-7.08H673v7.08h4Z"/><path d="M691.86,133.54a12.17,12.17,0,0,0,2.48-2.32l2.56,1.58a14.87,14.87,0,0,1-3.91,3.25c-.3-.33-.76-.76-1.2-1.18h-5.08v.92h-2.37v-5.65l-.25.27c-.09-.18-.23-.46-.41-.76a25.48,25.48,0,0,1-1.34,6,10.4,10.4,0,0,0-2.48-1.29c1.38-3.49,1.47-8.58,1.47-12v-6.58h0a44.73,44.73,0,0,0,8.12-1.33l2.39,2.19a44.75,44.75,0,0,1-7.82,1.31v.46h7.5v5.7h-2a15.61,15.61,0,0,1,.6,1.47h1.59v2h-1.87v.55h1.66v1.75h-1.66v.55h1.66v1.8h-1.66v.55h2.05ZM684,124.09c0,.78,0,1.63-.09,2.48a12.19,12.19,0,0,0,1.06-2.48Zm0-3.27v.83h4.56v-.83Zm4.88,3.27h-2.85l1.24.34v0Zm-1.22,3.47h-1v.55h1Zm0,2.3h-1v.55h1Zm-1,2.9h1v-.55h-1Zm.92-7.2a9.65,9.65,0,0,0-.37-1c-.11.35-.23.67-.34,1Zm7.57-6.69c0-.37.09-.74.11-1.11h-3.24V115h9.63v2.78h-3.1l-.35,1.11h3v12.32h-8.81V118.87Zm3.28,2.46h-3.31v.94h3.31Zm0,3.22h-3.31v1h3.31Zm0,3.24h-3.31v1h3.31Zm1,3.47a20.55,20.55,0,0,1,2.69,3l-2.51,1.65a19.51,19.51,0,0,0-2.55-3.13Z"/><path d="M709.44,123.88V136h-3.32V115h9.16v8.9Zm0-6.39v.83h2.71v-.83Zm2.71,3.88v-.85h-2.71v.85Zm13.77,10.77c0,1.77-.34,2.69-1.4,3.24s-2.58.62-4.76.62a12.23,12.23,0,0,0-1.06-3.27h-4.3V134h-3.08v-8.81h9.13v7.48h1.49c.44,0,.6-.17.6-.58V123.9h-6V115h9.38Zm-8.6-4.23H714.4V130h2.92Zm2.39-10.44v.85h2.83v-.85Zm2.83,4v-.9h-2.83v.9Z"/><path d="M739.54,115.81a38,38,0,0,1-7,10.28,26.59,26.59,0,0,0-3-2.9,24.38,24.38,0,0,0,6.19-8.6ZM746,126.18a69.13,69.13,0,0,1,5.08,8.07l-3.47,1.87c-.3-.67-.69-1.48-1.17-2.33-10.69,1-12.44,1.06-13.75,1.57a32.66,32.66,0,0,0-1.36-3.59A5.2,5.2,0,0,0,733.7,130a36.72,36.72,0,0,0,5.59-8.53l4,1.61a45.33,45.33,0,0,1-5.89,8l7.22-.5c-.64-1-1.29-2.05-1.89-2.94Zm.39-11.47a14.06,14.06,0,0,0,5.84,7.81A18.84,18.84,0,0,0,749.7,126a20.56,20.56,0,0,1-5.88-7.81h-3.36v-3.45Z"/><path d="M775.14,132c0,1.79-.3,2.78-1.38,3.36s-2.53.66-4.64.64a12.85,12.85,0,0,0-1.06-3.61c1.15.09,2.62.09,3.06.07s.57-.12.57-.53V118.66H755.83v-3.17h19.31Zm-5.59-9.25H756.08v-2.89h13.47Zm-9.17,9.34v1.66h-3.27V124h11.46v8.07Zm0-5.22v2.37h4.9v-2.37Z"/><polygon class="cls-4" points="532.96 76.2 522.26 94.78 537.84 109.17 558.4 107.08 580.27 92.81 597.29 88.7 605.04 78.17 600.12 59.73 577.03 58.46 560.61 67.19 532.96 76.2"/><polygon class="cls-4" points="602.99 45.65 587.64 60.63 598.73 78.7 619.08 82.28 644.01 74.48 661.5 75.15 671.82 67.11 672.09 48.02 650.21 40.54 632.04 44.48 602.99 45.65"/><path d="M609.3,68.81c3.28-3.82,5.43-6.81,5.16-9A1.85,1.85,0,0,0,612.28,58,3.57,3.57,0,0,0,610,59.76l-2.16-1.67a6.22,6.22,0,0,1,4.62-2.89,4.52,4.52,0,0,1,5.42,4c.32,2.54-1.52,5.61-3.5,8.18a20.69,20.69,0,0,1,2.38-.5l2.72-.34.37,3-10.25,1.27Z"/><path d="M621.09,61.82c-.63-5.08,1.17-7.84,4.28-8.23s5.56,1.89,6.18,6.93-1.16,8-4.28,8.39S621.72,66.9,621.09,61.82Zm7.13-.88c-.5-4-1.46-4.76-2.51-4.63s-1.78,1.07-1.28,5.1,1.45,4.9,2.5,4.77S628.72,65,628.22,60.94Z"/><path d="M634.27,65.71c3.28-3.81,5.43-6.8,5.16-8.95a1.85,1.85,0,0,0-2.18-1.84,3.56,3.56,0,0,0-2.33,1.74L632.76,55a6.22,6.22,0,0,1,4.62-2.89,4.53,4.53,0,0,1,5.42,4c.32,2.54-1.52,5.61-3.5,8.18a20.69,20.69,0,0,1,2.38-.5l2.72-.34.37,3-10.25,1.27Z"/><path d="M647.37,63.24l3.13-.39-1-8.4-2.72.34-.27-2.19A10,10,0,0,0,650,50.82l2.6-.32L654,62.41l2.66-.33.35,2.86-9.33,1.16Z"/><path d="M545.33,96.77c2.12-4.56,3.38-8,2.54-10a1.86,1.86,0,0,0-2.61-1.18,3.56,3.56,0,0,0-1.76,2.3l-2.53-1a6.18,6.18,0,0,1,3.66-4,4.52,4.52,0,0,1,6.31,2.42c1,2.36.06,5.81-1.15,8.82A22.56,22.56,0,0,1,552,92.94l2.52-1.06,1.17,2.77-9.52,4Z"/><path d="M554.78,86.85c-2-4.72-1-7.87,1.89-9.09s5.86.32,7.83,5,1,8-1.84,9.24S556.77,91.57,554.78,86.85Zm6.62-2.79c-1.57-3.74-2.69-4.18-3.67-3.77s-1.43,1.51.15,5.25,2.73,4.32,3.71,3.91S563,87.82,561.4,84.06Z"/><path d="M568.52,87c2.12-4.56,3.38-8,2.54-10a1.85,1.85,0,0,0-2.6-1.18,3.56,3.56,0,0,0-1.77,2.31l-2.53-1a6.23,6.23,0,0,1,3.66-4,4.52,4.52,0,0,1,6.31,2.42c1,2.36.06,5.82-1.15,8.82a20.35,20.35,0,0,1,2.16-1.12l2.52-1.07,1.17,2.77-9.52,4Z"/><path d="M578,77.09c-2-4.72-1-7.87,1.89-9.08s5.86.31,7.83,5,1,8-1.84,9.24S580,81.81,578,77.09Zm6.62-2.78c-1.57-3.75-2.69-4.19-3.67-3.78s-1.43,1.51.15,5.26,2.73,4.32,3.71,3.91S586.17,78.07,584.59,74.31Z"/></svg>