<svg id="圖層_1" data-name="圖層 1" xmlns="http://www.w3.org/2000/svg" viewBox="0 0 1286.16 275.93"><defs><style>.cls-1{fill:none;stroke-width:3px;}.cls-1,.cls-3{stroke:#fff;}.cls-1,.cls-2,.cls-3,.cls-5{stroke-linecap:round;stroke-linejoin:round;}.cls-2,.cls-3,.cls-5{fill:#fff;stroke-width:2.74px;}.cls-2{stroke:#000;}.cls-4,.cls-7{font-size:23px;}.cls-4,.cls-6,.cls-7{font-family:NotoSansCJKtc-Black-B5pc-H, Noto Sans CJK TC;}.cls-4,.cls-9{letter-spacing:0.08em;}.cls-5{stroke:#211815;}.cls-6{font-size:20px;letter-spacing:0.02em;}.cls-7{letter-spacing:0.07em;}.cls-8{letter-spacing:0.09em;}</style></defs><polygon points="1221.12 2.82 1178.05 2.82 1155.52 2.82 1107.09 15.2 1051.91 2.82 959.55 2.82 902.12 21.96 854.82 20.84 809.77 2.82 685.88 2.82 637.45 18.58 589.59 0 470.77 2.82 429.1 27.59 373.91 2.82 290.57 2.82 270.3 17.46 184.7 2.82 108.99 10.14 72.08 59.13 27.03 72.64 0 137.96 15.77 205.54 66.45 216.8 67.01 248.62 143.59 269.73 200.47 255.66 239.89 275.93 355.33 275.93 404.88 246.65 464.01 269.73 622.81 269.73 666.73 241.58 717.41 269.73 765.84 269.73 800.76 241.58 833.42 269.73 1103.71 269.73 1140.88 234.82 1174.67 269.73 1263.64 269.73 1286.16 231.44 1255.76 197.66 1286.16 171.75 1286.16 51.24 1243.37 43.36 1221.12 2.82"/><polyline class="cls-1" points="174 187.08 309.15 206.3 496.95 189.4 672.37 206.3 871.71 189.4 978.09 206.3 1186.96 191.87"/><circle class="cls-2" cx="352.41" cy="202.5" r="8.53"/><circle class="cls-2" cx="683.22" cy="207.3" r="8.53"/><circle class="cls-2" cx="1004.91" cy="203.5" r="8.53"/><polygon class="cls-3" points="342.75 148.92 261.63 153.23 243.83 108 274.66 75.1 349.13 64.14 440.36 78.15 465.14 111.63 449.37 150.79 357.78 148.15 350.64 181.08 342.75 148.92"/><text class="cls-4" transform="translate(299.13 101.23)">大同大學<tspan x="-24.84" y="31.82">媒體設計學系</tspan></text><polygon class="cls-5" points="230.6 68.86 219.9 87.44 235.47 101.83 256.03 99.74 269.73 87.72 289.58 82.65 302.68 70.83 297.75 52.39 274.66 51.12 255.94 60.41 230.6 68.86"/><text class="cls-6" transform="translate(241.98 91.64) rotate(-22.82)">2020</text><polygon class="cls-3" points="673.5 149.61 572.57 150.71 550.61 97.48 591.15 74.28 681.53 64.14 776.13 75.97 803.63 111.71 786.36 147.41 698.52 148.92 685.47 181.08 673.5 149.61"/><text class="cls-7" transform="translate(638.33 99.74)">R<tspan class="cls-8" x="17.85" y="0">e</tspan><tspan class="cls-9" x="33.67" y="0">-lab</tspan><tspan class="cls-9"><tspan x="-56.09" y="31.82">資訊設計顧問公司</tspan></tspan></text><polygon class="cls-5" points="534.96 73.94 524.26 92.53 539.84 106.91 560.4 104.83 582.27 90.56 599.29 86.45 607.04 75.92 602.12 57.47 579.03 56.21 562.61 64.94 534.96 73.94"/><polygon class="cls-5" points="604.99 43.4 589.64 58.38 600.73 76.45 621.08 80.02 646.01 72.22 663.5 72.89 673.82 64.86 674.09 45.77 652.21 38.28 634.04 42.23 604.99 43.4"/><text class="cls-6" transform="translate(610.72 68.68) rotate(-7.07)">2021</text><text class="cls-6" transform="translate(547.35 96.72) rotate(-22.82)">2020</text><polygon class="cls-3" points="993.39 155.85 928.24 152.25 896.05 118.16 921.75 75.65 1003.91 71.33 1074.56 78.47 1109.19 110.49 1085.07 148.66 1015.82 156.13 1004.17 183.08 993.39 155.85"/><path d="M1005.87,101.29c0-2.87-2-4.37-4.7-4.37s-4.57,1.37-6.59,3.39l-6.4-5.87a19,19,0,0,1,14.43-6.86c8.09,0,14.42,3.85,14.42,12.93s-11.16,11.74-10.31,20.36H996.6C995,110.82,1005.87,106.64,1005.87,101.29Zm-11.16,30.87a6.93,6.93,0,1,1,6.92,7.24A6.9,6.9,0,0,1,994.71,132.16Z"/><polygon class="cls-5" points="892.85 70.86 882.15 89.44 897.73 103.83 918.28 101.74 939.64 85.72 951.84 84.66 964.93 72.83 960 54.39 936.91 53.12 918.16 65.17 892.85 70.86"/><text class="cls-6" transform="translate(905.23 93.64) rotate(-22.82)">2021</text></svg>