<svg id="圖層_1" data-name="圖層 1" xmlns="http://www.w3.org/2000/svg" xmlns:xlink="http://www.w3.org/1999/xlink" viewBox="0 0 173.44 233.19"><defs><style>.cls-1,.cls-10,.cls-11,.cls-12,.cls-15,.cls-3,.cls-4,.cls-5,.cls-6,.cls-7,.cls-8,.cls-9{fill:none;}.cls-2{fill:#211815;}.cls-10,.cls-11,.cls-12,.cls-15,.cls-16,.cls-17,.cls-20,.cls-3,.cls-4,.cls-5,.cls-6,.cls-7,.cls-8,.cls-9{stroke:#211815;stroke-linecap:round;}.cls-3{stroke-width:3.5px;}.cls-10,.cls-11,.cls-12,.cls-3,.cls-4,.cls-5,.cls-6,.cls-7,.cls-8,.cls-9{stroke-dasharray:0 6.5;}.cls-4{stroke-width:3.25px;}.cls-16,.cls-5{stroke-width:3px;}.cls-6{stroke-width:2.75px;}.cls-7{stroke-width:2.5px;}.cls-8{stroke-width:2.25px;}.cls-15,.cls-9{stroke-width:2px;}.cls-10{stroke-width:1.75px;}.cls-11{stroke-width:1.5px;}.cls-12{stroke-width:1.25px;}.cls-13,.cls-16,.cls-17,.cls-20{fill:#fff;}.cls-14{fill:url(#_10_dpi_40_);}.cls-15{stroke-linejoin:round;}.cls-16,.cls-17,.cls-20{stroke-linejoin:bevel;}.cls-17{stroke-width:2.74px;}.cls-18{fill:url(#起伏的細點);}.cls-19{fill:url(#_10_dpi_40_3);}.cls-20{stroke-width:2.68px;}</style><pattern id="_10_dpi_40_" data-name="10 dpi 40%" width="28.8" height="28.8" patternTransform="translate(-11.06 102.71) rotate(63.31)" patternUnits="userSpaceOnUse" viewBox="0 0 28.8 28.8"><rect class="cls-1" width="28.8" height="28.8"/><path class="cls-2" d="M28.8,31.68a2.88,2.88,0,1,0-2.88-2.88A2.88,2.88,0,0,0,28.8,31.68Z"/><path class="cls-2" d="M14.4,31.68a2.88,2.88,0,1,0-2.88-2.88A2.88,2.88,0,0,0,14.4,31.68Z"/><path class="cls-2" d="M28.8,17.28a2.88,2.88,0,1,0-2.88-2.88A2.88,2.88,0,0,0,28.8,17.28Z"/><path class="cls-2" d="M14.4,17.28a2.88,2.88,0,1,0-2.88-2.88A2.88,2.88,0,0,0,14.4,17.28Z"/><path class="cls-2" d="M7.2,24.48A2.88,2.88,0,1,0,4.32,21.6,2.88,2.88,0,0,0,7.2,24.48Z"/><path class="cls-2" d="M21.6,24.48a2.88,2.88,0,1,0-2.88-2.88A2.88,2.88,0,0,0,21.6,24.48Z"/><path class="cls-2" d="M7.2,10.08A2.88,2.88,0,1,0,4.32,7.2,2.88,2.88,0,0,0,7.2,10.08Z"/><path class="cls-2" d="M21.6,10.08A2.88,2.88,0,1,0,18.72,7.2,2.88,2.88,0,0,0,21.6,10.08Z"/><path class="cls-2" d="M0,31.68A2.88,2.88,0,0,0,2.88,28.8,2.88,2.88,0,0,0,0,25.92a2.88,2.88,0,0,0,0,5.76Z"/><path class="cls-2" d="M0,17.28A2.88,2.88,0,0,0,2.88,14.4,2.88,2.88,0,0,0,0,11.52a2.88,2.88,0,0,0,0,5.76Z"/><path class="cls-2" d="M28.8,2.88A2.88,2.88,0,0,0,31.68,0a2.88,2.88,0,0,0-5.76,0A2.88,2.88,0,0,0,28.8,2.88Z"/><path class="cls-2" d="M14.4,2.88A2.88,2.88,0,0,0,17.28,0a2.88,2.88,0,0,0-5.76,0A2.88,2.88,0,0,0,14.4,2.88Z"/><path class="cls-2" d="M0,2.88A2.88,2.88,0,0,0,2.88,0,2.88,2.88,0,0,0,0-2.88,2.88,2.88,0,0,0-2.88,0,2.88,2.88,0,0,0,0,2.88Z"/></pattern><pattern id="起伏的細點" data-name="起伏的細點" width="83" height="65" patternTransform="translate(124.9 107.16)" patternUnits="userSpaceOnUse" viewBox="0 0 83 65"><rect class="cls-1" width="83" height="65"/><line class="cls-3" x1="83" y1="65" x2="83" y2="130.5"/><line class="cls-3" y1="65" y2="130.5"/><line class="cls-4" x1="4.61" y1="61.75" x2="4.61" y2="130.5"/><line class="cls-5" x1="9.22" y1="65" x2="9.22" y2="130.5"/><line class="cls-6" x1="13.83" y1="61.75" x2="13.83" y2="130.5"/><line class="cls-7" x1="18.45" y1="65" x2="18.45" y2="130.5"/><line class="cls-8" x1="23.06" y1="61.75" x2="23.06" y2="130.5"/><line class="cls-9" x1="27.67" y1="65" x2="27.67" y2="130.5"/><line class="cls-10" x1="32.28" y1="61.75" x2="32.28" y2="130.5"/><line class="cls-11" x1="36.89" y1="65" x2="36.89" y2="130.5"/><line class="cls-12" x1="41.5" y1="61.75" x2="41.5" y2="130.5"/><line class="cls-3" x1="83" y1="65" x2="83" y2="130.5"/><line class="cls-4" x1="78.39" y1="61.75" x2="78.39" y2="130.5"/><line class="cls-5" x1="73.78" y1="65" x2="73.78" y2="130.5"/><line class="cls-6" x1="69.17" y1="61.75" x2="69.17" y2="130.5"/><line class="cls-7" x1="64.55" y1="65" x2="64.55" y2="130.5"/><line class="cls-8" x1="59.94" y1="61.75" x2="59.94" y2="130.5"/><line class="cls-9" x1="55.33" y1="65" x2="55.33" y2="130.5"/><line class="cls-10" x1="50.72" y1="61.75" x2="50.72" y2="130.5"/><line class="cls-11" x1="46.11" y1="65" x2="46.11" y2="130.5"/><line class="cls-3" y1="65" y2="130.5"/><line class="cls-3" x1="83" x2="83" y2="65.5"/><line class="cls-3" y2="65.5"/><line class="cls-4" x1="4.61" y1="-3.25" x2="4.61" y2="65.5"/><line class="cls-5" x1="9.22" x2="9.22" y2="65.5"/><line class="cls-6" x1="13.83" y1="-3.25" x2="13.83" y2="65.5"/><line class="cls-7" x1="18.45" x2="18.45" y2="65.5"/><line class="cls-8" x1="23.06" y1="-3.25" x2="23.06" y2="65.5"/><line class="cls-9" x1="27.67" x2="27.67" y2="65.5"/><line class="cls-10" x1="32.28" y1="-3.25" x2="32.28" y2="65.5"/><line class="cls-11" x1="36.89" x2="36.89" y2="65.5"/><line class="cls-12" x1="41.5" y1="-3.25" x2="41.5" y2="65.5"/><line class="cls-3" x1="83" x2="83" y2="65.5"/><line class="cls-4" x1="78.39" y1="-3.25" x2="78.39" y2="65.5"/><line class="cls-5" x1="73.78" x2="73.78" y2="65.5"/><line class="cls-6" x1="69.17" y1="-3.25" x2="69.17" y2="65.5"/><line class="cls-7" x1="64.55" x2="64.55" y2="65.5"/><line class="cls-8" x1="59.94" y1="-3.25" x2="59.94" y2="65.5"/><line class="cls-9" x1="55.33" x2="55.33" y2="65.5"/><line class="cls-10" x1="50.72" y1="-3.25" x2="50.72" y2="65.5"/><line class="cls-11" x1="46.11" x2="46.11" y2="65.5"/><line class="cls-3" y2="65.5"/><line class="cls-3" x1="83" y1="-65" x2="83" y2="0.5"/><line class="cls-3" y1="-65" y2="0.5"/><line class="cls-4" x1="4.61" y1="-68.25" x2="4.61" y2="0.5"/><line class="cls-5" x1="9.22" y1="-65" x2="9.22" y2="0.5"/><line class="cls-6" x1="13.83" y1="-68.25" x2="13.83" y2="0.5"/><line class="cls-7" x1="18.45" y1="-65" x2="18.45" y2="0.5"/><line class="cls-8" x1="23.06" y1="-68.25" x2="23.06" y2="0.5"/><line class="cls-9" x1="27.67" y1="-65" x2="27.67" y2="0.5"/><line class="cls-10" x1="32.28" y1="-68.25" x2="32.28" y2="0.5"/><line class="cls-11" x1="36.89" y1="-65" x2="36.89" y2="0.5"/><line class="cls-12" x1="41.5" y1="-68.25" x2="41.5" y2="0.5"/><line class="cls-3" x1="83" y1="-65" x2="83" y2="0.5"/><line class="cls-4" x1="78.39" y1="-68.25" x2="78.39" y2="0.5"/><line class="cls-5" x1="73.78" y1="-65" x2="73.78" y2="0.5"/><line class="cls-6" x1="69.17" y1="-68.25" x2="69.17" y2="0.5"/><line class="cls-7" x1="64.55" y1="-65" x2="64.55" y2="0.5"/><line class="cls-8" x1="59.94" y1="-68.25" x2="59.94" y2="0.5"/><line class="cls-9" x1="55.33" y1="-65" x2="55.33" y2="0.5"/><line class="cls-10" x1="50.72" y1="-68.25" x2="50.72" y2="0.5"/><line class="cls-11" x1="46.11" y1="-65" x2="46.11" y2="0.5"/><line class="cls-3" y1="-65" y2="0.5"/></pattern><pattern id="_10_dpi_40_3" data-name="10 dpi 40%" width="28.8" height="28.8" patternTransform="translate(-36.77 51.01) rotate(99.15)" patternUnits="userSpaceOnUse" viewBox="0 0 28.8 28.8"><rect class="cls-1" width="28.8" height="28.8"/><path class="cls-2" d="M28.8,31.68a2.88,2.88,0,1,0-2.88-2.88A2.88,2.88,0,0,0,28.8,31.68Z"/><path class="cls-2" d="M14.4,31.68a2.88,2.88,0,1,0-2.88-2.88A2.88,2.88,0,0,0,14.4,31.68Z"/><path class="cls-2" d="M28.8,17.28a2.88,2.88,0,1,0-2.88-2.88A2.88,2.88,0,0,0,28.8,17.28Z"/><path class="cls-2" d="M14.4,17.28a2.88,2.88,0,1,0-2.88-2.88A2.88,2.88,0,0,0,14.4,17.28Z"/><path class="cls-2" d="M7.2,24.48A2.88,2.88,0,1,0,4.32,21.6,2.88,2.88,0,0,0,7.2,24.48Z"/><path class="cls-2" d="M21.6,24.48a2.88,2.88,0,1,0-2.88-2.88A2.88,2.88,0,0,0,21.6,24.48Z"/><path class="cls-2" d="M7.2,10.08A2.88,2.88,0,1,0,4.32,7.2,2.88,2.88,0,0,0,7.2,10.08Z"/><path class="cls-2" d="M21.6,10.08A2.88,2.88,0,1,0,18.72,7.2,2.88,2.88,0,0,0,21.6,10.08Z"/><path class="cls-2" d="M0,31.68A2.88,2.88,0,0,0,2.88,28.8,2.88,2.88,0,0,0,0,25.92a2.88,2.88,0,0,0,0,5.76Z"/><path class="cls-2" d="M0,17.28A2.88,2.88,0,0,0,2.88,14.4,2.88,2.88,0,0,0,0,11.52a2.88,2.88,0,0,0,0,5.76Z"/><path class="cls-2" d="M28.8,2.88A2.88,2.88,0,0,0,31.68,0a2.88,2.88,0,0,0-5.76,0A2.88,2.88,0,0,0,28.8,2.88Z"/><path class="cls-2" d="M14.4,2.88A2.88,2.88,0,0,0,17.28,0a2.88,2.88,0,0,0-5.76,0A2.88,2.88,0,0,0,14.4,2.88Z"/><path class="cls-2" d="M0,2.88A2.88,2.88,0,0,0,2.88,0,2.88,2.88,0,0,0,0-2.88,2.88,2.88,0,0,0-2.88,0,2.88,2.88,0,0,0,0,2.88Z"/></pattern></defs><path class="cls-13" d="M64.78,119.14A13,13,0,0,1,59,94.62l74.1-37.25,2,.67L145.35,78.5l-.67,2-74.1,37.25A12.86,12.86,0,0,1,64.78,119.14Z"/><path class="cls-2" d="M133.72,58.71,144,79.17l-74.1,37.25a11.44,11.44,0,0,1-15.37-5.09h0A11.45,11.45,0,0,1,59.63,96l74.09-37.25M132.38,56,58.28,93.28a14.45,14.45,0,1,0,13,25.82l74.1-37.25,1.33-4L136.41,57.36l-4-1.33Z"/><path class="cls-13" d="M141.4,83.84a17.11,17.11,0,0,1-7.7-32.4c4.28-2.15,11.46-3.6,17.86-3.6,7.91,0,13.35,2.16,15.32,6.08s.43,9.65-4.37,16c-3.81,5.08-9.21,9.92-13.43,12A17,17,0,0,1,141.4,83.84Z"/><path class="cls-2" d="M151.56,49.34c6.28,0,12.06,1.43,14,5.25,3.87,7.7-9.43,22.21-17.14,26.09a15.61,15.61,0,1,1-14-27.9c3.88-2,10.79-3.44,17.18-3.44m0-3h0c-6.61,0-14.06,1.51-18.53,3.76a18.61,18.61,0,0,0,8.37,35.24,18.39,18.39,0,0,0,8.35-2c8-4,23.58-19.94,18.47-30.12-2.27-4.51-8-6.9-16.66-6.9Z"/><path class="cls-13" d="M141.4,83.84a17.11,17.11,0,0,1-7.7-32.4c4.28-2.15,11.46-3.6,17.86-3.6,7.91,0,13.35,2.16,15.32,6.08s.43,9.65-4.37,16c-3.81,5.08-9.21,9.92-13.43,12A17,17,0,0,1,141.4,83.84Z"/><path class="cls-2" d="M151.56,49.34c6.28,0,12.06,1.43,14,5.25,3.87,7.7-9.43,22.21-17.14,26.09a15.61,15.61,0,1,1-14-27.9c3.88-2,10.79-3.44,17.18-3.44m0-3h0c-6.61,0-14.06,1.51-18.53,3.76a18.61,18.61,0,0,0,8.37,35.24,18.39,18.39,0,0,0,8.35-2c8-4,23.58-19.94,18.47-30.12-2.27-4.51-8-6.9-16.66-6.9Z"/><path class="cls-14" d="M161.56,70.23a1.49,1.49,0,0,1-.83-.25,9.68,9.68,0,0,1-2.52-2.42,9.76,9.76,0,0,1-7.46-14.83,9.83,9.83,0,0,1-.43-3.47,1.49,1.49,0,0,1,1.5-1.41h0c7.76,0,13.1,2.2,15,6.07s.48,9.44-4.11,15.69A1.5,1.5,0,0,1,161.56,70.23Z"/><path class="cls-2" d="M151.82,49.35c6.18,0,11.82,1.47,13.72,5.24s-.32,9.16-4,14.14A8.34,8.34,0,0,1,159,66.1a8.26,8.26,0,0,1-6.62-13.16,8.19,8.19,0,0,1-.6-3.59m0-3a3,3,0,0,0-3,2.83,11.33,11.33,0,0,0,.32,3.35A11.26,11.26,0,0,0,157.41,69a11.16,11.16,0,0,0,2.49,2.25,3.07,3.07,0,0,0,1.66.5A3,3,0,0,0,164,70.5c5-6.83,6.48-12.8,4.24-17.26s-7.91-6.84-16.38-6.89Z"/><path class="cls-15" d="M149.8,73.13c-2.33,1.55-4.79,3.15-7.57,3.36a9.65,9.65,0,0,1-5.25-1.2"/><rect class="cls-16" x="63.17" y="75.92" width="29.08" height="21.49" rx="10.74" transform="translate(-30.65 44.13) rotate(-26.69)"/><path class="cls-2" d="M100,224.77a2.46,2.46,0,0,1-2.44-2.07c-1.8-10.77-3-11.93-13.73-13.73a2.47,2.47,0,0,1,0-4.87c10.77-1.8,11.93-3,13.73-13.73a2.47,2.47,0,0,1,4.87,0c1.8,10.77,3,11.93,13.73,13.73a2.47,2.47,0,0,1,0,4.87c-10.77,1.8-11.93,3-13.73,13.73A2.46,2.46,0,0,1,100,224.77Z"/><path class="cls-13" d="M100,189.67a1.1,1.1,0,0,1,1.08.92c1.91,11.4,3.46,12.95,14.86,14.86a1.1,1.1,0,0,1,0,2.17c-11.4,1.91-13,3.46-14.86,14.86a1.1,1.1,0,0,1-2.17,0C97,211.08,95.4,209.53,84,207.62a1.1,1.1,0,0,1,0-2.17c11.4-1.91,13-3.46,14.86-14.86a1.11,1.11,0,0,1,1.09-.92m0-2.74a3.83,3.83,0,0,0-3.79,3.21c-.83,5-1.58,8-3.1,9.51s-4.52,2.27-9.51,3.1a3.84,3.84,0,0,0,0,7.57c5,.83,8,1.58,9.51,3.1s2.27,4.52,3.1,9.51a3.84,3.84,0,0,0,7.57,0c.83-5,1.58-8,3.11-9.51s4.51-2.27,9.5-3.1a3.84,3.84,0,0,0,0-7.57c-5-.83-8-1.58-9.5-3.1s-2.28-4.52-3.11-9.51a3.82,3.82,0,0,0-3.78-3.21Z"/><path class="cls-17" d="M158.06,102.39h0a5.63,5.63,0,0,1,5.63,5.63v32.47a0,0,0,0,1,0,0H140.88a0,0,0,0,1,0,0V119.57A17.18,17.18,0,0,1,158.06,102.39Z" transform="translate(-29.56 51.65) rotate(-17.57)"/><rect class="cls-17" x="93.19" y="137.01" width="52.87" height="14.41" transform="translate(-37.96 42.85) rotate(-17.57)"/><rect class="cls-17" x="49.3" y="159.23" width="18.3" height="53.68"/><path class="cls-13" d="M52.05,163.6a46.42,46.42,0,1,1,0-92.83H83.58a46.42,46.42,0,1,1,0,92.83Z"/><path class="cls-2" d="M83.58,72.14a45.05,45.05,0,0,1,45.05,45.05h0a45.05,45.05,0,0,1-45,45.05H52.05A45.05,45.05,0,0,1,7,117.19H7a45.05,45.05,0,0,1,45.05-45H83.58m0-2.74H52.05a47.79,47.79,0,1,0,0,95.57H83.58a47.79,47.79,0,1,0,0-95.57Z"/><path class="cls-18" d="M108,149.6H76.48a45.05,45.05,0,0,1-45.05-45h0A44.91,44.91,0,0,1,44.55,72.77,45.06,45.06,0,0,0,7,117.19H7a45.05,45.05,0,0,0,45.05,45.05H83.58A44.93,44.93,0,0,0,115.52,149,45.39,45.39,0,0,1,108,149.6Z"/><path class="cls-2" d="M17.68,226.13a9.85,9.85,0,0,1-1.8-.36,1.27,1.27,0,0,1-.79-.64l-.74-1.44a1.27,1.27,0,0,1,.13-1.37,12.55,12.55,0,0,1,1.83-1.81,4,4,0,0,1,.05-5.15,4.06,4.06,0,0,1-1-2.6,4.1,4.1,0,0,1,1-2.6,4,4,0,0,1,0-5.19,4,4,0,0,1,0-5.19,4,4,0,0,1,0-5.19,4,4,0,0,1,0-5.19,4,4,0,0,1,0-5.19,4,4,0,0,1,0-5.19,4,4,0,0,1,0-5.18,4,4,0,0,1,0-5.18,4,4,0,0,1,0-5.18,4,4,0,0,1,0-5.19,4,4,0,0,1,0-5.18,4,4,0,0,1,0-5.19,4,4,0,0,1,0-5.18,4,4,0,0,1,0-5.19,4,4,0,0,1,0-5.18,4,4,0,0,1,0-5.18,4,4,0,0,1,0-5.19,4,4,0,0,1,0-5.18,4,4,0,0,1,0-5.18,4,4,0,0,1,0-5.18,4,4,0,0,1,0-5.18,4,4,0,0,1,0-5.19,4,4,0,0,1,0-5.18,4,4,0,0,1,0-5.17,4,4,0,0,1,0-5.18,4,4,0,0,1,0-5.18,4,4,0,0,1,0-5.18,4,4,0,0,1,0-5.18,4.07,4.07,0,0,1-1-2.58,4.12,4.12,0,0,1,.95-2.59,4,4,0,0,1,0-5.17,4.14,4.14,0,0,1-.95-2.59,4.1,4.1,0,0,1,1-2.59,4,4,0,0,1,0-5.17,4,4,0,0,1,0-5.18,4,4,0,0,1,0-5.18,4,4,0,0,1,0-5.17,4.14,4.14,0,0,1-.95-2.59,4.09,4.09,0,0,1,.95-2.58,4,4,0,0,1,0-5.17,4,4,0,0,1,0-5.16,4.14,4.14,0,0,1-.95-2.59,4.09,4.09,0,0,1,.95-2.58,4.12,4.12,0,0,1-.95-2.59C15.39,4,17,2.41,18.6,1.59A14.91,14.91,0,0,1,23.53.06h.07a1.25,1.25,0,0,1,1.12.69l.87,1.7a1.27,1.27,0,0,1-.14,1.36A11.81,11.81,0,0,1,23.64,5.6a4.08,4.08,0,0,1,.9,2.53,4,4,0,0,1-.95,2.58,4,4,0,0,1,0,5.17,4,4,0,0,1,0,5.17,4,4,0,0,1,0,5.16,4,4,0,0,1,0,5.17,4,4,0,0,1,0,5.18,4,4,0,0,1,0,5.18,4,4,0,0,1,1,2.59,4.08,4.08,0,0,1-.95,2.59,4,4,0,0,1,0,5.17,4.08,4.08,0,0,1,.95,2.59,4,4,0,0,1-.95,2.58,4,4,0,0,1,0,5.18,4,4,0,0,1,0,5.17,4,4,0,0,1,0,5.18,4,4,0,0,1,0,5.18,4,4,0,0,1,0,5.18,4,4,0,0,1,0,5.18,4,4,0,0,1,0,5.17,4,4,0,0,1,0,5.19,4,4,0,0,1,1,2.59,4.08,4.08,0,0,1-.95,2.59,4,4,0,0,1,0,5.18,4,4,0,0,1,0,5.18,4.08,4.08,0,0,1,.95,2.59,4,4,0,0,1-1,2.59,4,4,0,0,1,1,2.59,4.09,4.09,0,0,1-.95,2.6,4,4,0,0,1,0,5.18,4,4,0,0,1,0,5.18,4,4,0,0,1,0,5.19,4,4,0,0,1,0,5.18,4,4,0,0,1,0,5.19,4,4,0,0,1,0,5.18,4,4,0,0,1,0,5.19,4,4,0,0,1,0,5.18,4,4,0,0,1,1,2.59,4.08,4.08,0,0,1-.95,2.59,4,4,0,0,1,0,5.18,4,4,0,0,1,0,5.19,4,4,0,0,1,0,5.18,4,4,0,0,1,0,5.19,4,4,0,0,1,0,5.19,4,4,0,0,1,0,5.2,4,4,0,0,1,0,5.19,4,4,0,0,1,1,2.59,4.1,4.1,0,0,1-1,2.6,4,4,0,0,1,0,5.2,4.08,4.08,0,0,1,1,2.6c0,1.52-1.62,3.14-3.21,4-3,1.54-3.31,1.58-3.48,1.6Z"/><path class="cls-13" d="M23.59,1.32l.44.85.43.85a9.05,9.05,0,0,1-2.2,2c-.57.29-.57.76,0,1.05a2.47,2.47,0,0,1,1,2.06,2.49,2.49,0,0,1-1,2.06c-.57.29-.57.76,0,1a2.6,2.6,0,0,1,0,4.13c-.57.28-.57.75,0,1a2.59,2.59,0,0,1,0,4.12c-.57.29-.57.76,0,1.05a2.59,2.59,0,0,1,0,4.12c-.57.29-.57.76,0,1a2.46,2.46,0,0,1,1,2.06,2.49,2.49,0,0,1-1,2.06c-.57.29-.57.76,0,1.05a2.58,2.58,0,0,1,0,4.12c-.56.29-.56.76,0,1a2.59,2.59,0,0,1,0,4.13c-.56.29-.56.76,0,1a2.59,2.59,0,0,1,0,4.13c-.56.29-.56.76,0,1a2.59,2.59,0,0,1,0,4.13c-.56.29-.56.76,0,1a2.44,2.44,0,0,1,1,2.06,2.49,2.49,0,0,1-1,2.06c-.57.29-.57.76,0,1a2.59,2.59,0,0,1,0,4.12c-.57.29-.57.76,0,1.05a2.59,2.59,0,0,1,0,4.13c-.56.28-.56.76,0,1a2.57,2.57,0,0,1,0,4.12c-.56.29-.56.77,0,1.06a2.58,2.58,0,0,1,0,4.12c-.56.29-.56.77,0,1.06a2.47,2.47,0,0,1,1,2.06,2.44,2.44,0,0,1-1,2.06c-.56.29-.56.77,0,1.06a2.44,2.44,0,0,1,1,2.06,2.47,2.47,0,0,1-1,2.06c-.56.29-.56.76,0,1a2.59,2.59,0,0,1,0,4.13c-.56.29-.56.76,0,1a2.59,2.59,0,0,1,0,4.13c-.56.29-.56.76,0,1a2.59,2.59,0,0,1,0,4.13c-.56.29-.56.77,0,1.06a2.57,2.57,0,0,1,0,4.12c-.56.29-.56.77,0,1a2.59,2.59,0,0,1,0,4.13c-.56.29-.56.77,0,1a2.59,2.59,0,0,1,0,4.13c-.56.29-.56.77,0,1.06a2.59,2.59,0,0,1,0,4.13c-.56.29-.56.76,0,1.05a2.59,2.59,0,0,1,0,4.13c-.56.29-.56.76,0,1.05a2.59,2.59,0,0,1,0,4.13c-.56.29-.56.77,0,1.06a2.59,2.59,0,0,1,0,4.13c-.56.29-.56.76,0,1a2.59,2.59,0,0,1,0,4.13c-.56.29-.56.77,0,1.06a2.59,2.59,0,0,1,0,4.13c-.56.29-.56.76,0,1a2.59,2.59,0,0,1,0,4.13c-.56.29-.56.77,0,1.06a2.59,2.59,0,0,1,0,4.13c-.56.29-.56.76,0,1a2.59,2.59,0,0,1,0,4.13c-.56.29-.56.76,0,1.05a2.59,2.59,0,0,1,0,4.13c-.56.29-.56.76,0,1.05a2.59,2.59,0,0,1,0,4.13c-.56.29-.56.77,0,1.06a2.59,2.59,0,0,1,0,4.13c-.56.29-.56.76,0,1a2.59,2.59,0,0,1,0,4.13c-.56.29-.56.77,0,1.06a2.59,2.59,0,0,1,0,4.13c-.57.29-.57.77,0,1.06a2.59,2.59,0,0,1,0,4.13c-.57.29-.57.77,0,1.06a2.47,2.47,0,0,1,1,2.07,2.5,2.5,0,0,1-1,2.07c-.57.29-.57.76,0,1.06a2.59,2.59,0,0,1,0,4.13c-.56.29-.56.76,0,1.06a2.59,2.59,0,0,1,0,4.13c-.57.29-.57.77,0,1.06a2.47,2.47,0,0,1,1,2.07,2.5,2.5,0,0,1-1,2.07c-.57.29-.57.77,0,1.06a2.5,2.5,0,0,1,1,2.07c0,.85-1.13,2.12-2.52,2.84a32.69,32.69,0,0,1-3.05,1.46h0a8.89,8.89,0,0,1-1.47-.32l-.3-.59-.44-.85a9,9,0,0,1,2.22-2c.57-.3.57-.78,0-1.07a2.59,2.59,0,0,1,0-4.14c.57-.29.57-.77,0-1.06a2.6,2.6,0,0,1,0-4.14c.57-.29.57-.77,0-1.06a2.59,2.59,0,0,1,0-4.13c.57-.29.57-.77,0-1.06a2.59,2.59,0,0,1,0-4.13c.57-.29.57-.77,0-1.06a2.59,2.59,0,0,1,0-4.13c.57-.29.57-.77,0-1.06a2.59,2.59,0,0,1,0-4.13c.57-.29.57-.77,0-1.06a2.59,2.59,0,0,1,0-4.13c.57-.29.57-.77,0-1.06a2.59,2.59,0,0,1,0-4.13c.57-.29.57-.76,0-1.06a2.58,2.58,0,0,1,0-4.12c.57-.29.57-.77,0-1.06a2.59,2.59,0,0,1,0-4.13c.56-.29.56-.76,0-1.05a2.59,2.59,0,0,1,0-4.13c.57-.29.57-.76,0-1.05a2.59,2.59,0,0,1,0-4.13c.57-.29.57-.76,0-1a2.59,2.59,0,0,1,0-4.13c.57-.29.57-.77,0-1.06a2.59,2.59,0,0,1,0-4.13c.57-.29.57-.76,0-1.06a2.58,2.58,0,0,1,0-4.12c.57-.29.57-.77,0-1.06a2.59,2.59,0,0,1,0-4.13c.57-.29.57-.76,0-1.05a2.59,2.59,0,0,1,0-4.13c.57-.29.57-.77,0-1.06a2.59,2.59,0,0,1,0-4.13c.57-.29.57-.76,0-1a2.59,2.59,0,0,1,0-4.13c.57-.29.57-.76,0-1a2.59,2.59,0,0,1,0-4.13c.57-.29.57-.77,0-1.06a2.59,2.59,0,0,1,0-4.13c.56-.29.56-.76,0-1a2.57,2.57,0,0,1,0-4.12c.56-.29.56-.77,0-1.06a2.59,2.59,0,0,1,0-4.13c.57-.29.57-.76,0-1a2.59,2.59,0,0,1,0-4.13c.57-.29.57-.76,0-1.05a2.59,2.59,0,0,1,0-4.13c.56-.29.56-.76,0-1a2.59,2.59,0,0,1,0-4.13c.56-.28.56-.76,0-1.05a2.57,2.57,0,0,1,0-4.12c.56-.29.56-.76,0-1a2.59,2.59,0,0,1,0-4.13c.57-.29.57-.77,0-1.06a2.49,2.49,0,0,1-1-2.06,2.47,2.47,0,0,1,1-2.06c.56-.29.56-.77,0-1.06a2.57,2.57,0,0,1,0-4.12c.56-.29.56-.76,0-1a2.59,2.59,0,0,1,0-4.13c.56-.28.56-.76,0-1a2.59,2.59,0,0,1,0-4.13c.56-.29.56-.76,0-1.05a2.47,2.47,0,0,1-1-2.06,2.49,2.49,0,0,1,1-2.06c.56-.29.56-.76,0-1.05a2.59,2.59,0,0,1,0-4.13c.57-.29.56-.76,0-1.05a2.59,2.59,0,0,1,0-4.13c.57-.29.57-.76,0-1.05a2.59,2.59,0,0,1,0-4.13c.56-.28.56-.76,0-1.05a2.58,2.58,0,0,1,0-4.12c.56-.29.56-.76,0-1.05a2.46,2.46,0,0,1-1-2.06,2.49,2.49,0,0,1,1-2.06c.56-.29.56-.76,0-1a2.6,2.6,0,0,1,0-4.13c.56-.28.56-.75,0-1a2.59,2.59,0,0,1,0-4.12c.56-.29.56-.76,0-1.05a2.46,2.46,0,0,1-1-2.06,2.49,2.49,0,0,1,1-2.06c.56-.29.56-.76,0-1.05a2.44,2.44,0,0,1-1-2.06c0-.84,1.14-2.12,2.53-2.83a13.92,13.92,0,0,1,4.41-1.39m0-2.52h-.14A15.74,15.74,0,0,0,18,.47c-1.94,1-3.9,3-3.9,5.07a5.35,5.35,0,0,0,.68,2.59,5.25,5.25,0,0,0,0,5.17,5.23,5.23,0,0,0,0,5.16,5.25,5.25,0,0,0,0,5.17,5.25,5.25,0,0,0,0,5.17,5.25,5.25,0,0,0,0,5.17,5.32,5.32,0,0,0-.68,2.59,5.38,5.38,0,0,0,.68,2.59,5.32,5.32,0,0,0-.68,2.59,5.38,5.38,0,0,0,.68,2.59,5.32,5.32,0,0,0-.68,2.59,5.38,5.38,0,0,0,.68,2.59,5.25,5.25,0,0,0,0,5.17,5.25,5.25,0,0,0,0,5.17,5.25,5.25,0,0,0,0,5.17,5.27,5.27,0,0,0,0,5.18,5.27,5.27,0,0,0,0,5.18,5.27,5.27,0,0,0,0,5.18,5.27,5.27,0,0,0,0,5.18,5.25,5.25,0,0,0,0,5.17,5.38,5.38,0,0,0-.68,2.59,5.32,5.32,0,0,0,.68,2.59,5.29,5.29,0,0,0,0,5.19,5.27,5.27,0,0,0,0,5.18,5.27,5.27,0,0,0,0,5.18,5.27,5.27,0,0,0,0,5.18,5.27,5.27,0,0,0,0,5.18,5.29,5.29,0,0,0,0,5.19,5.32,5.32,0,0,0-.68,2.59,5.38,5.38,0,0,0,.68,2.59,5.27,5.27,0,0,0,0,5.18,5.29,5.29,0,0,0,0,5.19,5.32,5.32,0,0,0-.68,2.59,5.22,5.22,0,0,0,.69,2.59,5.22,5.22,0,0,0,0,5.19,5.25,5.25,0,0,0-.69,2.59,5.32,5.32,0,0,0,.68,2.59,5.29,5.29,0,0,0,0,5.19,5.27,5.27,0,0,0,0,5.18,5.32,5.32,0,0,0-.68,2.59,5.38,5.38,0,0,0,.68,2.59,5.27,5.27,0,0,0,0,5.18,5.38,5.38,0,0,0-.68,2.59,5.29,5.29,0,0,0,.69,2.6,5.22,5.22,0,0,0,0,5.19,5.22,5.22,0,0,0,0,5.19,5.22,5.22,0,0,0,0,5.19,5.22,5.22,0,0,0,0,5.19,5.22,5.22,0,0,0,0,5.19,5.24,5.24,0,0,0,0,5.2,5.29,5.29,0,0,0-.69,2.6,5.2,5.2,0,0,0,.54,2.31,12,12,0,0,0-1.17,1.27,2.51,2.51,0,0,0-.27,2.73l.43.85.31.59A2.51,2.51,0,0,0,15.54,227a9.44,9.44,0,0,0,2.14.4l.32,0c.41,0,.73-.08,3.92-1.73,1.93-1,3.89-2.95,3.89-5.08a5.3,5.3,0,0,0-.7-2.6,5.3,5.3,0,0,0,.7-2.6,5.4,5.4,0,0,0-.69-2.6,5.4,5.4,0,0,0,.69-2.6,5.33,5.33,0,0,0-.69-2.59,5.4,5.4,0,0,0,.69-2.6,5.33,5.33,0,0,0-.69-2.59,5.24,5.24,0,0,0,0-5.2,5.33,5.33,0,0,0,.69-2.59,5.4,5.4,0,0,0-.69-2.6,5.22,5.22,0,0,0,0-5.19,5.22,5.22,0,0,0,0-5.19,5.33,5.33,0,0,0,.69-2.59,5.39,5.39,0,0,0-.69-2.59,5.39,5.39,0,0,0,.69-2.59,5.33,5.33,0,0,0-.69-2.59,5.27,5.27,0,0,0,0-5.18,5.4,5.4,0,0,0,.69-2.6,5.32,5.32,0,0,0-.69-2.58,5.5,5.5,0,0,0,.69-2.59,5.4,5.4,0,0,0-.69-2.6,5.21,5.21,0,0,0,0-5.18,5.22,5.22,0,0,0,0-5.19,5.21,5.21,0,0,0,0-5.18,5.22,5.22,0,0,0,0-5.19,5.21,5.21,0,0,0,0-5.18,5.22,5.22,0,0,0,0-5.19,5.33,5.33,0,0,0,.69-2.59,5.39,5.39,0,0,0-.69-2.59,5.21,5.21,0,0,0,0-5.18,5.27,5.27,0,0,0,0-5.18,5.21,5.21,0,0,0,0-5.18,5.22,5.22,0,0,0,0-5.19,5.33,5.33,0,0,0,.69-2.59,5.39,5.39,0,0,0-.69-2.59,5.25,5.25,0,0,0,0-5.17,5.27,5.27,0,0,0,0-5.18,5.27,5.27,0,0,0,0-5.18,5.21,5.21,0,0,0,0-5.18,5.27,5.27,0,0,0,0-5.18,5.25,5.25,0,0,0,0-5.17,5.27,5.27,0,0,0,0-5.18,5.25,5.25,0,0,0,0-5.17,5.25,5.25,0,0,0,0-5.17,5.27,5.27,0,0,0,0-5.18,5.38,5.38,0,0,0,.68-2.59,5.32,5.32,0,0,0-.68-2.59,5.27,5.27,0,0,0,0-5.18,5.25,5.25,0,0,0,0-5.17,5.23,5.23,0,0,0,0-5.16,5.25,5.25,0,0,0,0-5.17,5.25,5.25,0,0,0,0-5.17,5.25,5.25,0,0,0,.16-4.86A12.75,12.75,0,0,0,26.43,4.6a2.51,2.51,0,0,0,.28-2.73L26.28,1,25.84.17A2.5,2.5,0,0,0,23.6-1.2Z"/><path class="cls-13" d="M73.84,122.32a9,9,0,0,1-9-9v-7.77a9,9,0,0,1,17.93,0v7.77A9,9,0,0,1,73.84,122.32Z"/><path class="cls-2" d="M73.84,97.81a7.78,7.78,0,0,1,7.78,7.78v7.77a7.78,7.78,0,0,1-15.56,0v-7.77a7.78,7.78,0,0,1,7.78-7.78m0-2.37a10.16,10.16,0,0,0-10.15,10.15v7.77a10.15,10.15,0,0,0,20.3,0v-7.77A10.16,10.16,0,0,0,73.84,95.44Z"/><path class="cls-13" d="M92.16,122.32a9,9,0,0,1-9-9v-7.77a9,9,0,0,1,17.93,0v7.77A9,9,0,0,1,92.16,122.32Z"/><path class="cls-2" d="M92.16,97.81a7.78,7.78,0,0,1,7.79,7.78v7.77a7.79,7.79,0,0,1-15.57,0v-7.77a7.78,7.78,0,0,1,7.78-7.78m0-2.37A10.16,10.16,0,0,0,82,105.59v7.77a10.15,10.15,0,0,0,20.29,0v-7.77A10.16,10.16,0,0,0,92.16,95.44Z"/><path class="cls-2" d="M70.44,112.06v9.33a7.73,7.73,0,0,0,4.9,1,7.94,7.94,0,0,0,6.77-8v-7.55a1.73,1.73,0,0,0-1.75-1.69h-3A6.88,6.88,0,0,0,70.44,112.06Z"/><path class="cls-2" d="M89.24,112.06v9.33a7.77,7.77,0,0,0,4.91,1,7.94,7.94,0,0,0,6.77-8v-7.55a1.73,1.73,0,0,0-1.75-1.69h-3A6.89,6.89,0,0,0,89.24,112.06Z"/><path class="cls-13" d="M36.08,165.2a13,13,0,0,1,2.05-25.74,13,13,0,0,1,2.07.17l81.88,13.18,1.24,1.72-3.64,22.61L118,178.38Z"/><path class="cls-2" d="M38.13,141a11.39,11.39,0,0,1,1.83.15l81.88,13.18L118.2,176.9,36.32,163.72a11.45,11.45,0,0,1-9.48-13.13h0A11.45,11.45,0,0,1,38.13,141m0-3h0a14.45,14.45,0,0,0-2.28,28.72l81.88,13.18,3.43-2.48,3.64-22.61-2.48-3.44L40.44,138.15a13.76,13.76,0,0,0-2.31-.19Z"/><path class="cls-13" d="M124.67,182.46a25.57,25.57,0,0,1-4-.29,17.11,17.11,0,0,1,2.71-34,17.84,17.84,0,0,1,2.73.22c8.13,1.31,27.08,11.27,25.45,21.43C150.09,178.75,133.32,182.46,124.67,182.46Z"/><path class="cls-2" d="M123.34,149.66a16.53,16.53,0,0,1,2.51.2c8.51,1.37,25.56,11.2,24.19,19.71C148.85,177,134.09,181,124.67,181a23.92,23.92,0,0,1-3.79-.27,15.61,15.61,0,0,1,2.46-31m0-3h0a18.62,18.62,0,0,0-2.93,37,27.26,27.26,0,0,0,4.26.3c10.52,0,26.81-4.42,28.34-13.91.81-5-2.52-10.37-9.61-15.45-5.34-3.82-12.2-6.91-17.08-7.7a18.49,18.49,0,0,0-3-.24Z"/><path class="cls-13" d="M124.67,182.46a25.57,25.57,0,0,1-4-.29,17.11,17.11,0,0,1,2.71-34,17.84,17.84,0,0,1,2.73.22c8.13,1.31,27.08,11.27,25.45,21.43C150.09,178.75,133.32,182.46,124.67,182.46Z"/><path class="cls-2" d="M123.34,149.66a16.53,16.53,0,0,1,2.51.2c8.51,1.37,25.56,11.2,24.19,19.71C148.85,177,134.09,181,124.67,181a23.92,23.92,0,0,1-3.79-.27,15.61,15.61,0,0,1,2.46-31m0-3h0a18.62,18.62,0,0,0-2.93,37,27.26,27.26,0,0,0,4.26.3c10.52,0,26.81-4.42,28.34-13.91.81-5-2.52-10.37-9.61-15.45-5.34-3.82-12.2-6.91-17.08-7.7a18.49,18.49,0,0,0-3-.24Z"/><path class="cls-19" d="M138.55,180.21a1.52,1.52,0,0,1-1.41-1,9.74,9.74,0,0,1-.63-3.44,9.76,9.76,0,0,1,2.64-16.39,9.56,9.56,0,0,1,1.68-3.06,1.48,1.48,0,0,1,1.16-.56,1.55,1.55,0,0,1,.89.29c6.26,4.58,9.33,9.46,8.65,13.73s-5.14,7.94-12.52,10.32A1.54,1.54,0,0,1,138.55,180.21Z"/><path class="cls-2" d="M142,157.29c5,3.65,8.72,8.12,8,12.28s-5.62,7.24-11.49,9.14a8.1,8.1,0,0,1-.51-3.61,8.25,8.25,0,0,1,2.34-14.54,8.36,8.36,0,0,1,1.61-3.27m0-3a3,3,0,0,0-2.34,1.12,11,11,0,0,0-1.7,2.9A11.25,11.25,0,0,0,135,176.48a11.54,11.54,0,0,0,.71,3.29,3,3,0,0,0,3.73,1.79c8.06-2.6,12.74-6.58,13.54-11.51s-2.41-10.18-9.24-15.18a3,3,0,0,0-1.77-.58Z"/><path class="cls-15" d="M126.43,175.39c-2.79-.1-5.72-.25-8.1-1.71a9.74,9.74,0,0,1-3.56-4"/><rect class="cls-16" x="45.52" y="133.42" width="29.08" height="21.49" rx="10.74" transform="translate(23.68 -7.71) rotate(9.15)"/><path class="cls-17" d="M48.77,206.54H67.6a0,0,0,0,1,0,0v21.4a0,0,0,0,1,0,0H30.78a0,0,0,0,1,0,0v-3.41a18,18,0,0,1,18-18Z"/><path class="cls-17" d="M67.6,227.93v-9.54a13.79,13.79,0,0,0-1.72-.12,13.12,13.12,0,0,0-12.65,9.66Z"/><path class="cls-17" d="M158.24,134.5a14,14,0,0,0,.85,4.77l9.82-3.11-4.24-13.39A13.9,13.9,0,0,0,158.24,134.5Z"/><rect class="cls-17" x="10.41" y="90.47" width="18.83" height="28.16" rx="9.41"/><path class="cls-2" d="M16.09,212.7a3.28,3.28,0,0,1,0-6.56h7.75a3.28,3.28,0,0,1,0,6.56Z"/><path class="cls-13" d="M23.84,207.14a2.28,2.28,0,0,1,0,4.56H16.09a2.28,2.28,0,0,1,0-4.56h7.75m0-2H16.09a4.28,4.28,0,0,0,0,8.56h7.75a4.28,4.28,0,0,0,0-8.56Z"/><path class="cls-17" d="M99.23,82.77s30.41,9.08,22.39,45.22"/><path class="cls-20" d="M88.67,122.91a4.12,4.12,0,0,0-4.92.83.83.83,0,0,1-1.21,0,4.12,4.12,0,0,0-4.92-.83c-2,1-8.12,6.33-7.06,8.35s8.87,0,10.89-1a4.11,4.11,0,0,0,1-.78.91.91,0,0,1,1.31,0,4.35,4.35,0,0,0,1,.78c2,1.05,9.83,3.05,10.89,1S90.7,124,88.67,122.91Z"/><rect class="cls-20" x="72.6" y="91.01" width="10.21" height="6.02" rx="3.01" transform="translate(46.44 -23.88) rotate(24.72)"/></svg>