<svg id="圖層_1" data-name="圖層 1" xmlns="http://www.w3.org/2000/svg" viewBox="0 0 1286.16 275.93"><defs><style>.cls-1{fill:none;stroke:#fff;stroke-width:3px;}.cls-1,.cls-2{stroke-linecap:round;stroke-linejoin:round;}.cls-2{fill:#fff;stroke:#000;stroke-width:2.74px;}</style></defs><polygon points="1221.12 2.82 1178.05 2.82 1155.52 2.82 1107.09 15.2 1051.91 2.82 959.55 2.82 902.12 21.96 854.82 20.84 809.77 2.82 685.88 2.82 637.45 18.58 589.59 0 470.77 2.82 429.1 27.59 373.91 2.82 290.57 2.82 270.3 17.46 184.7 2.82 108.99 10.14 72.08 59.13 27.03 72.64 0 137.96 15.77 205.54 66.45 216.8 67.01 248.62 143.59 269.73 200.47 255.66 239.89 275.93 355.33 275.93 404.88 246.65 464.01 269.73 622.81 269.73 666.73 241.58 717.41 269.73 765.84 269.73 800.76 241.58 833.42 269.73 1103.71 269.73 1140.88 234.82 1174.67 269.73 1263.64 269.73 1286.16 231.44 1255.76 197.66 1286.16 171.75 1286.16 51.24 1243.37 43.36 1221.12 2.82"/><polyline class="cls-1" points="174 187.08 309.15 206.3 496.95 189.4 672.37 206.3 871.71 189.4 978.09 206.3 1186.96 191.87"/><circle class="cls-2" cx="352.41" cy="202.5" r="8.53"/><circle class="cls-2" cx="683.22" cy="207.3" r="8.53"/><circle class="cls-2" cx="1004.91" cy="203.5" r="8.53"/></svg>