<svg id="圖層_1" data-name="圖層 1" xmlns="http://www.w3.org/2000/svg" viewBox="0 0 384.33 86.16"><defs><style>.cls-1{fill:#fff;}</style></defs><polyline class="cls-1" points="46.46 3.38 6.76 16.89 0 57.28 12.67 71.8 0 86.16 44.77 76.87 61.66 86.16 152.89 86.16 179.07 76.87 206.95 86.16 266.36 86.16 287.47 79.4 303.52 86.16 322.1 86.16 363.3 83.06 367.53 69.55 378.64 64.33 384.33 36.13 384.33 27.03 378.42 20.27 362.65 0 311.12 0 293.95 10.98 281 0 219.62 0 202.16 9.29 177.2 0 121.73 0 100.23 8.02 86.72 1.41 70.95 1.41"/></svg>