<svg id="圖層_1" data-name="圖層 1" xmlns="http://www.w3.org/2000/svg" viewBox="0 0 100.8 57.81"><defs><style>.cls-1,.cls-3,.cls-4,.cls-5{fill:#fff;}.cls-2{fill:#211815;}.cls-3,.cls-4,.cls-5{stroke:#211815;stroke-linecap:round;stroke-linejoin:bevel;}.cls-3{stroke-width:2.34px;}.cls-4{stroke-width:2px;}.cls-5{stroke-width:2.68px;}</style></defs><path class="cls-1" d="M94.11,49.16a2.22,2.22,0,0,1-1-.2,2.37,2.37,0,0,1-1.29-1.43c-.34-.32-1-.83-1.29-1.08-1.79-1.42-3.33-2.64-2.7-4.55a2.6,2.6,0,0,1,1.36-1.56,2.64,2.64,0,0,1-.08-3.47,2.57,2.57,0,0,1-1.06-1.3A2.63,2.63,0,0,1,88,33.89a2.48,2.48,0,0,1-1.51-.79,2.56,2.56,0,0,1-.73-1.83,3,3,0,0,1-.73.1A2.5,2.5,0,0,1,83.84,31c-2.17-1.22-1.6-3.92-1.21-5.71.05-.27.14-.69.2-1a2.3,2.3,0,0,1-.17-1.87,2.34,2.34,0,0,1,3-1.48c1.7.57,2,2,1.9,3.41a4.09,4.09,0,0,1,2.23-.82,2.55,2.55,0,0,1,1.59.56c1.34,1,1.16,2.4.58,3.92a5.62,5.62,0,0,1,1.64-.29A2.58,2.58,0,0,1,95.85,29c1,1.49.18,2.8-1,4,1.7.19,3.14.69,3.41,2.45S97.45,38,96,38.67c1.41.76,2.46,1.73,2.14,3.36s-1.43,2-2.87,2.23c1,1,1.63,2.13,1,3.51A2.34,2.34,0,0,1,94.11,49.16Z"/><path class="cls-2" d="M84.88,22a1.19,1.19,0,0,1,.37.06c1.56.52,1.16,2.37.81,4-.06.29-.15.71-.21,1.1l.6-.49c1.33-1.09,2.38-2,3.3-2a1.43,1.43,0,0,1,.88.31c1,.8.45,2.1-.46,4.07-.12.27-.28.61-.42.94l.79-.29a10,10,0,0,1,3-.84,1.41,1.41,0,0,1,1.3.68c.73,1.13-.38,2.2-1.91,3.67L92.2,34l.88,0c2.23.1,3.84.18,4,1.57S96,37.44,94,38.21l-1,.37.71.31c2,.91,3.51,1.56,3.24,2.92s-1.66,1.34-3.81,1.44l-.88,0,.5.4c1.73,1.37,3,2.36,2.42,3.6a1.17,1.17,0,0,1-1.07.69,1.18,1.18,0,0,1-.48-.1,1.21,1.21,0,0,1-.69-1,17.18,17.18,0,0,0-1.64-1.41C89.63,44.2,88.62,43.4,89,42.27s1.63-1.24,3.54-1.33c-1.78-.8-2.85-1.32-2.81-2.43s1-1.56,2.53-2.16c-1.67-.09-2.69-.25-3-1.19s.33-1.81,1.49-3a7.29,7.29,0,0,1-2.2.55,1.44,1.44,0,0,1-1.11-.45c-.78-.83-.33-2,.46-3.73-1.18,1-2,1.63-2.77,1.63a1.37,1.37,0,0,1-.66-.18c-1.42-.8-1-2.73-.64-4.44A13,13,0,0,0,84.05,24a1.15,1.15,0,0,1-.28-1.19,1.17,1.17,0,0,1,1.11-.8m0-2.35a3.52,3.52,0,0,0-3.27,4.81l-.13.61c-.4,1.87-1.14,5.34,1.79,7a3.53,3.53,0,0,0,1.56.47,3.8,3.8,0,0,0,.84,1.37,3.87,3.87,0,0,0,1.09.81A3.53,3.53,0,0,0,87,36a3.69,3.69,0,0,0,.64,1.12,3.87,3.87,0,0,0-.28,1.32,3.77,3.77,0,0,0,.29,1.63,3.66,3.66,0,0,0-.89,1.49c-.89,2.68,1.22,4.35,3.08,5.83.22.18.7.56,1,.84A3.55,3.55,0,0,0,92.68,50a3.5,3.5,0,0,0,4.64-1.78,3.55,3.55,0,0,0-.13-3.34,3.46,3.46,0,0,0,2.06-2.65,3.56,3.56,0,0,0-1.16-3.52,3.52,3.52,0,0,0,1.36-3.48,3.6,3.6,0,0,0-2.56-3,3.58,3.58,0,0,0,0-3.91,3.75,3.75,0,0,0-3.28-1.76h-.07a3.53,3.53,0,0,0-1.44-3.4,3.79,3.79,0,0,0-2.3-.79,4.3,4.3,0,0,0-1.2.18A3.63,3.63,0,0,0,86,19.85a3.34,3.34,0,0,0-1.12-.19Z"/><path class="cls-3" d="M84.51,24.29h0Z"/><rect class="cls-4" x="40.73" y="18.72" width="5.82" height="11.83" rx="2.91"/><path class="cls-5" d="M76.71,16A10,10,0,0,0,73,15.79a13.48,13.48,0,0,0-7.1-4.62L49.47,6.83a13.36,13.36,0,0,0-8.15.42A9.43,9.43,0,0,0,38.45,6a9.82,9.82,0,1,0,6.4,13.62l19.58,5.16A9.81,9.81,0,1,0,76.71,16Z"/><rect class="cls-4" x="66.42" y="18.72" width="5.82" height="11.83" rx="2.91"/><path class="cls-5" d="M49.93,27H65.48A28.16,28.16,0,0,1,93.64,55.2v0a0,0,0,0,1,0,0H21.77a0,0,0,0,1,0,0v0A28.16,28.16,0,0,1,49.93,27Z"/><circle class="cls-4" cx="42.12" cy="38.15" r="2.32"/><circle class="cls-4" cx="50.42" cy="38.15" r="2.32"/><circle class="cls-4" cx="58.73" cy="38.15" r="2.32"/><circle class="cls-4" cx="42.12" cy="45.96" r="2.32"/><circle class="cls-4" cx="50.42" cy="45.96" r="2.32"/><circle class="cls-4" cx="58.73" cy="45.96" r="2.32"/><path class="cls-4" d="M71.66,33.92A19.85,19.85,0,0,1,83.75,44.8"/><polygon class="cls-1" points="15.6 28.12 8.17 31.59 6.79 30.99 2.19 16.71 3.87 15.71 10.59 22.73 18.14 20.33 19.39 20.95 23.89 33.86 22.23 34.89 15.6 28.12"/><path class="cls-2" d="M3.14,16.4l7.16,7.47,8.14-2.59L23,34.19l-7.14-7.28L7.74,30.69,3.14,16.4M4.59,15,1.24,17,5.84,31.3l2.75,1.2,6.79-3.18,6.14,6.27,3.32-2.06L20.33,20.62l-2.49-1.24-7,2.21L4.59,15Z"/><polygon class="cls-1" points="14.91 16.95 14.98 12.65 11.45 13.87 10.18 12.59 13.7 2.92 15.63 3.12 16.21 7.32 20.86 7.24 21.75 8.73 16.78 17.46 14.91 16.95"/><path class="cls-2" d="M14.64,3.26l.71,5.07,5.53-.09-5,8.72L16,11.24l-4.88,1.69,3.52-9.67m-1.88-.68L9.24,12.24l2.54,2.58L14,14.06l-.05,2.87,3.74,1,5-8.72-1.77-3-3.77.06L16.62,3l-3.86-.41Z"/></svg>