<svg id="圖層_1" data-name="圖層 1" xmlns="http://www.w3.org/2000/svg" viewBox="0 0 384.33 86.16"><defs><style>.cls-1{fill:#fff;}</style></defs><polyline class="cls-1" points="337.87 3.38 377.57 16.89 384.33 57.28 371.66 71.8 384.33 86.16 339.56 76.87 322.67 86.16 231.44 86.16 205.26 76.87 177.38 86.16 117.97 86.16 96.86 79.4 80.81 86.16 62.23 86.16 21.03 83.06 16.8 69.55 5.68 64.33 0 36.13 0 27.03 5.91 20.27 21.68 0 73.21 0 90.38 10.98 103.33 0 164.71 0 182.17 9.29 207.13 0 262.6 0 284.09 8.02 297.61 1.41 313.38 1.41"/></svg>