<svg id="圖層_1" data-name="圖層 1" xmlns="http://www.w3.org/2000/svg" xmlns:xlink="http://www.w3.org/1999/xlink" viewBox="0 0 416.15 475.55"><defs><style>.cls-1,.cls-10,.cls-11,.cls-14,.cls-17,.cls-2,.cls-3,.cls-4,.cls-5,.cls-6,.cls-7,.cls-8,.cls-9{fill:none;}.cls-10,.cls-11,.cls-13,.cls-14,.cls-16,.cls-17,.cls-18,.cls-2,.cls-3,.cls-4,.cls-5,.cls-6,.cls-7,.cls-8,.cls-9{stroke:#211815;}.cls-10,.cls-11,.cls-13,.cls-14,.cls-17,.cls-18,.cls-2,.cls-3,.cls-4,.cls-5,.cls-6,.cls-7,.cls-8,.cls-9{stroke-linecap:round;}.cls-2{stroke-width:3.5px;}.cls-10,.cls-11,.cls-2,.cls-3,.cls-4,.cls-5,.cls-6,.cls-7,.cls-8,.cls-9{stroke-dasharray:0 6.5;}.cls-3{stroke-width:3.25px;}.cls-16,.cls-18,.cls-4{stroke-width:3px;}.cls-5{stroke-width:2.75px;}.cls-6{stroke-width:2.5px;}.cls-7{stroke-width:2.25px;}.cls-8{stroke-width:2px;}.cls-9{stroke-width:1.75px;}.cls-10{stroke-width:1.5px;}.cls-11{stroke-width:1.25px;}.cls-12,.cls-13,.cls-18{fill:#fff;}.cls-13,.cls-18{stroke-linejoin:bevel;}.cls-13,.cls-14{stroke-width:2.74px;}.cls-14,.cls-17{stroke-linejoin:round;}.cls-15{fill:#211815;}.cls-16{stroke-miterlimit:10;fill:url(#起伏的細點);}.cls-17{stroke-width:17px;}.cls-19{fill:url(#起伏的細點-9);}</style><pattern id="起伏的細點" data-name="起伏的細點" width="83" height="65" patternTransform="translate(124.9 104.16)" patternUnits="userSpaceOnUse" viewBox="0 0 83 65"><rect class="cls-1" width="83" height="65"/><line class="cls-2" x1="83" y1="65" x2="83" y2="130.5"/><line class="cls-2" y1="65" y2="130.5"/><line class="cls-3" x1="4.61" y1="61.75" x2="4.61" y2="130.5"/><line class="cls-4" x1="9.22" y1="65" x2="9.22" y2="130.5"/><line class="cls-5" x1="13.83" y1="61.75" x2="13.83" y2="130.5"/><line class="cls-6" x1="18.45" y1="65" x2="18.45" y2="130.5"/><line class="cls-7" x1="23.06" y1="61.75" x2="23.06" y2="130.5"/><line class="cls-8" x1="27.67" y1="65" x2="27.67" y2="130.5"/><line class="cls-9" x1="32.28" y1="61.75" x2="32.28" y2="130.5"/><line class="cls-10" x1="36.89" y1="65" x2="36.89" y2="130.5"/><line class="cls-11" x1="41.5" y1="61.75" x2="41.5" y2="130.5"/><line class="cls-2" x1="83" y1="65" x2="83" y2="130.5"/><line class="cls-3" x1="78.39" y1="61.75" x2="78.39" y2="130.5"/><line class="cls-4" x1="73.78" y1="65" x2="73.78" y2="130.5"/><line class="cls-5" x1="69.17" y1="61.75" x2="69.17" y2="130.5"/><line class="cls-6" x1="64.55" y1="65" x2="64.55" y2="130.5"/><line class="cls-7" x1="59.94" y1="61.75" x2="59.94" y2="130.5"/><line class="cls-8" x1="55.33" y1="65" x2="55.33" y2="130.5"/><line class="cls-9" x1="50.72" y1="61.75" x2="50.72" y2="130.5"/><line class="cls-10" x1="46.11" y1="65" x2="46.11" y2="130.5"/><line class="cls-2" y1="65" y2="130.5"/><line class="cls-2" x1="83" x2="83" y2="65.5"/><line class="cls-2" y2="65.5"/><line class="cls-3" x1="4.61" y1="-3.25" x2="4.61" y2="65.5"/><line class="cls-4" x1="9.22" x2="9.22" y2="65.5"/><line class="cls-5" x1="13.83" y1="-3.25" x2="13.83" y2="65.5"/><line class="cls-6" x1="18.45" x2="18.45" y2="65.5"/><line class="cls-7" x1="23.06" y1="-3.25" x2="23.06" y2="65.5"/><line class="cls-8" x1="27.67" x2="27.67" y2="65.5"/><line class="cls-9" x1="32.28" y1="-3.25" x2="32.28" y2="65.5"/><line class="cls-10" x1="36.89" x2="36.89" y2="65.5"/><line class="cls-11" x1="41.5" y1="-3.25" x2="41.5" y2="65.5"/><line class="cls-2" x1="83" x2="83" y2="65.5"/><line class="cls-3" x1="78.39" y1="-3.25" x2="78.39" y2="65.5"/><line class="cls-4" x1="73.78" x2="73.78" y2="65.5"/><line class="cls-5" x1="69.17" y1="-3.25" x2="69.17" y2="65.5"/><line class="cls-6" x1="64.55" x2="64.55" y2="65.5"/><line class="cls-7" x1="59.94" y1="-3.25" x2="59.94" y2="65.5"/><line class="cls-8" x1="55.33" x2="55.33" y2="65.5"/><line class="cls-9" x1="50.72" y1="-3.25" x2="50.72" y2="65.5"/><line class="cls-10" x1="46.11" x2="46.11" y2="65.5"/><line class="cls-2" y2="65.5"/><line class="cls-2" x1="83" y1="-65" x2="83" y2="0.5"/><line class="cls-2" y1="-65" y2="0.5"/><line class="cls-3" x1="4.61" y1="-68.25" x2="4.61" y2="0.5"/><line class="cls-4" x1="9.22" y1="-65" x2="9.22" y2="0.5"/><line class="cls-5" x1="13.83" y1="-68.25" x2="13.83" y2="0.5"/><line class="cls-6" x1="18.45" y1="-65" x2="18.45" y2="0.5"/><line class="cls-7" x1="23.06" y1="-68.25" x2="23.06" y2="0.5"/><line class="cls-8" x1="27.67" y1="-65" x2="27.67" y2="0.5"/><line class="cls-9" x1="32.28" y1="-68.25" x2="32.28" y2="0.5"/><line class="cls-10" x1="36.89" y1="-65" x2="36.89" y2="0.5"/><line class="cls-11" x1="41.5" y1="-68.25" x2="41.5" y2="0.5"/><line class="cls-2" x1="83" y1="-65" x2="83" y2="0.5"/><line class="cls-3" x1="78.39" y1="-68.25" x2="78.39" y2="0.5"/><line class="cls-4" x1="73.78" y1="-65" x2="73.78" y2="0.5"/><line class="cls-5" x1="69.17" y1="-68.25" x2="69.17" y2="0.5"/><line class="cls-6" x1="64.55" y1="-65" x2="64.55" y2="0.5"/><line class="cls-7" x1="59.94" y1="-68.25" x2="59.94" y2="0.5"/><line class="cls-8" x1="55.33" y1="-65" x2="55.33" y2="0.5"/><line class="cls-9" x1="50.72" y1="-68.25" x2="50.72" y2="0.5"/><line class="cls-10" x1="46.11" y1="-65" x2="46.11" y2="0.5"/><line class="cls-2" y1="-65" y2="0.5"/></pattern><pattern id="起伏的細點-9" data-name="起伏的細點" width="83" height="65" patternTransform="translate(124.9 107.16)" patternUnits="userSpaceOnUse" viewBox="0 0 83 65"><rect class="cls-1" width="83" height="65"/><line class="cls-2" x1="83" y1="65" x2="83" y2="130.5"/><line class="cls-2" y1="65" y2="130.5"/><line class="cls-3" x1="4.61" y1="61.75" x2="4.61" y2="130.5"/><line class="cls-4" x1="9.22" y1="65" x2="9.22" y2="130.5"/><line class="cls-5" x1="13.83" y1="61.75" x2="13.83" y2="130.5"/><line class="cls-6" x1="18.45" y1="65" x2="18.45" y2="130.5"/><line class="cls-7" x1="23.06" y1="61.75" x2="23.06" y2="130.5"/><line class="cls-8" x1="27.67" y1="65" x2="27.67" y2="130.5"/><line class="cls-9" x1="32.28" y1="61.75" x2="32.28" y2="130.5"/><line class="cls-10" x1="36.89" y1="65" x2="36.89" y2="130.5"/><line class="cls-11" x1="41.5" y1="61.75" x2="41.5" y2="130.5"/><line class="cls-2" x1="83" y1="65" x2="83" y2="130.5"/><line class="cls-3" x1="78.39" y1="61.75" x2="78.39" y2="130.5"/><line class="cls-4" x1="73.78" y1="65" x2="73.78" y2="130.5"/><line class="cls-5" x1="69.17" y1="61.75" x2="69.17" y2="130.5"/><line class="cls-6" x1="64.55" y1="65" x2="64.55" y2="130.5"/><line class="cls-7" x1="59.94" y1="61.75" x2="59.94" y2="130.5"/><line class="cls-8" x1="55.33" y1="65" x2="55.33" y2="130.5"/><line class="cls-9" x1="50.72" y1="61.75" x2="50.72" y2="130.5"/><line class="cls-10" x1="46.11" y1="65" x2="46.11" y2="130.5"/><line class="cls-2" y1="65" y2="130.5"/><line class="cls-2" x1="83" x2="83" y2="65.5"/><line class="cls-2" y2="65.5"/><line class="cls-3" x1="4.61" y1="-3.25" x2="4.61" y2="65.5"/><line class="cls-4" x1="9.22" x2="9.22" y2="65.5"/><line class="cls-5" x1="13.83" y1="-3.25" x2="13.83" y2="65.5"/><line class="cls-6" x1="18.45" x2="18.45" y2="65.5"/><line class="cls-7" x1="23.06" y1="-3.25" x2="23.06" y2="65.5"/><line class="cls-8" x1="27.67" x2="27.67" y2="65.5"/><line class="cls-9" x1="32.28" y1="-3.25" x2="32.28" y2="65.5"/><line class="cls-10" x1="36.89" x2="36.89" y2="65.5"/><line class="cls-11" x1="41.5" y1="-3.25" x2="41.5" y2="65.5"/><line class="cls-2" x1="83" x2="83" y2="65.5"/><line class="cls-3" x1="78.39" y1="-3.25" x2="78.39" y2="65.5"/><line class="cls-4" x1="73.78" x2="73.78" y2="65.5"/><line class="cls-5" x1="69.17" y1="-3.25" x2="69.17" y2="65.5"/><line class="cls-6" x1="64.55" x2="64.55" y2="65.5"/><line class="cls-7" x1="59.94" y1="-3.25" x2="59.94" y2="65.5"/><line class="cls-8" x1="55.33" x2="55.33" y2="65.5"/><line class="cls-9" x1="50.72" y1="-3.25" x2="50.72" y2="65.5"/><line class="cls-10" x1="46.11" x2="46.11" y2="65.5"/><line class="cls-2" y2="65.5"/><line class="cls-2" x1="83" y1="-65" x2="83" y2="0.5"/><line class="cls-2" y1="-65" y2="0.5"/><line class="cls-3" x1="4.61" y1="-68.25" x2="4.61" y2="0.5"/><line class="cls-4" x1="9.22" y1="-65" x2="9.22" y2="0.5"/><line class="cls-5" x1="13.83" y1="-68.25" x2="13.83" y2="0.5"/><line class="cls-6" x1="18.45" y1="-65" x2="18.45" y2="0.5"/><line class="cls-7" x1="23.06" y1="-68.25" x2="23.06" y2="0.5"/><line class="cls-8" x1="27.67" y1="-65" x2="27.67" y2="0.5"/><line class="cls-9" x1="32.28" y1="-68.25" x2="32.28" y2="0.5"/><line class="cls-10" x1="36.89" y1="-65" x2="36.89" y2="0.5"/><line class="cls-11" x1="41.5" y1="-68.25" x2="41.5" y2="0.5"/><line class="cls-2" x1="83" y1="-65" x2="83" y2="0.5"/><line class="cls-3" x1="78.39" y1="-68.25" x2="78.39" y2="0.5"/><line class="cls-4" x1="73.78" y1="-65" x2="73.78" y2="0.5"/><line class="cls-5" x1="69.17" y1="-68.25" x2="69.17" y2="0.5"/><line class="cls-6" x1="64.55" y1="-65" x2="64.55" y2="0.5"/><line class="cls-7" x1="59.94" y1="-68.25" x2="59.94" y2="0.5"/><line class="cls-8" x1="55.33" y1="-65" x2="55.33" y2="0.5"/><line class="cls-9" x1="50.72" y1="-68.25" x2="50.72" y2="0.5"/><line class="cls-10" x1="46.11" y1="-65" x2="46.11" y2="0.5"/><line class="cls-2" y1="-65" y2="0.5"/></pattern></defs><polygon class="cls-12" points="212.3 23.93 163.59 0 83.34 11.54 66.45 54.34 26.44 47.02 0 153.45 37.17 190.62 0 239.04 0 364.06 41.67 396.72 13.52 438.39 67.57 475.55 113.75 451.9 149.79 475.55 248.9 475.55 308.03 445.15 357.86 475.55 399.25 462.6 416.14 412.77 388.27 370.53 416.14 327.45 416.14 185.55 376.44 136.56 416.14 103.61 416.14 36.88 378.13 12.39 341.81 34.35 324.36 10.42 246.65 5.35 212.3 23.93"/><path class="cls-13" d="M254,149.41h19.9a16.14,16.14,0,0,1,16.14,16.14v0a16.14,16.14,0,0,1-16.14,16.14H254a0,0,0,0,1,0,0V149.41A0,0,0,0,1,254,149.41Z"/><path class="cls-13" d="M268.49,137v32.31a50.19,50.19,0,0,1-50.19,50.19H192.55a47,47,0,0,1-47-47V137.5"/><path class="cls-13" d="M151.15,149.41h-8.94a16.14,16.14,0,0,0-16.14,16.14h0a16.14,16.14,0,0,0,16.14,16.14h10.06"/><path class="cls-13" d="M213.21,187.51a6.17,6.17,0,0,1-12.34,0"/><line class="cls-13" x1="139.25" y1="165.55" x2="152.58" y2="165.55"/><line class="cls-13" x1="270.64" y1="165.55" x2="280.22" y2="165.55"/><path class="cls-14" d="M285.28,154.08V138.91A52.93,52.93,0,0,0,232.35,86H189.27a51.53,51.53,0,0,0-51.52,51.53h0v11.91"/><path class="cls-12" d="M190.62,186.24a12.79,12.79,0,0,1-12.77-12.77V157.63a12.78,12.78,0,0,1,25.55,0v15.84A12.79,12.79,0,0,1,190.62,186.24Z"/><path class="cls-15" d="M190.62,146.23A11.4,11.4,0,0,1,202,157.63v15.84a11.41,11.41,0,0,1-22.81,0V157.63a11.4,11.4,0,0,1,11.4-11.4m0-2.74a14.15,14.15,0,0,0-14.13,14.14v15.84a14.14,14.14,0,1,0,28.27,0V157.63a14.15,14.15,0,0,0-14.14-14.14Z"/><path class="cls-15" d="M190.62,186.24a12.44,12.44,0,0,1-2.4-.24l-1-.76a12.75,12.75,0,0,1-1.21-5.41V164a12.79,12.79,0,0,1,12.77-12.77,12.46,12.46,0,0,1,2.41.24l1,.76a12.61,12.61,0,0,1,1.22,5.41v15.84A12.79,12.79,0,0,1,190.62,186.24Z"/><path class="cls-15" d="M198.79,152.59a11.61,11.61,0,0,1,2.15.21,11.32,11.32,0,0,1,1.09,4.83v15.84a11.4,11.4,0,0,1-11.41,11.4,11.78,11.78,0,0,1-2.15-.21,11.32,11.32,0,0,1-1.08-4.83V164a11.4,11.4,0,0,1,11.4-11.4m0-2.74A14.16,14.16,0,0,0,184.65,164v15.84a14,14,0,0,0,1.34,6l2,1.53a14.1,14.1,0,0,0,16.8-13.88V157.63a14,14,0,0,0-1.34-6l-2-1.53a14.45,14.45,0,0,0-2.67-.26Z"/><path class="cls-12" d="M223.46,186.24a12.79,12.79,0,0,1-12.78-12.77V157.63a12.78,12.78,0,0,1,25.55,0v15.84A12.79,12.79,0,0,1,223.46,186.24Z"/><path class="cls-15" d="M223.46,146.23a11.4,11.4,0,0,1,11.4,11.4v15.84a11.41,11.41,0,0,1-22.81,0V157.63a11.4,11.4,0,0,1,11.41-11.4m0-2.74a14.15,14.15,0,0,0-14.14,14.14v15.84a14.14,14.14,0,1,0,28.27,0V157.63a14.15,14.15,0,0,0-14.13-14.14Z"/><path class="cls-15" d="M223.46,186.24A12.64,12.64,0,0,1,221,186l-1-.76a12.75,12.75,0,0,1-1.21-5.41V164a12.79,12.79,0,0,1,12.77-12.77,12.46,12.46,0,0,1,2.41.24l1,.76a12.61,12.61,0,0,1,1.22,5.41v15.84A12.79,12.79,0,0,1,223.46,186.24Z"/><path class="cls-15" d="M231.62,152.59a11.61,11.61,0,0,1,2.15.21,11.32,11.32,0,0,1,1.09,4.83v15.84a11.4,11.4,0,0,1-11.4,11.4,11.8,11.8,0,0,1-2.16-.21,11.32,11.32,0,0,1-1.08-4.83V164a11.4,11.4,0,0,1,11.4-11.4m0-2.74A14.16,14.16,0,0,0,217.48,164v15.84a13.87,13.87,0,0,0,1.35,6l2,1.53a14.1,14.1,0,0,0,16.8-13.88V157.63a14,14,0,0,0-1.34-6l-2-1.53a14.45,14.45,0,0,0-2.67-.26Z"/><path class="cls-14" d="M267.26,118.54l3.05,12a5.56,5.56,0,0,1-5.39,6.91H252.59a20.23,20.23,0,0,1-17.23-9.65A24.18,24.18,0,0,1,216,137.5H161.4"/><polyline class="cls-14" points="283.85 178.28 280.22 252.37 234.86 252.37 238.43 215.33"/><polyline class="cls-14" points="139.21 181.69 149.39 252.37 196.13 252.37 193.03 219.53"/><line class="cls-13" x1="164.5" y1="120.03" x2="177.17" y2="137.03"/><line class="cls-13" x1="172.89" y1="120.03" x2="185.56" y2="137.03"/><polyline class="cls-13" points="251.5 252.37 258.19 201.88 258.53 199.36"/><line class="cls-13" x1="169.89" y1="215.21" x2="176.22" y2="252.37"/><circle class="cls-13" cx="272.31" cy="182.89" r="4.62"/><circle class="cls-13" cx="150.27" cy="182.89" r="4.62"/><rect class="cls-13" x="193.15" y="219.52" width="27.79" height="29.29"/><path class="cls-13" d="M188.07,235.33h40.54a43.92,43.92,0,0,1,43.92,43.92v0a0,0,0,0,1,0,0H144.14a0,0,0,0,1,0,0v0A43.92,43.92,0,0,1,188.07,235.33Z"/><path class="cls-13" d="M230.73,235.39c-.7,0-1.41-.06-2.12-.06H188.07q-1.06,0-2.13.06a23.65,23.65,0,0,0,44.79,0Z"/><rect class="cls-12" x="200.87" y="227.11" width="17.43" height="11.83"/><line class="cls-13" x1="239.67" y1="185.74" x2="236.67" y2="189.31"/><line class="cls-13" x1="244.2" y1="185.74" x2="241.2" y2="189.31"/><line class="cls-13" x1="172.29" y1="185.74" x2="169.29" y2="189.31"/><line class="cls-13" x1="176.82" y1="185.74" x2="173.82" y2="189.31"/><rect class="cls-13" x="180.97" y="270.96" width="11.83" height="11.83" rx="5.91"/><path class="cls-13" d="M177.68,266.45h0a7.41,7.41,0,0,0-5.42,2.37,7.38,7.38,0,0,0-10.84,0,7.38,7.38,0,0,0-10.84,0,7.38,7.38,0,0,0-5.42-2.37h0a7.42,7.42,0,0,0-7.41,7.42v6a7.42,7.42,0,0,0,7.41,7.42h0a7.38,7.38,0,0,0,5.42-2.37,7.38,7.38,0,0,0,10.84,0,7.38,7.38,0,0,0,10.84,0,7.41,7.41,0,0,0,5.42,2.37h0a7.42,7.42,0,0,0,7.42-7.42v-6A7.42,7.42,0,0,0,177.68,266.45Z"/><line class="cls-13" x1="150.27" y1="276.87" x2="150.27" y2="284.92"/><line class="cls-13" x1="161.42" y1="276.87" x2="161.42" y2="284.92"/><line class="cls-13" x1="172.58" y1="276.87" x2="172.58" y2="284.92"/><rect class="cls-13" x="229.17" y="270.96" width="11.83" height="11.83" rx="5.91" transform="translate(470.16 553.74) rotate(-180)"/><path class="cls-13" d="M244.28,266.45h0a7.41,7.41,0,0,1,5.42,2.37,7.38,7.38,0,0,1,10.84,0,7.38,7.38,0,0,1,10.84,0,7.38,7.38,0,0,1,5.42-2.37h0a7.42,7.42,0,0,1,7.41,7.42v6a7.42,7.42,0,0,1-7.41,7.42h0a7.38,7.38,0,0,1-5.42-2.37,7.38,7.38,0,0,1-10.84,0,7.38,7.38,0,0,1-10.84,0,7.41,7.41,0,0,1-5.42,2.37h0a7.42,7.42,0,0,1-7.42-7.42v-6A7.42,7.42,0,0,1,244.28,266.45Z"/><line class="cls-13" x1="271.69" y1="276.87" x2="271.69" y2="284.92"/><line class="cls-13" x1="260.54" y1="276.87" x2="260.54" y2="284.92"/><line class="cls-13" x1="249.38" y1="276.87" x2="249.38" y2="284.92"/><path d="M143.88,317c-.38-.79-.95-1.77-1.55-2.75v11.09h-3.87v-9.51a20.15,20.15,0,0,1-2.89,5.15,24,24,0,0,0-1.93-3.9,23,23,0,0,0,4.27-8.34h-3.48V305h4v-5.56h3.87V305h3.41v3.73h-3.41v.38c.84.79,3.41,3.76,4,4.45Zm11.53-8.26a29.49,29.49,0,0,0,4.71,9.13,14.47,14.47,0,0,0-2.94,3,27.44,27.44,0,0,1-2.53-5.12v9.54h-4V315.4a23.14,23.14,0,0,1-4.23,6.29,18.75,18.75,0,0,0-2.18-3.65,24.87,24.87,0,0,0,5.81-9.32h-3.68V305h4.28v-5.56h4V305h4.63v3.73Z"/><path d="M169.72,305h-4.66v-3.54h4.66v-2h3.93v2H177V305h-3.32v2.45h-3.93Zm10.41,15.86h9.38v3.57H165.09v-3.57h3.32V310.68h3.9v10.14h3.6V307.47h4.22V312h7.06v3.52h-7.06Zm9.49-19.4V305h-4.31v2.45h-3.92V305h-3.57v-3.54h3.57v-2h3.92v2Z"/><path d="M204.53,320.14c-3.14.93-6.57,1.88-9.27,2.62l-.68-3.76c.93-.2,2-.47,3.24-.77v-5.91h-2.56v-3.63h2.56v-4.17H195.1v-3.65h9v3.65h-2.78v4.17h2.4v3.63h-2.4v5l2.75-.73Zm16.3,1v3.46H203.66v-3.46Zm-14-13.74h-2.29v-5.12h6c-.22-.71-.47-1.47-.74-2.13l3.32-1a18.28,18.28,0,0,1,1.18,3.11h5.88v5.12H217.5v2H206.87Zm-.87,2.86h12.24v9.9H206Zm2.07-4.93v1.23h8.5v-1.23Zm1.47,8.61h5v-1h-5Zm0,3.52h5v-1h-5Z"/><path d="M227,314.09a26.33,26.33,0,0,1,4.11-14.25l3,1.25a27.63,27.63,0,0,0,0,26l-3,1.25A26.28,26.28,0,0,1,227,314.09Z"/><path d="M238.49,320c5.07-4.61,8.48-8.29,8.48-11.23a2.53,2.53,0,0,0-2.65-2.86,4.85,4.85,0,0,0-3.43,2l-2.64-2.62A8.47,8.47,0,0,1,245,302.1c3.92,0,6.65,2.51,6.65,6.38,0,3.48-3,7.33-6.11,10.46a28,28,0,0,1,3.3-.27h3.73v4.09H238.49Z"/><path d="M256.23,320.3l2.24-3.05a6.19,6.19,0,0,0,4.22,2c1.88,0,3.11-.79,3.11-2.31,0-1.75-.93-2.78-5.18-2.78v-3.41c3.46,0,4.55-1.06,4.55-2.67,0-1.39-.81-2.15-2.31-2.15a5.37,5.37,0,0,0-3.63,1.69l-2.45-3a9.54,9.54,0,0,1,6.3-2.51c4.19,0,6.94,2,6.94,5.59a4.64,4.64,0,0,1-3.27,4.46v.14a5,5,0,0,1,3.93,4.93c0,3.79-3.46,5.92-7.5,5.92A8.72,8.72,0,0,1,256.23,320.3Z"/><path d="M275.37,327.09a27.7,27.7,0,0,0,0-26l3-1.25a26.7,26.7,0,0,1,0,28.5Z"/><path class="cls-16" d="M331.85,102.78c-8.31,2.46-12.3,6.44-14.76,14.76a3.52,3.52,0,0,1-6.72,0c-2.46-8.32-6.45-12.3-14.76-14.76a3.51,3.51,0,0,1,0-6.72c8.31-2.46,12.3-6.45,14.76-14.77a3.52,3.52,0,0,1,6.72,0c2.46,8.32,6.45,12.31,14.76,14.77A3.51,3.51,0,0,1,331.85,102.78Z"/><path class="cls-16" d="M113.49,222.89c-8.31,2.46-12.3,6.44-14.76,14.76a3.51,3.51,0,0,1-6.72,0c-2.46-8.32-6.45-12.3-14.76-14.76a3.51,3.51,0,0,1,0-6.72c8.31-2.46,12.3-6.45,14.76-14.76a3.51,3.51,0,0,1,6.72,0c2.46,8.31,6.45,12.3,14.76,14.76A3.51,3.51,0,0,1,113.49,222.89Z"/><circle class="cls-16" cx="336.9" cy="126.06" r="7.52"/><circle class="cls-16" cx="71.73" cy="243.39" r="7.52"/><path class="cls-17" d="M309.49,230.26s7.05-41,48.82-39.8"/><path class="cls-17" d="M75.34,99.42S94.65,98.61,99.07,120"/><circle class="cls-15" cx="101.59" cy="142.84" r="7.81"/><circle class="cls-15" cx="109.4" cy="276.87" r="7.81"/><circle class="cls-15" cx="305.92" cy="252.37" r="7.81"/><rect class="cls-15" x="71.73" y="342.88" width="272.69" height="61.74" rx="30.87"/><circle class="cls-18" cx="110.07" cy="373.1" r="19.84"/><path d="M107.51,376.52H103.1l-.85,3.42H98.6l4.63-14.88h4.28l4.62,14.88h-3.76Zm-.68-2.76-.32-1.26c-.4-1.48-.78-3.26-1.18-4.78h-.08c-.36,1.56-.76,3.3-1.14,4.78l-.32,1.26Z"/><path d="M115.28,365.06h3.59v14.88h-3.59Z"/><circle class="cls-18" cx="159.07" cy="373.1" r="19.84"/><path d="M146.45,365.06h5.22c3.28,0,6,1.16,6,4.84s-2.74,5.1-5.88,5.1H150v4.94h-3.58Zm5.14,7.12c1.74,0,2.58-.82,2.58-2.28s-1-2-2.68-2H150v4.3Z"/><path d="M160.61,378.08l2-2.46a6,6,0,0,0,3.62,1.52c1.32,0,1.94-.5,1.94-1.3s-.82-1.14-2.1-1.68l-1.9-.8a4.36,4.36,0,0,1-3-4.08c0-2.5,2.24-4.5,5.4-4.5a6.92,6.92,0,0,1,4.84,2L169.63,369a4.84,4.84,0,0,0-3.06-1.14c-1.1,0-1.78.44-1.78,1.24s.94,1.14,2.26,1.66l1.86.74a4.11,4.11,0,0,1,2.94,4.08c0,2.48-2.08,4.66-5.68,4.66A8.33,8.33,0,0,1,160.61,378.08Z"/><circle class="cls-18" cx="208.07" cy="373.1" r="19.84"/><path d="M202.71,376.52h-4.4l-.86,3.42h-3.64l4.62-14.88h4.28l4.62,14.88h-3.76Zm-.68-2.76-.32-1.26c-.4-1.48-.78-3.26-1.18-4.78h-.08c-.36,1.56-.76,3.3-1.14,4.78l-.32,1.26Z"/><path d="M210.49,365.06h9.44v3h-5.86v2.76h5v3h-5v3.16h6.08v3h-9.66Z"/><circle class="cls-18" cx="257.08" cy="373.1" r="19.84"/><path d="M243.58,372.42c0-3.72,2.49-5.85,5.32-5.85a4.74,4.74,0,0,1,3.39,1.46l-1.41,1.71a2.76,2.76,0,0,0-1.93-.87c-1.44,0-2.63,1.29-2.63,3.46s1,3.51,2.6,3.51a2.92,2.92,0,0,0,2.13-1l1.41,1.68a4.64,4.64,0,0,1-3.65,1.65C246,378.15,243.58,376.2,243.58,372.42Z"/><path d="M252.59,376.55l1.52-1.85a4.47,4.47,0,0,0,2.71,1.14c1,0,1.46-.37,1.46-1s-.62-.86-1.58-1.26l-1.42-.6A3.28,3.28,0,0,1,253,370c0-1.88,1.68-3.38,4.05-3.38a5.21,5.21,0,0,1,3.63,1.47l-1.33,1.68a3.68,3.68,0,0,0-2.3-.85c-.82,0-1.33.33-1.33.93s.7.85,1.69,1.24l1.4.56a3.07,3.07,0,0,1,2.2,3.06c0,1.86-1.56,3.49-4.26,3.49A6.28,6.28,0,0,1,252.59,376.55Z"/><path d="M261.55,376.55l1.51-1.85a4.5,4.5,0,0,0,2.72,1.14c1,0,1.45-.37,1.45-1s-.61-.86-1.57-1.26l-1.43-.6A3.27,3.27,0,0,1,262,370c0-1.88,1.68-3.38,4-3.38a5.22,5.22,0,0,1,3.63,1.47l-1.34,1.68a3.63,3.63,0,0,0-2.29-.85c-.83,0-1.34.33-1.34.93s.71.85,1.7,1.24l1.39.56a3.08,3.08,0,0,1,2.21,3.06c0,1.86-1.56,3.49-4.26,3.49A6.25,6.25,0,0,1,261.55,376.55Z"/><circle class="cls-18" cx="306.08" cy="373.1" r="19.84"/><path d="M290.74,368h2.15v3.39h2.94V368H298v8.92h-2.12v-3.67h-2.94v3.67h-2.15Z"/><path d="M301.52,369.79H299.1V368h7v1.77h-2.42v7.15h-2.14Z"/><path d="M307.23,368h2.31l1.42,3.85c.18.51.32,1.08.49,1.63h.06c.18-.55.32-1.12.49-1.63l1.37-3.85h2.32v8.92h-1.95v-3.06a28.84,28.84,0,0,1,.28-3.09h0l-.74,2.13L312,376.18h-1.17l-1.21-3.26-.72-2.13h-.05a28.84,28.84,0,0,1,.28,3.09v3.06h-1.92Z"/><path d="M317.51,368h2.15v7.12h3.47v1.8h-5.62Z"/><path class="cls-19" d="M238.69,215.21l-2.19,20.12,16.44,6.14,5.59-42.11S248.35,212.05,238.69,215.21Z"/><path class="cls-19" d="M169.89,213.7l3.84,24,19.42-3.57V219.52S178.57,219.87,169.89,213.7Z"/></svg>