<svg id="圖層_1" data-name="圖層 1" xmlns="http://www.w3.org/2000/svg" xmlns:xlink="http://www.w3.org/1999/xlink" viewBox="0 0 504.55 192.09"><defs><style>.cls-1,.cls-10,.cls-11,.cls-17,.cls-18,.cls-2,.cls-20,.cls-21,.cls-3,.cls-4,.cls-5,.cls-6,.cls-7,.cls-8,.cls-9{fill:none;}.cls-10,.cls-11,.cls-15,.cls-16,.cls-17,.cls-18,.cls-2,.cls-20,.cls-21,.cls-23,.cls-3,.cls-4,.cls-5,.cls-6,.cls-7,.cls-8,.cls-9{stroke:#211815;stroke-linecap:round;}.cls-2{stroke-width:3.5px;}.cls-10,.cls-11,.cls-2,.cls-3,.cls-4,.cls-5,.cls-6,.cls-7,.cls-8,.cls-9{stroke-dasharray:0 6.5;}.cls-3{stroke-width:3.25px;}.cls-4{stroke-width:3px;}.cls-5{stroke-width:2.75px;}.cls-6{stroke-width:2.5px;}.cls-7{stroke-width:2.25px;}.cls-8{stroke-width:2px;}.cls-9{stroke-width:1.75px;}.cls-10{stroke-width:1.5px;}.cls-11{stroke-width:1.25px;}.cls-12{fill:#211815;}.cls-13,.cls-15,.cls-16,.cls-23{fill:#fff;}.cls-14{fill:url(#起伏的細點);}.cls-15,.cls-16,.cls-17,.cls-18,.cls-20,.cls-21,.cls-23{stroke-linejoin:bevel;}.cls-15{stroke-width:2.68px;}.cls-16,.cls-17{stroke-width:2.74px;}.cls-18{stroke-width:2.83px;}.cls-19{fill:url(#起伏的細點-3);}.cls-20{stroke-width:2.77px;}.cls-21{stroke-width:2.89px;}.cls-22{fill:url(#起伏的細點-5);}.cls-23{stroke-width:2.57px;}</style><pattern id="起伏的細點" data-name="起伏的細點" width="83" height="65" patternTransform="translate(216.44 107.16)" patternUnits="userSpaceOnUse" viewBox="0 0 83 65"><rect class="cls-1" width="83" height="65"/><line class="cls-2" x1="83" y1="65" x2="83" y2="130.5"/><line class="cls-2" y1="65" y2="130.5"/><line class="cls-3" x1="4.61" y1="61.75" x2="4.61" y2="130.5"/><line class="cls-4" x1="9.22" y1="65" x2="9.22" y2="130.5"/><line class="cls-5" x1="13.83" y1="61.75" x2="13.83" y2="130.5"/><line class="cls-6" x1="18.45" y1="65" x2="18.45" y2="130.5"/><line class="cls-7" x1="23.06" y1="61.75" x2="23.06" y2="130.5"/><line class="cls-8" x1="27.67" y1="65" x2="27.67" y2="130.5"/><line class="cls-9" x1="32.28" y1="61.75" x2="32.28" y2="130.5"/><line class="cls-10" x1="36.89" y1="65" x2="36.89" y2="130.5"/><line class="cls-11" x1="41.5" y1="61.75" x2="41.5" y2="130.5"/><line class="cls-2" x1="83" y1="65" x2="83" y2="130.5"/><line class="cls-3" x1="78.39" y1="61.75" x2="78.39" y2="130.5"/><line class="cls-4" x1="73.78" y1="65" x2="73.78" y2="130.5"/><line class="cls-5" x1="69.17" y1="61.75" x2="69.17" y2="130.5"/><line class="cls-6" x1="64.55" y1="65" x2="64.55" y2="130.5"/><line class="cls-7" x1="59.94" y1="61.75" x2="59.94" y2="130.5"/><line class="cls-8" x1="55.33" y1="65" x2="55.33" y2="130.5"/><line class="cls-9" x1="50.72" y1="61.75" x2="50.72" y2="130.5"/><line class="cls-10" x1="46.11" y1="65" x2="46.11" y2="130.5"/><line class="cls-2" y1="65" y2="130.5"/><line class="cls-2" x1="83" x2="83" y2="65.5"/><line class="cls-2" y2="65.5"/><line class="cls-3" x1="4.61" y1="-3.25" x2="4.61" y2="65.5"/><line class="cls-4" x1="9.22" x2="9.22" y2="65.5"/><line class="cls-5" x1="13.83" y1="-3.25" x2="13.83" y2="65.5"/><line class="cls-6" x1="18.45" x2="18.45" y2="65.5"/><line class="cls-7" x1="23.06" y1="-3.25" x2="23.06" y2="65.5"/><line class="cls-8" x1="27.67" x2="27.67" y2="65.5"/><line class="cls-9" x1="32.28" y1="-3.25" x2="32.28" y2="65.5"/><line class="cls-10" x1="36.89" x2="36.89" y2="65.5"/><line class="cls-11" x1="41.5" y1="-3.25" x2="41.5" y2="65.5"/><line class="cls-2" x1="83" x2="83" y2="65.5"/><line class="cls-3" x1="78.39" y1="-3.25" x2="78.39" y2="65.5"/><line class="cls-4" x1="73.78" x2="73.78" y2="65.5"/><line class="cls-5" x1="69.17" y1="-3.25" x2="69.17" y2="65.5"/><line class="cls-6" x1="64.55" x2="64.55" y2="65.5"/><line class="cls-7" x1="59.94" y1="-3.25" x2="59.94" y2="65.5"/><line class="cls-8" x1="55.33" x2="55.33" y2="65.5"/><line class="cls-9" x1="50.72" y1="-3.25" x2="50.72" y2="65.5"/><line class="cls-10" x1="46.11" x2="46.11" y2="65.5"/><line class="cls-2" y2="65.5"/><line class="cls-2" x1="83" y1="-65" x2="83" y2="0.5"/><line class="cls-2" y1="-65" y2="0.5"/><line class="cls-3" x1="4.61" y1="-68.25" x2="4.61" y2="0.5"/><line class="cls-4" x1="9.22" y1="-65" x2="9.22" y2="0.5"/><line class="cls-5" x1="13.83" y1="-68.25" x2="13.83" y2="0.5"/><line class="cls-6" x1="18.45" y1="-65" x2="18.45" y2="0.5"/><line class="cls-7" x1="23.06" y1="-68.25" x2="23.06" y2="0.5"/><line class="cls-8" x1="27.67" y1="-65" x2="27.67" y2="0.5"/><line class="cls-9" x1="32.28" y1="-68.25" x2="32.28" y2="0.5"/><line class="cls-10" x1="36.89" y1="-65" x2="36.89" y2="0.5"/><line class="cls-11" x1="41.5" y1="-68.25" x2="41.5" y2="0.5"/><line class="cls-2" x1="83" y1="-65" x2="83" y2="0.5"/><line class="cls-3" x1="78.39" y1="-68.25" x2="78.39" y2="0.5"/><line class="cls-4" x1="73.78" y1="-65" x2="73.78" y2="0.5"/><line class="cls-5" x1="69.17" y1="-68.25" x2="69.17" y2="0.5"/><line class="cls-6" x1="64.55" y1="-65" x2="64.55" y2="0.5"/><line class="cls-7" x1="59.94" y1="-68.25" x2="59.94" y2="0.5"/><line class="cls-8" x1="55.33" y1="-65" x2="55.33" y2="0.5"/><line class="cls-9" x1="50.72" y1="-68.25" x2="50.72" y2="0.5"/><line class="cls-10" x1="46.11" y1="-65" x2="46.11" y2="0.5"/><line class="cls-2" y1="-65" y2="0.5"/></pattern><pattern id="起伏的細點-3" data-name="起伏的細點" width="83" height="65" patternTransform="translate(219.44 107.16)" patternUnits="userSpaceOnUse" viewBox="0 0 83 65"><rect class="cls-1" width="83" height="65"/><line class="cls-2" x1="83" y1="65" x2="83" y2="130.5"/><line class="cls-2" y1="65" y2="130.5"/><line class="cls-3" x1="4.61" y1="61.75" x2="4.61" y2="130.5"/><line class="cls-4" x1="9.22" y1="65" x2="9.22" y2="130.5"/><line class="cls-5" x1="13.83" y1="61.75" x2="13.83" y2="130.5"/><line class="cls-6" x1="18.45" y1="65" x2="18.45" y2="130.5"/><line class="cls-7" x1="23.06" y1="61.75" x2="23.06" y2="130.5"/><line class="cls-8" x1="27.67" y1="65" x2="27.67" y2="130.5"/><line class="cls-9" x1="32.28" y1="61.75" x2="32.28" y2="130.5"/><line class="cls-10" x1="36.89" y1="65" x2="36.89" y2="130.5"/><line class="cls-11" x1="41.5" y1="61.75" x2="41.5" y2="130.5"/><line class="cls-2" x1="83" y1="65" x2="83" y2="130.5"/><line class="cls-3" x1="78.39" y1="61.75" x2="78.39" y2="130.5"/><line class="cls-4" x1="73.78" y1="65" x2="73.78" y2="130.5"/><line class="cls-5" x1="69.17" y1="61.75" x2="69.17" y2="130.5"/><line class="cls-6" x1="64.55" y1="65" x2="64.55" y2="130.5"/><line class="cls-7" x1="59.94" y1="61.75" x2="59.94" y2="130.5"/><line class="cls-8" x1="55.33" y1="65" x2="55.33" y2="130.5"/><line class="cls-9" x1="50.72" y1="61.75" x2="50.72" y2="130.5"/><line class="cls-10" x1="46.11" y1="65" x2="46.11" y2="130.5"/><line class="cls-2" y1="65" y2="130.5"/><line class="cls-2" x1="83" x2="83" y2="65.5"/><line class="cls-2" y2="65.5"/><line class="cls-3" x1="4.61" y1="-3.25" x2="4.61" y2="65.5"/><line class="cls-4" x1="9.22" x2="9.22" y2="65.5"/><line class="cls-5" x1="13.83" y1="-3.25" x2="13.83" y2="65.5"/><line class="cls-6" x1="18.45" x2="18.45" y2="65.5"/><line class="cls-7" x1="23.06" y1="-3.25" x2="23.06" y2="65.5"/><line class="cls-8" x1="27.67" x2="27.67" y2="65.5"/><line class="cls-9" x1="32.28" y1="-3.25" x2="32.28" y2="65.5"/><line class="cls-10" x1="36.89" x2="36.89" y2="65.5"/><line class="cls-11" x1="41.5" y1="-3.25" x2="41.5" y2="65.5"/><line class="cls-2" x1="83" x2="83" y2="65.5"/><line class="cls-3" x1="78.39" y1="-3.25" x2="78.39" y2="65.5"/><line class="cls-4" x1="73.78" x2="73.78" y2="65.5"/><line class="cls-5" x1="69.17" y1="-3.25" x2="69.17" y2="65.5"/><line class="cls-6" x1="64.55" x2="64.55" y2="65.5"/><line class="cls-7" x1="59.94" y1="-3.25" x2="59.94" y2="65.5"/><line class="cls-8" x1="55.33" x2="55.33" y2="65.5"/><line class="cls-9" x1="50.72" y1="-3.25" x2="50.72" y2="65.5"/><line class="cls-10" x1="46.11" x2="46.11" y2="65.5"/><line class="cls-2" y2="65.5"/><line class="cls-2" x1="83" y1="-65" x2="83" y2="0.5"/><line class="cls-2" y1="-65" y2="0.5"/><line class="cls-3" x1="4.61" y1="-68.25" x2="4.61" y2="0.5"/><line class="cls-4" x1="9.22" y1="-65" x2="9.22" y2="0.5"/><line class="cls-5" x1="13.83" y1="-68.25" x2="13.83" y2="0.5"/><line class="cls-6" x1="18.45" y1="-65" x2="18.45" y2="0.5"/><line class="cls-7" x1="23.06" y1="-68.25" x2="23.06" y2="0.5"/><line class="cls-8" x1="27.67" y1="-65" x2="27.67" y2="0.5"/><line class="cls-9" x1="32.28" y1="-68.25" x2="32.28" y2="0.5"/><line class="cls-10" x1="36.89" y1="-65" x2="36.89" y2="0.5"/><line class="cls-11" x1="41.5" y1="-68.25" x2="41.5" y2="0.5"/><line class="cls-2" x1="83" y1="-65" x2="83" y2="0.5"/><line class="cls-3" x1="78.39" y1="-68.25" x2="78.39" y2="0.5"/><line class="cls-4" x1="73.78" y1="-65" x2="73.78" y2="0.5"/><line class="cls-5" x1="69.17" y1="-68.25" x2="69.17" y2="0.5"/><line class="cls-6" x1="64.55" y1="-65" x2="64.55" y2="0.5"/><line class="cls-7" x1="59.94" y1="-68.25" x2="59.94" y2="0.5"/><line class="cls-8" x1="55.33" y1="-65" x2="55.33" y2="0.5"/><line class="cls-9" x1="50.72" y1="-68.25" x2="50.72" y2="0.5"/><line class="cls-10" x1="46.11" y1="-65" x2="46.11" y2="0.5"/><line class="cls-2" y1="-65" y2="0.5"/></pattern><pattern id="起伏的細點-5" data-name="起伏的細點" width="83" height="65" patternTransform="translate(222.44 107.16)" patternUnits="userSpaceOnUse" viewBox="0 0 83 65"><rect class="cls-1" width="83" height="65"/><line class="cls-2" x1="83" y1="65" x2="83" y2="130.5"/><line class="cls-2" y1="65" y2="130.5"/><line class="cls-3" x1="4.61" y1="61.75" x2="4.61" y2="130.5"/><line class="cls-4" x1="9.22" y1="65" x2="9.22" y2="130.5"/><line class="cls-5" x1="13.83" y1="61.75" x2="13.83" y2="130.5"/><line class="cls-6" x1="18.45" y1="65" x2="18.45" y2="130.5"/><line class="cls-7" x1="23.06" y1="61.75" x2="23.06" y2="130.5"/><line class="cls-8" x1="27.67" y1="65" x2="27.67" y2="130.5"/><line class="cls-9" x1="32.28" y1="61.75" x2="32.28" y2="130.5"/><line class="cls-10" x1="36.89" y1="65" x2="36.89" y2="130.5"/><line class="cls-11" x1="41.5" y1="61.75" x2="41.5" y2="130.5"/><line class="cls-2" x1="83" y1="65" x2="83" y2="130.5"/><line class="cls-3" x1="78.39" y1="61.75" x2="78.39" y2="130.5"/><line class="cls-4" x1="73.78" y1="65" x2="73.78" y2="130.5"/><line class="cls-5" x1="69.17" y1="61.75" x2="69.17" y2="130.5"/><line class="cls-6" x1="64.55" y1="65" x2="64.55" y2="130.5"/><line class="cls-7" x1="59.94" y1="61.75" x2="59.94" y2="130.5"/><line class="cls-8" x1="55.33" y1="65" x2="55.33" y2="130.5"/><line class="cls-9" x1="50.72" y1="61.75" x2="50.72" y2="130.5"/><line class="cls-10" x1="46.11" y1="65" x2="46.11" y2="130.5"/><line class="cls-2" y1="65" y2="130.5"/><line class="cls-2" x1="83" x2="83" y2="65.5"/><line class="cls-2" y2="65.5"/><line class="cls-3" x1="4.61" y1="-3.25" x2="4.61" y2="65.5"/><line class="cls-4" x1="9.22" x2="9.22" y2="65.5"/><line class="cls-5" x1="13.83" y1="-3.25" x2="13.83" y2="65.5"/><line class="cls-6" x1="18.45" x2="18.45" y2="65.5"/><line class="cls-7" x1="23.06" y1="-3.25" x2="23.06" y2="65.5"/><line class="cls-8" x1="27.67" x2="27.67" y2="65.5"/><line class="cls-9" x1="32.28" y1="-3.25" x2="32.28" y2="65.5"/><line class="cls-10" x1="36.89" x2="36.89" y2="65.5"/><line class="cls-11" x1="41.5" y1="-3.25" x2="41.5" y2="65.5"/><line class="cls-2" x1="83" x2="83" y2="65.5"/><line class="cls-3" x1="78.39" y1="-3.25" x2="78.39" y2="65.5"/><line class="cls-4" x1="73.78" x2="73.78" y2="65.5"/><line class="cls-5" x1="69.17" y1="-3.25" x2="69.17" y2="65.5"/><line class="cls-6" x1="64.55" x2="64.55" y2="65.5"/><line class="cls-7" x1="59.94" y1="-3.25" x2="59.94" y2="65.5"/><line class="cls-8" x1="55.33" x2="55.33" y2="65.5"/><line class="cls-9" x1="50.72" y1="-3.25" x2="50.72" y2="65.5"/><line class="cls-10" x1="46.11" x2="46.11" y2="65.5"/><line class="cls-2" y2="65.5"/><line class="cls-2" x1="83" y1="-65" x2="83" y2="0.5"/><line class="cls-2" y1="-65" y2="0.5"/><line class="cls-3" x1="4.61" y1="-68.25" x2="4.61" y2="0.5"/><line class="cls-4" x1="9.22" y1="-65" x2="9.22" y2="0.5"/><line class="cls-5" x1="13.83" y1="-68.25" x2="13.83" y2="0.5"/><line class="cls-6" x1="18.45" y1="-65" x2="18.45" y2="0.5"/><line class="cls-7" x1="23.06" y1="-68.25" x2="23.06" y2="0.5"/><line class="cls-8" x1="27.67" y1="-65" x2="27.67" y2="0.5"/><line class="cls-9" x1="32.28" y1="-68.25" x2="32.28" y2="0.5"/><line class="cls-10" x1="36.89" y1="-65" x2="36.89" y2="0.5"/><line class="cls-11" x1="41.5" y1="-68.25" x2="41.5" y2="0.5"/><line class="cls-2" x1="83" y1="-65" x2="83" y2="0.5"/><line class="cls-3" x1="78.39" y1="-68.25" x2="78.39" y2="0.5"/><line class="cls-4" x1="73.78" y1="-65" x2="73.78" y2="0.5"/><line class="cls-5" x1="69.17" y1="-68.25" x2="69.17" y2="0.5"/><line class="cls-6" x1="64.55" y1="-65" x2="64.55" y2="0.5"/><line class="cls-7" x1="59.94" y1="-68.25" x2="59.94" y2="0.5"/><line class="cls-8" x1="55.33" y1="-65" x2="55.33" y2="0.5"/><line class="cls-9" x1="50.72" y1="-68.25" x2="50.72" y2="0.5"/><line class="cls-10" x1="46.11" y1="-65" x2="46.11" y2="0.5"/><line class="cls-2" y1="-65" y2="0.5"/></pattern></defs><path class="cls-12" d="M332.28,63.6a2,2,0,0,1-2-1.71C328.77,53,327.81,52,318.87,50.5a2,2,0,0,1,0-4c8.94-1.5,9.9-2.46,11.39-11.39a2,2,0,0,1,4,0c1.5,8.93,2.46,9.89,11.39,11.39a2,2,0,0,1,0,4C336.76,52,335.8,53,334.3,61.89A2,2,0,0,1,332.28,63.6Z"/><path class="cls-13" d="M332.28,34.49a.9.9,0,0,1,.9.76c1.59,9.46,2.87,10.74,12.33,12.32a.92.92,0,0,1,.76.91h0a.92.92,0,0,1-.76.9c-9.46,1.58-10.74,2.86-12.33,12.32a.9.9,0,0,1-.9.76.92.92,0,0,1-.9-.76c-1.58-9.46-2.86-10.74-12.32-12.32a.92.92,0,0,1-.76-.9h0a.92.92,0,0,1,.76-.91c9.46-1.58,10.74-2.86,12.32-12.32a.92.92,0,0,1,.9-.76m0-2.27a3.18,3.18,0,0,0-3.14,2.66c-1.42,8.54-1.91,9-10.45,10.46a3.18,3.18,0,0,0,0,6.27c8.54,1.43,9,1.92,10.45,10.46a3.18,3.18,0,0,0,6.28,0c1.43-8.54,1.92-9,10.46-10.46a3.18,3.18,0,0,0,0-6.27c-8.54-1.43-9-1.92-10.46-10.46a3.18,3.18,0,0,0-3.14-2.66Z"/><polygon class="cls-13" points="286.63 184.46 285.34 183.18 285.34 161.83 286.63 160.54 407.13 160.54 408.42 161.83 408.42 183.18 407.13 184.46 286.63 184.46"/><path class="cls-12" d="M407.14,161.83v21.35H286.63V161.83H407.14m0-2.57H286.63l-2.57,2.57v21.35l2.57,2.56H407.14l2.56-2.56V161.83l-2.56-2.57Z"/><path class="cls-13" d="M276.67,184.46l-1.28-1.28v-49.7l1.28-1.29a35,35,0,0,1,35,35v16l-1.28,1.28Z"/><path class="cls-12" d="M276.67,133.48a33.68,33.68,0,0,1,33.69,33.68v16H276.67v-49.7m0-2.57-2.57,2.57v49.7l2.57,2.56h33.69l2.57-2.56v-16a36.3,36.3,0,0,0-36.26-36.25Z"/><path class="cls-13" d="M374.92,184.54a24.8,24.8,0,0,1-21.42-12.36l-20-34.61a54.36,54.36,0,0,1,0-54.23,94.22,94.22,0,0,1,81.37-47h17a24.79,24.79,0,0,1,21.41,12.36l28.5,49.37a24.77,24.77,0,0,1,0,24.73l-28.5,49.36a24.77,24.77,0,0,1-21.41,12.36Z"/><path class="cls-12" d="M431.92,37.73a23.36,23.36,0,0,1,20.23,11.68l28.5,49.36a23.37,23.37,0,0,1,0,23.36l-28.5,49.37a23.38,23.38,0,0,1-20.23,11.68h-57a23.37,23.37,0,0,1-20.23-11.68l-20-34.62a52.87,52.87,0,0,1,0-52.86h0a92.61,92.61,0,0,1,80.19-46.29h17m0-2.74h-17a95.62,95.62,0,0,0-82.56,47.66,55.76,55.76,0,0,0,0,55.6l20,34.61a26.16,26.16,0,0,0,22.6,13h57a26.18,26.18,0,0,0,22.6-13L483,123.5a26.16,26.16,0,0,0,0-26.1L454.52,48a26.18,26.18,0,0,0-22.6-13Z"/><path class="cls-14" d="M480.65,98.77l-28.5-49.36a23.36,23.36,0,0,0-20.23-11.68H395.09a23.35,23.35,0,0,1,20.23,11.68l28.5,49.36a23.37,23.37,0,0,1,0,23.36l-28.5,49.37a23.37,23.37,0,0,1-20.23,11.68h36.83a23.38,23.38,0,0,0,20.23-11.68l28.5-49.37A23.37,23.37,0,0,0,480.65,98.77Z"/><path class="cls-13" d="M432.85,184a14.68,14.68,0,0,1-10.4-4.28L390.53,148a2,2,0,0,0-2.57-.15l-36.43,28.7a14.78,14.78,0,1,1-18.3-23.22l41.3-32.54a24.62,24.62,0,0,1,15.15-5.24,24.36,24.36,0,0,1,17.26,7.09l36,35.72a15.51,15.51,0,0,1,4.51,10.88,14.46,14.46,0,0,1-4.17,10.34A14.68,14.68,0,0,1,432.85,184Z"/><path class="cls-12" d="M389.68,116.86A23.19,23.19,0,0,1,406,123.58l36,35.72c5.29,5.24,5.6,14.13.34,19.4a13.5,13.5,0,0,1-19.06.06l-31.92-31.64a3.2,3.2,0,0,0-2.27-.94,3.16,3.16,0,0,0-2,.7l-36.44,28.7A13.5,13.5,0,0,1,334,154.37l41.31-32.54a23.13,23.13,0,0,1,14.35-5m0-2.57a25.87,25.87,0,0,0-15.94,5.52l-41.3,32.54a16.06,16.06,0,1,0,19.88,25.24l36.44-28.7a.65.65,0,0,1,.86.05l31.92,31.64a16.07,16.07,0,0,0,22.69-.06,15.74,15.74,0,0,0,4.54-11.25,16.79,16.79,0,0,0-4.89-11.8l-36-35.71a25.63,25.63,0,0,0-18.17-7.47Z"/><path class="cls-15" d="M375.39,111.65a4.4,4.4,0,1,1-8.8,0"/><path class="cls-13" d="M383,108.57a11.22,11.22,0,0,1-11.21-11.2V87.55a11.21,11.21,0,0,1,22.41,0v9.82A11.21,11.21,0,0,1,383,108.57Z"/><path class="cls-12" d="M383,77.72a9.83,9.83,0,0,1,9.83,9.83v9.82a9.84,9.84,0,0,1-19.67,0V87.55A9.84,9.84,0,0,1,383,77.72M383,75a12.59,12.59,0,0,0-12.57,12.57v9.82a12.57,12.57,0,0,0,25.14,0V87.55A12.59,12.59,0,0,0,383,75Z"/><path class="cls-13" d="M359.84,108.57a11.22,11.22,0,0,1-11.21-11.2V87.55a11.21,11.21,0,0,1,22.41,0v9.82A11.21,11.21,0,0,1,359.84,108.57Z"/><path class="cls-12" d="M359.84,77.72a9.83,9.83,0,0,1,9.83,9.83v9.82a9.84,9.84,0,0,1-19.67,0V87.55a9.84,9.84,0,0,1,9.84-9.83m0-2.74a12.59,12.59,0,0,0-12.57,12.57v9.82a12.57,12.57,0,0,0,25.14,0V87.55A12.59,12.59,0,0,0,359.84,75Z"/><path class="cls-12" d="M387.29,95.74v11.78a9.84,9.84,0,0,1-6.2,1.24,10,10,0,0,1-8.55-10V89.17A2.18,2.18,0,0,1,374.75,87h3.84A8.7,8.7,0,0,1,387.29,95.74Z"/><path class="cls-12" d="M363.52,95.74v11.78a9.81,9.81,0,0,1-6.19,1.24,10,10,0,0,1-8.56-10V89.17A2.2,2.2,0,0,1,351,87h3.84A8.7,8.7,0,0,1,363.52,95.74Z"/><path class="cls-13" d="M337.15,190.47l-32.29-37.78.14-1.81a35,35,0,0,1,49.31,3.86l10.4,12.17-.14,1.81L339,190.61Z"/><path class="cls-12" d="M327.71,143.78a33.58,33.58,0,0,1,25.62,11.8l10.4,12.17-25.6,21.89-32.29-37.78h0a33.52,33.52,0,0,1,21.87-8.08m0-2.57v0h0a36.25,36.25,0,0,0-23.54,8.7l-.29,3.62,32.3,37.78,3.62.28,25.6-21.89.29-3.62-10.41-12.17a36.23,36.23,0,0,0-27.57-12.7Z"/><path class="cls-16" d="M487,165.08h-5.56L447.59,92.72a11.5,11.5,0,0,0-20.84,9.75l33.21,71a12.33,12.33,0,0,0-.64,3.91h0a12.32,12.32,0,0,0,12.31,12.32H487A12.33,12.33,0,0,0,499.3,177.4h0A12.33,12.33,0,0,0,487,165.08Z"/><polyline class="cls-17" points="308.25 128.58 308.25 25.53 471.89 25.53 471.89 69.33"/><polygon class="cls-12" points="302.79 32.35 301.42 30.99 301.42 20.07 302.79 18.7 313.71 18.7 315.07 20.07 315.07 30.99 313.71 32.35 302.79 32.35"/><path class="cls-12" d="M313.71,20.07V31H302.79V20.07h10.92m0-2.74H302.79l-2.74,2.74V31l2.74,2.73h10.92L316.44,31V20.07l-2.73-2.74Z"/><polygon class="cls-12" points="466.44 32.35 465.07 30.99 465.07 20.07 466.44 18.7 477.35 18.7 478.72 20.07 478.72 30.99 477.35 32.35 466.44 32.35"/><path class="cls-12" d="M477.35,20.07V31H466.44V20.07h10.91m0-2.74H466.44l-2.74,2.74V31l2.74,2.73h10.91L480.09,31V20.07l-2.74-2.74Z"/><polygon class="cls-12" points="302.79 135.41 301.42 134.04 301.42 123.12 302.79 121.76 313.71 121.76 315.07 123.12 315.07 134.04 313.71 135.41 302.79 135.41"/><path class="cls-12" d="M313.71,123.12V134H302.79V123.12h10.92m0-2.73H302.79l-2.74,2.73V134l2.74,2.74h10.92l2.73-2.74V123.12l-2.73-2.73Z"/><polygon class="cls-12" points="143.03 58.52 142.09 57.58 142.09 50.22 143.03 49.28 150.39 49.28 151.33 50.22 151.33 57.58 150.39 58.52 143.03 58.52"/><path class="cls-12" d="M150.39,50.22v7.36H143V50.22h7.36m0-1.88H143l-1.88,1.88v7.36L143,59.46h7.36l1.88-1.88V50.22l-1.88-1.88Z"/><polygon class="cls-12" points="252.92 58.5 252 57.58 252 50.22 252.92 49.3 260.28 49.3 261.2 50.22 261.2 57.58 260.28 58.5 252.92 58.5"/><path class="cls-12" d="M260.28,50.22v7.36h-7.36V50.22h7.36m0-1.85h-7.36l-1.85,1.85v7.36l1.85,1.84h7.36l1.84-1.84V50.22l-1.84-1.85Z"/><polygon class="cls-12" points="143.03 168.39 142.11 167.46 142.11 160.1 143.03 159.18 150.39 159.18 151.31 160.1 151.31 167.46 150.39 168.39 143.03 168.39"/><path class="cls-12" d="M150.39,160.1v7.36H143V160.1h7.36m0-1.84H143l-1.84,1.84v7.36l1.84,1.85h7.36l1.85-1.85V160.1l-1.85-1.84Z"/><polygon class="cls-12" points="252.92 168.39 252 167.46 252 160.1 252.92 159.18 260.28 159.18 261.2 160.1 261.2 167.46 260.28 168.39 252.92 168.39"/><path class="cls-12" d="M260.28,160.1v7.36h-7.36V160.1h7.36m0-1.84h-7.36l-1.85,1.84v7.36l1.85,1.85h7.36l1.84-1.85V160.1l-1.84-1.84Z"/><circle class="cls-18" cx="201.66" cy="108.84" r="54.94"/><path class="cls-19" d="M230.89,62.33a54.94,54.94,0,0,1-80,67.41,54.94,54.94,0,1,0,80-67.41Z"/><rect class="cls-20" x="146.71" y="53.9" width="109.89" height="109.89"/><polygon class="cls-12" points="17.2 91.82 16.25 90.88 16.25 83.23 17.2 82.29 24.55 82.29 25.5 83.23 25.5 90.88 24.55 91.82 17.2 91.82"/><path class="cls-12" d="M24.55,83.23v7.65H17.2V83.23h7.35m0-1.88H17.2l-1.89,1.88v7.65l1.89,1.88h7.35l1.89-1.88V83.23l-1.89-1.88Z"/><polygon class="cls-12" points="17.2 166.16 16.25 165.22 16.25 157.57 17.2 156.63 24.55 156.63 25.5 157.57 25.5 165.22 24.55 166.16 17.2 166.16"/><path class="cls-12" d="M24.55,157.57v7.65H17.2v-7.65h7.35m0-1.88H17.2l-1.89,1.88v7.65l1.89,1.88h7.35l1.89-1.88v-7.65l-1.89-1.88Z"/><polygon class="cls-12" points="100.37 91.82 99.43 90.88 99.43 83.23 100.37 82.29 107.73 82.29 108.67 83.23 108.67 90.88 107.73 91.82 100.37 91.82"/><path class="cls-12" d="M107.73,83.23v7.65h-7.36V83.23h7.36m0-1.88h-7.36l-1.88,1.88v7.65l1.88,1.88h7.36l1.88-1.88V83.23l-1.88-1.88Z"/><polygon class="cls-12" points="100.37 166.16 99.43 165.22 99.43 157.57 100.37 156.63 107.73 156.63 108.67 157.57 108.67 165.22 107.73 166.16 100.37 166.16"/><path class="cls-12" d="M107.73,157.57v7.65h-7.36v-7.65h7.36m0-1.88h-7.36l-1.88,1.88v7.65l1.88,1.88h7.36l1.88-1.88v-7.65l-1.88-1.88Z"/><polygon class="cls-21" points="62.46 86.5 83.26 123.95 104.05 161.4 62.46 161.4 20.88 161.4 41.67 123.95 62.46 86.5"/><polygon class="cls-22" points="93.19 144.65 51.6 144.65 72.4 107.2 73.18 105.8 62.46 86.5 41.67 123.95 20.88 161.4 62.46 161.4 104.05 161.4 94.75 144.65 93.19 144.65"/><rect class="cls-21" x="20.87" y="86.5" width="83.18" height="74.9"/><circle class="cls-18" cx="187.8" cy="75.43" r="6.48"/><line class="cls-18" x1="283.25" y1="133.48" x2="283.25" y2="183.18"/><line class="cls-18" x1="311.41" y1="147.99" x2="343.24" y2="185.27"/><line class="cls-23" x1="293.51" y1="137.09" x2="293.51" y2="149.77"/><line class="cls-23" x1="321.17" y1="143.43" x2="327.62" y2="151.36"/><path class="cls-23" d="M473.84,177.68a6.56,6.56,0,0,1,3,5.5h0a6.57,6.57,0,0,1-6.57,6.57h-3a6.57,6.57,0,0,1-6.57-6.57h0"/></svg>