<svg id="圖層_1" data-name="圖層 1" xmlns="http://www.w3.org/2000/svg" xmlns:xlink="http://www.w3.org/1999/xlink" viewBox="0 0 583.59 583.59"><defs><style>.cls-1,.cls-5{fill:none;}.cls-2{fill:#211815;}.cls-3,.cls-4,.cls-5{stroke:#211815;stroke-linecap:round;stroke-linejoin:round;}.cls-3,.cls-4{stroke-width:3px;}.cls-3{fill:url(#_10_dpi_10_);}.cls-4{fill:#fff;}.cls-5{stroke-width:2px;}</style><pattern id="_10_dpi_10_" data-name="10 dpi 10%" width="28.8" height="28.8" patternTransform="translate(39.67 -35.41)" patternUnits="userSpaceOnUse" viewBox="0 0 28.8 28.8"><rect class="cls-1" width="28.8" height="28.8"/><circle class="cls-2" cx="28.8" cy="28.8" r="0.72"/><path class="cls-2" d="M14.4,29.52a.72.72,0,1,0-.72-.72A.72.72,0,0,0,14.4,29.52Z"/><path class="cls-2" d="M28.8,15.12a.72.72,0,1,0-.72-.72A.72.72,0,0,0,28.8,15.12Z"/><path class="cls-2" d="M14.4,15.12a.72.72,0,1,0-.72-.72A.72.72,0,0,0,14.4,15.12Z"/><path class="cls-2" d="M7.2,22.32a.72.72,0,1,0-.72-.72A.72.72,0,0,0,7.2,22.32Z"/><path class="cls-2" d="M21.6,22.32a.72.72,0,1,0-.72-.72A.72.72,0,0,0,21.6,22.32Z"/><path class="cls-2" d="M7.2,7.92a.72.72,0,1,0-.72-.72A.72.72,0,0,0,7.2,7.92Z"/><path class="cls-2" d="M21.6,7.92a.72.72,0,1,0-.72-.72A.72.72,0,0,0,21.6,7.92Z"/><circle class="cls-2" cy="28.8" r="0.72"/><path class="cls-2" d="M0,15.12a.72.72,0,0,0,0-1.44.72.72,0,0,0-.72.72A.72.72,0,0,0,0,15.12Z"/><path class="cls-2" d="M28.8.72A.72.72,0,0,0,29.52,0a.72.72,0,0,0-.72-.72.72.72,0,0,0-.72.72A.72.72,0,0,0,28.8.72Z"/><path class="cls-2" d="M14.4.72A.72.72,0,0,0,15.12,0a.72.72,0,0,0-.72-.72.72.72,0,0,0-.72.72A.72.72,0,0,0,14.4.72Z"/><path class="cls-2" d="M0,.72A.72.72,0,0,0,.72,0,.72.72,0,0,0,0-.72.72.72,0,0,0-.72,0,.72.72,0,0,0,0,.72Z"/></pattern></defs><circle class="cls-3" cx="291.8" cy="291.8" r="290.25"/><circle class="cls-3" cx="291.8" cy="291.8" r="212.44"/><path class="cls-2" d="M148.39,203.87l-6.94-4.43,1.45-2.27,6.94,4.43Z"/><path class="cls-2" d="M152.56,197.52l-6.69-4.8,1.54-2.15,4.91,3.53,2.1-2.92,1.77,1.27Z"/><path class="cls-2" d="M158.88,189l-6.37-5.21,1.67-2.05,4.68,3.83,2.27-2.78,1.69,1.38Z"/><path class="cls-2" d="M159.54,175.39l1.81-1.93,3.7,3.47a1.4,1.4,0,0,0,.93.47,1.36,1.36,0,0,0,.89-.51,1.26,1.26,0,0,0,.44-.9,1.42,1.42,0,0,0-.54-.9l-3.7-3.47,1.81-1.93,3.85,3.61a2.9,2.9,0,0,1,1.05,2.35,4.46,4.46,0,0,1-1.39,2.66,4.54,4.54,0,0,1-2.58,1.57,2.89,2.89,0,0,1-2.41-.88Z"/><path class="cls-2" d="M172.32,170.29l1.89-1.74a1,1,0,0,0,.72.21,1.45,1.45,0,0,0,.74-.42,1.43,1.43,0,0,0,.43-.62.5.5,0,0,0-.11-.5c-.2-.22-.64-.14-1.31.22l-.3.17c-.56.3-1,.52-1.36.67a3.63,3.63,0,0,1-.82.27,2.29,2.29,0,0,1-1.08-.11,2.49,2.49,0,0,1-.91-.64,2.29,2.29,0,0,1-.63-2,5,5,0,0,1,3.68-3.45,2.54,2.54,0,0,1,2.05.71l-1.84,1.71a.77.77,0,0,0-.6-.18,1.3,1.3,0,0,0-.67.37,1.22,1.22,0,0,0-.37.53.5.5,0,0,0,.14.45q.28.3,1.26-.24a.5.5,0,0,0,.13-.07l.43-.23a7,7,0,0,1,1.83-.79,2.37,2.37,0,0,1,1.14.06,2.24,2.24,0,0,1,.93.63,2.51,2.51,0,0,1,.73,2.19,4.42,4.42,0,0,1-1.51,2.39,4.21,4.21,0,0,1-2.4,1.23A2.79,2.79,0,0,1,172.32,170.29Z"/><path class="cls-2" d="M184.21,163.17l-3.81-4.71L178.56,160l-1.37-1.69,5.74-4.64,1.36,1.68-1.84,1.49,3.82,4.71Z"/><path class="cls-2" d="M191.41,157.52l-4.74-6.73,3.22-2.27a4.86,4.86,0,0,1,2.48-1.07,2.06,2.06,0,0,1,1.69,1,2.31,2.31,0,0,1,.46,1.21,2.19,2.19,0,0,1-.37,1.22,1.64,1.64,0,0,1,1.15-.11,2.28,2.28,0,0,1,1,.84l.69.91,0,0c.2.26.37.35.49.28l.18.25-2.18,1.54-.39-.36a1.9,1.9,0,0,1-.22-.26l-.48-.67a1.22,1.22,0,0,0-.72-.59,1.15,1.15,0,0,0-.86.29l-.92.65,1.64,2.32Zm-.57-5.34,1-.69a1.69,1.69,0,0,0,.62-.64.66.66,0,0,0-.15-.63.68.68,0,0,0-.54-.36,1.79,1.79,0,0,0-.87.41l-.93.65Z"/><path class="cls-2" d="M200.65,151.15l-1.78-8.54,2.29-1.38,6.74,5.54-2.25,1.36-.82-.77-2.25,1.35.3,1.1ZM202.1,147l1.42-.86-2.18-2Z"/><path class="cls-2" d="M212.63,144.22l-2.8-5.37-2.1,1.09-1-1.92,6.54-3.41,1,1.92-2.1,1.1L215,143Z"/><path class="cls-2" d="M220.92,140.11l-3.39-7.5L220,131.5l3.39,7.5Z"/><path class="cls-2" d="M226.07,133.33A4.29,4.29,0,0,1,226,130a4.25,4.25,0,0,1,2.51-2.21,4.19,4.19,0,0,1,3.33,0,5,5,0,0,1,2.27,5.93,4.18,4.18,0,0,1-2.5,2.2,4.13,4.13,0,0,1-3.34,0A4.3,4.3,0,0,1,226.07,133.33Zm2.49-1a3,3,0,0,0,1,1.46,1.39,1.39,0,0,0,1.34.08,1.42,1.42,0,0,0,.94-.94,4.08,4.08,0,0,0-1.23-3.22,1.4,1.4,0,0,0-1.33-.08,1.43,1.43,0,0,0-.95.95A3,3,0,0,0,228.56,132.38Z"/><path class="cls-2" d="M239.81,132.68l-2.36-7.89,2.41-.72,3.3,3a2.26,2.26,0,0,1,.35.38c.13.16.28.37.45.61a3.81,3.81,0,0,1-.19-.45c-.06-.16-.12-.36-.2-.6l-1.11-3.72,2.42-.73,2.35,7.89-2.41.72-3.3-3a3.72,3.72,0,0,1-.36-.39,6.72,6.72,0,0,1-.44-.6l.18.42c.06.15.12.36.21.64l1.1,3.69Z"/><path class="cls-2" d="M301.34,124.79l.65-8.2,3.19.25a11,11,0,0,1,1.8.25,3.4,3.4,0,0,1,1,.44,3.24,3.24,0,0,1,1.17,1.51,5.22,5.22,0,0,1,.25,2.27,4.64,4.64,0,0,1-.72,2.3A3.2,3.2,0,0,1,307,124.9a3.52,3.52,0,0,1-1,.18A17.23,17.23,0,0,1,304,125Zm2.8-1.87.71.06a1.78,1.78,0,0,0,1.4-.33,3.39,3.39,0,0,0,.24-3.15,1.64,1.64,0,0,0-1.29-.57l-.74-.06Z"/><path class="cls-2" d="M313.56,126l1.21-8.14,6.51,1-.29,2-3.89-.58-.17,1.08,3.29.49-.28,1.87-3.29-.49-.18,1.26,4,.6-.3,2Z"/><path class="cls-2" d="M324.85,125.18l2.51.55a1.1,1.1,0,0,0,.24.71,1.5,1.5,0,0,0,.77.36,1.35,1.35,0,0,0,.75,0,.49.49,0,0,0,.35-.37c.06-.29-.25-.61-.93-1l-.32-.15a13.62,13.62,0,0,1-1.32-.73,3.39,3.39,0,0,1-.69-.51,2.18,2.18,0,0,1-.52-1,2.44,2.44,0,0,1,0-1.11,2.28,2.28,0,0,1,1.31-1.68,4.07,4.07,0,0,1,2.63-.15,4.17,4.17,0,0,1,2.3,1.19,2.53,2.53,0,0,1,.6,2.08l-2.46-.53a.77.77,0,0,0-.19-.6,1.39,1.39,0,0,0-.69-.33,1.17,1.17,0,0,0-.65,0,.49.49,0,0,0-.29.37c-.06.27.25.57.92.9l.13.07.44.22a6.82,6.82,0,0,1,1.69,1,2.32,2.32,0,0,1,.61,1,2.22,2.22,0,0,1,0,1.12,2.45,2.45,0,0,1-1.38,1.84,4.35,4.35,0,0,1-2.82.14,4.17,4.17,0,0,1-2.38-1.27A2.77,2.77,0,0,1,324.85,125.18Z"/><path class="cls-2" d="M335.9,130.41l2.2-7.93,2.6.71-2.2,7.94Z"/><path class="cls-2" d="M349,134.49l.11-.71a2.83,2.83,0,0,1-1.25.32,4.31,4.31,0,0,1-1.47-.26,3.51,3.51,0,0,1-2.25-2,4.62,4.62,0,0,1,.07-3.33,4.32,4.32,0,0,1,2.11-2.66,4.25,4.25,0,0,1,3.37,0,4,4,0,0,1,2.2,1.59,3.34,3.34,0,0,1,.38,2.51l-2.38-.81a1.45,1.45,0,0,0-.22-.87,1.34,1.34,0,0,0-.7-.51,1.32,1.32,0,0,0-1.32.19,3.47,3.47,0,0,0-1,1.59,2.88,2.88,0,0,0-.16,1.71,1.38,1.38,0,0,0,1,.91,1.73,1.73,0,0,0,1,.07,1.16,1.16,0,0,0,.71-.53l-1.13-.39.57-1.66,3.42,1.17-1.46,4.27Z"/><path class="cls-2" d="M355.09,136.77l3.24-7.56,2.31,1,.61,4.43a2.59,2.59,0,0,1,0,.51c0,.21,0,.47,0,.76a3.37,3.37,0,0,1,.14-.46c.06-.17.14-.36.23-.59l1.54-3.57,2.31,1-3.24,7.56-2.32-1-.62-4.4a3.7,3.7,0,0,1,0-.53c0-.22,0-.47.05-.75,0,.15-.08.29-.13.44s-.14.36-.25.63l-1.52,3.54Z"/><path class="cls-2" d="M398.46,162.37l-1.84-1.54,5.28-6.31,2.47,2.06-1.76,3.88c0,.06-.08.17-.17.35l-.39.76.58-.46a3.79,3.79,0,0,1,.39-.29l3.54-2.41,2.46,2.06-5.27,6.31-1.84-1.53,2.61-3.09.47-.55.47-.55-1.14.86-.06,0-3.37,2.44-1.41-1.18,1.74-3.68c.07-.17.17-.36.28-.57l.45-.84c-.21.28-.4.52-.56.71l-.38.48Z"/><path class="cls-2" d="M409.93,166.87a4.29,4.29,0,0,1,3.05-1.46,4.77,4.77,0,0,1,4.46,4.37,5,5,0,0,1-4.44,4.54,4.79,4.79,0,0,1-4.46-4.38A4.32,4.32,0,0,1,409.93,166.87Zm1.91,1.87a2.92,2.92,0,0,0-.92,1.49,1.39,1.39,0,0,0,.49,1.25,1.37,1.37,0,0,0,1.25.46,4.06,4.06,0,0,0,2.4-2.46,1.4,1.4,0,0,0-.48-1.24,1.42,1.42,0,0,0-1.26-.46A3,3,0,0,0,411.84,168.74Z"/><path class="cls-2" d="M417.39,180.37l4.53-4-1.57-1.77,1.62-1.44,4.9,5.52-1.62,1.44-1.57-1.77-4.53,4Z"/><path class="cls-2" d="M423.39,187.39l6.44-5.12,1.68,2.11-6.45,5.12Z"/><path class="cls-2" d="M431.23,190.75a4.33,4.33,0,0,1,3.26-.89,4.79,4.79,0,0,1,3.59,5.12,5,5,0,0,1-5.19,3.65,4.79,4.79,0,0,1-3.6-5.12A4.33,4.33,0,0,1,431.23,190.75Zm1.53,2.18a3,3,0,0,0-1.18,1.3,1.42,1.42,0,0,0,.25,1.32,1.39,1.39,0,0,0,1.15.68,3,3,0,0,0,1.62-.67,2.92,2.92,0,0,0,1.19-1.31,1.63,1.63,0,0,0-1.4-2A3,3,0,0,0,432.76,192.93Z"/><path class="cls-2" d="M435.2,203.87l7.07-4.21,1.28,2.15-2.1,3.94a2.76,2.76,0,0,1-.28.43c-.13.17-.29.37-.48.59a4.18,4.18,0,0,1,.38-.29c.15-.1.33-.22.54-.34l3.34-2,1.29,2.16-7.07,4.22-1.29-2.17,2.08-3.93a3.21,3.21,0,0,1,.29-.44c.13-.17.29-.37.47-.58a3.44,3.44,0,0,1-.36.28c-.13.1-.32.21-.57.36l-3.31,2Z"/><path class="cls-2" d="M447.2,226.74l.6-.4a2.88,2.88,0,0,1-1.09-.7,4.44,4.44,0,0,1-.81-1.24,3.52,3.52,0,0,1-.08-3,4.7,4.7,0,0,1,2.48-2.23,4.33,4.33,0,0,1,3.38-.27,4.27,4.27,0,0,1,2.34,2.44,4,4,0,0,1,.33,2.69,3.28,3.28,0,0,1-1.57,2l-1-2.29a1.43,1.43,0,0,0,.49-.75,1.41,1.41,0,0,0-.11-.87,1.33,1.33,0,0,0-1-.83,3.3,3.3,0,0,0-1.82.38,2.86,2.86,0,0,0-1.36,1.05,1.37,1.37,0,0,0,0,1.32,1.62,1.62,0,0,0,.65.79,1.08,1.08,0,0,0,.87.16l-.49-1.08,1.61-.72,1.47,3.29-4.11,1.85Z"/><path class="cls-2" d="M449.68,232.73l7.74-2.81,1.34,3.7a4.76,4.76,0,0,1,.39,2.67,2.09,2.09,0,0,1-1.44,1.37,2.26,2.26,0,0,1-1.29.12,2.19,2.19,0,0,1-1.08-.67,1.58,1.58,0,0,1-.19,1.13,2.21,2.21,0,0,1-1.07.75l-1.06.43,0,0c-.3.12-.43.25-.4.39l-.29.11-.91-2.51.45-.28.31-.15.77-.28a1.26,1.26,0,0,0,.76-.54,1.17,1.17,0,0,0-.05-.91l-.39-1.05-2.66,1Zm5.31.85.41,1.13a1.54,1.54,0,0,0,.45.76.7.7,0,0,0,.65,0,.68.68,0,0,0,.48-.43,1.68,1.68,0,0,0-.16-.94l-.38-1.07Z"/><path class="cls-2" d="M453.41,243.33l8.71.52.73,2.57-7.12,5.05L455,249l1-.6-.72-2.52h-1.14Zm3.64,2.49.46,1.59,2.51-1.57Z"/><path class="cls-2" d="M456.68,255.4l8.05-1.71.71,3.31a10.38,10.38,0,0,1,.24,1.77,3.13,3.13,0,0,1-.19,1.16,2.42,2.42,0,0,1-.76,1,2.91,2.91,0,0,1-1.26.55,2.71,2.71,0,0,1-2.24-.36A3.43,3.43,0,0,1,460,259l-.32-1.55-2.47.52Zm5,1.64.18.83a2.22,2.22,0,0,0,.41,1.05.94.94,0,0,0,1.29-.27,2.26,2.26,0,0,0-.06-1.13l-.17-.83Z"/><path class="cls-2" d="M459,266.89l8.15-1.12.36,2.62-2.77.38.34,2.44,2.76-.38.36,2.61L460,274.56l-.36-2.61,3.16-.44-.33-2.44-3.16.44Z"/><path class="cls-2" d="M460.46,279.47l8.2-.63.21,2.69-8.21.62Z"/><path class="cls-2" d="M464.24,292.35l0,2.5a3.46,3.46,0,0,1-2.54-1.1,4.76,4.76,0,0,1,.16-5.91,5,5,0,0,1,6.35-.12,4,4,0,0,1,1.21,3,4.28,4.28,0,0,1-.81,2.83,3.43,3.43,0,0,1-2.45,1.19l0-2.53a1.41,1.41,0,0,0,.94-.43,1.45,1.45,0,0,0,.31-1,1.33,1.33,0,0,0-.59-1.16,3.08,3.08,0,0,0-1.72-.36,2.89,2.89,0,0,0-1.69.44,1.41,1.41,0,0,0-.55,1.23,1.31,1.31,0,0,0,.36,1A1.54,1.54,0,0,0,464.24,292.35Z"/><path class="cls-2" d="M319,472.45l-2.67.48a.69.69,0,0,1-.67-.24,2.9,2.9,0,0,1-.4-1.25q-.87-5.44-1.08-7.54a6.64,6.64,0,0,1,.08-2.75,2.25,2.25,0,0,1,.82-1,5.61,5.61,0,0,1,1.55-.54,1.48,1.48,0,0,1,.95.12,1.21,1.21,0,0,1,.56.67l.05.1.06.13a.86.86,0,0,1,.16.85c-.11.22-.37.35-.79.4l-.35.07a.69.69,0,0,0-.53.41c-.21.45,0,2.83.71,7.12a1.47,1.47,0,0,0,.19.65.34.34,0,0,0,.35.11l.66-.11a27.63,27.63,0,0,1-.21-6,9.49,9.49,0,0,1,1.49-4.38,1.05,1.05,0,0,1,.77-.49,1.13,1.13,0,0,1,.85.34l.49.34,6.45-1.76a.94.94,0,0,1,.76.06,1.29,1.29,0,0,1,.43.71,1.18,1.18,0,0,1,0,.86.89.89,0,0,1-.69.43l-1,.25-1.4.36.13.76,2.06-.37a.91.91,0,1,1,.32,1.79l-2.07.36.09.47,1.73-.31a1.16,1.16,0,0,1,.89.16,1.13,1.13,0,0,1,.47.78l.59,3.34a1.16,1.16,0,0,1-.17.89,1.2,1.2,0,0,1-.79.46l-1.73.3.08.45,2.39-.42a.82.82,0,0,1,1.06.76.81.81,0,0,1-.74,1.06l-2.39.42.08.43,1.92-.43a1,1,0,0,1,1.23.56c.31.64.08,1.06-.71,1.26a45.67,45.67,0,0,0-5.56,1.65,1,1,0,0,1-1.26-.42c-.57-.68-.45-1.15.34-1.44.58-.21,1.18-.4,1.79-.58l-.11-.62-2.3.4a.92.92,0,0,1-.32-1.81l2.3-.41-.08-.45-1.82.32a1.07,1.07,0,0,1-1.34-.94l-.6-3.34a1.1,1.1,0,0,1,.95-1.35l1.81-.32-.08-.46-1.92.33a1.14,1.14,0,0,1-.9-.16,1.12,1.12,0,0,1-.46-.77l-.12-.64q-1,2.47-.35,7.16l.22,0a1.06,1.06,0,0,1,1.37,1,1,1,0,0,1-.95,1.37l-.28,0,.42,2.33a1.11,1.11,0,0,1-1,1.48,1.09,1.09,0,0,1-1.43-1C319.16,473.75,319,473,319,472.45Zm4-10.75-1.38.35-.21.45,3.09-.55-.11-.6Zm2.17,4.06-.71.13q-.18,0-.15.18l.07.38.88-.15Zm.35,2-.88.16.05.31c0,.14.11.19.26.17l.66-.12Zm2-1.86.88-.15-.06-.33a.18.18,0,0,0-.24-.17l-.68.12Zm.35,2,.72-.13a.14.14,0,0,0,.13-.19l-.06-.36-.88.16Z"/><path class="cls-2" d="M299.93,466.4a3.19,3.19,0,0,1,.92-.29,1.91,1.91,0,0,1,.95.07,1,1,0,0,1,.63.58.84.84,0,0,1,0,.76.81.81,0,0,1-.72.27h0a.2.2,0,0,0-.22.24v.24l2.34-.09,0-1.09a1,1,0,0,1,1.08-1.18,1,1,0,0,1,1.21,1.09l.2,5.19a1.1,1.1,0,0,1-1.13,1.2l-4.61.18a1.1,1.1,0,0,1-1.22-1.11l-.17-4.34a2.5,2.5,0,0,1,.14-1.08l-.16.13a.08.08,0,0,1-.1,0,9.37,9.37,0,0,1-1.77-1,1,1,0,0,1-.43-.7,1.17,1.17,0,0,1,.41-.72,1.38,1.38,0,0,1,.82-.47,1.11,1.11,0,0,1,.83.37,11.24,11.24,0,0,0,1,.68l-.06-1.41c0-.23-.06-.37-.17-.43a2,2,0,0,0-.73-.06l-1.93.08a.65.65,0,0,0-.6.29c-.08.63-.31.86-.68.69a9.91,9.91,0,0,0-1.55-.45l0,0c.66.6.59,1.15-.2,1.64a1.24,1.24,0,0,1-1.53-.06,15.85,15.85,0,0,1-1.67-1.7,1.1,1.1,0,0,1-.23-.87,1.45,1.45,0,0,1,.65-.67,1.14,1.14,0,0,1,1.8.31,15.09,15.09,0,0,0,1.09,1.25,2.21,2.21,0,0,1,2.54-2.5l2.56-.1a3.94,3.94,0,0,1,2.45.44,2.61,2.61,0,0,1,.69,2l0,.88a.74.74,0,0,1-.17.55.79.79,0,0,1-.54.22l-1.55.06.1,0,.14.06.1.08a.17.17,0,0,1,0,.11s0,.07-.06.11Zm-1.66,2.44.08,2.25a1.18,1.18,0,0,1-2.35.09v-.25a20.19,20.19,0,0,0-2.3.85,1.22,1.22,0,0,1-1.39-.21c-.76-.63-.69-1.12.23-1.49a26,26,0,0,1,3.39-1V469q0-.42-.15-.51a1.18,1.18,0,0,0-.64-.08l-1.78.07a1.35,1.35,0,0,1-1.78.76,1,1,0,0,1-.62-.66,1.86,1.86,0,0,1,0-1,1.59,1.59,0,0,1,.74-.84,3.25,3.25,0,0,1,1.36-.28l2.36-.1a3.25,3.25,0,0,1,2.24.47A3,3,0,0,1,298.27,468.84Zm.23,6.06.09,2.11a1.18,1.18,0,0,1-2.36.09v-.05a15.24,15.24,0,0,0-2.13.78,1.22,1.22,0,0,1-1.37-.22c-.75-.62-.67-1.1.23-1.46a28.41,28.41,0,0,1,3.2-.9V475c0-.27-.06-.43-.15-.5a1.31,1.31,0,0,0-.63-.07l-1.7.07a1.33,1.33,0,0,1-1.72.65,1,1,0,0,1-.63-.65,1.64,1.64,0,0,1,0-1,2.16,2.16,0,0,1,2.09-1.07l2.26-.09a3.22,3.22,0,0,1,2.19.45,2.69,2.69,0,0,1,.67,1.89l1.23-.72a.56.56,0,0,1,.91.25.08.08,0,0,0,0,0q2.47-.21,5.58-.43a.79.79,0,0,1,.67.18,1.21,1.21,0,0,1,.26.72.86.86,0,0,1-.91,1.07h-.35c-.28.62-.45,1-.52,1.22a1.21,1.21,0,0,1-1.51.9c-1-.18-1.2-.73-.62-1.64l.11-.17a.92.92,0,0,0,.12-.16l-1.62.1v0h0a.64.64,0,0,1-.13,1,1.32,1.32,0,0,1-1.19.29.94.94,0,0,1-.47-.28A11.3,11.3,0,0,1,298.5,474.9Zm3.07-4.77,2.34-.09,0-.47-2.34.09Zm2.39,1.25-2.34.09v.26a.13.13,0,0,0,.15.14l1.83-.07a.32.32,0,0,0,.35-.37Zm-1-7.67a6,6,0,0,1,1.27-1.83,1.18,1.18,0,0,1,1.51-.11c.87.58.92,1.21.12,1.9a5.17,5.17,0,0,0-.6.81,1.18,1.18,0,0,1-1.63.7A1,1,0,0,1,303,463.71Z"/><path class="cls-2" d="M206,456.7l-3.6-1.88a1.14,1.14,0,0,1-.6-.68,1.17,1.17,0,0,1,.1-.91l1.23-2.35a2,2,0,0,0,.21-.46.11.11,0,0,0-.07-.14l-.2-.11a1.81,1.81,0,0,1-1,.82c-.3.08-.61-.09-.93-.49a1,1,0,0,1-.1-1,2.57,2.57,0,0,1,.52-1,2,2,0,0,1,1.09-.66,1.93,1.93,0,0,1,1.18.25l.84.44c.72.38,1.12.81,1.19,1.29a3.81,3.81,0,0,1-.61,2.13l-.53,1a.39.39,0,0,0,.19.6l.82.43a6.48,6.48,0,0,1,3.54-3.39q.47-.14.09-.33l-5.24-2.74c-.76-.39-.79-1-.1-1.77a11.12,11.12,0,0,1,3.91-2.7,13,13,0,0,0-1-1.37,2,2,0,0,1-.7-1.23c0-.33.29-.64.85-.93a1.47,1.47,0,0,1,1.85.45,11.7,11.7,0,0,1,1.61,2.42,12.44,12.44,0,0,1,3.11,0,1.46,1.46,0,0,1,.88.44,1.15,1.15,0,0,1,.3.85,7.25,7.25,0,0,0,.14,1.44l.32-.62a.6.6,0,0,1,.34-.31.55.55,0,0,1,.45,0l3.48,1.82a1.14,1.14,0,0,1,.6.68,1.21,1.21,0,0,1-.12.9l-1.5,2.88a1.18,1.18,0,0,1-.67.6,1.12,1.12,0,0,1-.9-.11l-3-1.54a1.09,1.09,0,0,1-.49-1.57l1.39-2.66a11,11,0,0,0-3.46-.32,15.44,15.44,0,0,1,.31,1.87,1.08,1.08,0,0,1-.31.9,1,1,0,0,1-.91.18l-1-.18,1.38.73a1,1,0,0,1,.56.77,1.74,1.74,0,0,1-.21,1.07,1.12,1.12,0,0,1-.44.47.57.57,0,0,1-.55,0l-.05,0a7.84,7.84,0,0,0,.81,2l.28-.55a.43.43,0,0,1,.67-.2l3.69,1.92a1,1,0,1,1-.9,1.72l-3.63-1.9a.5.5,0,0,1-.23-.77l0-.05a3.34,3.34,0,0,0-1.85.81,5.78,5.78,0,0,0-1.19,1.63l-.53,1a1,1,0,0,1-.59.52A1,1,0,0,1,206,456.7Zm3.46-9a10.13,10.13,0,0,0-.38-2.26,7.22,7.22,0,0,0-2,1ZM212.34,460l-3.19-1.66a1,1,0,0,1,.9-1.73l3.2,1.67a1,1,0,0,1-.91,1.72Zm1.92-1.77-4.55-2.37a.9.9,0,0,1-.42-1.37.89.89,0,0,1,1.36-.44l4.55,2.37a1,1,0,0,1-.94,1.81Zm1.61-4.87-3.27-1.71a.86.86,0,0,1-.4-1.32.85.85,0,0,1,1.3-.41l3.27,1.71a.85.85,0,0,1,.41,1.3A.86.86,0,0,1,215.87,453.35Zm1.31-5,.35-.69a.27.27,0,0,0-.13-.42l-.47-.25a.37.37,0,0,0-.57.18l-.31.59a.39.39,0,0,0,.17.59l.38.19A.38.38,0,0,0,217.18,448.38Z"/><path class="cls-2" d="M184.27,436.54l-1.84-1.31a1.3,1.3,0,0,1,1.5-2.12l1.85,1.31,4.17-5.88a1.16,1.16,0,0,1,1.83-.29,1.15,1.15,0,0,1,.32,1.82L187.93,436l1.81,1.28a1.3,1.3,0,0,1-1.51,2.12l-1.8-1.28-2.66,3.74a1.32,1.32,0,0,1-2.15-1.53Zm6.26,11.15-3.14-2.23a.86.86,0,0,1-.24-1.36.87.87,0,0,1,1.37-.24l3.14,2.23a.87.87,0,0,1,.21,1.37A.85.85,0,0,1,190.53,447.69Zm2.19-1.46-4.44-3.16a1,1,0,1,1,1.18-1.66l4.45,3.16a1,1,0,0,1-1.19,1.66Zm-1.26-6.44,3.19,2.27a.84.84,0,0,1,.23,1.34.85.85,0,0,1-1.35.23l-3.19-2.27a.85.85,0,0,1-.24-1.35A.86.86,0,0,1,191.46,439.79Zm1.44-2,3.2,2.27a1,1,0,0,1-1.13,1.59l-3.2-2.27a.87.87,0,0,1-.23-1.37A.86.86,0,0,1,192.9,437.75Zm3.44,1.71-2.89-2a1.17,1.17,0,0,1-.51-.75,1.12,1.12,0,0,1,.22-.88l1.88-2.65a1.16,1.16,0,0,1,.76-.51,1.2,1.2,0,0,1,.89.23l2.89,2.06a1.11,1.11,0,0,1,.5.75,1.17,1.17,0,0,1-.23.88L198,439.19a1.1,1.1,0,0,1-1.62.27Zm-.19-4-.45.63a.29.29,0,0,0,.08.46l.52.37a.38.38,0,0,0,.59-.11l.39-.55a.38.38,0,0,0-.1-.59l-.43-.3A.38.38,0,0,0,196.15,435.49Z"/><path class="cls-2" d="M135,355.38l3.27,7.44a1.12,1.12,0,0,1,.06.89,1.2,1.2,0,0,1-.65.64l-5.87,2.59a1.06,1.06,0,0,1-1,0,1,1,0,0,1-.45-.84l0-.35-.83-.59a.91.91,0,0,1-.4-.5,1.06,1.06,0,0,1,0-.68l.14-.35-1.24.55,1.23,2.8a1,1,0,0,1-.6,1.51,1,1,0,0,1-1.49-.59l-1.23-2.8-.86.38c.25.46.6,1.16,1.08,2.12a1.41,1.41,0,0,1,.16.83,1.07,1.07,0,0,1-.45.66c-.62.52-1.14.36-1.57-.46a47,47,0,0,0-3.45-5.95,1.2,1.2,0,0,1,0-1.42q.8-1.37,1.65-.15c.5.77,1,1.53,1.38,2.27L125,363l-1.3-2.94a1.14,1.14,0,0,1,2.09-.92l1.3,2.94,7-3.11-.52-1.17a.37.37,0,0,0-.56-.23l-.68.3,0,.08a1,1,0,0,1-.57,1.42.94.94,0,0,1-1.41-.55l0-.08-.54.24a.39.39,0,0,0-.23.58v0a.79.79,0,0,1,0,.7,1.07,1.07,0,0,1-.56.5,1.3,1.3,0,0,1-.91.1,1,1,0,0,1-.61-.6l-.58-1.32a1.17,1.17,0,0,1-.06-.91,1.18,1.18,0,0,1,.64-.64l5.89-2.59a1.1,1.1,0,0,1,.9,0A1.23,1.23,0,0,1,135,355.38Zm-1,12.54,3.73-1.65a4.59,4.59,0,0,1,1.35-.41,1.45,1.45,0,0,1,1,.23,2.84,2.84,0,0,1,.89,1,1.86,1.86,0,0,1,.21,1.08,1.29,1.29,0,0,1-.5.88,1.09,1.09,0,0,1-.93.29c-.28-.07-.49-.3-.66-.71h0c0-.1-.08-.16-.13-.18s-.13,0-.24,0l-3.13,1.39c.67.74.64,1.38-.1,1.91a1.11,1.11,0,0,1-1.75-.27c-.11-.12-.26-.33-.47-.62L130.73,372l.19.44a1.2,1.2,0,1,1-2.19,1l-.19-.43-1.93.85a1,1,0,0,1-1.54-.63,1,1,0,0,1,.59-1.53l1.93-.85-.1-.24a1,1,0,0,1,.6-1.55,1.05,1.05,0,0,1,1.58.58l.11.25,2-.89,0,0a1,1,0,0,1,.32-1.67,1.09,1.09,0,0,1,1.58.24Zm1.05-6.81-4.42,1.95,1.27,1.27.79-.35,0-.1a1.08,1.08,0,0,1,2-.87l0,.1.68-.3a.38.38,0,0,0,.22-.56Z"/><path class="cls-2" d="M121.52,334.79l4.1,14.32a.79.79,0,0,1-1.51.43l-1.64-5.73-.4.12,1.33,4.64a.59.59,0,0,1-.46.83.59.59,0,0,1-.82-.46l-1.34-4.65-.42.13,1.17,4.08a.58.58,0,0,1-.46.8.57.57,0,0,1-.79-.44l-1.17-4.09-.42.12,1.65,5.77a.6.6,0,0,1-.48.83A.59.59,0,0,1,119,351l-1.65-5.76-.39.11,1.14,4a.58.58,0,0,1-.47.81.57.57,0,0,1-.8-.45l-1.14-4h0a.87.87,0,0,1-.84-.16,1.56,1.56,0,0,1-.52-.82,1.6,1.6,0,0,1,0-1,.9.9,0,0,1,.63-.58h0l-1.11-3.87a1.14,1.14,0,0,1,.07-.91,1.11,1.11,0,0,1,.72-.55l.54-.15-.29-1a.68.68,0,0,1,1.3-.37l.29,1,.9-.26a.74.74,0,0,1,.62.06.81.81,0,0,1,.38.51l1.21,4.21.42-.12-1.44-5a.66.66,0,0,1,1.28-.36l1.44,5,.41-.11-1.73-6a.68.68,0,0,1,.53-1A.69.69,0,0,1,121.52,334.79Zm-5.92,5.7.67,2.35.39-.11-.71-2.48-.25.07C115.61,340.35,115.57,340.4,115.6,340.49Zm1.65-.61.71,2.48.43-.12-.62-2.13c-.06-.24-.22-.32-.47-.25Zm9.62-4.28,2.82,9.84a1.15,1.15,0,0,1-.08.9,1.2,1.2,0,0,1-.74.54l-2,.58a1.15,1.15,0,0,1-.9-.07,1.11,1.11,0,0,1-.53-.72l-2.82-9.84a1.11,1.11,0,0,1,.79-1.45l2-.59a1.18,1.18,0,0,1,.91.08A1.16,1.16,0,0,1,126.87,335.6Zm-1.57,4.75-.72-2.54-.44.13.72,2.53Zm.22,2.41.53,1.85a.38.38,0,0,0,.51.3l0,0-.65-2.26Zm1.34-2.86-.73-2.53-.45.13.72,2.53Zm1.43-6.95,4.07,14.21a.84.84,0,0,1-1.61.46l-4.07-14.21a.84.84,0,0,1,1.61-.46Zm-1.23,9.36.64,2.27.29-.08a.16.16,0,0,0,.12-.22l-.6-2.1Z"/><path class="cls-2" d="M515.26,194.48l10.91-4.74,1.55,3.57-10.91,4.74Z"/><path class="cls-2" d="M519.53,204.64l11.15-4.14,1.33,3.58-8.19,3,1.8,4.86-3,1.1Z"/><path class="cls-2" d="M524.66,219.1l11.39-3.43,1.1,3.66-8.37,2.52,1.5,5-3,.91Z"/><path class="cls-2" d="M540.42,230.89l.85,3.72-7.15,1.64a2,2,0,0,0-1.32.73,2,2,0,0,0-.1,1.48,1.83,1.83,0,0,0,.72,1.25,2,2,0,0,0,1.51.08l7.15-1.63.85,3.72-7.44,1.7a4.11,4.11,0,0,1-3.64-.64,6.36,6.36,0,0,1-2.08-3.81,6.46,6.46,0,0,1,.21-4.36,4.13,4.13,0,0,1,3-2.18Z"/><path class="cls-2" d="M536.2,250.27l.57,3.66a1.48,1.48,0,0,0-.83.7,2.57,2.57,0,0,0,.29,2.23.72.72,0,0,0,.69.29c.42-.07.68-.65.78-1.75,0-.22,0-.39,0-.51.09-.9.18-1.62.29-2.16a5.31,5.31,0,0,1,.34-1.2,3.29,3.29,0,0,1,1-1.2,3.44,3.44,0,0,1,1.5-.58,3.31,3.31,0,0,1,3,.89,5.94,5.94,0,0,1,1.56,3.47,6,6,0,0,1-.4,3.71,3.68,3.68,0,0,1-2.51,1.89l-.55-3.58a1.14,1.14,0,0,0,.7-.58,1.88,1.88,0,0,0,.09-1.09,1.61,1.61,0,0,0-.34-.87.68.68,0,0,0-.65-.21c-.39.06-.63.63-.73,1.7,0,.1,0,.17,0,.22s0,.39-.06.7a10.44,10.44,0,0,1-.52,2.83,3.46,3.46,0,0,1-1,1.32,3.17,3.17,0,0,1-1.5.6,3.58,3.58,0,0,1-3.21-.89,6.45,6.45,0,0,1-1.65-3.74,6.06,6.06,0,0,1,.47-3.86A4,4,0,0,1,536.2,250.27Z"/><path class="cls-2" d="M535.14,270.29l8.73-.78-.3-3.41,3.12-.27.93,10.62-3.11.27-.31-3.4-8.72.77Z"/><path class="cls-2" d="M536.1,283.5l11.89-.25.12,5.69a6.84,6.84,0,0,1-.72,3.83,3,3,0,0,1-2.6,1.19,3.16,3.16,0,0,1-1.82-.43,3.1,3.1,0,0,1-1.16-1.42,2.29,2.29,0,0,1-.8,1.46,3.23,3.23,0,0,1-1.8.53l-1.66.1h0c-.47,0-.72.14-.73.35h-.45l-.08-3.85c.29-.08.53-.13.75-.17l.49-.07,1.19,0a1.84,1.84,0,0,0,1.29-.39,1.71,1.71,0,0,0,.34-1.27l0-1.62-4.1.09Zm6.86,3.62,0,1.74a2.26,2.26,0,0,0,.27,1.25,1,1,0,0,0,.87.33,1,1,0,0,0,.86-.36,2.6,2.6,0,0,0,.22-1.36l0-1.64Z"/><path class="cls-2" d="M536.27,299.7l11.67,4.76-.19,3.86-12.07,3.6.18-3.79,1.59-.36.19-3.78-1.55-.54Zm3.83,5.1-.12,2.4,4.17-1Z"/><path class="cls-2" d="M534.91,319.67l8.7,1,.39-3.4,3.11.36-1.2,10.59-3.11-.35.38-3.4-8.7-1Z"/><path class="cls-2" d="M533.15,332.9l11.72,2-.65,3.84-11.72-2Z"/><path class="cls-2" d="M537.1,344.57a6.26,6.26,0,0,1,4.1,2.65,6.92,6.92,0,0,1-2,8.8,7.16,7.16,0,0,1-8.93-2.07,6.91,6.91,0,0,1,2-8.8A6.22,6.22,0,0,1,537.1,344.57Zm-.86,3.75a4.35,4.35,0,0,0-2.55,0,2.06,2.06,0,0,0-1.17,1.54,2,2,0,0,0,.38,1.89,4.29,4.29,0,0,0,2.29,1.1,4.37,4.37,0,0,0,2.55,0,2,2,0,0,0,1.16-1.53,2,2,0,0,0-.37-1.9A4.26,4.26,0,0,0,536.24,348.32Z"/><path class="cls-2" d="M526.81,361.53l11.35,3.54-1.08,3.46-6.27,1.54a3.78,3.78,0,0,1-.73.11c-.31,0-.67,0-1.1,0,.21,0,.44.08.69.14s.54.14.88.25l5.36,1.67-1.09,3.48-11.35-3.55,1.09-3.47,6.23-1.55a6.79,6.79,0,0,1,.76-.11c.31,0,.67,0,1.08-.05a5.41,5.41,0,0,1-.66-.12c-.22-.05-.53-.14-.92-.26L525.73,365Z"/><path class="cls-2" d="M486.57,441.66l9.3,7.41L493,452.68a17,17,0,0,1-1.75,1.95,5.08,5.08,0,0,1-1.34.85,4.53,4.53,0,0,1-2.75.17,7.44,7.44,0,0,1-2.92-1.53,6.78,6.78,0,0,1-2.18-2.71,4.68,4.68,0,0,1-.18-3.05,4.75,4.75,0,0,1,.61-1.38,23.13,23.13,0,0,1,1.65-2.26Zm0,4.86-.64.8a2.54,2.54,0,0,0-.74,1.95,3.62,3.62,0,0,0,1.44,1.86,3.57,3.57,0,0,0,2.14,1,2.41,2.41,0,0,0,1.72-1.08l.67-.84Z"/><path class="cls-2" d="M475.32,455.36l8.77,8-6.42,7-2.1-1.93,3.84-4.19-1.17-1.06L475,466.76l-2-1.84,3.25-3.55-1.36-1.24-4,4.36-2.13-1.95Z"/><path class="cls-2" d="M467.1,469.53l-2.68,2.56a1.5,1.5,0,0,0-1.05-.28,2.13,2.13,0,0,0-1.06.63,2.06,2.06,0,0,0-.6.89.69.69,0,0,0,.16.72c.3.31.93.2,1.89-.35l.43-.25c.8-.44,1.44-.78,1.95-1a5,5,0,0,1,1.18-.41,3.21,3.21,0,0,1,1.55.14,3.43,3.43,0,0,1,1.33.89,3.27,3.27,0,0,1,1,2.93,7.21,7.21,0,0,1-5.22,5.06,3.7,3.7,0,0,1-3-1l2.62-2.51a1.15,1.15,0,0,0,.88.25,1.86,1.86,0,0,0,.95-.55,1.76,1.76,0,0,0,.52-.78.69.69,0,0,0-.21-.65c-.27-.28-.87-.16-1.81.37l-.19.1-.61.36a10.11,10.11,0,0,1-2.62,1.18,3.38,3.38,0,0,1-1.66-.06,3.28,3.28,0,0,1-1.36-.89,3.61,3.61,0,0,1-1.1-3.14,6.34,6.34,0,0,1,2.12-3.49,6.06,6.06,0,0,1,3.44-1.83A4,4,0,0,1,467.1,469.53Z"/><path class="cls-2" d="M451.93,478.53l7.73,9-3,2.53-7.72-9Z"/><path class="cls-2" d="M436.44,491l.76.7a4,4,0,0,1,.63-1.75,6.18,6.18,0,0,1,1.49-1.55,5.1,5.1,0,0,1,4.22-1.09,6.74,6.74,0,0,1,3.94,2.78,5.69,5.69,0,0,1-1.2,8.75,5.72,5.72,0,0,1-3.68,1.34,4.75,4.75,0,0,1-3.31-1.57l2.89-2.19a2,2,0,0,0,1.21.44,1.94,1.94,0,0,0,1.19-.43,1.91,1.91,0,0,0,.84-1.74,4.83,4.83,0,0,0-1.13-2.43,4.14,4.14,0,0,0-1.91-1.58,2,2,0,0,0-1.87.41,2.57,2.57,0,0,0-.91,1.17,1.67,1.67,0,0,0,.06,1.28l1.37-1,1.54,2-4.17,3.15-3.93-5.2Z"/><path class="cls-2" d="M428.81,496.39l6.44,10-3.05,2-5.79-2.84a3.39,3.39,0,0,1-.64-.38c-.25-.17-.54-.4-.87-.67a5.29,5.29,0,0,1,.44.55c.15.2.33.45.52.76l3,4.71-3.06,2-6.44-10,3.06-2,5.77,2.81a4.27,4.27,0,0,1,.66.39c.26.18.55.4.86.66-.15-.16-.29-.33-.43-.51s-.32-.45-.54-.8l-3-4.68Z"/><path class="cls-2" d="M363.08,527.69l3.32-1,3.3,11.42-4.46,1.29L362,534.2c-.05-.07-.14-.23-.28-.49s-.34-.62-.6-1.07c0,.4.07.76.09,1.06s0,.54,0,.7l0,6.19-4.46,1.29-3.3-11.42,3.32-1,1.59,5.63c.1.34.2.67.29,1s.18.66.28,1c-.05-.62-.08-1.31-.11-2.06V535l-.2-6,2.56-.74,3,5.06c.14.23.29.49.45.79l.64,1.23c-.15-.49-.29-.91-.4-1.26s-.19-.63-.25-.84Z"/><path class="cls-2" d="M348.44,537.79a6.24,6.24,0,0,1-.7,4.83,6.93,6.93,0,0,1-8.85,1.82,7.2,7.2,0,0,1-1.85-9,6.91,6.91,0,0,1,8.86-1.82A6.28,6.28,0,0,1,348.44,537.79Zm-3.77.78a4.44,4.44,0,0,0-1.05-2.32,2.37,2.37,0,0,0-3.45.71,5.8,5.8,0,0,0,1,4.87,2,2,0,0,0,1.87.42,2,2,0,0,0,1.58-1.13A4.34,4.34,0,0,0,344.67,538.57Z"/><path class="cls-2" d="M326.23,535.83l1.16,8.68,3.39-.46.42,3.11-10.57,1.41-.41-3.1,3.39-.46-1.16-8.68Z"/><path class="cls-2" d="M313,537.34l.93,11.85-3.88.3-.93-11.85Z"/><path class="cls-2" d="M302.6,544a6.25,6.25,0,0,1-1.58,4.62,6.91,6.91,0,0,1-9,.16,7.17,7.17,0,0,1-.17-9.16,6.89,6.89,0,0,1,9-.17A6.25,6.25,0,0,1,302.6,544Zm-3.85.07a4.34,4.34,0,0,0-.61-2.46,2,2,0,0,0-1.78-.76,2,2,0,0,0-1.74.82,5.84,5.84,0,0,0,.09,5,2,2,0,0,0,1.77.75,2,2,0,0,0,1.75-.82A4.34,4.34,0,0,0,298.75,544.09Z"/><path class="cls-2" d="M283.65,538.18,283,550.05l-3.62-.21-3-5.7a4.3,4.3,0,0,1-.29-.68c-.1-.29-.2-.64-.31-1.05,0,.21,0,.44,0,.69s0,.56,0,.92l-.31,5.61-3.64-.21.66-11.87,3.64.21,3,5.66a5.8,5.8,0,0,1,.3.7c.1.31.2.65.31,1,0-.21,0-.43-.05-.66s0-.55,0-1L280,538Z"/><path class="cls-2" d="M246.58,534.08v1a4,4,0,0,1,1.71-.74,6.51,6.51,0,0,1,2.15,0,5.06,5.06,0,0,1,3.67,2.34,6.75,6.75,0,0,1,.66,4.77,6.29,6.29,0,0,1-2.4,4.28,6.21,6.21,0,0,1-4.81.83,5.79,5.79,0,0,1-3.49-1.78,4.72,4.72,0,0,1-1.11-3.49l3.57.62a2,2,0,0,0,.51,1.18,1.92,1.92,0,0,0,1.12.57,1.88,1.88,0,0,0,1.84-.57,4.82,4.82,0,0,0,1-2.49,4,4,0,0,0-.15-2.47,2,2,0,0,0-1.58-1.09,2.55,2.55,0,0,0-1.47.14,1.61,1.61,0,0,0-.89.92l1.69.29-.43,2.51-5.15-.9,1.12-6.41Z"/><path class="cls-2" d="M237.38,532.21l-2.88,11.53L229,542.36a6.88,6.88,0,0,1-3.51-1.7,3,3,0,0,1-.47-2.82,3.29,3.29,0,0,1,.89-1.64,3.11,3.11,0,0,1,1.68-.75,2.27,2.27,0,0,1-1.2-1.16,3.22,3.22,0,0,1,0-1.87l.34-1.62v0c.1-.47,0-.73-.15-.81l.11-.43,3.73.94c0,.29,0,.54,0,.76a2.36,2.36,0,0,1-.07.49l-.28,1.15a1.82,1.82,0,0,0,0,1.35,1.73,1.73,0,0,0,1.13.67l1.57.39,1-4Zm-5.3,5.66-1.68-.42a2.2,2.2,0,0,0-1.28-.06,1,1,0,0,0-.55.74,1,1,0,0,0,.13.94,2.63,2.63,0,0,0,1.25.57l1.59.39Z"/><path class="cls-2" d="M221.71,528.12l-7.66,10-3.68-1.19-.29-12.6,3.6,1.17-.07,1.63,3.6,1.18.93-1.36Zm-5.93,2.34-2.28-.74-.15,4.28Z"/><path class="cls-2" d="M204.58,522.28l-4.46,11-4.53-1.84a13,13,0,0,1-2.31-1.14,4.23,4.23,0,0,1-1.24-1.16,3.5,3.5,0,0,1-.62-1.74,4.32,4.32,0,0,1,.35-2,3.92,3.92,0,0,1,2.24-2.39,5,5,0,0,1,3.55.29l2.12.86,1.37-3.37Zm-6,4.63-1.14-.46a3.23,3.23,0,0,0-1.58-.35,1,1,0,0,0-.73.72,1.09,1.09,0,0,0,0,1,3.21,3.21,0,0,0,1.4.86l1.14.46Z"/><path class="cls-2" d="M189,515.7l-5.24,10.67-3.43-1.68,1.78-3.62-3.19-1.58-1.78,3.63-3.43-1.69,5.25-10.67,3.42,1.69-2,4.13,3.19,1.57,2-4.13Z"/><path class="cls-2" d="M172.69,507.34l-5.89,10.33-3.38-1.93,5.89-10.33Z"/><path class="cls-2" d="M154.2,501.45l-3-2a5.06,5.06,0,0,1,3.37-2.15,6.91,6.91,0,0,1,7,5,7.27,7.27,0,0,1-5,7.7,5.89,5.89,0,0,1-4.62-1,6.12,6.12,0,0,1-2.72-3.26,4.93,4.93,0,0,1,.55-3.9l3.06,2a1.82,1.82,0,0,0,.69,2.64,1.89,1.89,0,0,0,1.86.23,4.36,4.36,0,0,0,1.82-1.77,4.09,4.09,0,0,0,.83-2.38,2,2,0,0,0-1-1.65,1.92,1.92,0,0,0-1.46-.34A2.24,2.24,0,0,0,154.2,501.45Z"/><path class="cls-2" d="M68.33,393.12l-10.9,4.74-1.56-3.57,10.91-4.74Z"/><path class="cls-2" d="M64.06,383,52.92,387.1l-1.33-3.58,8.19-3L58,375.61l3-1.09Z"/><path class="cls-2" d="M58.93,368.5l-11.38,3.42-1.1-3.65,8.36-2.52-1.5-5,3-.91Z"/><path class="cls-2" d="M43.18,356.71,42.33,353l7.14-1.63a2,2,0,0,0,1.32-.74,2.48,2.48,0,0,0-.62-2.73,2,2,0,0,0-1.51-.08l-7.14,1.64-.86-3.73L48.1,344a4.17,4.17,0,0,1,3.65.65,8,8,0,0,1,1.86,8.17,4.12,4.12,0,0,1-3,2.17Z"/><path class="cls-2" d="M47.4,337.33l-.57-3.67a1.46,1.46,0,0,0,.83-.69,2.07,2.07,0,0,0,.09-1.23,1.91,1.91,0,0,0-.39-1,.7.7,0,0,0-.68-.28c-.43.07-.69.65-.79,1.75,0,.22,0,.39,0,.5-.09.91-.19,1.63-.29,2.17a5.89,5.89,0,0,1-.34,1.2,3.31,3.31,0,0,1-1,1.2,3.57,3.57,0,0,1-1.5.58,3.29,3.29,0,0,1-2.94-.89,7.19,7.19,0,0,1-1.16-7.18,3.63,3.63,0,0,1,2.5-1.89l.56,3.58a1.13,1.13,0,0,0-.71.58,1.87,1.87,0,0,0-.09,1.09,1.69,1.69,0,0,0,.34.87.66.66,0,0,0,.65.2c.39-.06.64-.62.74-1.7,0-.09,0-.16,0-.21s0-.39.06-.7a10.16,10.16,0,0,1,.53-2.83,3.3,3.3,0,0,1,1-1.32,3.37,3.37,0,0,1,1.51-.61,3.59,3.59,0,0,1,3.2.9,6.33,6.33,0,0,1,1.65,3.73,6,6,0,0,1-.47,3.87A4,4,0,0,1,47.4,337.33Z"/><path class="cls-2" d="M48.45,317.31l-8.72.77.3,3.41-3.12.28L36,311.15l3.12-.28.3,3.41,8.72-.77Z"/><path class="cls-2" d="M47.49,304.1l-11.89.25-.11-5.69a6.92,6.92,0,0,1,.71-3.83,3,3,0,0,1,2.6-1.2,3.3,3.3,0,0,1,1.82.43,3.16,3.16,0,0,1,1.17,1.42,2.3,2.3,0,0,1,.8-1.46,3.18,3.18,0,0,1,1.8-.52l1.65-.1h0c.47,0,.72-.14.74-.35h.44l.08,3.85-.74.17a3,3,0,0,1-.5.06l-1.18,0a1.8,1.8,0,0,0-1.29.39,1.7,1.7,0,0,0-.35,1.26l0,1.63,4.1-.09Zm-6.86-3.63,0-1.73a2.4,2.4,0,0,0-.27-1.26,1,1,0,0,0-.87-.33,1,1,0,0,0-.87.37,2.6,2.6,0,0,0-.22,1.36l0,1.64Z"/><path class="cls-2" d="M47.32,287.89l-11.67-4.75.19-3.86,12.08-3.6-.19,3.78-1.59.37L46,283.61l1.55.54Zm-3.82-5.1.12-2.39-4.17,1Z"/><path class="cls-2" d="M48.68,267.93l-8.7-1-.38,3.4L36.48,270l1.21-10.59,3.11.35-.39,3.4,8.7,1Z"/><path class="cls-2" d="M50.45,254.7l-11.72-2,.64-3.83,11.73,2Z"/><path class="cls-2" d="M46.49,243a6.23,6.23,0,0,1-4.09-2.65,6.91,6.91,0,0,1,2-8.81,6.24,6.24,0,0,1,4.84-.57,6.27,6.27,0,0,1,4.09,2.64,6.92,6.92,0,0,1-2,8.81A6.3,6.3,0,0,1,46.49,243Zm.87-3.75a4.41,4.41,0,0,0,2.54,0,2,2,0,0,0,1.17-1.55,2,2,0,0,0-.37-1.88,4.33,4.33,0,0,0-2.29-1.1,4.28,4.28,0,0,0-2.55,0,2,2,0,0,0-1.17,1.52,2,2,0,0,0,.38,1.9A4.29,4.29,0,0,0,47.36,239.28Z"/><path class="cls-2" d="M56.78,226.07l-11.34-3.55,1.08-3.46,6.27-1.53a3.66,3.66,0,0,1,.73-.11c.3,0,.67,0,1.09,0a6.7,6.7,0,0,1-.68-.13c-.25-.06-.54-.15-.89-.26l-5.35-1.67,1.08-3.47,11.35,3.54L59,218.86,52.8,220.4a4.52,4.52,0,0,1-.75.12l-1.08,0a5.19,5.19,0,0,1,.65.11c.22.06.53.14.93.27l5.31,1.66Z"/><path class="cls-2" d="M97,145.94l-9.3-7.41,2.87-3.61A16.19,16.19,0,0,1,92.35,133a4.84,4.84,0,0,1,1.34-.85,4.65,4.65,0,0,1,2.76-.18,7.51,7.51,0,0,1,2.92,1.53,6.78,6.78,0,0,1,2.17,2.72,4.74,4.74,0,0,1,.19,3.05,5.31,5.31,0,0,1-.61,1.38,25.6,25.6,0,0,1-1.66,2.26Zm0-4.87.64-.8a2.49,2.49,0,0,0,.73-1.94A3.49,3.49,0,0,0,97,136.47a3.6,3.6,0,0,0-2.13-1,2.39,2.39,0,0,0-1.72,1.09l-.67.84Z"/><path class="cls-2" d="M108.28,132.23l-8.77-8,6.42-7,2.1,1.92-3.84,4.19,1.17,1.07,3.24-3.54,2,1.84-3.24,3.54,1.36,1.25,4-4.37,2.13,2Z"/><path class="cls-2" d="M116.49,118.07l2.68-2.57a1.53,1.53,0,0,0,1,.29,2.09,2.09,0,0,0,1.06-.63,2,2,0,0,0,.6-.89.71.71,0,0,0-.16-.73c-.29-.31-.92-.19-1.88.36l-.44.25c-.79.44-1.44.78-1.94,1a6,6,0,0,1-1.18.41,3.24,3.24,0,0,1-1.56-.14,3.42,3.42,0,0,1-1.33-.9,3.31,3.31,0,0,1-1-2.92,7.15,7.15,0,0,1,5.23-5.06,3.68,3.68,0,0,1,3,1L118,110a1.12,1.12,0,0,0-.87-.24,1.92,1.92,0,0,0-1,.55,1.62,1.62,0,0,0-.51.78.67.67,0,0,0,.2.65c.27.28.88.16,1.81-.37l.2-.11.61-.35a10.32,10.32,0,0,1,2.62-1.19,3.39,3.39,0,0,1,1.66.07,3.21,3.21,0,0,1,1.35.89,3.57,3.57,0,0,1,1.1,3.14,6.35,6.35,0,0,1-2.12,3.49,6,6,0,0,1-3.44,1.83A4,4,0,0,1,116.49,118.07Z"/><path class="cls-2" d="M131.66,109.06l-7.72-9,3-2.53,7.73,9Z"/><path class="cls-2" d="M147.16,96.65l-.77-.71a4.18,4.18,0,0,1-.62,1.76,6.2,6.2,0,0,1-1.5,1.54,5,5,0,0,1-4.21,1.09,6.69,6.69,0,0,1-3.94-2.77,5.71,5.71,0,0,1,1.19-8.76A5.82,5.82,0,0,1,141,87.46,4.82,4.82,0,0,1,144.31,89l-2.89,2.18a2.06,2.06,0,0,0-1.22-.43,2.13,2.13,0,0,0-2,2.17,4.82,4.82,0,0,0,1.13,2.43A4,4,0,0,0,141.22,97a2,2,0,0,0,1.87-.41,2.46,2.46,0,0,0,.9-1.18,1.56,1.56,0,0,0-.06-1.27l-1.37,1-1.53-2L145.19,90l3.93,5.19Z"/><path class="cls-2" d="M154.79,91.21l-6.44-10,3-2,5.8,2.85a3.84,3.84,0,0,1,.63.37c.25.18.54.4.87.67a6.78,6.78,0,0,1-.44-.54c-.15-.2-.32-.46-.52-.76l-3-4.72,3.06-2,6.43,10-3.05,2-5.78-2.81a4.78,4.78,0,0,1-.65-.39c-.27-.19-.55-.41-.86-.66.14.15.28.33.42.51s.32.45.54.8l3,4.68Z"/><path class="cls-2" d="M220.52,59.91l-3.32,1-3.31-11.42,4.47-1.3,3.23,5.25.28.49.59,1.07c0-.41-.07-.76-.09-1.06a6.2,6.2,0,0,1,0-.7l0-6.19,4.46-1.29,3.3,11.42-3.31,1-1.6-5.63c-.1-.34-.19-.67-.28-1s-.19-.66-.28-1c0,.62.08,1.31.11,2.06v.1l.21,6-2.56.74-3-5c-.14-.23-.29-.49-.45-.79l-.64-1.23c.16.48.29.9.4,1.25s.2.63.26.84Z"/><path class="cls-2" d="M235.15,49.8a6.27,6.27,0,0,1,.7-4.82,6.92,6.92,0,0,1,8.86-1.82,6.28,6.28,0,0,1,2.54,4.16,6.27,6.27,0,0,1-.7,4.82,6,6,0,0,1-4.08,2.56A6.11,6.11,0,0,1,237.7,54,6.25,6.25,0,0,1,235.15,49.8Zm3.78-.77a4.22,4.22,0,0,0,1,2.31,2,2,0,0,0,1.89.42,2,2,0,0,0,1.55-1.12,4.31,4.31,0,0,0,.05-2.54,4.44,4.44,0,0,0-1-2.33,2.36,2.36,0,0,0-3.45.71A4.26,4.26,0,0,0,238.93,49Z"/><path class="cls-2" d="M257.36,51.77l-1.16-8.68-3.39.46-.41-3.11L263,39l.42,3.1-3.39.46,1.16,8.67Z"/><path class="cls-2" d="M270.62,50.26l-.93-11.85,3.88-.31L274.5,50Z"/><path class="cls-2" d="M281,43.58A6.25,6.25,0,0,1,282.57,39a6.92,6.92,0,0,1,9-.17,6.21,6.21,0,0,1,1.74,4.56A6.24,6.24,0,0,1,291.77,48a6.91,6.91,0,0,1-9,.16A6.18,6.18,0,0,1,281,43.58Zm3.85-.08a4.27,4.27,0,0,0,.61,2.47,2.36,2.36,0,0,0,3.52-.06,4.37,4.37,0,0,0,.51-2.49,4.37,4.37,0,0,0-.61-2.48,2,2,0,0,0-1.76-.75,2,2,0,0,0-1.76.82A4.29,4.29,0,0,0,284.85,43.5Z"/><path class="cls-2" d="M299.94,49.42l.67-11.87,3.62.2,3,5.71a3.6,3.6,0,0,1,.28.68c.1.29.21.64.31,1,0-.21,0-.44,0-.7s0-.56,0-.92l.31-5.6,3.63.2-.66,11.88-3.63-.21-3-5.66a4.42,4.42,0,0,1-.29-.71c-.11-.3-.21-.64-.31-1,0,.21,0,.43,0,.66a8.78,8.78,0,0,1,0,1l-.31,5.56Z"/><path class="cls-2" d="M337,53.52v-1a4.17,4.17,0,0,1-1.71.74,6.26,6.26,0,0,1-2.15,0,5.1,5.1,0,0,1-3.68-2.33,6.77,6.77,0,0,1-.66-4.78,6.24,6.24,0,0,1,2.41-4.27A6.18,6.18,0,0,1,336,41a5.77,5.77,0,0,1,3.5,1.78,4.79,4.79,0,0,1,1.11,3.49l-3.57-.62a2.09,2.09,0,0,0-.51-1.19,2,2,0,0,0-1.13-.57,1.9,1.9,0,0,0-1.84.58,4.91,4.91,0,0,0-1,2.48,4.24,4.24,0,0,0,.15,2.48,2,2,0,0,0,1.59,1.09,2.55,2.55,0,0,0,1.47-.15,1.65,1.65,0,0,0,.89-.91l-1.7-.3.44-2.5,5.14.89-1.11,6.42Z"/><path class="cls-2" d="M346.21,55.39l2.89-11.53,5.51,1.38a6.88,6.88,0,0,1,3.51,1.69,3,3,0,0,1,.47,2.83,3.21,3.21,0,0,1-.89,1.64,3.11,3.11,0,0,1-1.68.75,2.35,2.35,0,0,1,1.21,1.15,3.26,3.26,0,0,1,0,1.88l-.34,1.62v0c-.1.46-.05.73.15.8l-.11.43-3.74-.93c0-.29,0-.55,0-.76a3.5,3.5,0,0,1,.07-.5l.29-1.15a1.84,1.84,0,0,0,0-1.34,1.69,1.69,0,0,0-1.13-.67l-1.58-.39-1,4Zm5.3-5.66,1.69.42a2.29,2.29,0,0,0,1.28.06,1.27,1.27,0,0,0,.42-1.68,2.58,2.58,0,0,0-1.26-.57l-1.59-.4Z"/><path class="cls-2" d="M361.89,59.48l7.66-10,3.67,1.2.3,12.6-3.6-1.17.06-1.64-3.6-1.17-.92,1.36Zm5.93-2.35,2.28.75.14-4.28Z"/><path class="cls-2" d="M379,65.32l4.46-11L388,56.13a13.66,13.66,0,0,1,2.31,1.15,4.36,4.36,0,0,1,1.24,1.16,3.6,3.6,0,0,1,.62,1.73,4.52,4.52,0,0,1-.36,2,3.92,3.92,0,0,1-2.24,2.39,4.91,4.91,0,0,1-3.55-.3l-2.12-.85-1.36,3.37Zm6-4.64,1.13.46a3.3,3.3,0,0,0,1.58.36,1.34,1.34,0,0,0,.73-1.75,3.15,3.15,0,0,0-1.4-.86l-1.13-.46Z"/><path class="cls-2" d="M394.63,71.89l5.25-10.67,3.43,1.69-1.79,3.62,3.2,1.57,1.78-3.62,3.43,1.69-5.25,10.66-3.43-1.68,2-4.14-3.2-1.57-2,4.14Z"/><path class="cls-2" d="M410.91,80.26l5.88-10.33,3.38,1.92-5.88,10.33Z"/><path class="cls-2" d="M429.4,86.14l3,2a5.07,5.07,0,0,1-3.38,2.15A5.94,5.94,0,0,1,425,89.15a6,6,0,0,1-2.86-3.86,7.25,7.25,0,0,1,5-7.69,5.83,5.83,0,0,1,4.62,1,6.14,6.14,0,0,1,2.73,3.26,4.94,4.94,0,0,1-.55,3.89l-3.07-2a1.8,1.8,0,0,0-.69-2.64,1.87,1.87,0,0,0-1.85-.23,4.39,4.39,0,0,0-1.82,1.76,4.21,4.21,0,0,0-.84,2.39,2,2,0,0,0,1,1.65,2,2,0,0,0,1.46.34A2.28,2.28,0,0,0,429.4,86.14Z"/><circle class="cls-3" cx="291.8" cy="291.8" r="133.34"/><circle class="cls-4" cx="167.24" cy="335.76" r="8.8"/><circle class="cls-4" cx="203.58" cy="99.12" r="8.8"/><circle class="cls-2" cx="154.43" cy="402.82" r="5.59"/><circle class="cls-2" cx="274.14" cy="120.79" r="4.47"/><circle class="cls-2" cx="383.54" cy="145.11" r="4.47"/><circle class="cls-2" cx="254.37" cy="464.8" r="5.59"/><path class="cls-5" d="M118.55,318.84s-13.1-59.63,20.33-109.33"/><path class="cls-5" d="M465.05,304.08s3.79,111.67-114.46,155.13"/><path class="cls-5" d="M442.46,94.93s53.11,32.56,72,85.67"/><path class="cls-5" d="M527.06,381.65s-8.58,34.63-30.57,57.64"/><path class="cls-5" d="M69,408.41S98.47,472.07,138.88,495"/></svg>