<svg id="圖層_1" data-name="圖層 1" xmlns="http://www.w3.org/2000/svg" viewBox="0 0 128.15 253.03"><defs><style>.cls-1,.cls-3,.cls-5,.cls-6{fill:#fff;}.cls-2,.cls-4{fill:#251e1c;}.cls-3,.cls-5,.cls-6{stroke:#251e1c;stroke-linecap:round;}.cls-3,.cls-5{stroke-linejoin:bevel;}.cls-3{stroke-width:5px;}.cls-4{font-size:16.53px;font-family:Swiss721BT-Black, Swis721 Blk BT;font-weight:800;}.cls-5{stroke-width:2.74px;}.cls-6{stroke-linejoin:round;stroke-width:2.74px;}</style></defs><path class="cls-1" d="M74.09,161.57l-2.5-2.5V147.74a34.15,34.15,0,0,1,34.11-34.11,11.82,11.82,0,0,1,11.81,11.81v18.09a18.06,18.06,0,0,1-18,18Z"/><path class="cls-2" d="M105.7,116.13a9.31,9.31,0,0,1,9.31,9.31v18.09a15.54,15.54,0,0,1-15.54,15.54H74.09V147.74a31.61,31.61,0,0,1,31.61-31.61m0-5a36.66,36.66,0,0,0-36.61,36.61v11.33l5,5H99.47A20.56,20.56,0,0,0,120,143.53V125.44a14.33,14.33,0,0,0-14.31-14.31Z"/><line class="cls-3" x1="105.56" y1="126.52" x2="96.92" y2="137.6"/><path class="cls-1" d="M28.67,161.57a18.07,18.07,0,0,1-18.05-18V125.44a11.83,11.83,0,0,1,11.81-11.81,34.15,34.15,0,0,1,34.11,34.11v11.33l-2.5,2.5Z"/><path class="cls-2" d="M22.43,116.13a31.62,31.62,0,0,1,31.62,31.61v11.33H28.67a15.55,15.55,0,0,1-15.55-15.54V125.44a9.31,9.31,0,0,1,9.31-9.31h0m0-5A14.33,14.33,0,0,0,8.12,125.44v18.09a20.57,20.57,0,0,0,20.55,20.54H54.05l5-5V147.74a36.66,36.66,0,0,0-36.62-36.61Z"/><text class="cls-4" transform="translate(106.96 -390.68) rotate(66.52)">I</text><text class="cls-4" transform="translate(111.31 -380.48) rotate(69.64)">L</text><text class="cls-4" transform="translate(116.51 -366.02) rotate(73.25)">L</text><text class="cls-4" transform="translate(120.75 -351.59) rotate(77.12)">U</text><text class="cls-4" transform="translate(124.62 -333.79) rotate(81.17)">S</text><text class="cls-4" transform="translate(126.99 -317.39) rotate(84.94)">T</text><text class="cls-4" transform="matrix(0.02, 1, -1, 0.02, 128.25, -301.69)">R</text><text class="cls-4" transform="translate(128.44 -284.32) rotate(92.8)">A</text><text class="cls-4" transform="translate(127.49 -268) rotate(96.47)">T</text><text class="cls-4" transform="translate(125.51 -252.34) rotate(99.61)">I</text><text class="cls-4" transform="matrix(-0.23, 0.97, -0.97, -0.23, 123.63, -241.41)">O</text><text class="cls-4" transform="matrix(-0.3, 0.95, -0.95, -0.3, 119.31, -223.61)">N</text><text class="cls-4" transform="translate(113.62 -206.26) rotate(110.71)"> </text><text class="cls-4" transform="translate(109.89 -196.69) rotate(113.13)"> </text><text class="cls-4" transform="matrix(-0.43, 0.9, -0.9, -0.43, 105.76, -187.28)"> </text><text class="cls-4" transform="translate(101.24 -178.06) rotate(117.99)"> </text><text class="cls-4" transform="translate(96.32 -169.02) rotate(120.41)"> </text><text class="cls-4" transform="translate(91.04 -160.22) rotate(122.84)"> </text><text class="cls-4" transform="matrix(-0.58, 0.82, -0.82, -0.58, 85.37, -151.63)"> </text><text class="cls-4" transform="matrix(-0.62, 0.78, -0.78, -0.62, 79.43, -143.28)">D</text><text class="cls-4" transform="translate(68.24 -129.53) rotate(132.47)">E</text><text class="cls-4" transform="matrix(-0.72, 0.69, -0.69, -0.72, 57.12, -117.61)">S</text><text class="cls-4" transform="matrix(-0.76, 0.65, -0.65, -0.76, 45, -106.3)">I</text><text class="cls-4" transform="translate(36.56 -99.13) rotate(142.91)">G</text><text class="cls-4" transform="translate(21.92 -88.29) rotate(147.2)">N</text><text class="cls-4" transform="translate(6.44 -78.62) rotate(150.56)"> </text><text class="cls-4" transform="matrix(-0.89, 0.45, -0.45, -0.89, -2.57, -73.65)"> </text><text class="cls-4" transform="translate(-11.77 -69.08) rotate(155.42)"> </text><text class="cls-4" transform="matrix(-0.93, 0.38, -0.38, -0.93, -21.15, -64.9)"> </text><text class="cls-4" transform="translate(-30.72 -61.11) rotate(160.27)"> </text><text class="cls-4" transform="translate(-40.36 -57.65) rotate(163.87)">M</text><text class="cls-4" transform="translate(-59.98 -52.21) rotate(168.39)">O</text><text class="cls-4" transform="translate(-78.01 -48.72) rotate(172.38)">T</text><text class="cls-4" transform="translate(-93.68 -46.82) rotate(175.51)">I</text><text class="cls-4" transform="translate(-104.73 -45.99) rotate(178.94)">O</text><text class="cls-4" transform="translate(-123.06 -45.83) rotate(-176.8)">N</text><text class="cls-4" transform="translate(-141.27 -47.1) rotate(-173.48)"> </text><text class="cls-4" transform="matrix(-0.99, -0.17, 0.17, -0.99, -151.43, -48.28)">G</text><text class="cls-4" transform="matrix(-0.97, -0.24, 0.24, -0.97, -169.36, -51.59)">R</text><text class="cls-4" transform="translate(-186.17 -55.96) rotate(-161.95)">A</text><text class="cls-4" transform="translate(-202.21 -61.37) rotate(-157.96)">P</text><text class="cls-4" transform="matrix(-0.9, -0.44, 0.44, -0.9, -217.86, -67.87)">H</text><text class="cls-4" transform="matrix(-0.87, -0.49, 0.49, -0.87, -234.12, -76.14)">I</text><text class="cls-4" transform="translate(-243.72 -81.66) rotate(-146.95)">C</text><path class="cls-1" d="M13.12,248.79l-2.5-2.5V182.57a53.46,53.46,0,0,1,106.91,0v63.72l-2.5,2.5Z"/><path class="cls-2" d="M64.08,131.62a51,51,0,0,1,51,50.95v63.72H13.12V182.57a51,51,0,0,1,51-50.95h0m0-5a56,56,0,0,0-56,55.95v63.72l5,5H115l5-5V182.57a56,56,0,0,0-55.95-55.95Z"/><path class="cls-5" d="M72.17,186.71a9.33,9.33,0,1,1-18.65,0"/><rect class="cls-6" x="40.42" y="159.07" width="21.15" height="30.88" rx="10.57"/><path class="cls-2" d="M47.15,180.58a9.19,9.19,0,0,1-6.73-3.14v-7.79A10.58,10.58,0,0,1,51,159.07h0a10.58,10.58,0,0,1,4.25.9,14.74,14.74,0,0,1,2.18,7.84C57.43,174.86,52.83,180.58,47.15,180.58Z"/><rect class="cls-6" x="66.08" y="159.07" width="21.15" height="30.88" rx="10.57"/><path class="cls-2" d="M72.81,180.58a9.16,9.16,0,0,1-6.73-3.14v-7.79a10.58,10.58,0,0,1,10.57-10.58h0a10.62,10.62,0,0,1,4.26.9,14.83,14.83,0,0,1,2.17,7.84C83.08,174.86,78.48,180.58,72.81,180.58Z"/><path class="cls-2" d="M71,27.2l3.94-5.07A6.78,6.78,0,0,1,87,26.55L86.8,33A6.78,6.78,0,0,0,95,39.84l6.27-1.35a6.79,6.79,0,0,1,6.46,11.18l-4.31,4.76A6.78,6.78,0,0,0,105.28,65L111,68a6.79,6.79,0,0,1-2.25,12.72l-6.35.87A6.78,6.78,0,0,0,97,90.83l2.41,6a6.78,6.78,0,0,1-9.89,8.3l-5.43-3.42A6.79,6.79,0,0,0,74,105.32l-2,6.11a6.78,6.78,0,0,1-12.91,0l-2-6.11a6.78,6.78,0,0,0-10-3.66l-5.44,3.42a6.78,6.78,0,0,1-9.89-8.3l2.42-6a6.78,6.78,0,0,0-5.35-9.27l-6.36-.87A6.79,6.79,0,0,1,20.28,68L26,65a6.77,6.77,0,0,0,1.86-10.54l-4.3-4.76A6.78,6.78,0,0,1,30,38.49l6.27,1.35A6.77,6.77,0,0,0,44.43,33l-.23-6.41a6.78,6.78,0,0,1,12.13-4.42l3.94,5.07A6.78,6.78,0,0,0,71,27.2Z"/><path class="cls-1" d="M61.84,73.19h-4.5v2H54.05V57.92h7.79Zm-4.5-11.77v8.25h1.23V61.42Zm6.85.57H62.27V58.64h1.92V56.07h3.45v2.57H69V62h-1.4v2.73H64.19Zm-1.42,3.7H76.34V79.41H72.82v-.82h-6.7v1H62.77Zm3.35,3.18v1.72h1.65V68.87Zm1.65,6.54V73.64H66.12v1.77Zm9.42-16.72V62H74.56v2.7H71.09V62H69.74V58.69h1.35V56.07h3.47v2.62ZM72.82,68.87H71.09v1.72h1.73Zm0,6.54V73.64H71.09v1.77Z"/><line class="cls-3" x1="22.58" y1="126.52" x2="31.21" y2="137.6"/></svg>