<svg id="圖層_1" data-name="圖層 1" xmlns="http://www.w3.org/2000/svg" viewBox="0 0 128.15 227.05"><defs><style>.cls-1,.cls-3,.cls-4{fill:#fff;}.cls-2{fill:#251e1c;}.cls-3,.cls-4{stroke:#251e1c;stroke-linecap:round;}.cls-3{stroke-linejoin:bevel;stroke-width:2.74px;}.cls-4{stroke-linejoin:round;stroke-width:2.74px;}</style></defs><path class="cls-1" d="M13.12,229.55l-2.5-2.5V57.69a53.46,53.46,0,0,1,106.91,0V227.05l-2.5,2.5Z"/><path class="cls-2" d="M64.08,6.74a51,51,0,0,1,51,50.95V227.05H13.12V57.69a51,51,0,0,1,51-50.95h0m0-5a56,56,0,0,0-56,56V227.05l5,5H115l5-5V57.69A56,56,0,0,0,64.08,1.74Z"/><path class="cls-3" d="M72.17,61.83a9.33,9.33,0,1,1-18.65,0"/><rect class="cls-4" x="40.42" y="34.19" width="21.15" height="30.88" rx="10.57"/><path class="cls-2" d="M47.15,55.7a9.22,9.22,0,0,1-6.73-3.13v-7.8A10.58,10.58,0,0,1,51,34.19h0a10.58,10.58,0,0,1,4.25.9,14.77,14.77,0,0,1,2.18,7.84C57.43,50,52.83,55.7,47.15,55.7Z"/><rect class="cls-4" x="66.08" y="34.19" width="21.15" height="30.88" rx="10.57"/><path class="cls-2" d="M72.81,55.7a9.19,9.19,0,0,1-6.73-3.13v-7.8A10.58,10.58,0,0,1,76.65,34.19h0a10.62,10.62,0,0,1,4.26.9,14.85,14.85,0,0,1,2.17,7.84C83.08,50,78.48,55.7,72.81,55.7Z"/><path class="cls-2" d="M66,145.61a8.83,8.83,0,0,0,5.11,5.58,8.59,8.59,0,0,0-1.51,1.93,10,10,0,0,1-5.09-5.48,9.67,9.67,0,0,1-5,5.48,6.42,6.42,0,0,0-1.54-1.74,8.09,8.09,0,0,0,4.92-5.77H58.17V143.5h5c.1-1.24.09-2.47.1-3.63h2.24c0,1.16,0,2.39-.14,3.63h5.38v2.11Z"/><path class="cls-2" d="M65.51,160.16v1.23H69.8v1.93H59.14v-1.93h4.21v-1.23H58.2v-1.91h5.15v-1.58h2.16v1.58h5.18v1.91Zm-6,4.06h10V170H67.25v-.42H61.64V170H59.53Zm2.11,1.8v1.66h5.61V166Z"/><path class="cls-2" d="M66,179.21a8.83,8.83,0,0,0,5.11,5.58,8.59,8.59,0,0,0-1.51,1.93,10,10,0,0,1-5.09-5.48,9.67,9.67,0,0,1-5,5.48A6.42,6.42,0,0,0,57.89,185a8.09,8.09,0,0,0,4.92-5.77H58.17V177.1h5c.1-1.24.09-2.47.1-3.63h2.24c0,1.16,0,2.39-.14,3.63h5.38v2.11Z"/><path class="cls-2" d="M62.54,194.4h2.33v1.88H62.54v.54c.71.52,2,1.56,2.3,1.84l-1.15,1.76c-.3-.39-.72-.88-1.15-1.36v4.5H60.48v-4.34a11.62,11.62,0,0,1-1.79,2.7,13.19,13.19,0,0,0-1-2,13.25,13.25,0,0,0,2.45-3.62H58V194.4h2.49V193c-.71.14-1.43.25-2.1.35a6.17,6.17,0,0,0-.59-1.58,23.69,23.69,0,0,0,5.56-1.5l1.43,1.55a16.36,16.36,0,0,1-2.24.72Zm5,5.53h-2V192h2Zm3-9.4v10.62c0,1.14-.21,1.68-.86,2a7.27,7.27,0,0,1-3,.39,8.43,8.43,0,0,0-.7-2.11c.88,0,1.81,0,2.11,0s.38-.09.38-.35V190.53Z"/></svg>