<svg id="圖層_1" data-name="圖層 1" xmlns="http://www.w3.org/2000/svg" viewBox="0 0 128.15 227.05"><defs><style>.cls-1,.cls-3,.cls-4{fill:#fff;}.cls-2{fill:#251e1c;}.cls-3,.cls-4{stroke:#251e1c;stroke-linecap:round;}.cls-3{stroke-linejoin:bevel;stroke-width:2.74px;}.cls-4{stroke-linejoin:round;stroke-width:2.74px;}</style></defs><path class="cls-1" d="M13.12,229.55l-2.5-2.5V57.69a53.46,53.46,0,0,1,106.91,0V227.05l-2.5,2.5Z"/><path class="cls-2" d="M64.08,6.74a51,51,0,0,1,51,50.95V227.05H13.12V57.69a51,51,0,0,1,51-50.95h0m0-5a56,56,0,0,0-56,56V227.05l5,5H115l5-5V57.69A56,56,0,0,0,64.08,1.74Z"/><path class="cls-3" d="M72.17,61.83a9.33,9.33,0,1,1-18.65,0"/><rect class="cls-4" x="40.42" y="34.19" width="21.15" height="30.88" rx="10.57"/><path class="cls-2" d="M47.15,55.7a9.22,9.22,0,0,1-6.73-3.13v-7.8A10.58,10.58,0,0,1,51,34.19h0a10.58,10.58,0,0,1,4.25.9,14.77,14.77,0,0,1,2.18,7.84C57.43,50,52.83,55.7,47.15,55.7Z"/><rect class="cls-4" x="66.08" y="34.19" width="21.15" height="30.88" rx="10.57"/><path class="cls-2" d="M72.81,55.7a9.19,9.19,0,0,1-6.73-3.13v-7.8A10.58,10.58,0,0,1,76.65,34.19h0a10.62,10.62,0,0,1,4.26.9,14.85,14.85,0,0,1,2.17,7.84C83.08,50,78.48,55.7,72.81,55.7Z"/><path class="cls-2" d="M69.94,152.25a24.55,24.55,0,0,0-2.12-1.79v.87c0,.81-.11,1.27-.63,1.55a4,4,0,0,1-1.93.31,6,6,0,0,0-.52-1.7c-.34.27-.66.54-1,.77L62.85,151l0,.95c-1.65.34-3.4.66-4.77.91L57.74,151c.56-.05,1.24-.14,2-.25v-3.26H58v-1.71h1.75v-.75h-.88v-.61c-.21.21-.42.39-.63.57a10.25,10.25,0,0,0-.57-2,9.69,9.69,0,0,0,2.57-3.22l1.5.57a3.62,3.62,0,0,1-.19.4c.78.72,1.73,1.61,2.23,2.17l-1.14,1.31a5.31,5.31,0,0,0-.42-.5v1.34h-.84v.75H62.9v1.71H61.35v3l1.46-.21v.28c.81-.49,2-1.29,3.14-2.1v-1.86H64.53a14.8,14.8,0,0,1,1.36,1.56l-1.47,1a13.47,13.47,0,0,0-1.4-1.81l1.19-.75H63.1v-1.77h4.29l.08-.38h-4a45,45,0,0,0,1.17-4.68l1.88.2-.21.95h2l.31-.07,1.39.18c-.19,1.25-.45,2.61-.72,3.8H71v1.77H69.38l1.44.79c-.62.66-1.23,1.33-1.75,1.84.8.59,1.58,1.18,2.07,1.61Zm-10.79-4.54a19.8,19.8,0,0,1,.51,2.3l-1.36.39a19.13,19.13,0,0,0-.44-2.35Zm2.73-4.33c-.36-.39-.78-.82-1.19-1.23a13.35,13.35,0,0,1-.9,1.23Zm-.35,6.55a19.11,19.11,0,0,0,.41-2.26l1.26.29c-.24.79-.46,1.67-.66,2.23Zm4.43.57-1.19,1h1c.17,0,.21,0,.21-.18ZM67.78,143l.1-.5H66l-.12.5Zm0,3.66v1.73l.06,0a13.41,13.41,0,0,0,1.23-1.77Z"/><path class="cls-2" d="M70.8,158.66a19.34,19.34,0,0,1-1.87,7.48,7.48,7.48,0,0,0,2.35,2.1,7.82,7.82,0,0,0-1.4,1.68,9.25,9.25,0,0,1-2.2-1.93,9.52,9.52,0,0,1-2.27,2,8.25,8.25,0,0,0-1-1.4V170h-2v-2.07c-1.54.26-3.12.5-4.38.71l-.38-2,1.24-.14v-7.17H58v-1.88h7.2v1h3.93l.35-.06Zm-10,.63v1H62.4v-1Zm0,4H62.4v-1.11H60.82ZM62.4,166v-1H60.82v1.18Zm2,2.12a7.53,7.53,0,0,0,2.12-2,20.13,20.13,0,0,1-1.81-5.35l2-.38a16.83,16.83,0,0,0,1,3.51,17.1,17.1,0,0,0,.94-3.54H64.77v-1.09h-.41Z"/><path class="cls-2" d="M62.54,174.13a22.43,22.43,0,0,1-1.36,3v9.66H59.25v-6.71c-.2.25-.41.49-.6.7a14.24,14.24,0,0,0-1.07-2.14,14.2,14.2,0,0,0,3-5.09ZM70.82,185c0,.83-.15,1.28-.73,1.54a5.57,5.57,0,0,1-2.25.27,6.25,6.25,0,0,0-.54-1.65c.51,0,1.21,0,1.38,0s.26,0,.26-.21v-.28l-.77.28c0-.14-.07-.29-.11-.46-1.35.23-2.72.45-3.82.62l-.37-1.68c.48,0,1-.11,1.65-.18v-1.32H63.86v4.84H62v-4.84h-.26v-1.65H62v-.51h1.91v.51h1.66v-.66H62.64V174h7.69v5.58h-3v.66h3.53Zm-6.3-8.85h1v-.59h-1Zm1,2v-.6h-1v.6Zm2.83-2.58H67.29v.59h1.06Zm0,2H67.29v.6h1.06Zm.12,4.59c.15.42.32.9.47,1.36v-1.54H67.29v1.12l.34,0c-.07-.21-.13-.41-.2-.59Z"/><path class="cls-2" d="M62.79,198l-1.5.38v3.05c0,.9-.14,1.39-.63,1.7a3.91,3.91,0,0,1-2.07.38,7.53,7.53,0,0,0-.53-1.87,9.32,9.32,0,0,0,1,0c.16,0,.22-.06.22-.23v-2.56l-1.18.29-.46-1.94,1.64-.34v-2.24h-1.4V192.8h1.4v-2.53h2v2.53H62.5v1.88H61.29v1.78l1.26-.29Zm5.45,3.29c.74,0,.88-.33,1-1.85a6.49,6.49,0,0,0,2,.8c-.27,2.2-.91,3-2.77,3H65.75c-2.13,0-2.79-.6-2.79-3v-9.45h7.68V199H68.48v-.85H65.09v2.2c0,.9.08,1,.91,1Zm-3.15-8.44v3.32h.74v-3.32Zm3.39,0h-.76v3.32h.76Z"/></svg>